G04 EAGLE Gerber RS-274X export*
G75*
%MOMM*%
%FSLAX34Y34*%
%LPD*%
%INEAGLE Copper Layer 15*%
%IPPOS*%
%AMOC8*
5,1,8,0,0,1.08239X$1,22.5*%
G01*
%ADD10C,1.508000*%
%ADD11C,1.524000*%
%ADD12C,1.320800*%
%ADD13C,0.756400*%
%ADD14C,0.254000*%

G36*
X97081Y10542D02*
X97081Y10542D01*
X97082Y10542D01*
X97177Y10561D01*
X97276Y10581D01*
X97277Y10582D01*
X97278Y10582D01*
X97359Y10638D01*
X97442Y10694D01*
X97442Y10695D01*
X97443Y10696D01*
X97498Y10781D01*
X97551Y10862D01*
X97551Y10863D01*
X97552Y10864D01*
X97569Y10963D01*
X97586Y11059D01*
X97586Y11061D01*
X97586Y11062D01*
X97564Y11158D01*
X97543Y11255D01*
X97542Y11256D01*
X97542Y11257D01*
X97484Y11338D01*
X97427Y11418D01*
X97426Y11419D01*
X97425Y11420D01*
X97273Y11518D01*
X95725Y12159D01*
X93439Y14445D01*
X92201Y17433D01*
X92201Y20667D01*
X93439Y23655D01*
X95725Y25941D01*
X96606Y26306D01*
X97831Y26813D01*
X98713Y27179D01*
X101947Y27179D01*
X104935Y25941D01*
X107221Y23655D01*
X108459Y20667D01*
X108459Y17433D01*
X107221Y14445D01*
X104935Y12159D01*
X104609Y12024D01*
X103387Y11518D01*
X103386Y11517D01*
X103384Y11517D01*
X103301Y11460D01*
X103220Y11406D01*
X103219Y11405D01*
X103218Y11404D01*
X103166Y11323D01*
X103110Y11238D01*
X103110Y11237D01*
X103109Y11236D01*
X103092Y11139D01*
X103074Y11041D01*
X103074Y11040D01*
X103074Y11039D01*
X103096Y10940D01*
X103116Y10845D01*
X103117Y10844D01*
X103117Y10843D01*
X103176Y10761D01*
X103231Y10681D01*
X103232Y10681D01*
X103233Y10680D01*
X103318Y10627D01*
X103401Y10575D01*
X103402Y10574D01*
X103403Y10574D01*
X103581Y10542D01*
X491392Y10542D01*
X491395Y10542D01*
X491397Y10542D01*
X491492Y10562D01*
X491589Y10581D01*
X491591Y10583D01*
X491594Y10583D01*
X491674Y10639D01*
X491755Y10694D01*
X491756Y10696D01*
X491758Y10698D01*
X491811Y10781D01*
X491864Y10862D01*
X491864Y10865D01*
X491866Y10867D01*
X491882Y10963D01*
X491899Y11059D01*
X491899Y11062D01*
X491899Y11064D01*
X491877Y11158D01*
X491856Y11255D01*
X491854Y11257D01*
X491854Y11260D01*
X491751Y11408D01*
X453651Y49508D01*
X451865Y51293D01*
X451865Y57052D01*
X451864Y57060D01*
X451865Y57068D01*
X451844Y57158D01*
X451826Y57249D01*
X451821Y57255D01*
X451819Y57263D01*
X451717Y57411D01*
X409201Y99927D01*
X409194Y99931D01*
X409190Y99937D01*
X409111Y99986D01*
X409034Y100038D01*
X409026Y100039D01*
X409020Y100043D01*
X408842Y100075D01*
X399890Y100075D01*
X399882Y100074D01*
X399875Y100075D01*
X399785Y100054D01*
X399694Y100036D01*
X399687Y100031D01*
X399680Y100029D01*
X399532Y99927D01*
X397168Y97563D01*
X392772Y97563D01*
X389663Y100672D01*
X389663Y105068D01*
X392772Y108177D01*
X397168Y108177D01*
X399532Y105813D01*
X399538Y105809D01*
X399543Y105803D01*
X399621Y105754D01*
X399699Y105702D01*
X399706Y105701D01*
X399713Y105697D01*
X399890Y105665D01*
X411368Y105665D01*
X455669Y61363D01*
X457455Y59578D01*
X457455Y53819D01*
X457456Y53811D01*
X457455Y53803D01*
X457476Y53713D01*
X457494Y53622D01*
X457499Y53616D01*
X457501Y53608D01*
X457603Y53460D01*
X496309Y14754D01*
X496316Y14750D01*
X496320Y14744D01*
X496399Y14695D01*
X496476Y14643D01*
X496484Y14642D01*
X496490Y14638D01*
X496668Y14606D01*
X569243Y14606D01*
X569251Y14607D01*
X569259Y14606D01*
X569349Y14627D01*
X569440Y14645D01*
X569446Y14650D01*
X569454Y14652D01*
X569602Y14754D01*
X575865Y21017D01*
X575869Y21023D01*
X575874Y21026D01*
X575923Y21105D01*
X575976Y21184D01*
X575977Y21191D01*
X575981Y21196D01*
X575996Y21289D01*
X576013Y21381D01*
X576012Y21387D01*
X576013Y21394D01*
X575975Y21570D01*
X575135Y23597D01*
X575135Y27203D01*
X576515Y30535D01*
X579065Y33085D01*
X579845Y33408D01*
X581069Y33915D01*
X582294Y34422D01*
X582397Y34465D01*
X586003Y34465D01*
X588030Y33625D01*
X588036Y33624D01*
X588042Y33620D01*
X588135Y33605D01*
X588227Y33587D01*
X588233Y33588D01*
X588240Y33587D01*
X588331Y33608D01*
X588423Y33627D01*
X588428Y33631D01*
X588435Y33632D01*
X588583Y33735D01*
X606657Y51809D01*
X608442Y53595D01*
X632467Y53595D01*
X632468Y53595D01*
X632470Y53595D01*
X632565Y53614D01*
X632664Y53634D01*
X632665Y53635D01*
X632666Y53635D01*
X632746Y53691D01*
X632829Y53747D01*
X632830Y53748D01*
X632831Y53749D01*
X632886Y53834D01*
X632939Y53915D01*
X632939Y53916D01*
X632940Y53917D01*
X632957Y54016D01*
X632974Y54112D01*
X632974Y54114D01*
X632974Y54115D01*
X632952Y54211D01*
X632931Y54308D01*
X632930Y54309D01*
X632930Y54310D01*
X632872Y54391D01*
X632815Y54471D01*
X632813Y54472D01*
X632813Y54473D01*
X632661Y54571D01*
X629820Y55747D01*
X627247Y58320D01*
X625855Y61681D01*
X625855Y65319D01*
X627247Y68680D01*
X629820Y71253D01*
X630300Y71451D01*
X631524Y71959D01*
X631525Y71959D01*
X632749Y72466D01*
X633181Y72645D01*
X636819Y72645D01*
X640180Y71253D01*
X642753Y68680D01*
X644145Y65319D01*
X644145Y61681D01*
X642753Y58320D01*
X640180Y55747D01*
X639939Y55647D01*
X639938Y55647D01*
X638714Y55140D01*
X637489Y54633D01*
X637339Y54571D01*
X637338Y54570D01*
X637336Y54570D01*
X637254Y54513D01*
X637172Y54459D01*
X637172Y54458D01*
X637171Y54457D01*
X637118Y54376D01*
X637062Y54291D01*
X637062Y54290D01*
X637061Y54289D01*
X637044Y54192D01*
X637026Y54094D01*
X637026Y54093D01*
X637026Y54092D01*
X637048Y53993D01*
X637068Y53898D01*
X637069Y53897D01*
X637069Y53896D01*
X637127Y53815D01*
X637184Y53734D01*
X637185Y53734D01*
X637185Y53733D01*
X637270Y53680D01*
X637353Y53628D01*
X637355Y53627D01*
X637356Y53627D01*
X637533Y53595D01*
X657867Y53595D01*
X657868Y53595D01*
X657870Y53595D01*
X657965Y53614D01*
X658064Y53634D01*
X658065Y53635D01*
X658066Y53635D01*
X658146Y53691D01*
X658229Y53747D01*
X658230Y53748D01*
X658231Y53749D01*
X658286Y53834D01*
X658339Y53915D01*
X658339Y53916D01*
X658340Y53917D01*
X658357Y54016D01*
X658374Y54112D01*
X658374Y54114D01*
X658374Y54115D01*
X658352Y54211D01*
X658331Y54308D01*
X658330Y54309D01*
X658330Y54310D01*
X658272Y54391D01*
X658215Y54471D01*
X658213Y54472D01*
X658213Y54473D01*
X658061Y54571D01*
X655220Y55747D01*
X652647Y58320D01*
X651255Y61681D01*
X651255Y65319D01*
X652647Y68680D01*
X655220Y71253D01*
X655700Y71451D01*
X656924Y71959D01*
X656925Y71959D01*
X658149Y72466D01*
X658581Y72645D01*
X662219Y72645D01*
X665580Y71253D01*
X668153Y68680D01*
X669329Y65839D01*
X669330Y65838D01*
X669330Y65836D01*
X669387Y65754D01*
X669441Y65672D01*
X669442Y65672D01*
X669443Y65671D01*
X669524Y65618D01*
X669609Y65562D01*
X669610Y65562D01*
X669611Y65561D01*
X669708Y65544D01*
X669806Y65526D01*
X669807Y65526D01*
X669808Y65526D01*
X669907Y65548D01*
X670002Y65568D01*
X670003Y65569D01*
X670004Y65569D01*
X670085Y65627D01*
X670166Y65684D01*
X670166Y65685D01*
X670167Y65685D01*
X670220Y65770D01*
X670272Y65853D01*
X670273Y65855D01*
X670273Y65856D01*
X670305Y66033D01*
X670305Y83846D01*
X670289Y83927D01*
X670279Y84008D01*
X670269Y84024D01*
X670266Y84043D01*
X670220Y84111D01*
X670179Y84182D01*
X670164Y84193D01*
X670153Y84209D01*
X670084Y84253D01*
X670019Y84303D01*
X670001Y84308D01*
X669985Y84318D01*
X669904Y84333D01*
X669825Y84353D01*
X669806Y84350D01*
X669788Y84354D01*
X669707Y84336D01*
X669627Y84324D01*
X669611Y84314D01*
X669592Y84310D01*
X669525Y84263D01*
X669455Y84220D01*
X669443Y84204D01*
X669429Y84194D01*
X669399Y84146D01*
X669346Y84077D01*
X669090Y83575D01*
X668150Y82281D01*
X667019Y81150D01*
X665725Y80210D01*
X664300Y79484D01*
X662779Y78989D01*
X661415Y78773D01*
X661415Y88392D01*
X661414Y88397D01*
X661415Y88402D01*
X661394Y88495D01*
X661376Y88588D01*
X661373Y88593D01*
X661372Y88598D01*
X661316Y88676D01*
X661263Y88754D01*
X661259Y88757D01*
X661256Y88761D01*
X661174Y88812D01*
X661095Y88863D01*
X661090Y88864D01*
X661085Y88867D01*
X660908Y88899D01*
X660399Y88899D01*
X660399Y88901D01*
X660908Y88901D01*
X660913Y88902D01*
X660918Y88901D01*
X661011Y88922D01*
X661104Y88940D01*
X661109Y88943D01*
X661114Y88945D01*
X661192Y89000D01*
X661270Y89053D01*
X661273Y89058D01*
X661277Y89061D01*
X661328Y89142D01*
X661379Y89221D01*
X661380Y89226D01*
X661383Y89231D01*
X661415Y89408D01*
X661415Y99027D01*
X662779Y98811D01*
X664300Y98316D01*
X665725Y97590D01*
X667019Y96650D01*
X668150Y95519D01*
X669090Y94225D01*
X669346Y93723D01*
X669397Y93659D01*
X669443Y93591D01*
X669459Y93581D01*
X669471Y93566D01*
X669542Y93527D01*
X669611Y93482D01*
X669630Y93479D01*
X669646Y93470D01*
X669728Y93461D01*
X669808Y93446D01*
X669827Y93451D01*
X669846Y93449D01*
X669924Y93472D01*
X670004Y93490D01*
X670019Y93501D01*
X670037Y93506D01*
X670101Y93559D01*
X670167Y93606D01*
X670177Y93622D01*
X670192Y93634D01*
X670230Y93707D01*
X670273Y93776D01*
X670277Y93796D01*
X670285Y93812D01*
X670290Y93868D01*
X670305Y93954D01*
X670305Y111767D01*
X670305Y111768D01*
X670305Y111770D01*
X670286Y111865D01*
X670266Y111964D01*
X670265Y111965D01*
X670265Y111966D01*
X670209Y112046D01*
X670153Y112129D01*
X670152Y112130D01*
X670151Y112131D01*
X670066Y112186D01*
X669985Y112239D01*
X669984Y112239D01*
X669983Y112240D01*
X669884Y112257D01*
X669788Y112274D01*
X669786Y112274D01*
X669785Y112274D01*
X669689Y112252D01*
X669592Y112231D01*
X669591Y112230D01*
X669590Y112230D01*
X669509Y112172D01*
X669429Y112115D01*
X669428Y112113D01*
X669427Y112113D01*
X669329Y111961D01*
X668153Y109120D01*
X665580Y106547D01*
X665157Y106372D01*
X663933Y105865D01*
X662708Y105358D01*
X662219Y105155D01*
X658581Y105155D01*
X655220Y106547D01*
X652647Y109120D01*
X651255Y112481D01*
X651255Y116119D01*
X652114Y118191D01*
X652115Y118198D01*
X652118Y118203D01*
X652134Y118296D01*
X652152Y118388D01*
X652151Y118394D01*
X652152Y118401D01*
X652131Y118492D01*
X652112Y118584D01*
X652108Y118590D01*
X652106Y118596D01*
X652004Y118744D01*
X646691Y124057D01*
X646684Y124061D01*
X646680Y124067D01*
X646601Y124116D01*
X646524Y124168D01*
X646516Y124169D01*
X646510Y124173D01*
X646332Y124205D01*
X637533Y124205D01*
X637532Y124205D01*
X637530Y124205D01*
X637435Y124186D01*
X637336Y124166D01*
X637335Y124165D01*
X637334Y124165D01*
X637254Y124109D01*
X637171Y124053D01*
X637170Y124052D01*
X637169Y124051D01*
X637114Y123966D01*
X637061Y123885D01*
X637061Y123884D01*
X637060Y123883D01*
X637043Y123784D01*
X637026Y123688D01*
X637026Y123686D01*
X637026Y123685D01*
X637048Y123589D01*
X637069Y123492D01*
X637070Y123491D01*
X637070Y123490D01*
X637128Y123409D01*
X637185Y123329D01*
X637187Y123328D01*
X637187Y123327D01*
X637339Y123229D01*
X640180Y122053D01*
X642753Y119480D01*
X644145Y116119D01*
X644145Y112481D01*
X642753Y109120D01*
X640180Y106547D01*
X639757Y106372D01*
X638533Y105865D01*
X637308Y105358D01*
X636819Y105155D01*
X633181Y105155D01*
X629820Y106547D01*
X627247Y109120D01*
X626389Y111192D01*
X626386Y111198D01*
X626384Y111204D01*
X626329Y111281D01*
X626277Y111359D01*
X626272Y111362D01*
X626268Y111367D01*
X626188Y111417D01*
X626110Y111469D01*
X626103Y111470D01*
X626098Y111473D01*
X625921Y111505D01*
X600202Y111505D01*
X600197Y111504D01*
X600192Y111505D01*
X600099Y111484D01*
X600005Y111466D01*
X600001Y111463D01*
X599996Y111462D01*
X599918Y111406D01*
X599840Y111353D01*
X599837Y111349D01*
X599833Y111346D01*
X599782Y111264D01*
X599730Y111185D01*
X599730Y111180D01*
X599727Y111175D01*
X599695Y110998D01*
X599695Y62342D01*
X597909Y60557D01*
X567135Y29783D01*
X567131Y29777D01*
X567126Y29774D01*
X567076Y29694D01*
X567024Y29616D01*
X567023Y29609D01*
X567019Y29604D01*
X567004Y29511D01*
X566987Y29419D01*
X566988Y29413D01*
X566987Y29406D01*
X567025Y29230D01*
X567865Y27203D01*
X567865Y23597D01*
X566485Y20265D01*
X563935Y17715D01*
X563665Y17604D01*
X562441Y17096D01*
X562440Y17096D01*
X561216Y16589D01*
X560603Y16335D01*
X556997Y16335D01*
X553665Y17715D01*
X551115Y20265D01*
X549735Y23597D01*
X549735Y27203D01*
X551115Y30535D01*
X553665Y33085D01*
X554445Y33408D01*
X555669Y33915D01*
X556894Y34422D01*
X556997Y34465D01*
X560603Y34465D01*
X562630Y33625D01*
X562636Y33624D01*
X562642Y33620D01*
X562735Y33605D01*
X562827Y33587D01*
X562833Y33588D01*
X562840Y33587D01*
X562931Y33608D01*
X563023Y33627D01*
X563028Y33631D01*
X563035Y33632D01*
X563183Y33735D01*
X593957Y64509D01*
X593961Y64516D01*
X593967Y64520D01*
X594016Y64599D01*
X594068Y64676D01*
X594069Y64684D01*
X594073Y64690D01*
X594105Y64868D01*
X594105Y110998D01*
X594104Y111003D01*
X594105Y111008D01*
X594084Y111101D01*
X594066Y111195D01*
X594063Y111199D01*
X594062Y111204D01*
X594006Y111282D01*
X593953Y111360D01*
X593949Y111363D01*
X593946Y111367D01*
X593864Y111418D01*
X593785Y111470D01*
X593780Y111470D01*
X593775Y111473D01*
X593598Y111505D01*
X562603Y111505D01*
X562602Y111505D01*
X562600Y111505D01*
X562505Y111486D01*
X562407Y111466D01*
X562405Y111465D01*
X562404Y111465D01*
X562324Y111409D01*
X562241Y111353D01*
X562240Y111352D01*
X562239Y111351D01*
X562184Y111266D01*
X562131Y111185D01*
X562131Y111184D01*
X562131Y111183D01*
X562113Y111084D01*
X562096Y110988D01*
X562096Y110986D01*
X562096Y110985D01*
X562118Y110889D01*
X562139Y110792D01*
X562140Y110791D01*
X562141Y110790D01*
X562198Y110709D01*
X562255Y110629D01*
X562257Y110628D01*
X562257Y110627D01*
X562409Y110529D01*
X565250Y109353D01*
X567823Y106780D01*
X569215Y103419D01*
X569215Y99781D01*
X567823Y96420D01*
X565250Y93847D01*
X564873Y93691D01*
X563648Y93184D01*
X562424Y92677D01*
X562423Y92677D01*
X561889Y92455D01*
X558251Y92455D01*
X554890Y93847D01*
X552317Y96420D01*
X550925Y99781D01*
X550925Y103419D01*
X552317Y106780D01*
X554890Y109353D01*
X555234Y109495D01*
X556459Y110002D01*
X557683Y110510D01*
X557731Y110529D01*
X557732Y110530D01*
X557733Y110530D01*
X557816Y110587D01*
X557897Y110641D01*
X557898Y110642D01*
X557899Y110643D01*
X557952Y110724D01*
X558008Y110809D01*
X558008Y110810D01*
X558009Y110811D01*
X558026Y110908D01*
X558044Y111006D01*
X558044Y111007D01*
X558044Y111008D01*
X558022Y111107D01*
X558002Y111202D01*
X558001Y111203D01*
X558001Y111204D01*
X557943Y111285D01*
X557886Y111366D01*
X557885Y111366D01*
X557885Y111367D01*
X557800Y111420D01*
X557717Y111472D01*
X557715Y111473D01*
X557714Y111473D01*
X557537Y111505D01*
X523352Y111505D01*
X472701Y162157D01*
X472694Y162161D01*
X472690Y162167D01*
X472611Y162216D01*
X472534Y162268D01*
X472526Y162269D01*
X472520Y162273D01*
X472342Y162305D01*
X436720Y162305D01*
X436712Y162304D01*
X436705Y162305D01*
X436615Y162284D01*
X436524Y162266D01*
X436517Y162261D01*
X436510Y162259D01*
X436362Y162157D01*
X433998Y159793D01*
X429602Y159793D01*
X426493Y162902D01*
X426493Y167298D01*
X429602Y170407D01*
X433998Y170407D01*
X436362Y168043D01*
X436368Y168039D01*
X436373Y168033D01*
X436451Y167984D01*
X436529Y167932D01*
X436536Y167931D01*
X436543Y167927D01*
X436720Y167895D01*
X463576Y167895D01*
X463657Y167911D01*
X463738Y167921D01*
X463754Y167931D01*
X463773Y167934D01*
X463841Y167980D01*
X463912Y168021D01*
X463923Y168036D01*
X463939Y168047D01*
X463983Y168116D01*
X464033Y168181D01*
X464038Y168199D01*
X464048Y168215D01*
X464063Y168296D01*
X464083Y168375D01*
X464080Y168394D01*
X464084Y168412D01*
X464066Y168493D01*
X464054Y168573D01*
X464044Y168589D01*
X464040Y168608D01*
X463993Y168675D01*
X463950Y168745D01*
X463934Y168757D01*
X463924Y168771D01*
X463876Y168801D01*
X463807Y168854D01*
X463305Y169110D01*
X462011Y170050D01*
X460880Y171181D01*
X459940Y172475D01*
X459214Y173900D01*
X458719Y175421D01*
X458503Y176785D01*
X468122Y176785D01*
X468127Y176786D01*
X468132Y176785D01*
X468225Y176806D01*
X468318Y176824D01*
X468323Y176827D01*
X468328Y176828D01*
X468406Y176884D01*
X468484Y176937D01*
X468487Y176941D01*
X468491Y176944D01*
X468542Y177026D01*
X468593Y177105D01*
X468594Y177110D01*
X468597Y177115D01*
X468629Y177292D01*
X468629Y177801D01*
X468631Y177801D01*
X468631Y177292D01*
X468632Y177287D01*
X468631Y177282D01*
X468652Y177189D01*
X468670Y177096D01*
X468673Y177091D01*
X468675Y177086D01*
X468730Y177008D01*
X468783Y176930D01*
X468788Y176927D01*
X468791Y176923D01*
X468872Y176872D01*
X468951Y176820D01*
X468956Y176820D01*
X468961Y176817D01*
X469138Y176785D01*
X478757Y176785D01*
X478541Y175421D01*
X478046Y173900D01*
X477320Y172475D01*
X476380Y171181D01*
X475249Y170050D01*
X473955Y169110D01*
X473453Y168854D01*
X473389Y168803D01*
X473321Y168757D01*
X473311Y168741D01*
X473296Y168729D01*
X473257Y168658D01*
X473212Y168589D01*
X473209Y168570D01*
X473200Y168554D01*
X473191Y168472D01*
X473176Y168392D01*
X473181Y168373D01*
X473179Y168354D01*
X473202Y168276D01*
X473220Y168196D01*
X473231Y168181D01*
X473236Y168163D01*
X473289Y168099D01*
X473336Y168033D01*
X473352Y168023D01*
X473364Y168008D01*
X473437Y167970D01*
X473506Y167927D01*
X473526Y167923D01*
X473542Y167915D01*
X473598Y167910D01*
X473684Y167895D01*
X474868Y167895D01*
X525519Y117243D01*
X525526Y117239D01*
X525530Y117233D01*
X525609Y117184D01*
X525686Y117132D01*
X525694Y117131D01*
X525700Y117127D01*
X525878Y117095D01*
X554997Y117095D01*
X554998Y117095D01*
X555000Y117095D01*
X555095Y117114D01*
X555194Y117134D01*
X555195Y117135D01*
X555196Y117135D01*
X555276Y117191D01*
X555359Y117247D01*
X555360Y117248D01*
X555361Y117249D01*
X555416Y117334D01*
X555469Y117415D01*
X555469Y117416D01*
X555470Y117417D01*
X555487Y117516D01*
X555504Y117612D01*
X555504Y117614D01*
X555504Y117615D01*
X555483Y117709D01*
X555461Y117808D01*
X555460Y117809D01*
X555460Y117810D01*
X555402Y117891D01*
X555345Y117971D01*
X555343Y117972D01*
X555343Y117973D01*
X555191Y118071D01*
X552350Y119247D01*
X549777Y121820D01*
X548385Y125181D01*
X548385Y128819D01*
X549777Y132180D01*
X552350Y134753D01*
X552603Y134858D01*
X552604Y134858D01*
X553828Y135365D01*
X555053Y135872D01*
X555711Y136145D01*
X559349Y136145D01*
X562710Y134753D01*
X565283Y132180D01*
X566675Y128819D01*
X566675Y125181D01*
X565283Y121820D01*
X562710Y119247D01*
X562242Y119054D01*
X561018Y118546D01*
X561017Y118546D01*
X559869Y118071D01*
X559868Y118070D01*
X559866Y118070D01*
X559784Y118013D01*
X559702Y117959D01*
X559702Y117958D01*
X559701Y117957D01*
X559648Y117876D01*
X559592Y117791D01*
X559592Y117790D01*
X559591Y117789D01*
X559574Y117692D01*
X559556Y117594D01*
X559556Y117593D01*
X559556Y117592D01*
X559578Y117493D01*
X559598Y117398D01*
X559599Y117397D01*
X559599Y117396D01*
X559657Y117315D01*
X559714Y117234D01*
X559715Y117234D01*
X559715Y117233D01*
X559800Y117180D01*
X559883Y117128D01*
X559885Y117127D01*
X559886Y117127D01*
X560063Y117095D01*
X625921Y117095D01*
X625927Y117096D01*
X625933Y117095D01*
X626025Y117116D01*
X626117Y117134D01*
X626122Y117138D01*
X626129Y117139D01*
X626205Y117194D01*
X626283Y117247D01*
X626286Y117252D01*
X626292Y117256D01*
X626389Y117408D01*
X627247Y119480D01*
X629820Y122053D01*
X630119Y122176D01*
X631343Y122684D01*
X631344Y122684D01*
X632568Y123191D01*
X632661Y123229D01*
X632662Y123230D01*
X632664Y123230D01*
X632746Y123287D01*
X632828Y123341D01*
X632828Y123342D01*
X632829Y123343D01*
X632882Y123424D01*
X632938Y123509D01*
X632938Y123510D01*
X632939Y123511D01*
X632956Y123608D01*
X632974Y123706D01*
X632974Y123707D01*
X632974Y123708D01*
X632952Y123807D01*
X632932Y123902D01*
X632931Y123903D01*
X632931Y123904D01*
X632873Y123985D01*
X632816Y124066D01*
X632815Y124066D01*
X632815Y124067D01*
X632730Y124120D01*
X632647Y124172D01*
X632645Y124173D01*
X632644Y124173D01*
X632467Y124205D01*
X612252Y124205D01*
X599185Y137272D01*
X599185Y280572D01*
X599184Y280580D01*
X599185Y280588D01*
X599164Y280678D01*
X599146Y280769D01*
X599141Y280775D01*
X599139Y280783D01*
X599037Y280931D01*
X587001Y292967D01*
X586994Y292971D01*
X586990Y292977D01*
X586911Y293026D01*
X586834Y293078D01*
X586826Y293079D01*
X586820Y293083D01*
X586642Y293115D01*
X534764Y293115D01*
X534762Y293115D01*
X534759Y293115D01*
X534664Y293095D01*
X534568Y293076D01*
X534565Y293074D01*
X534563Y293074D01*
X534482Y293018D01*
X534402Y292963D01*
X534400Y292961D01*
X534398Y292959D01*
X534345Y292876D01*
X534293Y292795D01*
X534292Y292792D01*
X534291Y292790D01*
X534274Y292694D01*
X534257Y292598D01*
X534258Y292595D01*
X534257Y292593D01*
X534279Y292499D01*
X534301Y292402D01*
X534302Y292400D01*
X534303Y292397D01*
X534405Y292249D01*
X537437Y289218D01*
X537437Y284822D01*
X534328Y281713D01*
X529932Y281713D01*
X526823Y284822D01*
X526823Y289218D01*
X529855Y292249D01*
X529856Y292252D01*
X529858Y292253D01*
X529911Y292334D01*
X529965Y292416D01*
X529966Y292419D01*
X529967Y292421D01*
X529985Y292517D01*
X530003Y292613D01*
X530003Y292616D01*
X530003Y292618D01*
X529982Y292715D01*
X529961Y292809D01*
X529960Y292811D01*
X529959Y292814D01*
X529903Y292893D01*
X529847Y292974D01*
X529845Y292975D01*
X529843Y292977D01*
X529761Y293029D01*
X529678Y293081D01*
X529675Y293082D01*
X529673Y293083D01*
X529496Y293115D01*
X528906Y293115D01*
X527120Y294901D01*
X517983Y304038D01*
X517980Y304040D01*
X517979Y304042D01*
X517898Y304094D01*
X517816Y304149D01*
X517813Y304150D01*
X517811Y304151D01*
X517715Y304168D01*
X517619Y304187D01*
X517616Y304186D01*
X517614Y304187D01*
X517517Y304165D01*
X517423Y304145D01*
X517421Y304144D01*
X517418Y304143D01*
X517338Y304086D01*
X517258Y304031D01*
X517257Y304029D01*
X517255Y304027D01*
X517203Y303944D01*
X517151Y303862D01*
X517150Y303859D01*
X517149Y303857D01*
X517117Y303679D01*
X517117Y301332D01*
X514008Y298223D01*
X509612Y298223D01*
X506503Y301332D01*
X506503Y305728D01*
X509612Y308837D01*
X511959Y308837D01*
X511962Y308837D01*
X511965Y308837D01*
X512059Y308857D01*
X512156Y308876D01*
X512158Y308878D01*
X512161Y308878D01*
X512241Y308934D01*
X512322Y308989D01*
X512323Y308991D01*
X512325Y308993D01*
X512378Y309076D01*
X512431Y309157D01*
X512431Y309160D01*
X512433Y309162D01*
X512449Y309258D01*
X512467Y309354D01*
X512466Y309357D01*
X512466Y309359D01*
X512445Y309453D01*
X512423Y309550D01*
X512421Y309552D01*
X512421Y309555D01*
X512318Y309703D01*
X512071Y309950D01*
X510285Y311736D01*
X510285Y373282D01*
X510284Y373290D01*
X510285Y373298D01*
X510264Y373388D01*
X510246Y373479D01*
X510241Y373485D01*
X510239Y373493D01*
X510137Y373641D01*
X404121Y479657D01*
X404114Y479661D01*
X404110Y479667D01*
X404031Y479716D01*
X403954Y479768D01*
X403946Y479769D01*
X403940Y479773D01*
X403762Y479805D01*
X313802Y479805D01*
X312017Y481591D01*
X293943Y499665D01*
X293937Y499669D01*
X293934Y499674D01*
X293854Y499724D01*
X293776Y499776D01*
X293769Y499777D01*
X293764Y499781D01*
X293671Y499796D01*
X293579Y499813D01*
X293573Y499812D01*
X293566Y499813D01*
X293390Y499775D01*
X292705Y499491D01*
X291481Y498984D01*
X291480Y498984D01*
X291363Y498935D01*
X287757Y498935D01*
X284425Y500315D01*
X281875Y502865D01*
X280495Y506197D01*
X280495Y509803D01*
X281875Y513135D01*
X284425Y515685D01*
X284709Y515802D01*
X285934Y516310D01*
X287158Y516817D01*
X287159Y516817D01*
X287757Y517065D01*
X291363Y517065D01*
X294695Y515685D01*
X297245Y513135D01*
X298625Y509803D01*
X298625Y506197D01*
X297785Y504170D01*
X297784Y504164D01*
X297780Y504158D01*
X297765Y504065D01*
X297747Y503973D01*
X297748Y503967D01*
X297747Y503960D01*
X297768Y503869D01*
X297787Y503777D01*
X297791Y503772D01*
X297792Y503765D01*
X297895Y503617D01*
X315969Y485543D01*
X315976Y485539D01*
X315980Y485533D01*
X316059Y485484D01*
X316136Y485432D01*
X316144Y485431D01*
X316150Y485427D01*
X316328Y485395D01*
X332388Y485395D01*
X332391Y485395D01*
X332394Y485395D01*
X332489Y485415D01*
X332585Y485434D01*
X332587Y485436D01*
X332590Y485436D01*
X332669Y485492D01*
X332751Y485547D01*
X332752Y485549D01*
X332754Y485551D01*
X332807Y485634D01*
X332860Y485715D01*
X332860Y485718D01*
X332862Y485720D01*
X332878Y485816D01*
X332895Y485912D01*
X332895Y485915D01*
X332895Y485917D01*
X332874Y486010D01*
X332852Y486108D01*
X332850Y486110D01*
X332850Y486113D01*
X332747Y486261D01*
X332337Y486671D01*
X319343Y499665D01*
X319337Y499669D01*
X319334Y499674D01*
X319254Y499724D01*
X319176Y499776D01*
X319169Y499777D01*
X319164Y499781D01*
X319071Y499796D01*
X318979Y499813D01*
X318973Y499812D01*
X318966Y499813D01*
X318790Y499775D01*
X318105Y499491D01*
X316881Y498984D01*
X316880Y498984D01*
X316763Y498935D01*
X313157Y498935D01*
X309825Y500315D01*
X307275Y502865D01*
X305895Y506197D01*
X305895Y509803D01*
X307275Y513135D01*
X309825Y515685D01*
X310109Y515802D01*
X311334Y516310D01*
X312558Y516817D01*
X312559Y516817D01*
X313157Y517065D01*
X316763Y517065D01*
X320095Y515685D01*
X322645Y513135D01*
X324025Y509803D01*
X324025Y506197D01*
X323185Y504170D01*
X323184Y504164D01*
X323180Y504158D01*
X323165Y504065D01*
X323147Y503973D01*
X323148Y503967D01*
X323147Y503960D01*
X323168Y503869D01*
X323187Y503777D01*
X323191Y503772D01*
X323192Y503765D01*
X323295Y503617D01*
X336289Y490623D01*
X336296Y490619D01*
X336300Y490613D01*
X336379Y490564D01*
X336456Y490512D01*
X336464Y490511D01*
X336470Y490507D01*
X336648Y490475D01*
X352708Y490475D01*
X352711Y490475D01*
X352713Y490475D01*
X352808Y490495D01*
X352905Y490514D01*
X352907Y490516D01*
X352910Y490516D01*
X352990Y490572D01*
X353071Y490627D01*
X353072Y490629D01*
X353074Y490631D01*
X353127Y490714D01*
X353180Y490795D01*
X353180Y490798D01*
X353182Y490800D01*
X353198Y490895D01*
X353215Y490992D01*
X353215Y490995D01*
X353215Y490997D01*
X353193Y491092D01*
X353172Y491188D01*
X353170Y491190D01*
X353170Y491193D01*
X353067Y491341D01*
X351387Y493021D01*
X344743Y499665D01*
X344737Y499669D01*
X344734Y499674D01*
X344654Y499724D01*
X344576Y499776D01*
X344569Y499777D01*
X344564Y499781D01*
X344471Y499796D01*
X344379Y499813D01*
X344373Y499812D01*
X344366Y499813D01*
X344190Y499775D01*
X343505Y499491D01*
X342281Y498984D01*
X342280Y498984D01*
X342163Y498935D01*
X338557Y498935D01*
X335225Y500315D01*
X332675Y502865D01*
X331295Y506197D01*
X331295Y509803D01*
X332675Y513135D01*
X335225Y515685D01*
X335509Y515802D01*
X336734Y516310D01*
X337958Y516817D01*
X337959Y516817D01*
X338557Y517065D01*
X342163Y517065D01*
X345495Y515685D01*
X348045Y513135D01*
X349425Y509803D01*
X349425Y506197D01*
X348585Y504170D01*
X348584Y504164D01*
X348580Y504158D01*
X348565Y504065D01*
X348547Y503973D01*
X348548Y503967D01*
X348547Y503960D01*
X348568Y503869D01*
X348587Y503777D01*
X348591Y503772D01*
X348592Y503765D01*
X348695Y503617D01*
X355339Y496973D01*
X355346Y496969D01*
X355350Y496963D01*
X355429Y496914D01*
X355506Y496862D01*
X355514Y496861D01*
X355520Y496857D01*
X355698Y496825D01*
X371758Y496825D01*
X371761Y496825D01*
X371763Y496825D01*
X371858Y496845D01*
X371955Y496864D01*
X371957Y496866D01*
X371960Y496866D01*
X372040Y496922D01*
X372121Y496977D01*
X372122Y496979D01*
X372124Y496981D01*
X372177Y497064D01*
X372230Y497145D01*
X372230Y497148D01*
X372232Y497150D01*
X372248Y497246D01*
X372265Y497342D01*
X372265Y497345D01*
X372265Y497347D01*
X372243Y497441D01*
X372222Y497538D01*
X372220Y497540D01*
X372220Y497543D01*
X372117Y497691D01*
X370143Y499665D01*
X370137Y499669D01*
X370134Y499674D01*
X370054Y499724D01*
X369976Y499776D01*
X369969Y499777D01*
X369964Y499781D01*
X369871Y499796D01*
X369779Y499813D01*
X369773Y499812D01*
X369766Y499813D01*
X369590Y499775D01*
X368905Y499491D01*
X367681Y498984D01*
X367680Y498984D01*
X367563Y498935D01*
X363957Y498935D01*
X360625Y500315D01*
X358075Y502865D01*
X356695Y506197D01*
X356695Y509803D01*
X358075Y513135D01*
X360625Y515685D01*
X360909Y515802D01*
X362134Y516310D01*
X363358Y516817D01*
X363359Y516817D01*
X363957Y517065D01*
X367563Y517065D01*
X370895Y515685D01*
X373445Y513135D01*
X374825Y509803D01*
X374825Y506197D01*
X373985Y504170D01*
X373984Y504164D01*
X373980Y504158D01*
X373965Y504065D01*
X373947Y503973D01*
X373948Y503967D01*
X373947Y503960D01*
X373968Y503869D01*
X373987Y503777D01*
X373991Y503772D01*
X373992Y503765D01*
X374095Y503617D01*
X376675Y501037D01*
X376682Y501033D01*
X376686Y501027D01*
X376765Y500978D01*
X376842Y500926D01*
X376850Y500925D01*
X376856Y500921D01*
X377034Y500889D01*
X384227Y500889D01*
X384230Y500889D01*
X384232Y500889D01*
X384327Y500909D01*
X384424Y500928D01*
X384426Y500930D01*
X384428Y500930D01*
X384509Y500986D01*
X384590Y501041D01*
X384591Y501043D01*
X384593Y501045D01*
X384646Y501128D01*
X384699Y501209D01*
X384699Y501212D01*
X384701Y501214D01*
X384717Y501310D01*
X384734Y501406D01*
X384734Y501409D01*
X384734Y501411D01*
X384712Y501506D01*
X384691Y501602D01*
X384689Y501604D01*
X384689Y501607D01*
X384586Y501755D01*
X383475Y502865D01*
X382095Y506197D01*
X382095Y509803D01*
X383475Y513135D01*
X386025Y515685D01*
X386309Y515802D01*
X387534Y516310D01*
X388758Y516817D01*
X388759Y516817D01*
X389357Y517065D01*
X392963Y517065D01*
X396295Y515685D01*
X398845Y513135D01*
X400225Y509803D01*
X400225Y506197D01*
X398845Y502865D01*
X397306Y501327D01*
X397305Y501324D01*
X397302Y501323D01*
X397250Y501242D01*
X397195Y501160D01*
X397195Y501157D01*
X397193Y501155D01*
X397176Y501059D01*
X397158Y500963D01*
X397158Y500960D01*
X397158Y500958D01*
X397179Y500861D01*
X397199Y500767D01*
X397201Y500765D01*
X397201Y500762D01*
X397258Y500682D01*
X397313Y500602D01*
X397316Y500601D01*
X397317Y500599D01*
X397401Y500546D01*
X397483Y500495D01*
X397485Y500494D01*
X397487Y500493D01*
X397665Y500461D01*
X409066Y500461D01*
X525675Y383852D01*
X525678Y383850D01*
X525679Y383848D01*
X525760Y383796D01*
X525842Y383741D01*
X525845Y383740D01*
X525847Y383739D01*
X525943Y383722D01*
X526039Y383703D01*
X526042Y383704D01*
X526044Y383703D01*
X526141Y383725D01*
X526235Y383745D01*
X526237Y383746D01*
X526240Y383747D01*
X526320Y383803D01*
X526400Y383859D01*
X526401Y383861D01*
X526403Y383863D01*
X526455Y383946D01*
X526507Y384028D01*
X526508Y384031D01*
X526509Y384033D01*
X526541Y384210D01*
X526541Y391316D01*
X526540Y391324D01*
X526541Y391332D01*
X526520Y391422D01*
X526502Y391513D01*
X526497Y391519D01*
X526495Y391527D01*
X526393Y391675D01*
X491723Y426345D01*
X491720Y426347D01*
X491718Y426349D01*
X491715Y426351D01*
X491712Y426355D01*
X491633Y426404D01*
X491556Y426456D01*
X491548Y426457D01*
X491542Y426461D01*
X491364Y426493D01*
X488022Y426493D01*
X484913Y429602D01*
X484913Y433998D01*
X488022Y437107D01*
X490756Y437107D01*
X490761Y437108D01*
X490766Y437107D01*
X490859Y437128D01*
X490953Y437146D01*
X490957Y437149D01*
X490962Y437150D01*
X491040Y437206D01*
X491118Y437259D01*
X491121Y437263D01*
X491125Y437266D01*
X491176Y437348D01*
X491228Y437427D01*
X491228Y437432D01*
X491231Y437437D01*
X491263Y437614D01*
X491263Y441618D01*
X494372Y444727D01*
X498768Y444727D01*
X501877Y441618D01*
X501877Y438276D01*
X501878Y438268D01*
X501877Y438260D01*
X501898Y438170D01*
X501916Y438079D01*
X501921Y438073D01*
X501923Y438065D01*
X502025Y437917D01*
X509038Y430904D01*
X534409Y405533D01*
X536195Y403748D01*
X536195Y322678D01*
X536196Y322670D01*
X536195Y322662D01*
X536216Y322572D01*
X536234Y322481D01*
X536239Y322475D01*
X536241Y322467D01*
X536343Y322319D01*
X539489Y319173D01*
X539496Y319169D01*
X539500Y319163D01*
X539579Y319114D01*
X539656Y319062D01*
X539664Y319061D01*
X539670Y319057D01*
X539848Y319025D01*
X608218Y319025D01*
X610003Y317239D01*
X624579Y302663D01*
X626365Y300878D01*
X626365Y297622D01*
X626365Y297619D01*
X626365Y297617D01*
X626385Y297522D01*
X626404Y297425D01*
X626406Y297423D01*
X626406Y297421D01*
X626462Y297340D01*
X626517Y297260D01*
X626519Y297258D01*
X626521Y297256D01*
X626604Y297203D01*
X626685Y297150D01*
X626688Y297150D01*
X626690Y297148D01*
X626786Y297132D01*
X626882Y297115D01*
X626885Y297115D01*
X626887Y297115D01*
X626981Y297137D01*
X627078Y297158D01*
X627080Y297160D01*
X627083Y297160D01*
X627231Y297263D01*
X629820Y299853D01*
X630710Y300221D01*
X631934Y300728D01*
X633159Y301236D01*
X633181Y301245D01*
X636819Y301245D01*
X640180Y299853D01*
X642753Y297280D01*
X643929Y294439D01*
X643930Y294438D01*
X643930Y294436D01*
X643987Y294353D01*
X644041Y294272D01*
X644042Y294272D01*
X644043Y294271D01*
X644124Y294218D01*
X644209Y294162D01*
X644210Y294162D01*
X644211Y294161D01*
X644308Y294144D01*
X644406Y294126D01*
X644407Y294126D01*
X644408Y294126D01*
X644507Y294148D01*
X644602Y294168D01*
X644603Y294169D01*
X644604Y294169D01*
X644686Y294228D01*
X644766Y294284D01*
X644766Y294285D01*
X644767Y294285D01*
X644820Y294370D01*
X644872Y294453D01*
X644873Y294455D01*
X644873Y294456D01*
X644905Y294633D01*
X644905Y297685D01*
X644904Y297693D01*
X644905Y297700D01*
X644884Y297790D01*
X644866Y297881D01*
X644861Y297888D01*
X644859Y297896D01*
X644757Y298044D01*
X644405Y298395D01*
X642619Y300181D01*
X642619Y310962D01*
X642619Y310965D01*
X642619Y310967D01*
X642599Y311062D01*
X642580Y311159D01*
X642578Y311161D01*
X642578Y311163D01*
X642522Y311244D01*
X642467Y311324D01*
X642465Y311326D01*
X642463Y311328D01*
X642380Y311381D01*
X642299Y311434D01*
X642296Y311434D01*
X642294Y311436D01*
X642198Y311452D01*
X642102Y311469D01*
X642099Y311469D01*
X642097Y311469D01*
X642002Y311447D01*
X641906Y311426D01*
X641904Y311424D01*
X641901Y311424D01*
X641753Y311321D01*
X640180Y309747D01*
X639033Y309272D01*
X637809Y308765D01*
X637808Y308765D01*
X636819Y308355D01*
X633181Y308355D01*
X629820Y309747D01*
X627247Y312320D01*
X625855Y315681D01*
X625855Y319319D01*
X627247Y322680D01*
X629820Y325253D01*
X630619Y325584D01*
X631844Y326091D01*
X632661Y326429D01*
X632662Y326430D01*
X632664Y326430D01*
X632746Y326487D01*
X632828Y326541D01*
X632828Y326542D01*
X632829Y326543D01*
X632882Y326624D01*
X632938Y326709D01*
X632938Y326710D01*
X632939Y326711D01*
X632956Y326808D01*
X632974Y326906D01*
X632974Y326907D01*
X632974Y326908D01*
X632952Y327007D01*
X632932Y327102D01*
X632931Y327103D01*
X632931Y327104D01*
X632873Y327185D01*
X632816Y327266D01*
X632815Y327266D01*
X632815Y327267D01*
X632730Y327320D01*
X632647Y327372D01*
X632645Y327373D01*
X632644Y327373D01*
X632467Y327405D01*
X566609Y327405D01*
X566603Y327404D01*
X566597Y327405D01*
X566505Y327384D01*
X566413Y327366D01*
X566408Y327362D01*
X566401Y327361D01*
X566325Y327306D01*
X566247Y327253D01*
X566244Y327248D01*
X566238Y327244D01*
X566141Y327092D01*
X565283Y325020D01*
X562710Y322447D01*
X561518Y321954D01*
X560293Y321446D01*
X559349Y321055D01*
X555711Y321055D01*
X552350Y322447D01*
X549777Y325020D01*
X548385Y328381D01*
X548385Y332019D01*
X549777Y335380D01*
X552350Y337953D01*
X553104Y338265D01*
X554328Y338772D01*
X554329Y338772D01*
X555553Y339279D01*
X555711Y339345D01*
X559349Y339345D01*
X562710Y337953D01*
X565283Y335380D01*
X565313Y335307D01*
X565315Y335304D01*
X565316Y335300D01*
X565371Y335220D01*
X565425Y335141D01*
X565428Y335138D01*
X565430Y335135D01*
X565512Y335083D01*
X565592Y335031D01*
X565596Y335030D01*
X565599Y335028D01*
X565695Y335011D01*
X565789Y334994D01*
X565793Y334995D01*
X565797Y334994D01*
X565891Y335016D01*
X565985Y335037D01*
X565988Y335039D01*
X565992Y335040D01*
X566140Y335142D01*
X572367Y341369D01*
X572371Y341376D01*
X572377Y341380D01*
X572426Y341459D01*
X572478Y341536D01*
X572479Y341544D01*
X572483Y341550D01*
X572515Y341728D01*
X572515Y439322D01*
X572514Y439330D01*
X572515Y439338D01*
X572494Y439428D01*
X572476Y439519D01*
X572471Y439525D01*
X572469Y439533D01*
X572367Y439681D01*
X512383Y499665D01*
X512377Y499669D01*
X512374Y499674D01*
X512294Y499724D01*
X512216Y499776D01*
X512209Y499777D01*
X512204Y499781D01*
X512111Y499796D01*
X512019Y499813D01*
X512013Y499812D01*
X512006Y499813D01*
X511830Y499775D01*
X511145Y499491D01*
X509921Y498984D01*
X509920Y498984D01*
X509803Y498935D01*
X506197Y498935D01*
X502865Y500315D01*
X500315Y502865D01*
X498935Y506197D01*
X498935Y509803D01*
X500315Y513135D01*
X502865Y515685D01*
X503149Y515802D01*
X504374Y516310D01*
X505598Y516817D01*
X505599Y516817D01*
X506197Y517065D01*
X509803Y517065D01*
X513135Y515685D01*
X515685Y513135D01*
X517065Y509803D01*
X517065Y506197D01*
X516225Y504170D01*
X516224Y504164D01*
X516220Y504158D01*
X516205Y504065D01*
X516187Y503973D01*
X516188Y503967D01*
X516187Y503960D01*
X516208Y503869D01*
X516227Y503777D01*
X516231Y503772D01*
X516232Y503765D01*
X516335Y503617D01*
X576319Y443633D01*
X577999Y441953D01*
X578002Y441952D01*
X578003Y441949D01*
X578084Y441897D01*
X578166Y441842D01*
X578169Y441842D01*
X578171Y441840D01*
X578267Y441823D01*
X578363Y441804D01*
X578366Y441805D01*
X578368Y441805D01*
X578465Y441826D01*
X578559Y441846D01*
X578561Y441848D01*
X578564Y441848D01*
X578644Y441905D01*
X578724Y441960D01*
X578725Y441963D01*
X578727Y441964D01*
X578780Y442048D01*
X578831Y442130D01*
X578832Y442132D01*
X578833Y442134D01*
X578865Y442312D01*
X578865Y445672D01*
X578864Y445680D01*
X578865Y445688D01*
X578844Y445778D01*
X578826Y445869D01*
X578821Y445875D01*
X578819Y445883D01*
X578717Y446031D01*
X530605Y494142D01*
X530605Y499007D01*
X530604Y499014D01*
X530605Y499020D01*
X530584Y499112D01*
X530566Y499204D01*
X530562Y499209D01*
X530561Y499215D01*
X530506Y499292D01*
X530453Y499369D01*
X530448Y499373D01*
X530444Y499378D01*
X530292Y499476D01*
X528265Y500315D01*
X525715Y502865D01*
X524335Y506197D01*
X524335Y509803D01*
X525715Y513135D01*
X528265Y515685D01*
X528549Y515802D01*
X529774Y516310D01*
X530998Y516817D01*
X530999Y516817D01*
X531597Y517065D01*
X535203Y517065D01*
X538535Y515685D01*
X541085Y513135D01*
X542465Y509803D01*
X542465Y506197D01*
X541085Y502865D01*
X538535Y500315D01*
X537770Y499998D01*
X536545Y499491D01*
X536508Y499476D01*
X536502Y499472D01*
X536496Y499471D01*
X536419Y499416D01*
X536341Y499364D01*
X536338Y499358D01*
X536333Y499355D01*
X536283Y499275D01*
X536231Y499196D01*
X536230Y499190D01*
X536227Y499184D01*
X536195Y499007D01*
X536195Y496668D01*
X536196Y496660D01*
X536195Y496652D01*
X536216Y496562D01*
X536234Y496471D01*
X536239Y496465D01*
X536241Y496457D01*
X536343Y496309D01*
X539927Y492725D01*
X539930Y492724D01*
X539931Y492721D01*
X540012Y492669D01*
X540094Y492614D01*
X540097Y492614D01*
X540099Y492612D01*
X540195Y492595D01*
X540291Y492576D01*
X540294Y492577D01*
X540296Y492577D01*
X540393Y492598D01*
X540487Y492618D01*
X540489Y492620D01*
X540492Y492620D01*
X540572Y492677D01*
X540652Y492732D01*
X540653Y492735D01*
X540655Y492736D01*
X540707Y492819D01*
X540759Y492902D01*
X540760Y492904D01*
X540761Y492906D01*
X540793Y493084D01*
X540793Y494958D01*
X543902Y498067D01*
X548298Y498067D01*
X551407Y494958D01*
X551407Y490562D01*
X548298Y487453D01*
X546424Y487453D01*
X546421Y487453D01*
X546419Y487453D01*
X546324Y487433D01*
X546227Y487414D01*
X546225Y487412D01*
X546222Y487412D01*
X546142Y487356D01*
X546061Y487301D01*
X546060Y487299D01*
X546058Y487297D01*
X546005Y487214D01*
X545952Y487133D01*
X545952Y487130D01*
X545950Y487128D01*
X545934Y487032D01*
X545917Y486936D01*
X545917Y486933D01*
X545917Y486931D01*
X545939Y486837D01*
X545960Y486740D01*
X545962Y486738D01*
X545962Y486735D01*
X546065Y486587D01*
X584455Y448198D01*
X584455Y424914D01*
X584456Y424909D01*
X584455Y424904D01*
X584476Y424811D01*
X584494Y424717D01*
X584497Y424713D01*
X584498Y424708D01*
X584554Y424630D01*
X584607Y424552D01*
X584611Y424549D01*
X584614Y424545D01*
X584696Y424494D01*
X584775Y424442D01*
X584780Y424442D01*
X584785Y424439D01*
X584962Y424407D01*
X586398Y424407D01*
X589507Y421298D01*
X589507Y416902D01*
X586398Y413793D01*
X582002Y413793D01*
X578971Y416825D01*
X578968Y416826D01*
X578967Y416828D01*
X578886Y416881D01*
X578804Y416935D01*
X578801Y416936D01*
X578799Y416937D01*
X578703Y416955D01*
X578607Y416973D01*
X578604Y416973D01*
X578602Y416973D01*
X578505Y416952D01*
X578411Y416931D01*
X578409Y416930D01*
X578406Y416929D01*
X578326Y416873D01*
X578246Y416817D01*
X578245Y416815D01*
X578243Y416813D01*
X578191Y416731D01*
X578139Y416648D01*
X578138Y416645D01*
X578137Y416643D01*
X578105Y416466D01*
X578105Y339202D01*
X572763Y333861D01*
X572762Y333858D01*
X572759Y333857D01*
X572707Y333776D01*
X572652Y333694D01*
X572652Y333691D01*
X572650Y333689D01*
X572633Y333593D01*
X572614Y333497D01*
X572615Y333494D01*
X572615Y333492D01*
X572636Y333395D01*
X572656Y333301D01*
X572658Y333299D01*
X572658Y333296D01*
X572715Y333216D01*
X572770Y333136D01*
X572773Y333135D01*
X572774Y333133D01*
X572857Y333081D01*
X572940Y333029D01*
X572942Y333028D01*
X572944Y333027D01*
X573122Y332995D01*
X629946Y332995D01*
X630027Y333011D01*
X630108Y333021D01*
X630124Y333031D01*
X630143Y333034D01*
X630211Y333080D01*
X630282Y333121D01*
X630293Y333136D01*
X630309Y333147D01*
X630353Y333216D01*
X630403Y333281D01*
X630408Y333299D01*
X630418Y333315D01*
X630433Y333396D01*
X630453Y333475D01*
X630450Y333494D01*
X630454Y333512D01*
X630436Y333593D01*
X630424Y333673D01*
X630414Y333689D01*
X630410Y333708D01*
X630363Y333775D01*
X630320Y333845D01*
X630304Y333857D01*
X630294Y333871D01*
X630246Y333901D01*
X630177Y333954D01*
X629675Y334210D01*
X628381Y335150D01*
X627250Y336281D01*
X626310Y337575D01*
X625584Y339000D01*
X625089Y340521D01*
X624873Y341885D01*
X634492Y341885D01*
X634497Y341886D01*
X634502Y341885D01*
X634595Y341906D01*
X634688Y341924D01*
X634693Y341927D01*
X634698Y341928D01*
X634776Y341984D01*
X634854Y342037D01*
X634857Y342041D01*
X634861Y342044D01*
X634912Y342126D01*
X634963Y342205D01*
X634964Y342210D01*
X634967Y342215D01*
X634999Y342392D01*
X634999Y342901D01*
X635001Y342901D01*
X635001Y342392D01*
X635002Y342387D01*
X635001Y342382D01*
X635022Y342289D01*
X635040Y342196D01*
X635043Y342191D01*
X635045Y342186D01*
X635100Y342108D01*
X635153Y342030D01*
X635158Y342027D01*
X635161Y342023D01*
X635242Y341972D01*
X635321Y341920D01*
X635326Y341920D01*
X635331Y341917D01*
X635508Y341885D01*
X645127Y341885D01*
X644911Y340521D01*
X644416Y339000D01*
X643690Y337575D01*
X642750Y336281D01*
X641619Y335150D01*
X640325Y334210D01*
X638900Y333484D01*
X638779Y333444D01*
X638758Y333432D01*
X638734Y333427D01*
X638671Y333383D01*
X638604Y333346D01*
X638589Y333327D01*
X638570Y333313D01*
X638528Y333248D01*
X638481Y333187D01*
X638475Y333164D01*
X638462Y333144D01*
X638449Y333068D01*
X638429Y332994D01*
X638433Y332970D01*
X638429Y332946D01*
X638446Y332871D01*
X638456Y332795D01*
X638469Y332775D01*
X638474Y332751D01*
X638530Y332670D01*
X638558Y332623D01*
X638569Y332615D01*
X638577Y332603D01*
X639971Y331209D01*
X645817Y325363D01*
X645820Y325361D01*
X645821Y325359D01*
X645902Y325307D01*
X645984Y325252D01*
X645987Y325251D01*
X645989Y325250D01*
X646085Y325232D01*
X646181Y325214D01*
X646184Y325215D01*
X646186Y325214D01*
X646283Y325236D01*
X646377Y325256D01*
X646379Y325257D01*
X646382Y325258D01*
X646462Y325314D01*
X646542Y325370D01*
X646543Y325372D01*
X646545Y325374D01*
X646597Y325457D01*
X646649Y325539D01*
X646650Y325542D01*
X646651Y325544D01*
X646683Y325721D01*
X646683Y390554D01*
X646682Y390562D01*
X646683Y390570D01*
X646662Y390660D01*
X646644Y390751D01*
X646639Y390757D01*
X646637Y390765D01*
X646535Y390913D01*
X556005Y481442D01*
X556005Y499007D01*
X556004Y499014D01*
X556005Y499020D01*
X555984Y499112D01*
X555966Y499204D01*
X555962Y499209D01*
X555961Y499215D01*
X555906Y499292D01*
X555853Y499369D01*
X555848Y499373D01*
X555844Y499378D01*
X555692Y499476D01*
X553665Y500315D01*
X551115Y502865D01*
X549735Y506197D01*
X549735Y509803D01*
X551115Y513135D01*
X553665Y515685D01*
X553949Y515802D01*
X555174Y516310D01*
X556398Y516817D01*
X556399Y516817D01*
X556997Y517065D01*
X560603Y517065D01*
X563935Y515685D01*
X566485Y513135D01*
X567865Y509803D01*
X567865Y506197D01*
X566485Y502865D01*
X563935Y500315D01*
X563170Y499998D01*
X561945Y499491D01*
X561908Y499476D01*
X561902Y499472D01*
X561896Y499471D01*
X561819Y499416D01*
X561741Y499364D01*
X561738Y499358D01*
X561733Y499355D01*
X561683Y499275D01*
X561631Y499196D01*
X561630Y499190D01*
X561627Y499184D01*
X561595Y499007D01*
X561595Y483968D01*
X561596Y483960D01*
X561595Y483952D01*
X561616Y483862D01*
X561634Y483771D01*
X561639Y483765D01*
X561641Y483757D01*
X561743Y483609D01*
X644928Y400424D01*
X644931Y400423D01*
X644932Y400420D01*
X645013Y400368D01*
X645095Y400313D01*
X645098Y400313D01*
X645100Y400311D01*
X645196Y400294D01*
X645292Y400275D01*
X645295Y400276D01*
X645297Y400276D01*
X645394Y400297D01*
X645488Y400317D01*
X645490Y400319D01*
X645493Y400319D01*
X645573Y400376D01*
X645653Y400431D01*
X645654Y400434D01*
X645656Y400435D01*
X645708Y400518D01*
X645760Y400601D01*
X645761Y400603D01*
X645762Y400605D01*
X645794Y400783D01*
X645794Y404143D01*
X645793Y404151D01*
X645794Y404159D01*
X645773Y404249D01*
X645755Y404340D01*
X645750Y404346D01*
X645748Y404354D01*
X645646Y404502D01*
X581405Y468742D01*
X581405Y499007D01*
X581404Y499014D01*
X581405Y499020D01*
X581384Y499112D01*
X581366Y499204D01*
X581362Y499209D01*
X581361Y499215D01*
X581306Y499292D01*
X581253Y499369D01*
X581248Y499373D01*
X581244Y499378D01*
X581092Y499476D01*
X579065Y500315D01*
X576515Y502865D01*
X575135Y506197D01*
X575135Y509803D01*
X576515Y513135D01*
X579065Y515685D01*
X579349Y515802D01*
X580574Y516310D01*
X581798Y516817D01*
X581799Y516817D01*
X582397Y517065D01*
X586003Y517065D01*
X589335Y515685D01*
X591885Y513135D01*
X593265Y509803D01*
X593265Y506197D01*
X591885Y502865D01*
X589335Y500315D01*
X588570Y499998D01*
X587345Y499491D01*
X587308Y499476D01*
X587302Y499472D01*
X587296Y499471D01*
X587219Y499416D01*
X587141Y499364D01*
X587138Y499358D01*
X587133Y499355D01*
X587083Y499275D01*
X587031Y499196D01*
X587030Y499190D01*
X587027Y499184D01*
X586995Y499007D01*
X586995Y471268D01*
X586996Y471260D01*
X586995Y471252D01*
X587016Y471162D01*
X587034Y471071D01*
X587039Y471065D01*
X587041Y471057D01*
X587143Y470909D01*
X648992Y409060D01*
X648995Y409059D01*
X648996Y409056D01*
X649077Y409004D01*
X649159Y408949D01*
X649162Y408949D01*
X649164Y408947D01*
X649260Y408930D01*
X649356Y408911D01*
X649359Y408912D01*
X649361Y408912D01*
X649458Y408933D01*
X649552Y408953D01*
X649554Y408955D01*
X649557Y408955D01*
X649637Y409012D01*
X649717Y409067D01*
X649718Y409070D01*
X649720Y409071D01*
X649772Y409154D01*
X649824Y409237D01*
X649825Y409239D01*
X649826Y409241D01*
X649858Y409419D01*
X649858Y441198D01*
X649858Y441200D01*
X649858Y441203D01*
X649858Y441205D01*
X649858Y441207D01*
X649840Y441288D01*
X649838Y441298D01*
X649819Y441394D01*
X649817Y441396D01*
X649817Y441399D01*
X649815Y441402D01*
X649815Y441403D01*
X649784Y441446D01*
X649761Y441480D01*
X649706Y441560D01*
X649704Y441562D01*
X649702Y441564D01*
X649699Y441566D01*
X649673Y441582D01*
X649619Y441617D01*
X649538Y441669D01*
X649535Y441670D01*
X649533Y441671D01*
X649529Y441672D01*
X649528Y441672D01*
X649351Y441704D01*
X649350Y441704D01*
X649348Y441704D01*
X649341Y441705D01*
X649338Y441704D01*
X649336Y441705D01*
X649241Y441683D01*
X649217Y441677D01*
X649154Y441665D01*
X649151Y441663D01*
X649145Y441661D01*
X649143Y441660D01*
X649140Y441659D01*
X648992Y441556D01*
X646870Y439435D01*
X646131Y439128D01*
X644907Y438621D01*
X643682Y438114D01*
X642457Y437607D01*
X641233Y437099D01*
X640008Y436592D01*
X639168Y436244D01*
X630832Y436244D01*
X623130Y439435D01*
X617235Y445330D01*
X614044Y453032D01*
X614044Y461368D01*
X617235Y469070D01*
X623130Y474965D01*
X623750Y475222D01*
X624974Y475730D01*
X626199Y476237D01*
X627424Y476744D01*
X628648Y477251D01*
X629873Y477759D01*
X630832Y478156D01*
X639168Y478156D01*
X646870Y474965D01*
X648992Y472844D01*
X648995Y472842D01*
X648996Y472840D01*
X649077Y472787D01*
X649159Y472733D01*
X649162Y472732D01*
X649164Y472731D01*
X649260Y472713D01*
X649356Y472695D01*
X649359Y472696D01*
X649361Y472695D01*
X649458Y472717D01*
X649552Y472737D01*
X649554Y472738D01*
X649557Y472739D01*
X649637Y472795D01*
X649717Y472851D01*
X649718Y472853D01*
X649720Y472855D01*
X649772Y472937D01*
X649824Y473020D01*
X649825Y473023D01*
X649826Y473025D01*
X649858Y473202D01*
X649858Y513862D01*
X649839Y513957D01*
X649821Y514053D01*
X649819Y514056D01*
X649819Y514059D01*
X649800Y514087D01*
X649725Y514205D01*
X641943Y522694D01*
X641928Y522705D01*
X641917Y522720D01*
X641847Y522764D01*
X641781Y522812D01*
X641763Y522816D01*
X641747Y522826D01*
X641636Y522846D01*
X641586Y522858D01*
X641578Y522857D01*
X641570Y522858D01*
X206502Y522858D01*
X206500Y522858D01*
X206497Y522858D01*
X206402Y522838D01*
X206306Y522819D01*
X206304Y522817D01*
X206301Y522817D01*
X206220Y522761D01*
X206140Y522706D01*
X206138Y522704D01*
X206136Y522702D01*
X206083Y522619D01*
X206031Y522538D01*
X206030Y522535D01*
X206029Y522533D01*
X206012Y522437D01*
X205995Y522341D01*
X205996Y522338D01*
X205995Y522336D01*
X206017Y522241D01*
X206039Y522145D01*
X206040Y522143D01*
X206041Y522140D01*
X206144Y521992D01*
X208265Y519870D01*
X211456Y512168D01*
X211456Y503832D01*
X208265Y496130D01*
X202370Y490235D01*
X201450Y489853D01*
X200226Y489346D01*
X199001Y488839D01*
X197776Y488332D01*
X196552Y487824D01*
X195327Y487317D01*
X194668Y487044D01*
X186332Y487044D01*
X178630Y490235D01*
X172735Y496130D01*
X169544Y503832D01*
X169544Y512168D01*
X172735Y519870D01*
X174856Y521992D01*
X174858Y521995D01*
X174860Y521996D01*
X174913Y522077D01*
X174967Y522159D01*
X174968Y522162D01*
X174969Y522164D01*
X174987Y522260D01*
X175005Y522356D01*
X175004Y522359D01*
X175005Y522361D01*
X174983Y522458D01*
X174963Y522552D01*
X174962Y522554D01*
X174961Y522557D01*
X174905Y522637D01*
X174849Y522717D01*
X174847Y522718D01*
X174845Y522720D01*
X174763Y522772D01*
X174680Y522824D01*
X174677Y522825D01*
X174675Y522826D01*
X174498Y522858D01*
X157988Y522858D01*
X157983Y522857D01*
X157978Y522858D01*
X157885Y522837D01*
X157791Y522819D01*
X157787Y522816D01*
X157782Y522815D01*
X157704Y522759D01*
X157626Y522706D01*
X157623Y522702D01*
X157619Y522699D01*
X157568Y522617D01*
X157516Y522538D01*
X157516Y522533D01*
X157513Y522528D01*
X157481Y522351D01*
X157481Y353495D01*
X116405Y312419D01*
X11049Y312419D01*
X11044Y312418D01*
X11039Y312419D01*
X10946Y312398D01*
X10852Y312380D01*
X10848Y312377D01*
X10843Y312376D01*
X10765Y312320D01*
X10687Y312267D01*
X10684Y312263D01*
X10680Y312260D01*
X10629Y312178D01*
X10577Y312099D01*
X10577Y312094D01*
X10574Y312089D01*
X10542Y311912D01*
X10542Y11049D01*
X10543Y11044D01*
X10542Y11039D01*
X10563Y10946D01*
X10581Y10852D01*
X10584Y10848D01*
X10585Y10843D01*
X10641Y10765D01*
X10694Y10687D01*
X10698Y10684D01*
X10701Y10680D01*
X10783Y10629D01*
X10862Y10577D01*
X10867Y10577D01*
X10872Y10574D01*
X11049Y10542D01*
X97079Y10542D01*
X97081Y10542D01*
G37*
G36*
X111993Y322582D02*
X111993Y322582D01*
X112001Y322581D01*
X112091Y322602D01*
X112182Y322620D01*
X112188Y322625D01*
X112196Y322627D01*
X112344Y322729D01*
X147171Y357556D01*
X147175Y357563D01*
X147181Y357567D01*
X147230Y357646D01*
X147282Y357723D01*
X147283Y357731D01*
X147287Y357737D01*
X147319Y357915D01*
X147319Y522351D01*
X147318Y522356D01*
X147319Y522361D01*
X147298Y522454D01*
X147280Y522548D01*
X147277Y522552D01*
X147276Y522557D01*
X147220Y522635D01*
X147167Y522713D01*
X147163Y522716D01*
X147160Y522720D01*
X147078Y522771D01*
X146999Y522823D01*
X146994Y522823D01*
X146989Y522826D01*
X146812Y522858D01*
X11049Y522858D01*
X11044Y522857D01*
X11039Y522858D01*
X10946Y522837D01*
X10852Y522819D01*
X10848Y522816D01*
X10843Y522815D01*
X10765Y522759D01*
X10687Y522706D01*
X10684Y522702D01*
X10680Y522699D01*
X10629Y522617D01*
X10577Y522538D01*
X10577Y522533D01*
X10574Y522528D01*
X10542Y522351D01*
X10542Y323088D01*
X10543Y323083D01*
X10542Y323078D01*
X10563Y322985D01*
X10581Y322891D01*
X10584Y322887D01*
X10585Y322882D01*
X10641Y322804D01*
X10694Y322726D01*
X10698Y322723D01*
X10701Y322719D01*
X10783Y322668D01*
X10862Y322616D01*
X10867Y322616D01*
X10872Y322613D01*
X11049Y322581D01*
X111985Y322581D01*
X111993Y322582D01*
G37*
%LPC*%
G36*
X262532Y194944D02*
X262532Y194944D01*
X254830Y198135D01*
X248935Y204030D01*
X245744Y211732D01*
X245744Y220068D01*
X248935Y227770D01*
X254830Y233665D01*
X255085Y233771D01*
X256310Y234279D01*
X257534Y234786D01*
X257535Y234786D01*
X258759Y235293D01*
X259984Y235800D01*
X261208Y236308D01*
X262433Y236815D01*
X262532Y236856D01*
X270868Y236856D01*
X278570Y233665D01*
X284465Y227770D01*
X287656Y220068D01*
X287656Y211732D01*
X284465Y204030D01*
X278570Y198135D01*
X277467Y197677D01*
X276242Y197170D01*
X275018Y196663D01*
X275017Y196663D01*
X273793Y196156D01*
X272568Y195648D01*
X271344Y195141D01*
X270868Y194944D01*
X262532Y194944D01*
G37*
%LPD*%
%LPC*%
G36*
X469351Y295655D02*
X469351Y295655D01*
X465990Y297047D01*
X463417Y299620D01*
X462025Y302981D01*
X462025Y306619D01*
X463417Y309980D01*
X465990Y312553D01*
X466834Y312902D01*
X466835Y312902D01*
X468059Y313410D01*
X469284Y313917D01*
X469351Y313945D01*
X472989Y313945D01*
X475061Y313086D01*
X475068Y313085D01*
X475073Y313082D01*
X475166Y313066D01*
X475258Y313048D01*
X475264Y313049D01*
X475271Y313048D01*
X475362Y313069D01*
X475454Y313088D01*
X475460Y313092D01*
X475466Y313094D01*
X475614Y313196D01*
X482197Y319779D01*
X482201Y319786D01*
X482207Y319790D01*
X482256Y319869D01*
X482308Y319946D01*
X482309Y319954D01*
X482313Y319960D01*
X482345Y320138D01*
X482345Y369730D01*
X482344Y369738D01*
X482345Y369745D01*
X482324Y369835D01*
X482306Y369926D01*
X482301Y369933D01*
X482299Y369940D01*
X482197Y370088D01*
X479833Y372452D01*
X479833Y376848D01*
X482942Y379957D01*
X487338Y379957D01*
X490447Y376848D01*
X490447Y372452D01*
X488083Y370088D01*
X488079Y370082D01*
X488073Y370077D01*
X488024Y369999D01*
X487972Y369921D01*
X487971Y369914D01*
X487967Y369907D01*
X487935Y369730D01*
X487935Y317612D01*
X486149Y315827D01*
X479566Y309244D01*
X479563Y309239D01*
X479557Y309235D01*
X479507Y309155D01*
X479455Y309077D01*
X479454Y309071D01*
X479451Y309065D01*
X479435Y308972D01*
X479418Y308880D01*
X479419Y308874D01*
X479418Y308867D01*
X479456Y308691D01*
X480315Y306619D01*
X480315Y302981D01*
X478923Y299620D01*
X476350Y297047D01*
X475248Y296591D01*
X474024Y296084D01*
X472989Y295655D01*
X469351Y295655D01*
G37*
%LPD*%
%LPC*%
G36*
X633181Y359155D02*
X633181Y359155D01*
X629820Y360547D01*
X627247Y363120D01*
X625855Y366481D01*
X625855Y370119D01*
X627247Y373480D01*
X629820Y376053D01*
X630438Y376309D01*
X631663Y376816D01*
X632887Y377323D01*
X633181Y377445D01*
X636819Y377445D01*
X640180Y376053D01*
X642753Y373480D01*
X644145Y370119D01*
X644145Y366481D01*
X642753Y363120D01*
X640180Y360547D01*
X640077Y360505D01*
X638852Y359997D01*
X637628Y359490D01*
X637627Y359490D01*
X636819Y359155D01*
X633181Y359155D01*
G37*
%LPD*%
%LPC*%
G36*
X555711Y194055D02*
X555711Y194055D01*
X552350Y195447D01*
X549777Y198020D01*
X548385Y201381D01*
X548385Y205019D01*
X549777Y208380D01*
X552350Y210953D01*
X553556Y211452D01*
X553557Y211452D01*
X554781Y211960D01*
X555711Y212345D01*
X559349Y212345D01*
X562710Y210953D01*
X565283Y208380D01*
X566675Y205019D01*
X566675Y201381D01*
X565283Y198020D01*
X562710Y195447D01*
X561971Y195141D01*
X561970Y195141D01*
X560746Y194634D01*
X559521Y194127D01*
X559349Y194055D01*
X555711Y194055D01*
G37*
%LPD*%
%LPC*%
G36*
X469351Y194055D02*
X469351Y194055D01*
X465990Y195447D01*
X463417Y198020D01*
X462025Y201381D01*
X462025Y205019D01*
X463417Y208380D01*
X465990Y210953D01*
X467196Y211452D01*
X467197Y211452D01*
X468421Y211960D01*
X469351Y212345D01*
X472989Y212345D01*
X476350Y210953D01*
X478923Y208380D01*
X480315Y205019D01*
X480315Y201381D01*
X478923Y198020D01*
X476350Y195447D01*
X475611Y195141D01*
X475610Y195141D01*
X474386Y194634D01*
X473161Y194127D01*
X472989Y194055D01*
X469351Y194055D01*
G37*
%LPD*%
%LPC*%
G36*
X50251Y482345D02*
X50251Y482345D01*
X46890Y483737D01*
X44317Y486310D01*
X42925Y489671D01*
X42925Y493309D01*
X44317Y496670D01*
X46890Y499243D01*
X47681Y499570D01*
X48906Y500078D01*
X50130Y500585D01*
X50131Y500585D01*
X50251Y500635D01*
X53889Y500635D01*
X57250Y499243D01*
X59823Y496670D01*
X61215Y493309D01*
X61215Y489671D01*
X59823Y486310D01*
X57250Y483737D01*
X56095Y483259D01*
X54871Y482752D01*
X53889Y482345D01*
X50251Y482345D01*
G37*
%LPD*%
%LPC*%
G36*
X22311Y482345D02*
X22311Y482345D01*
X18950Y483737D01*
X16377Y486310D01*
X14985Y489671D01*
X14985Y493309D01*
X16377Y496670D01*
X18950Y499243D01*
X19741Y499570D01*
X20966Y500078D01*
X22190Y500585D01*
X22191Y500585D01*
X22311Y500635D01*
X25949Y500635D01*
X29310Y499243D01*
X31883Y496670D01*
X33275Y493309D01*
X33275Y489671D01*
X31883Y486310D01*
X29310Y483737D01*
X28155Y483259D01*
X26931Y482752D01*
X25949Y482345D01*
X22311Y482345D01*
G37*
%LPD*%
%LPC*%
G36*
X555711Y244855D02*
X555711Y244855D01*
X552350Y246247D01*
X549777Y248820D01*
X548385Y252181D01*
X548385Y255819D01*
X549777Y259180D01*
X552350Y261753D01*
X553375Y262177D01*
X553376Y262177D01*
X554600Y262685D01*
X555711Y263145D01*
X559349Y263145D01*
X562710Y261753D01*
X565283Y259180D01*
X566675Y255819D01*
X566675Y252181D01*
X565283Y248820D01*
X562710Y246247D01*
X561790Y245866D01*
X561789Y245866D01*
X560565Y245359D01*
X559349Y244855D01*
X555711Y244855D01*
G37*
%LPD*%
%LPC*%
G36*
X558251Y270255D02*
X558251Y270255D01*
X554890Y271647D01*
X552317Y274220D01*
X550925Y277581D01*
X550925Y281219D01*
X552317Y284580D01*
X554890Y287153D01*
X555825Y287540D01*
X557049Y288047D01*
X557050Y288047D01*
X558251Y288545D01*
X561889Y288545D01*
X565250Y287153D01*
X567823Y284580D01*
X569215Y281219D01*
X569215Y277581D01*
X567823Y274220D01*
X565250Y271647D01*
X564239Y271229D01*
X563014Y270721D01*
X561889Y270255D01*
X558251Y270255D01*
G37*
%LPD*%
%LPC*%
G36*
X97241Y488695D02*
X97241Y488695D01*
X93880Y490087D01*
X91307Y492660D01*
X89915Y496021D01*
X89915Y499659D01*
X91307Y503020D01*
X93880Y505593D01*
X94036Y505657D01*
X95261Y506165D01*
X96486Y506672D01*
X97241Y506985D01*
X100879Y506985D01*
X104240Y505593D01*
X106813Y503020D01*
X108205Y499659D01*
X108205Y496021D01*
X106813Y492660D01*
X104240Y490087D01*
X103675Y489853D01*
X102450Y489346D01*
X101226Y488839D01*
X100879Y488695D01*
X97241Y488695D01*
G37*
%LPD*%
%LPC*%
G36*
X466811Y321055D02*
X466811Y321055D01*
X463450Y322447D01*
X460877Y325020D01*
X459485Y328381D01*
X459485Y332019D01*
X460877Y335380D01*
X463450Y337953D01*
X464204Y338265D01*
X465428Y338772D01*
X465429Y338772D01*
X466653Y339279D01*
X466811Y339345D01*
X470449Y339345D01*
X473810Y337953D01*
X476383Y335380D01*
X477775Y332019D01*
X477775Y328381D01*
X476383Y325020D01*
X473810Y322447D01*
X472618Y321954D01*
X471393Y321446D01*
X470449Y321055D01*
X466811Y321055D01*
G37*
%LPD*%
%LPC*%
G36*
X466811Y219455D02*
X466811Y219455D01*
X463450Y220847D01*
X460877Y223420D01*
X459485Y226781D01*
X459485Y230419D01*
X460877Y233780D01*
X463450Y236353D01*
X464566Y236815D01*
X465791Y237322D01*
X466811Y237745D01*
X470449Y237745D01*
X473810Y236353D01*
X476383Y233780D01*
X477775Y230419D01*
X477775Y226781D01*
X476383Y223420D01*
X473810Y220847D01*
X472980Y220504D01*
X471755Y219996D01*
X470531Y219489D01*
X470449Y219455D01*
X466811Y219455D01*
G37*
%LPD*%
%LPC*%
G36*
X558251Y219455D02*
X558251Y219455D01*
X554890Y220847D01*
X552317Y223420D01*
X550925Y226781D01*
X550925Y230419D01*
X552317Y233780D01*
X554890Y236353D01*
X556006Y236815D01*
X557231Y237322D01*
X558251Y237745D01*
X561889Y237745D01*
X565250Y236353D01*
X567823Y233780D01*
X569215Y230419D01*
X569215Y226781D01*
X567823Y223420D01*
X565250Y220847D01*
X564420Y220504D01*
X563195Y219996D01*
X561971Y219489D01*
X561889Y219455D01*
X558251Y219455D01*
G37*
%LPD*%
%LPC*%
G36*
X558251Y397255D02*
X558251Y397255D01*
X554890Y398647D01*
X552317Y401220D01*
X550925Y404581D01*
X550925Y408219D01*
X552317Y411580D01*
X554890Y414153D01*
X555372Y414352D01*
X556597Y414860D01*
X557821Y415367D01*
X557822Y415367D01*
X558251Y415545D01*
X561889Y415545D01*
X565250Y414153D01*
X567823Y411580D01*
X569215Y408219D01*
X569215Y404581D01*
X567823Y401220D01*
X565250Y398647D01*
X565011Y398548D01*
X563786Y398041D01*
X562562Y397534D01*
X561889Y397255D01*
X558251Y397255D01*
G37*
%LPD*%
%LPC*%
G36*
X555711Y371855D02*
X555711Y371855D01*
X552350Y373247D01*
X549777Y375820D01*
X548385Y379181D01*
X548385Y382819D01*
X549777Y386180D01*
X552350Y388753D01*
X552923Y388990D01*
X554147Y389497D01*
X554148Y389497D01*
X555372Y390004D01*
X555711Y390145D01*
X559349Y390145D01*
X562710Y388753D01*
X565283Y386180D01*
X566675Y382819D01*
X566675Y379181D01*
X565283Y375820D01*
X562710Y373247D01*
X562561Y373186D01*
X561337Y372679D01*
X560112Y372171D01*
X559349Y371855D01*
X555711Y371855D01*
G37*
%LPD*%
%LPC*%
G36*
X558251Y346455D02*
X558251Y346455D01*
X554890Y347847D01*
X552317Y350420D01*
X550925Y353781D01*
X550925Y357419D01*
X552317Y360780D01*
X554890Y363353D01*
X555553Y363627D01*
X556778Y364135D01*
X558002Y364642D01*
X558003Y364642D01*
X558251Y364745D01*
X561889Y364745D01*
X565250Y363353D01*
X567823Y360780D01*
X569215Y357419D01*
X569215Y353781D01*
X567823Y350420D01*
X565250Y347847D01*
X565192Y347823D01*
X563967Y347316D01*
X562743Y346809D01*
X561889Y346455D01*
X558251Y346455D01*
G37*
%LPD*%
%LPC*%
G36*
X469351Y346455D02*
X469351Y346455D01*
X465990Y347847D01*
X463417Y350420D01*
X462025Y353781D01*
X462025Y357419D01*
X463417Y360780D01*
X465990Y363353D01*
X466653Y363627D01*
X467878Y364135D01*
X469102Y364642D01*
X469103Y364642D01*
X469351Y364745D01*
X472989Y364745D01*
X476350Y363353D01*
X478923Y360780D01*
X480315Y357419D01*
X480315Y353781D01*
X478923Y350420D01*
X476350Y347847D01*
X476292Y347823D01*
X475067Y347316D01*
X473843Y346809D01*
X472989Y346455D01*
X469351Y346455D01*
G37*
%LPD*%
%LPC*%
G36*
X469351Y92455D02*
X469351Y92455D01*
X465990Y93847D01*
X463417Y96420D01*
X462025Y99781D01*
X462025Y103419D01*
X463417Y106780D01*
X465990Y109353D01*
X466334Y109495D01*
X467559Y110002D01*
X468783Y110510D01*
X469351Y110745D01*
X472989Y110745D01*
X476350Y109353D01*
X478923Y106780D01*
X480315Y103419D01*
X480315Y99781D01*
X478923Y96420D01*
X476350Y93847D01*
X475973Y93691D01*
X474748Y93184D01*
X473524Y92677D01*
X473523Y92677D01*
X472989Y92455D01*
X469351Y92455D01*
G37*
%LPD*%
%LPC*%
G36*
X558251Y143255D02*
X558251Y143255D01*
X554890Y144647D01*
X552317Y147220D01*
X550925Y150581D01*
X550925Y154219D01*
X552317Y157580D01*
X554890Y160153D01*
X555053Y160220D01*
X556278Y160727D01*
X557502Y161235D01*
X558251Y161545D01*
X561889Y161545D01*
X565250Y160153D01*
X567823Y157580D01*
X569215Y154219D01*
X569215Y150581D01*
X567823Y147220D01*
X565250Y144647D01*
X564692Y144416D01*
X563467Y143909D01*
X562242Y143402D01*
X561889Y143255D01*
X558251Y143255D01*
G37*
%LPD*%
%LPC*%
G36*
X466811Y117855D02*
X466811Y117855D01*
X463450Y119247D01*
X460877Y121820D01*
X459485Y125181D01*
X459485Y128819D01*
X460877Y132180D01*
X463450Y134753D01*
X463703Y134858D01*
X463704Y134858D01*
X464928Y135365D01*
X466153Y135872D01*
X466811Y136145D01*
X470449Y136145D01*
X473810Y134753D01*
X476383Y132180D01*
X477775Y128819D01*
X477775Y125181D01*
X476383Y121820D01*
X473810Y119247D01*
X473342Y119054D01*
X472118Y118546D01*
X472117Y118546D01*
X470893Y118039D01*
X470449Y117855D01*
X466811Y117855D01*
G37*
%LPD*%
%LPC*%
G36*
X328397Y16335D02*
X328397Y16335D01*
X325065Y17715D01*
X322515Y20265D01*
X321135Y23597D01*
X321135Y27203D01*
X322515Y30535D01*
X325065Y33085D01*
X325845Y33408D01*
X327069Y33915D01*
X328294Y34422D01*
X328397Y34465D01*
X332003Y34465D01*
X335335Y33085D01*
X337885Y30535D01*
X339265Y27203D01*
X339265Y23597D01*
X337885Y20265D01*
X335335Y17715D01*
X335065Y17604D01*
X333841Y17096D01*
X333840Y17096D01*
X332616Y16589D01*
X332003Y16335D01*
X328397Y16335D01*
G37*
%LPD*%
%LPC*%
G36*
X353797Y16335D02*
X353797Y16335D01*
X350465Y17715D01*
X347915Y20265D01*
X346535Y23597D01*
X346535Y27203D01*
X347915Y30535D01*
X350465Y33085D01*
X351245Y33408D01*
X352469Y33915D01*
X353694Y34422D01*
X353797Y34465D01*
X357403Y34465D01*
X360735Y33085D01*
X363285Y30535D01*
X364665Y27203D01*
X364665Y23597D01*
X363285Y20265D01*
X360735Y17715D01*
X360465Y17604D01*
X359241Y17096D01*
X359240Y17096D01*
X358016Y16589D01*
X357403Y16335D01*
X353797Y16335D01*
G37*
%LPD*%
%LPC*%
G36*
X379197Y16335D02*
X379197Y16335D01*
X375865Y17715D01*
X373315Y20265D01*
X371935Y23597D01*
X371935Y27203D01*
X373315Y30535D01*
X375865Y33085D01*
X376645Y33408D01*
X377869Y33915D01*
X379094Y34422D01*
X379197Y34465D01*
X382803Y34465D01*
X386135Y33085D01*
X388685Y30535D01*
X390065Y27203D01*
X390065Y23597D01*
X388685Y20265D01*
X386135Y17715D01*
X385865Y17604D01*
X384641Y17096D01*
X384640Y17096D01*
X383416Y16589D01*
X382803Y16335D01*
X379197Y16335D01*
G37*
%LPD*%
%LPC*%
G36*
X531597Y16335D02*
X531597Y16335D01*
X528265Y17715D01*
X525715Y20265D01*
X524335Y23597D01*
X524335Y27203D01*
X525715Y30535D01*
X528265Y33085D01*
X529045Y33408D01*
X530269Y33915D01*
X531494Y34422D01*
X531597Y34465D01*
X535203Y34465D01*
X538535Y33085D01*
X541085Y30535D01*
X542465Y27203D01*
X542465Y23597D01*
X541085Y20265D01*
X538535Y17715D01*
X538265Y17604D01*
X537041Y17096D01*
X537040Y17096D01*
X535816Y16589D01*
X535203Y16335D01*
X531597Y16335D01*
G37*
%LPD*%
%LPC*%
G36*
X506197Y16335D02*
X506197Y16335D01*
X502865Y17715D01*
X500315Y20265D01*
X498935Y23597D01*
X498935Y27203D01*
X500315Y30535D01*
X502865Y33085D01*
X503645Y33408D01*
X504869Y33915D01*
X506094Y34422D01*
X506197Y34465D01*
X509803Y34465D01*
X513135Y33085D01*
X515685Y30535D01*
X517065Y27203D01*
X517065Y23597D01*
X515685Y20265D01*
X513135Y17715D01*
X512865Y17604D01*
X511641Y17096D01*
X511640Y17096D01*
X510416Y16589D01*
X509803Y16335D01*
X506197Y16335D01*
G37*
%LPD*%
%LPC*%
G36*
X455397Y16335D02*
X455397Y16335D01*
X452065Y17715D01*
X449515Y20265D01*
X448135Y23597D01*
X448135Y27203D01*
X449515Y30535D01*
X452065Y33085D01*
X452845Y33408D01*
X454069Y33915D01*
X455294Y34422D01*
X455397Y34465D01*
X459003Y34465D01*
X462335Y33085D01*
X464885Y30535D01*
X466265Y27203D01*
X466265Y23597D01*
X464885Y20265D01*
X462335Y17715D01*
X462065Y17604D01*
X460841Y17096D01*
X460840Y17096D01*
X459616Y16589D01*
X459003Y16335D01*
X455397Y16335D01*
G37*
%LPD*%
%LPC*%
G36*
X607797Y498935D02*
X607797Y498935D01*
X604465Y500315D01*
X601915Y502865D01*
X600535Y506197D01*
X600535Y509803D01*
X601915Y513135D01*
X604465Y515685D01*
X604749Y515802D01*
X605974Y516310D01*
X607198Y516817D01*
X607199Y516817D01*
X607797Y517065D01*
X611403Y517065D01*
X614735Y515685D01*
X617285Y513135D01*
X618665Y509803D01*
X618665Y506197D01*
X617285Y502865D01*
X614735Y500315D01*
X613970Y499998D01*
X612745Y499491D01*
X611521Y498984D01*
X611520Y498984D01*
X611403Y498935D01*
X607797Y498935D01*
G37*
%LPD*%
%LPC*%
G36*
X414757Y498935D02*
X414757Y498935D01*
X411425Y500315D01*
X408875Y502865D01*
X407495Y506197D01*
X407495Y509803D01*
X408875Y513135D01*
X411425Y515685D01*
X411709Y515802D01*
X412934Y516310D01*
X414158Y516817D01*
X414159Y516817D01*
X414757Y517065D01*
X418363Y517065D01*
X421695Y515685D01*
X424245Y513135D01*
X425625Y509803D01*
X425625Y506197D01*
X424245Y502865D01*
X421695Y500315D01*
X420930Y499998D01*
X419705Y499491D01*
X418481Y498984D01*
X418480Y498984D01*
X418363Y498935D01*
X414757Y498935D01*
G37*
%LPD*%
%LPC*%
G36*
X480797Y498935D02*
X480797Y498935D01*
X477465Y500315D01*
X474915Y502865D01*
X473535Y506197D01*
X473535Y509803D01*
X474915Y513135D01*
X477465Y515685D01*
X477749Y515802D01*
X478974Y516310D01*
X480198Y516817D01*
X480199Y516817D01*
X480797Y517065D01*
X484403Y517065D01*
X487735Y515685D01*
X490285Y513135D01*
X491665Y509803D01*
X491665Y506197D01*
X490285Y502865D01*
X487735Y500315D01*
X486970Y499998D01*
X485745Y499491D01*
X484521Y498984D01*
X484520Y498984D01*
X484403Y498935D01*
X480797Y498935D01*
G37*
%LPD*%
%LPC*%
G36*
X633197Y498935D02*
X633197Y498935D01*
X629865Y500315D01*
X627315Y502865D01*
X625935Y506197D01*
X625935Y509803D01*
X627315Y513135D01*
X629865Y515685D01*
X630149Y515802D01*
X631374Y516310D01*
X632598Y516817D01*
X632599Y516817D01*
X633197Y517065D01*
X636803Y517065D01*
X640135Y515685D01*
X642685Y513135D01*
X644065Y509803D01*
X644065Y506197D01*
X642685Y502865D01*
X640135Y500315D01*
X639370Y499998D01*
X638145Y499491D01*
X636921Y498984D01*
X636920Y498984D01*
X636803Y498935D01*
X633197Y498935D01*
G37*
%LPD*%
%LPC*%
G36*
X236957Y498935D02*
X236957Y498935D01*
X233625Y500315D01*
X231075Y502865D01*
X229695Y506197D01*
X229695Y509803D01*
X231075Y513135D01*
X233625Y515685D01*
X233909Y515802D01*
X235134Y516310D01*
X236358Y516817D01*
X236359Y516817D01*
X236957Y517065D01*
X240563Y517065D01*
X243895Y515685D01*
X246445Y513135D01*
X247825Y509803D01*
X247825Y506197D01*
X246445Y502865D01*
X243895Y500315D01*
X243130Y499998D01*
X241905Y499491D01*
X240681Y498984D01*
X240680Y498984D01*
X240563Y498935D01*
X236957Y498935D01*
G37*
%LPD*%
%LPC*%
G36*
X455397Y498935D02*
X455397Y498935D01*
X452065Y500315D01*
X449515Y502865D01*
X448135Y506197D01*
X448135Y509803D01*
X449515Y513135D01*
X452065Y515685D01*
X452349Y515802D01*
X453574Y516310D01*
X454798Y516817D01*
X454799Y516817D01*
X455397Y517065D01*
X459003Y517065D01*
X462335Y515685D01*
X464885Y513135D01*
X466265Y509803D01*
X466265Y506197D01*
X464885Y502865D01*
X462335Y500315D01*
X461570Y499998D01*
X460345Y499491D01*
X459121Y498984D01*
X459120Y498984D01*
X459003Y498935D01*
X455397Y498935D01*
G37*
%LPD*%
%LPC*%
G36*
X98713Y36321D02*
X98713Y36321D01*
X95725Y37559D01*
X93439Y39845D01*
X92201Y42833D01*
X92201Y46067D01*
X93439Y49055D01*
X95725Y51341D01*
X96516Y51669D01*
X97740Y52176D01*
X97741Y52176D01*
X98713Y52579D01*
X101947Y52579D01*
X104935Y51341D01*
X107221Y49055D01*
X108459Y46067D01*
X108459Y42833D01*
X107221Y39845D01*
X104935Y37559D01*
X104518Y37386D01*
X103294Y36879D01*
X102069Y36372D01*
X101947Y36321D01*
X98713Y36321D01*
G37*
%LPD*%
G36*
X660913Y342902D02*
X660913Y342902D01*
X660918Y342901D01*
X661011Y342922D01*
X661104Y342940D01*
X661109Y342943D01*
X661114Y342945D01*
X661192Y343000D01*
X661270Y343053D01*
X661273Y343058D01*
X661277Y343061D01*
X661328Y343142D01*
X661379Y343221D01*
X661380Y343226D01*
X661383Y343231D01*
X661415Y343408D01*
X661415Y353027D01*
X662779Y352811D01*
X664300Y352316D01*
X665725Y351590D01*
X667019Y350650D01*
X668150Y349519D01*
X669090Y348225D01*
X669346Y347723D01*
X669397Y347659D01*
X669443Y347591D01*
X669459Y347581D01*
X669471Y347566D01*
X669542Y347527D01*
X669611Y347482D01*
X669630Y347479D01*
X669646Y347470D01*
X669728Y347461D01*
X669808Y347446D01*
X669827Y347451D01*
X669846Y347449D01*
X669924Y347472D01*
X670004Y347490D01*
X670019Y347501D01*
X670037Y347506D01*
X670101Y347559D01*
X670167Y347606D01*
X670177Y347622D01*
X670192Y347634D01*
X670230Y347707D01*
X670273Y347776D01*
X670277Y347796D01*
X670285Y347812D01*
X670290Y347868D01*
X670305Y347954D01*
X670305Y365767D01*
X670305Y365768D01*
X670305Y365770D01*
X670286Y365865D01*
X670266Y365964D01*
X670265Y365965D01*
X670265Y365966D01*
X670209Y366046D01*
X670153Y366129D01*
X670152Y366130D01*
X670151Y366131D01*
X670066Y366186D01*
X669985Y366239D01*
X669984Y366239D01*
X669983Y366240D01*
X669884Y366257D01*
X669788Y366274D01*
X669786Y366274D01*
X669785Y366274D01*
X669689Y366252D01*
X669592Y366231D01*
X669591Y366230D01*
X669590Y366230D01*
X669509Y366172D01*
X669429Y366115D01*
X669428Y366113D01*
X669427Y366113D01*
X669329Y365961D01*
X668153Y363120D01*
X665580Y360547D01*
X665477Y360505D01*
X664252Y359997D01*
X663028Y359490D01*
X663027Y359490D01*
X662219Y359155D01*
X658581Y359155D01*
X655220Y360547D01*
X653139Y362629D01*
X653136Y362630D01*
X653135Y362632D01*
X653054Y362685D01*
X652972Y362740D01*
X652969Y362740D01*
X652967Y362742D01*
X652871Y362759D01*
X652775Y362777D01*
X652772Y362777D01*
X652770Y362777D01*
X652673Y362756D01*
X652579Y362736D01*
X652577Y362734D01*
X652574Y362734D01*
X652494Y362677D01*
X652414Y362621D01*
X652413Y362619D01*
X652411Y362618D01*
X652359Y362535D01*
X652307Y362452D01*
X652306Y362450D01*
X652305Y362447D01*
X652273Y362270D01*
X652273Y350367D01*
X652273Y350364D01*
X652273Y350362D01*
X652293Y350266D01*
X652312Y350170D01*
X652314Y350168D01*
X652314Y350166D01*
X652370Y350085D01*
X652425Y350004D01*
X652427Y350003D01*
X652429Y350001D01*
X652512Y349948D01*
X652593Y349895D01*
X652596Y349895D01*
X652598Y349893D01*
X652694Y349877D01*
X652790Y349860D01*
X652793Y349860D01*
X652795Y349860D01*
X652889Y349882D01*
X652986Y349903D01*
X652988Y349905D01*
X652991Y349905D01*
X653139Y350008D01*
X653781Y350650D01*
X655075Y351590D01*
X656500Y352316D01*
X658021Y352811D01*
X659385Y353027D01*
X659385Y343408D01*
X659386Y343403D01*
X659385Y343398D01*
X659406Y343305D01*
X659424Y343212D01*
X659427Y343207D01*
X659428Y343202D01*
X659484Y343124D01*
X659537Y343046D01*
X659541Y343043D01*
X659544Y343039D01*
X659626Y342988D01*
X659705Y342937D01*
X659710Y342936D01*
X659715Y342933D01*
X659892Y342901D01*
X660908Y342901D01*
X660913Y342902D01*
G37*
G36*
X652793Y323023D02*
X652793Y323023D01*
X652795Y323023D01*
X652890Y323045D01*
X652986Y323066D01*
X652988Y323068D01*
X652991Y323068D01*
X653139Y323171D01*
X655220Y325253D01*
X656019Y325584D01*
X657244Y326091D01*
X658468Y326598D01*
X658581Y326645D01*
X662219Y326645D01*
X664291Y325786D01*
X664298Y325785D01*
X664303Y325782D01*
X664396Y325766D01*
X664488Y325748D01*
X664494Y325749D01*
X664501Y325748D01*
X664592Y325769D01*
X664684Y325788D01*
X664690Y325792D01*
X664696Y325794D01*
X664844Y325896D01*
X670157Y331209D01*
X670161Y331216D01*
X670167Y331220D01*
X670216Y331299D01*
X670268Y331376D01*
X670269Y331384D01*
X670273Y331390D01*
X670305Y331568D01*
X670305Y337846D01*
X670289Y337927D01*
X670279Y338008D01*
X670269Y338024D01*
X670266Y338043D01*
X670220Y338111D01*
X670179Y338182D01*
X670164Y338193D01*
X670153Y338209D01*
X670084Y338253D01*
X670019Y338303D01*
X670001Y338308D01*
X669985Y338318D01*
X669904Y338333D01*
X669825Y338353D01*
X669806Y338350D01*
X669788Y338354D01*
X669707Y338336D01*
X669627Y338324D01*
X669611Y338314D01*
X669592Y338310D01*
X669525Y338263D01*
X669455Y338220D01*
X669443Y338204D01*
X669429Y338194D01*
X669399Y338146D01*
X669346Y338077D01*
X669090Y337575D01*
X668150Y336281D01*
X667019Y335150D01*
X665725Y334210D01*
X664300Y333484D01*
X662779Y332989D01*
X661415Y332773D01*
X661415Y342392D01*
X661414Y342397D01*
X661415Y342402D01*
X661394Y342495D01*
X661376Y342588D01*
X661373Y342593D01*
X661372Y342598D01*
X661316Y342676D01*
X661263Y342754D01*
X661259Y342757D01*
X661256Y342761D01*
X661174Y342812D01*
X661095Y342863D01*
X661090Y342864D01*
X661085Y342867D01*
X660908Y342899D01*
X659892Y342899D01*
X659887Y342898D01*
X659882Y342899D01*
X659789Y342878D01*
X659696Y342860D01*
X659691Y342857D01*
X659686Y342855D01*
X659608Y342800D01*
X659530Y342747D01*
X659527Y342742D01*
X659523Y342739D01*
X659472Y342658D01*
X659420Y342579D01*
X659420Y342574D01*
X659417Y342569D01*
X659385Y342392D01*
X659385Y332773D01*
X658021Y332989D01*
X656500Y333484D01*
X655075Y334210D01*
X653781Y335150D01*
X653139Y335792D01*
X653136Y335793D01*
X653135Y335796D01*
X653054Y335848D01*
X652972Y335903D01*
X652969Y335903D01*
X652967Y335905D01*
X652871Y335922D01*
X652775Y335940D01*
X652772Y335940D01*
X652770Y335940D01*
X652673Y335919D01*
X652579Y335899D01*
X652577Y335897D01*
X652574Y335897D01*
X652494Y335840D01*
X652414Y335785D01*
X652413Y335782D01*
X652411Y335781D01*
X652359Y335698D01*
X652307Y335615D01*
X652306Y335613D01*
X652305Y335611D01*
X652273Y335433D01*
X652273Y323530D01*
X652273Y323527D01*
X652273Y323525D01*
X652293Y323430D01*
X652312Y323333D01*
X652314Y323331D01*
X652314Y323329D01*
X652370Y323248D01*
X652425Y323168D01*
X652427Y323166D01*
X652429Y323164D01*
X652512Y323111D01*
X652593Y323058D01*
X652596Y323058D01*
X652598Y323056D01*
X652694Y323040D01*
X652790Y323023D01*
X652793Y323023D01*
G37*
%LPC*%
G36*
X40982Y159793D02*
X40982Y159793D01*
X37873Y162902D01*
X37873Y167298D01*
X40982Y170407D01*
X45378Y170407D01*
X48487Y167298D01*
X48487Y162902D01*
X45378Y159793D01*
X40982Y159793D01*
G37*
%LPD*%
%LPC*%
G36*
X531202Y134393D02*
X531202Y134393D01*
X528093Y137502D01*
X528093Y141898D01*
X531202Y145007D01*
X535598Y145007D01*
X538707Y141898D01*
X538707Y137502D01*
X535598Y134393D01*
X531202Y134393D01*
G37*
%LPD*%
%LPC*%
G36*
X124802Y121693D02*
X124802Y121693D01*
X121693Y124802D01*
X121693Y129198D01*
X124802Y132307D01*
X129198Y132307D01*
X132307Y129198D01*
X132307Y124802D01*
X129198Y121693D01*
X124802Y121693D01*
G37*
%LPD*%
%LPC*%
G36*
X43522Y22633D02*
X43522Y22633D01*
X40413Y25742D01*
X40413Y30138D01*
X43522Y33247D01*
X47918Y33247D01*
X51027Y30138D01*
X51027Y25742D01*
X47918Y22633D01*
X43522Y22633D01*
G37*
%LPD*%
%LPC*%
G36*
X597242Y487453D02*
X597242Y487453D01*
X594133Y490562D01*
X594133Y494958D01*
X597242Y498067D01*
X601638Y498067D01*
X604747Y494958D01*
X604747Y490562D01*
X601638Y487453D01*
X597242Y487453D01*
G37*
%LPD*%
%LPC*%
G36*
X518502Y286793D02*
X518502Y286793D01*
X515393Y289902D01*
X515393Y294298D01*
X518502Y297407D01*
X522898Y297407D01*
X526007Y294298D01*
X526007Y289902D01*
X522898Y286793D01*
X518502Y286793D01*
G37*
%LPD*%
%LPC*%
G36*
X165442Y279173D02*
X165442Y279173D01*
X162333Y282282D01*
X162333Y286678D01*
X165442Y289787D01*
X169838Y289787D01*
X172947Y286678D01*
X172947Y282282D01*
X169838Y279173D01*
X165442Y279173D01*
G37*
%LPD*%
%LPC*%
G36*
X438102Y270673D02*
X438102Y270673D01*
X434993Y273782D01*
X434993Y278178D01*
X438102Y281287D01*
X442498Y281287D01*
X445607Y278178D01*
X445607Y273782D01*
X442498Y270673D01*
X438102Y270673D01*
G37*
%LPD*%
%LPC*%
G36*
X179412Y266473D02*
X179412Y266473D01*
X176303Y269582D01*
X176303Y273978D01*
X179412Y277087D01*
X183808Y277087D01*
X186917Y273978D01*
X186917Y269582D01*
X183808Y266473D01*
X179412Y266473D01*
G37*
%LPD*%
%LPC*%
G36*
X174967Y235358D02*
X174967Y235358D01*
X171858Y238467D01*
X171858Y242863D01*
X174967Y245972D01*
X179363Y245972D01*
X182472Y242863D01*
X182472Y238467D01*
X179363Y235358D01*
X174967Y235358D01*
G37*
%LPD*%
%LPC*%
G36*
X124802Y233453D02*
X124802Y233453D01*
X121693Y236562D01*
X121693Y240958D01*
X124802Y244067D01*
X129198Y244067D01*
X132307Y240958D01*
X132307Y236562D01*
X129198Y233453D01*
X124802Y233453D01*
G37*
%LPD*%
%LPC*%
G36*
X94322Y105183D02*
X94322Y105183D01*
X91213Y108292D01*
X91213Y112688D01*
X94322Y115797D01*
X98718Y115797D01*
X101827Y112688D01*
X101827Y108292D01*
X98718Y105183D01*
X94322Y105183D01*
G37*
%LPD*%
%LPC*%
G36*
X86702Y210593D02*
X86702Y210593D01*
X83593Y213702D01*
X83593Y218098D01*
X86702Y221207D01*
X91098Y221207D01*
X94207Y218098D01*
X94207Y213702D01*
X91098Y210593D01*
X86702Y210593D01*
G37*
%LPD*%
%LPC*%
G36*
X124802Y197893D02*
X124802Y197893D01*
X121693Y201002D01*
X121693Y205398D01*
X124802Y208507D01*
X129198Y208507D01*
X132307Y205398D01*
X132307Y201002D01*
X129198Y197893D01*
X124802Y197893D01*
G37*
%LPD*%
%LPC*%
G36*
X125475Y498855D02*
X125475Y498855D01*
X125475Y507967D01*
X126839Y507751D01*
X128360Y507256D01*
X129785Y506530D01*
X131079Y505590D01*
X132210Y504459D01*
X133150Y503165D01*
X133876Y501740D01*
X134371Y500219D01*
X134587Y498855D01*
X125475Y498855D01*
G37*
%LPD*%
%LPC*%
G36*
X469645Y280415D02*
X469645Y280415D01*
X469645Y289527D01*
X471009Y289311D01*
X472530Y288816D01*
X473955Y288090D01*
X475249Y287150D01*
X476380Y286019D01*
X477320Y284725D01*
X478046Y283300D01*
X478541Y281779D01*
X478757Y280415D01*
X469645Y280415D01*
G37*
%LPD*%
%LPC*%
G36*
X636015Y89915D02*
X636015Y89915D01*
X636015Y99027D01*
X637379Y98811D01*
X638900Y98316D01*
X640325Y97590D01*
X641619Y96650D01*
X642750Y95519D01*
X643690Y94225D01*
X644416Y92800D01*
X644911Y91279D01*
X645127Y89915D01*
X636015Y89915D01*
G37*
%LPD*%
%LPC*%
G36*
X469645Y77215D02*
X469645Y77215D01*
X469645Y86327D01*
X471009Y86111D01*
X472530Y85616D01*
X473955Y84890D01*
X475249Y83950D01*
X476380Y82819D01*
X477320Y81525D01*
X478046Y80100D01*
X478541Y78579D01*
X478757Y77215D01*
X469645Y77215D01*
G37*
%LPD*%
%LPC*%
G36*
X558545Y77215D02*
X558545Y77215D01*
X558545Y86327D01*
X559909Y86111D01*
X561430Y85616D01*
X562855Y84890D01*
X564149Y83950D01*
X565280Y82819D01*
X566220Y81525D01*
X566946Y80100D01*
X567441Y78579D01*
X567657Y77215D01*
X558545Y77215D01*
G37*
%LPD*%
%LPC*%
G36*
X636015Y343915D02*
X636015Y343915D01*
X636015Y353027D01*
X637379Y352811D01*
X638900Y352316D01*
X640325Y351590D01*
X641619Y350650D01*
X642750Y349519D01*
X643690Y348225D01*
X644416Y346800D01*
X644911Y345279D01*
X645127Y343915D01*
X636015Y343915D01*
G37*
%LPD*%
%LPC*%
G36*
X469645Y178815D02*
X469645Y178815D01*
X469645Y187927D01*
X471009Y187711D01*
X472530Y187216D01*
X473955Y186490D01*
X475249Y185550D01*
X476380Y184419D01*
X477320Y183125D01*
X478046Y181700D01*
X478541Y180179D01*
X478757Y178815D01*
X469645Y178815D01*
G37*
%LPD*%
%LPC*%
G36*
X624873Y343915D02*
X624873Y343915D01*
X625089Y345279D01*
X625584Y346800D01*
X626310Y348225D01*
X627250Y349519D01*
X628381Y350650D01*
X629675Y351590D01*
X631100Y352316D01*
X632621Y352811D01*
X633985Y353027D01*
X633985Y343915D01*
X624873Y343915D01*
G37*
%LPD*%
%LPC*%
G36*
X558545Y75185D02*
X558545Y75185D01*
X567657Y75185D01*
X567441Y73821D01*
X566946Y72300D01*
X566220Y70875D01*
X565280Y69581D01*
X564149Y68450D01*
X562855Y67510D01*
X561430Y66784D01*
X559909Y66289D01*
X558545Y66073D01*
X558545Y75185D01*
G37*
%LPD*%
%LPC*%
G36*
X469645Y278385D02*
X469645Y278385D01*
X478757Y278385D01*
X478541Y277021D01*
X478046Y275500D01*
X477320Y274075D01*
X476380Y272781D01*
X475249Y271650D01*
X473955Y270710D01*
X472530Y269984D01*
X471009Y269489D01*
X469645Y269273D01*
X469645Y278385D01*
G37*
%LPD*%
%LPC*%
G36*
X114333Y498855D02*
X114333Y498855D01*
X114549Y500219D01*
X115044Y501740D01*
X115770Y503165D01*
X116710Y504459D01*
X117841Y505590D01*
X119135Y506530D01*
X120560Y507256D01*
X122081Y507751D01*
X123445Y507967D01*
X123445Y498855D01*
X114333Y498855D01*
G37*
%LPD*%
%LPC*%
G36*
X458503Y280415D02*
X458503Y280415D01*
X458719Y281779D01*
X459214Y283300D01*
X459940Y284725D01*
X460880Y286019D01*
X462011Y287150D01*
X463305Y288090D01*
X464730Y288816D01*
X466251Y289311D01*
X467615Y289527D01*
X467615Y280415D01*
X458503Y280415D01*
G37*
%LPD*%
%LPC*%
G36*
X458503Y178815D02*
X458503Y178815D01*
X458719Y180179D01*
X459214Y181700D01*
X459940Y183125D01*
X460880Y184419D01*
X462011Y185550D01*
X463305Y186490D01*
X464730Y187216D01*
X466251Y187711D01*
X467615Y187927D01*
X467615Y178815D01*
X458503Y178815D01*
G37*
%LPD*%
%LPC*%
G36*
X624873Y89915D02*
X624873Y89915D01*
X625089Y91279D01*
X625584Y92800D01*
X626310Y94225D01*
X627250Y95519D01*
X628381Y96650D01*
X629675Y97590D01*
X631100Y98316D01*
X632621Y98811D01*
X633985Y99027D01*
X633985Y89915D01*
X624873Y89915D01*
G37*
%LPD*%
%LPC*%
G36*
X650273Y89915D02*
X650273Y89915D01*
X650489Y91279D01*
X650984Y92800D01*
X651710Y94225D01*
X652650Y95519D01*
X653781Y96650D01*
X655075Y97590D01*
X656500Y98316D01*
X658021Y98811D01*
X659385Y99027D01*
X659385Y89915D01*
X650273Y89915D01*
G37*
%LPD*%
%LPC*%
G36*
X636015Y87885D02*
X636015Y87885D01*
X645127Y87885D01*
X644911Y86521D01*
X644416Y85000D01*
X643690Y83575D01*
X642750Y82281D01*
X641619Y81150D01*
X640325Y80210D01*
X638900Y79484D01*
X637379Y78989D01*
X636015Y78773D01*
X636015Y87885D01*
G37*
%LPD*%
%LPC*%
G36*
X458503Y77215D02*
X458503Y77215D01*
X458719Y78579D01*
X459214Y80100D01*
X459940Y81525D01*
X460880Y82819D01*
X462011Y83950D01*
X463305Y84890D01*
X464730Y85616D01*
X466251Y86111D01*
X467615Y86327D01*
X467615Y77215D01*
X458503Y77215D01*
G37*
%LPD*%
%LPC*%
G36*
X469645Y75185D02*
X469645Y75185D01*
X478757Y75185D01*
X478541Y73821D01*
X478046Y72300D01*
X477320Y70875D01*
X476380Y69581D01*
X475249Y68450D01*
X473955Y67510D01*
X472530Y66784D01*
X471009Y66289D01*
X469645Y66073D01*
X469645Y75185D01*
G37*
%LPD*%
%LPC*%
G36*
X547403Y77215D02*
X547403Y77215D01*
X547619Y78579D01*
X548114Y80100D01*
X548840Y81525D01*
X549780Y82819D01*
X550911Y83950D01*
X552205Y84890D01*
X553630Y85616D01*
X555151Y86111D01*
X556515Y86327D01*
X556515Y77215D01*
X547403Y77215D01*
G37*
%LPD*%
%LPC*%
G36*
X125475Y496825D02*
X125475Y496825D01*
X134587Y496825D01*
X134371Y495461D01*
X133876Y493940D01*
X133150Y492515D01*
X132210Y491221D01*
X131079Y490090D01*
X129785Y489150D01*
X128360Y488424D01*
X126839Y487929D01*
X125475Y487713D01*
X125475Y496825D01*
G37*
%LPD*%
%LPC*%
G36*
X466251Y269489D02*
X466251Y269489D01*
X464730Y269984D01*
X463305Y270710D01*
X462011Y271650D01*
X460880Y272781D01*
X459940Y274075D01*
X459214Y275500D01*
X458719Y277021D01*
X458503Y278385D01*
X467615Y278385D01*
X467615Y269273D01*
X466251Y269489D01*
G37*
%LPD*%
%LPC*%
G36*
X555151Y66289D02*
X555151Y66289D01*
X553630Y66784D01*
X552205Y67510D01*
X550911Y68450D01*
X549780Y69581D01*
X548840Y70875D01*
X548114Y72300D01*
X547619Y73821D01*
X547403Y75185D01*
X556515Y75185D01*
X556515Y66073D01*
X555151Y66289D01*
G37*
%LPD*%
%LPC*%
G36*
X466251Y66289D02*
X466251Y66289D01*
X464730Y66784D01*
X463305Y67510D01*
X462011Y68450D01*
X460880Y69581D01*
X459940Y70875D01*
X459214Y72300D01*
X458719Y73821D01*
X458503Y75185D01*
X467615Y75185D01*
X467615Y66073D01*
X466251Y66289D01*
G37*
%LPD*%
%LPC*%
G36*
X658021Y78989D02*
X658021Y78989D01*
X656500Y79484D01*
X655075Y80210D01*
X653781Y81150D01*
X652650Y82281D01*
X651710Y83575D01*
X650984Y85000D01*
X650489Y86521D01*
X650273Y87885D01*
X659385Y87885D01*
X659385Y78773D01*
X658021Y78989D01*
G37*
%LPD*%
%LPC*%
G36*
X632621Y78989D02*
X632621Y78989D01*
X631100Y79484D01*
X629675Y80210D01*
X628381Y81150D01*
X627250Y82281D01*
X626310Y83575D01*
X625584Y85000D01*
X625089Y86521D01*
X624873Y87885D01*
X633985Y87885D01*
X633985Y78773D01*
X632621Y78989D01*
G37*
%LPD*%
%LPC*%
G36*
X122081Y487929D02*
X122081Y487929D01*
X120560Y488424D01*
X119135Y489150D01*
X117841Y490090D01*
X116710Y491221D01*
X115770Y492515D01*
X115044Y493940D01*
X114549Y495461D01*
X114333Y496825D01*
X123445Y496825D01*
X123445Y487713D01*
X122081Y487929D01*
G37*
%LPD*%
%LPC*%
G36*
X265175Y509015D02*
X265175Y509015D01*
X265175Y518046D01*
X266520Y517833D01*
X268030Y517342D01*
X269443Y516622D01*
X270727Y515689D01*
X271849Y514567D01*
X272782Y513283D01*
X273502Y511870D01*
X273993Y510360D01*
X274206Y509015D01*
X265175Y509015D01*
G37*
%LPD*%
%LPC*%
G36*
X407415Y26415D02*
X407415Y26415D01*
X407415Y35446D01*
X408760Y35233D01*
X410270Y34742D01*
X411683Y34022D01*
X412967Y33089D01*
X414089Y31967D01*
X415022Y30683D01*
X415742Y29270D01*
X416233Y27760D01*
X416446Y26415D01*
X407415Y26415D01*
G37*
%LPD*%
%LPC*%
G36*
X432815Y26415D02*
X432815Y26415D01*
X432815Y35446D01*
X434160Y35233D01*
X435670Y34742D01*
X437083Y34022D01*
X438367Y33089D01*
X439489Y31967D01*
X440422Y30683D01*
X441142Y29270D01*
X441633Y27760D01*
X441846Y26415D01*
X432815Y26415D01*
G37*
%LPD*%
%LPC*%
G36*
X421754Y26415D02*
X421754Y26415D01*
X421967Y27760D01*
X422458Y29270D01*
X423178Y30683D01*
X424111Y31967D01*
X425233Y33089D01*
X426517Y34022D01*
X427930Y34742D01*
X429440Y35233D01*
X430785Y35446D01*
X430785Y26415D01*
X421754Y26415D01*
G37*
%LPD*%
%LPC*%
G36*
X396354Y26415D02*
X396354Y26415D01*
X396567Y27760D01*
X397058Y29270D01*
X397778Y30683D01*
X398711Y31967D01*
X399833Y33089D01*
X401117Y34022D01*
X402530Y34742D01*
X404040Y35233D01*
X405385Y35446D01*
X405385Y26415D01*
X396354Y26415D01*
G37*
%LPD*%
%LPC*%
G36*
X265175Y506985D02*
X265175Y506985D01*
X274206Y506985D01*
X273993Y505640D01*
X273502Y504130D01*
X272782Y502717D01*
X271849Y501433D01*
X270727Y500311D01*
X269443Y499378D01*
X268030Y498658D01*
X266520Y498167D01*
X265175Y497954D01*
X265175Y506985D01*
G37*
%LPD*%
%LPC*%
G36*
X254114Y509015D02*
X254114Y509015D01*
X254327Y510360D01*
X254818Y511870D01*
X255538Y513283D01*
X256471Y514567D01*
X257593Y515689D01*
X258877Y516622D01*
X260290Y517342D01*
X261800Y517833D01*
X263145Y518046D01*
X263145Y509015D01*
X254114Y509015D01*
G37*
%LPD*%
%LPC*%
G36*
X407415Y24385D02*
X407415Y24385D01*
X416446Y24385D01*
X416233Y23040D01*
X415742Y21530D01*
X415022Y20117D01*
X414089Y18833D01*
X412967Y17711D01*
X411683Y16778D01*
X410270Y16058D01*
X408760Y15567D01*
X407415Y15354D01*
X407415Y24385D01*
G37*
%LPD*%
%LPC*%
G36*
X432815Y24385D02*
X432815Y24385D01*
X441846Y24385D01*
X441633Y23040D01*
X441142Y21530D01*
X440422Y20117D01*
X439489Y18833D01*
X438367Y17711D01*
X437083Y16778D01*
X435670Y16058D01*
X434160Y15567D01*
X432815Y15354D01*
X432815Y24385D01*
G37*
%LPD*%
%LPC*%
G36*
X261800Y498167D02*
X261800Y498167D01*
X260290Y498658D01*
X258877Y499378D01*
X257593Y500311D01*
X256471Y501433D01*
X255538Y502717D01*
X254818Y504130D01*
X254327Y505640D01*
X254114Y506985D01*
X263145Y506985D01*
X263145Y497954D01*
X261800Y498167D01*
G37*
%LPD*%
%LPC*%
G36*
X404040Y15567D02*
X404040Y15567D01*
X402530Y16058D01*
X401117Y16778D01*
X399833Y17711D01*
X398711Y18833D01*
X397778Y20117D01*
X397058Y21530D01*
X396567Y23040D01*
X396354Y24385D01*
X405385Y24385D01*
X405385Y15354D01*
X404040Y15567D01*
G37*
%LPD*%
%LPC*%
G36*
X429440Y15567D02*
X429440Y15567D01*
X427930Y16058D01*
X426517Y16778D01*
X425233Y17711D01*
X424111Y18833D01*
X423178Y20117D01*
X422458Y21530D01*
X421967Y23040D01*
X421754Y24385D01*
X430785Y24385D01*
X430785Y15354D01*
X429440Y15567D01*
G37*
%LPD*%
%LPC*%
G36*
X634999Y88899D02*
X634999Y88899D01*
X634999Y88901D01*
X635001Y88901D01*
X635001Y88899D01*
X634999Y88899D01*
G37*
%LPD*%
%LPC*%
G36*
X124459Y497839D02*
X124459Y497839D01*
X124459Y497841D01*
X124461Y497841D01*
X124461Y497839D01*
X124459Y497839D01*
G37*
%LPD*%
%LPC*%
G36*
X468629Y279399D02*
X468629Y279399D01*
X468629Y279401D01*
X468631Y279401D01*
X468631Y279399D01*
X468629Y279399D01*
G37*
%LPD*%
%LPC*%
G36*
X264159Y507999D02*
X264159Y507999D01*
X264159Y508001D01*
X264161Y508001D01*
X264161Y507999D01*
X264159Y507999D01*
G37*
%LPD*%
%LPC*%
G36*
X557529Y76199D02*
X557529Y76199D01*
X557529Y76201D01*
X557531Y76201D01*
X557531Y76199D01*
X557529Y76199D01*
G37*
%LPD*%
%LPC*%
G36*
X406399Y25399D02*
X406399Y25399D01*
X406399Y25401D01*
X406401Y25401D01*
X406401Y25399D01*
X406399Y25399D01*
G37*
%LPD*%
%LPC*%
G36*
X468629Y76199D02*
X468629Y76199D01*
X468629Y76201D01*
X468631Y76201D01*
X468631Y76199D01*
X468629Y76199D01*
G37*
%LPD*%
%LPC*%
G36*
X431799Y25399D02*
X431799Y25399D01*
X431799Y25401D01*
X431801Y25401D01*
X431801Y25399D01*
X431799Y25399D01*
G37*
%LPD*%
D10*
X533400Y508000D03*
X508000Y25400D03*
X558800Y508000D03*
X584200Y508000D03*
X609600Y508000D03*
X635000Y508000D03*
X508000Y508000D03*
X482600Y508000D03*
X457200Y508000D03*
X416560Y508000D03*
X391160Y508000D03*
X365760Y508000D03*
X340360Y508000D03*
X314960Y508000D03*
X289560Y508000D03*
X264160Y508000D03*
X238760Y508000D03*
X533400Y25400D03*
X558800Y25400D03*
X584200Y25400D03*
X609600Y25400D03*
X635000Y25400D03*
X457200Y25400D03*
X431800Y25400D03*
X406400Y25400D03*
X381000Y25400D03*
X355600Y25400D03*
X330200Y25400D03*
D11*
X468630Y177800D03*
X471170Y203200D03*
X468630Y228600D03*
X468630Y76200D03*
X471170Y101600D03*
X468630Y127000D03*
X557530Y76200D03*
X560070Y101600D03*
X557530Y127000D03*
X560070Y152400D03*
X635000Y190500D03*
X660400Y190500D03*
X635000Y165100D03*
X660400Y165100D03*
X635000Y139700D03*
X660400Y139700D03*
X635000Y114300D03*
X660400Y114300D03*
X635000Y88900D03*
X660400Y88900D03*
X635000Y63500D03*
X660400Y63500D03*
X24130Y491490D03*
X52070Y491490D03*
X468630Y279400D03*
X471170Y304800D03*
X468630Y330200D03*
X471170Y355600D03*
X660400Y241300D03*
X635000Y241300D03*
X660400Y266700D03*
X635000Y266700D03*
X660400Y292100D03*
X635000Y292100D03*
X660400Y317500D03*
X635000Y317500D03*
X660400Y342900D03*
X635000Y342900D03*
X660400Y368300D03*
X635000Y368300D03*
X557530Y203200D03*
X560070Y228600D03*
X557530Y254000D03*
X560070Y279400D03*
X557530Y330200D03*
X560070Y355600D03*
X557530Y381000D03*
X560070Y406400D03*
D12*
X100330Y44450D03*
X100330Y19050D03*
D11*
X124460Y497840D03*
X99060Y497840D03*
D13*
X38100Y381000D03*
X25400Y393700D03*
X50800Y393700D03*
X76200Y393700D03*
X63500Y381000D03*
X76200Y368300D03*
X50800Y368300D03*
X25400Y368300D03*
X59690Y330200D03*
X73660Y330200D03*
X87630Y330200D03*
X101600Y330200D03*
X113030Y336550D03*
X121920Y345440D03*
X132080Y354330D03*
X138430Y364490D03*
X140970Y378460D03*
X140970Y393700D03*
X140970Y427990D03*
X140970Y440690D03*
X31750Y424180D03*
X31750Y436880D03*
X31750Y452120D03*
X140970Y455930D03*
X140970Y469900D03*
X72390Y494030D03*
X31750Y467360D03*
X140970Y486410D03*
X140970Y500380D03*
X140970Y515620D03*
X289556Y333588D03*
X299720Y396240D03*
X185420Y459740D03*
X185420Y408940D03*
X223520Y447040D03*
X210820Y256540D03*
X198120Y180340D03*
X312420Y180340D03*
X312420Y243840D03*
D14*
X647700Y254000D02*
X660400Y241300D01*
X637028Y330200D02*
X558800Y330200D01*
X557530Y330200D01*
X645414Y321814D02*
X645414Y301339D01*
X645414Y321814D02*
X637028Y330200D01*
X647700Y299053D02*
X647700Y254000D01*
X647700Y299053D02*
X645414Y301339D01*
X565150Y330200D02*
X558800Y330200D01*
X575310Y440690D02*
X508000Y508000D01*
X575310Y440690D02*
X575310Y340360D01*
X565150Y330200D01*
X533400Y495300D02*
X533400Y508000D01*
X581660Y447040D02*
X581660Y421640D01*
X584200Y419100D01*
D13*
X584200Y419100D03*
D14*
X581660Y447040D02*
X533400Y495300D01*
X558800Y508000D02*
X558800Y482600D01*
X649478Y391922D02*
X649478Y303022D01*
X660400Y292100D01*
X649478Y391922D02*
X558800Y482600D01*
X584200Y482600D02*
X584200Y508000D01*
X584200Y482600D02*
X584200Y469900D01*
X648589Y405511D02*
X648589Y398968D01*
X673100Y374457D01*
X648589Y405511D02*
X584200Y469900D01*
X673100Y330200D02*
X660400Y317500D01*
X673100Y330200D02*
X673100Y374457D01*
D13*
X511810Y303530D03*
X440300Y275980D03*
X490220Y431800D03*
D14*
X633730Y241300D02*
X635000Y241300D01*
X619506Y255524D02*
X619506Y296164D01*
X619506Y255524D02*
X633730Y241300D01*
X619506Y296164D02*
X603504Y312166D01*
X536797Y312166D02*
X529336Y319627D01*
X536797Y312166D02*
X603504Y312166D01*
X529336Y392684D02*
X490220Y431800D01*
X529336Y392684D02*
X529336Y319627D01*
X623570Y278130D02*
X635000Y266700D01*
X623570Y278130D02*
X623570Y299720D01*
X607060Y316230D01*
X538480Y316230D02*
X533400Y321310D01*
X533400Y402590D02*
X506095Y429895D01*
X496570Y439420D01*
X538480Y316230D02*
X607060Y316230D01*
X533400Y321310D02*
X533400Y402590D01*
D13*
X496570Y439420D03*
D14*
X506095Y429895D01*
D13*
X181610Y271780D03*
X532130Y287020D03*
X167640Y284480D03*
X520700Y292100D03*
X127000Y127000D03*
X533400Y139700D03*
X96520Y110490D03*
X394970Y102870D03*
D14*
X410210Y102870D01*
X454660Y58420D01*
X673100Y107950D02*
X673100Y114300D01*
X673100Y121920D01*
X666750Y128270D01*
X642620Y139700D02*
X635000Y139700D01*
X654050Y128270D02*
X666750Y128270D01*
X654050Y128270D02*
X642620Y139700D01*
X609600Y50800D02*
X584200Y25400D01*
X609600Y50800D02*
X669097Y50800D01*
X673100Y54803D02*
X673100Y114300D01*
X673100Y54803D02*
X669097Y50800D01*
X570611Y11811D02*
X495300Y11811D01*
X454660Y52451D01*
X454660Y58420D01*
X570611Y11811D02*
X584200Y25400D01*
D13*
X431800Y165100D03*
D14*
X473710Y165100D01*
X524510Y114300D01*
X596900Y114300D01*
X609600Y114300D01*
X635000Y114300D01*
X596900Y63500D02*
X558800Y25400D01*
X596900Y63500D02*
X596900Y114300D01*
D13*
X177165Y240665D03*
D14*
X624840Y217170D02*
X656590Y217170D01*
X660400Y213360D01*
X660400Y190500D01*
X375666Y498094D02*
X365760Y508000D01*
X375666Y498094D02*
X386452Y498094D01*
X386880Y497666D01*
X407909Y497666D01*
X614172Y227838D02*
X624840Y217170D01*
X614172Y227838D02*
X614172Y295751D01*
X601821Y308102D01*
X535113Y308102D02*
X525272Y317943D01*
X535113Y308102D02*
X601821Y308102D01*
X525272Y380303D02*
X407909Y497666D01*
X525272Y380303D02*
X525272Y317943D01*
D13*
X127000Y203200D03*
D14*
X354330Y494030D02*
X340360Y508000D01*
X384768Y494030D02*
X385196Y493602D01*
X615950Y208280D02*
X646430Y208280D01*
X647700Y207010D01*
X647700Y175260D01*
X657860Y165100D01*
X660400Y165100D01*
X384768Y494030D02*
X354330Y494030D01*
X385196Y493602D02*
X406225Y493602D01*
X610108Y214122D02*
X615950Y208280D01*
X610108Y214122D02*
X610108Y291527D01*
X597597Y304038D01*
X533430Y304038D02*
X521208Y316260D01*
X533430Y304038D02*
X597597Y304038D01*
X521208Y378619D02*
X406225Y493602D01*
X521208Y378619D02*
X521208Y316260D01*
D13*
X88900Y215900D03*
D14*
X335280Y487680D02*
X314960Y508000D01*
X622300Y152400D02*
X654050Y152400D01*
X660400Y146050D01*
X660400Y139700D01*
X406400Y487680D02*
X335280Y487680D01*
X606044Y286766D02*
X606044Y168656D01*
X622300Y152400D01*
X606044Y286766D02*
X592836Y299974D01*
X531747Y299974D02*
X517144Y314577D01*
X531747Y299974D02*
X592836Y299974D01*
X517144Y376936D02*
X406400Y487680D01*
X517144Y376936D02*
X517144Y314577D01*
D13*
X127000Y238760D03*
D14*
X314960Y482600D02*
X289560Y508000D01*
X314960Y482600D02*
X405130Y482600D01*
X601980Y281940D02*
X601980Y138430D01*
X613410Y127000D01*
X647700Y127000D02*
X660400Y114300D01*
X601980Y281940D02*
X588010Y295910D01*
X613410Y127000D02*
X647700Y127000D01*
X530063Y295910D02*
X513080Y312893D01*
X530063Y295910D02*
X588010Y295910D01*
X513080Y374650D02*
X405130Y482600D01*
X513080Y374650D02*
X513080Y312893D01*
D13*
X45720Y27940D03*
X43180Y165100D03*
X599440Y492760D03*
X546100Y492760D03*
D14*
X485140Y318770D02*
X471170Y304800D01*
X485140Y318770D02*
X485140Y374650D01*
D13*
X485140Y374650D03*
M02*
