G04 EAGLE Gerber RS-274X export*
G75*
%MOMM*%
%FSLAX34Y34*%
%LPD*%
%INBottom Copper*%
%IPPOS*%
%AMOC8*
5,1,8,0,0,1.08239X$1,22.5*%
G01*
%ADD10P,1.814519X8X22.500000*%
%ADD11R,1.879600X1.879600*%
%ADD12C,1.879600*%
%ADD13P,1.649562X8X292.500000*%
%ADD14P,1.649562X8X112.500000*%
%ADD15C,1.676400*%
%ADD16R,1.524000X1.524000*%
%ADD17C,0.756400*%
%ADD18C,0.254000*%
%ADD19C,0.406400*%
%ADD20C,0.508000*%

G36*
X93385Y10558D02*
X93385Y10558D01*
X93473Y10567D01*
X93494Y10577D01*
X93518Y10581D01*
X93594Y10627D01*
X93674Y10666D01*
X93690Y10683D01*
X93711Y10696D01*
X93767Y10765D01*
X93828Y10829D01*
X93837Y10851D01*
X93852Y10870D01*
X93881Y10954D01*
X93915Y11036D01*
X93917Y11060D01*
X93924Y11082D01*
X93922Y11171D01*
X93925Y11260D01*
X93918Y11283D01*
X93918Y11307D01*
X93884Y11389D01*
X93857Y11474D01*
X93841Y11495D01*
X93833Y11514D01*
X93799Y11552D01*
X93745Y11624D01*
X91931Y13438D01*
X90423Y17079D01*
X90423Y21021D01*
X91932Y24662D01*
X94718Y27448D01*
X98359Y28957D01*
X102301Y28957D01*
X105942Y27448D01*
X108728Y24662D01*
X110237Y21021D01*
X110237Y17079D01*
X108729Y13438D01*
X106915Y11624D01*
X106864Y11551D01*
X106808Y11482D01*
X106800Y11460D01*
X106787Y11440D01*
X106764Y11354D01*
X106736Y11270D01*
X106737Y11246D01*
X106731Y11223D01*
X106740Y11134D01*
X106742Y11045D01*
X106751Y11023D01*
X106754Y11000D01*
X106793Y10920D01*
X106827Y10838D01*
X106843Y10820D01*
X106853Y10799D01*
X106918Y10738D01*
X106978Y10672D01*
X106999Y10661D01*
X107017Y10645D01*
X107098Y10610D01*
X107178Y10569D01*
X107204Y10566D01*
X107223Y10557D01*
X107274Y10555D01*
X107363Y10542D01*
X649224Y10542D01*
X649289Y10553D01*
X649355Y10555D01*
X649398Y10573D01*
X649445Y10581D01*
X649502Y10615D01*
X649562Y10640D01*
X649597Y10671D01*
X649638Y10696D01*
X649680Y10747D01*
X649728Y10791D01*
X649750Y10833D01*
X649779Y10870D01*
X649800Y10932D01*
X649831Y10991D01*
X649839Y11045D01*
X649851Y11082D01*
X649850Y11122D01*
X649858Y11176D01*
X649858Y27497D01*
X651463Y31371D01*
X654518Y34426D01*
X675072Y54981D01*
X675097Y55016D01*
X675128Y55044D01*
X675160Y55107D01*
X675201Y55165D01*
X675211Y55206D01*
X675231Y55244D01*
X675244Y55333D01*
X675257Y55382D01*
X675254Y55403D01*
X675258Y55429D01*
X675258Y373831D01*
X675251Y373873D01*
X675253Y373915D01*
X675231Y373982D01*
X675219Y374052D01*
X675197Y374088D01*
X675184Y374129D01*
X675130Y374201D01*
X675104Y374245D01*
X675088Y374258D01*
X675072Y374279D01*
X654518Y394834D01*
X651463Y397889D01*
X649858Y401763D01*
X649858Y440891D01*
X649842Y440979D01*
X649833Y441067D01*
X649823Y441089D01*
X649819Y441112D01*
X649773Y441189D01*
X649734Y441268D01*
X649717Y441285D01*
X649704Y441305D01*
X649635Y441361D01*
X649571Y441422D01*
X649549Y441432D01*
X649530Y441447D01*
X649446Y441475D01*
X649364Y441510D01*
X649340Y441511D01*
X649318Y441518D01*
X649229Y441516D01*
X649140Y441520D01*
X649117Y441513D01*
X649093Y441512D01*
X649011Y441478D01*
X648926Y441451D01*
X648905Y441435D01*
X648886Y441428D01*
X648848Y441394D01*
X648776Y441340D01*
X646870Y439435D01*
X639168Y436244D01*
X630832Y436244D01*
X623129Y439435D01*
X617235Y445329D01*
X614044Y453032D01*
X614044Y461368D01*
X617235Y469071D01*
X623129Y474965D01*
X630832Y478156D01*
X639168Y478156D01*
X646870Y474965D01*
X648776Y473060D01*
X648802Y473042D01*
X648804Y473040D01*
X648807Y473038D01*
X648849Y473009D01*
X648918Y472953D01*
X648940Y472946D01*
X648960Y472932D01*
X649046Y472910D01*
X649130Y472882D01*
X649154Y472882D01*
X649177Y472876D01*
X649266Y472886D01*
X649355Y472888D01*
X649377Y472897D01*
X649400Y472900D01*
X649480Y472939D01*
X649562Y472972D01*
X649580Y472988D01*
X649601Y472999D01*
X649662Y473064D01*
X649728Y473124D01*
X649739Y473145D01*
X649755Y473162D01*
X649790Y473244D01*
X649831Y473323D01*
X649834Y473350D01*
X649843Y473369D01*
X649845Y473419D01*
X649848Y473441D01*
X649851Y473451D01*
X649851Y473460D01*
X649858Y473509D01*
X649858Y513813D01*
X649853Y513841D01*
X649856Y513870D01*
X649833Y513951D01*
X649819Y514034D01*
X649804Y514058D01*
X649796Y514086D01*
X649726Y514190D01*
X649704Y514227D01*
X649698Y514232D01*
X649692Y514241D01*
X641981Y522653D01*
X641937Y522687D01*
X641899Y522728D01*
X641848Y522754D01*
X641803Y522789D01*
X641749Y522805D01*
X641699Y522831D01*
X641632Y522841D01*
X641588Y522854D01*
X641556Y522852D01*
X641514Y522858D01*
X206809Y522858D01*
X206721Y522842D01*
X206633Y522833D01*
X206611Y522823D01*
X206588Y522819D01*
X206511Y522773D01*
X206432Y522734D01*
X206415Y522717D01*
X206395Y522704D01*
X206339Y522635D01*
X206278Y522571D01*
X206268Y522549D01*
X206253Y522530D01*
X206225Y522446D01*
X206190Y522364D01*
X206189Y522340D01*
X206182Y522318D01*
X206184Y522229D01*
X206180Y522140D01*
X206187Y522117D01*
X206188Y522093D01*
X206222Y522011D01*
X206249Y521926D01*
X206265Y521905D01*
X206272Y521886D01*
X206306Y521848D01*
X206360Y521776D01*
X208265Y519870D01*
X211456Y512168D01*
X211456Y503832D01*
X208265Y496129D01*
X202371Y490235D01*
X194668Y487044D01*
X186332Y487044D01*
X178629Y490235D01*
X172735Y496129D01*
X169544Y503832D01*
X169544Y512168D01*
X172735Y519870D01*
X174640Y521776D01*
X174691Y521849D01*
X174747Y521918D01*
X174754Y521940D01*
X174768Y521960D01*
X174790Y522046D01*
X174818Y522130D01*
X174818Y522154D01*
X174824Y522177D01*
X174814Y522266D01*
X174812Y522355D01*
X174803Y522377D01*
X174800Y522400D01*
X174761Y522480D01*
X174728Y522562D01*
X174712Y522580D01*
X174701Y522601D01*
X174636Y522662D01*
X174576Y522728D01*
X174555Y522739D01*
X174538Y522755D01*
X174456Y522790D01*
X174377Y522831D01*
X174350Y522834D01*
X174331Y522843D01*
X174281Y522845D01*
X174191Y522858D01*
X158115Y522858D01*
X158050Y522847D01*
X157984Y522845D01*
X157941Y522827D01*
X157894Y522819D01*
X157837Y522785D01*
X157777Y522760D01*
X157742Y522729D01*
X157701Y522704D01*
X157659Y522653D01*
X157611Y522609D01*
X157589Y522567D01*
X157560Y522530D01*
X157539Y522468D01*
X157508Y522409D01*
X157500Y522355D01*
X157488Y522318D01*
X157489Y522278D01*
X157481Y522224D01*
X157481Y353495D01*
X116405Y312419D01*
X11176Y312419D01*
X11111Y312408D01*
X11045Y312406D01*
X11002Y312388D01*
X10955Y312380D01*
X10898Y312346D01*
X10838Y312321D01*
X10803Y312290D01*
X10762Y312265D01*
X10720Y312214D01*
X10672Y312170D01*
X10650Y312128D01*
X10621Y312091D01*
X10600Y312029D01*
X10569Y311970D01*
X10561Y311916D01*
X10549Y311879D01*
X10550Y311839D01*
X10542Y311785D01*
X10542Y11176D01*
X10553Y11111D01*
X10555Y11045D01*
X10573Y11002D01*
X10581Y10955D01*
X10615Y10898D01*
X10640Y10838D01*
X10671Y10803D01*
X10696Y10762D01*
X10747Y10720D01*
X10791Y10672D01*
X10833Y10650D01*
X10870Y10621D01*
X10932Y10600D01*
X10991Y10569D01*
X11045Y10561D01*
X11082Y10549D01*
X11122Y10550D01*
X11176Y10542D01*
X93297Y10542D01*
X93385Y10558D01*
G37*
%LPC*%
G36*
X351496Y15493D02*
X351496Y15493D01*
X345693Y21296D01*
X345693Y29296D01*
X345686Y29337D01*
X345688Y29380D01*
X345666Y29447D01*
X345654Y29516D01*
X345632Y29553D01*
X345619Y29593D01*
X345565Y29666D01*
X345539Y29710D01*
X345523Y29723D01*
X345507Y29744D01*
X277902Y97349D01*
X277867Y97374D01*
X277839Y97405D01*
X277776Y97437D01*
X277718Y97478D01*
X277677Y97488D01*
X277639Y97508D01*
X277549Y97521D01*
X277501Y97534D01*
X277480Y97531D01*
X277454Y97535D01*
X49149Y97535D01*
X49084Y97524D01*
X49018Y97522D01*
X48975Y97504D01*
X48928Y97496D01*
X48871Y97462D01*
X48811Y97437D01*
X48776Y97406D01*
X48735Y97381D01*
X48693Y97330D01*
X48645Y97286D01*
X48623Y97244D01*
X48594Y97207D01*
X48573Y97145D01*
X48542Y97086D01*
X48534Y97032D01*
X48522Y96995D01*
X48523Y96955D01*
X48515Y96901D01*
X48515Y32913D01*
X48522Y32871D01*
X48520Y32829D01*
X48542Y32762D01*
X48554Y32692D01*
X48576Y32655D01*
X48589Y32615D01*
X48643Y32542D01*
X48669Y32499D01*
X48685Y32486D01*
X48701Y32464D01*
X51027Y30138D01*
X51027Y25742D01*
X47918Y22633D01*
X43522Y22633D01*
X40413Y25742D01*
X40413Y30138D01*
X42739Y32464D01*
X42764Y32499D01*
X42795Y32528D01*
X42827Y32591D01*
X42868Y32649D01*
X42878Y32690D01*
X42898Y32727D01*
X42911Y32817D01*
X42924Y32866D01*
X42921Y32887D01*
X42925Y32913D01*
X42925Y98384D01*
X42918Y98425D01*
X42920Y98468D01*
X42898Y98535D01*
X42886Y98604D01*
X42864Y98641D01*
X42851Y98681D01*
X42797Y98754D01*
X42771Y98798D01*
X42755Y98811D01*
X42739Y98832D01*
X41655Y99916D01*
X41655Y103284D01*
X42739Y104368D01*
X42764Y104403D01*
X42795Y104431D01*
X42827Y104494D01*
X42868Y104552D01*
X42878Y104593D01*
X42898Y104631D01*
X42911Y104721D01*
X42924Y104769D01*
X42921Y104790D01*
X42925Y104816D01*
X42925Y159159D01*
X42914Y159224D01*
X42912Y159290D01*
X42894Y159333D01*
X42886Y159380D01*
X42852Y159437D01*
X42827Y159497D01*
X42796Y159532D01*
X42771Y159573D01*
X42720Y159615D01*
X42676Y159663D01*
X42634Y159685D01*
X42597Y159714D01*
X42535Y159735D01*
X42476Y159766D01*
X42422Y159774D01*
X42385Y159786D01*
X42345Y159785D01*
X42291Y159793D01*
X40982Y159793D01*
X37873Y162902D01*
X37873Y167298D01*
X40982Y170407D01*
X45378Y170407D01*
X48487Y167298D01*
X48487Y165278D01*
X48494Y165237D01*
X48492Y165194D01*
X48500Y165169D01*
X48500Y165168D01*
X48502Y165164D01*
X48514Y165127D01*
X48515Y165123D01*
X48515Y106299D01*
X48526Y106234D01*
X48528Y106168D01*
X48546Y106125D01*
X48554Y106078D01*
X48588Y106021D01*
X48613Y105961D01*
X48644Y105926D01*
X48669Y105885D01*
X48720Y105843D01*
X48764Y105795D01*
X48806Y105773D01*
X48843Y105744D01*
X48905Y105723D01*
X48964Y105692D01*
X49018Y105684D01*
X49055Y105672D01*
X49095Y105673D01*
X49149Y105665D01*
X92309Y105665D01*
X92397Y105681D01*
X92485Y105690D01*
X92507Y105700D01*
X92530Y105704D01*
X92607Y105750D01*
X92686Y105789D01*
X92703Y105806D01*
X92723Y105819D01*
X92779Y105888D01*
X92840Y105952D01*
X92850Y105974D01*
X92865Y105993D01*
X92893Y106077D01*
X92928Y106159D01*
X92929Y106183D01*
X92936Y106205D01*
X92934Y106294D01*
X92938Y106383D01*
X92931Y106406D01*
X92930Y106430D01*
X92896Y106512D01*
X92869Y106597D01*
X92853Y106618D01*
X92846Y106637D01*
X92812Y106675D01*
X92758Y106747D01*
X91213Y108292D01*
X91213Y112688D01*
X94322Y115797D01*
X97612Y115797D01*
X97653Y115804D01*
X97696Y115802D01*
X97763Y115824D01*
X97833Y115836D01*
X97869Y115858D01*
X97909Y115871D01*
X97982Y115925D01*
X98026Y115951D01*
X98039Y115967D01*
X98060Y115983D01*
X128636Y146559D01*
X530494Y146559D01*
X531860Y145193D01*
X531895Y145168D01*
X531923Y145137D01*
X531986Y145105D01*
X532044Y145064D01*
X532085Y145054D01*
X532123Y145034D01*
X532213Y145021D01*
X532261Y145008D01*
X532282Y145011D01*
X532308Y145007D01*
X535598Y145007D01*
X537924Y142681D01*
X537959Y142656D01*
X537988Y142625D01*
X538051Y142593D01*
X538109Y142552D01*
X538150Y142542D01*
X538187Y142522D01*
X538277Y142509D01*
X538326Y142496D01*
X538347Y142499D01*
X538373Y142495D01*
X545950Y142495D01*
X545991Y142502D01*
X546034Y142500D01*
X546101Y142522D01*
X546171Y142534D01*
X546207Y142556D01*
X546247Y142569D01*
X546320Y142623D01*
X546364Y142649D01*
X546377Y142665D01*
X546398Y142681D01*
X550253Y146535D01*
X550284Y146580D01*
X550322Y146618D01*
X550347Y146671D01*
X550381Y146719D01*
X550394Y146772D01*
X550417Y146821D01*
X550422Y146880D01*
X550437Y146937D01*
X550431Y146991D01*
X550436Y147044D01*
X550418Y147114D01*
X550414Y147160D01*
X550400Y147187D01*
X550390Y147226D01*
X549147Y150227D01*
X549147Y154573D01*
X550810Y158587D01*
X553883Y161660D01*
X557897Y163323D01*
X562243Y163323D01*
X566257Y161660D01*
X569330Y158587D01*
X570993Y154573D01*
X570993Y150227D01*
X569330Y146213D01*
X566257Y143140D01*
X562243Y141477D01*
X557897Y141477D01*
X554896Y142720D01*
X554843Y142732D01*
X554794Y142753D01*
X554735Y142756D01*
X554677Y142768D01*
X554624Y142761D01*
X554569Y142763D01*
X554513Y142745D01*
X554455Y142737D01*
X554407Y142711D01*
X554356Y142694D01*
X554299Y142652D01*
X554258Y142630D01*
X554237Y142607D01*
X554205Y142583D01*
X548528Y136905D01*
X538373Y136905D01*
X538331Y136898D01*
X538289Y136900D01*
X538222Y136878D01*
X538152Y136866D01*
X538115Y136844D01*
X538075Y136831D01*
X538002Y136777D01*
X537959Y136751D01*
X537946Y136735D01*
X537924Y136719D01*
X535598Y134393D01*
X531490Y134393D01*
X531403Y134377D01*
X531314Y134368D01*
X531293Y134358D01*
X531269Y134354D01*
X531193Y134308D01*
X531113Y134269D01*
X531097Y134252D01*
X531076Y134239D01*
X531020Y134170D01*
X530959Y134106D01*
X530950Y134084D01*
X530935Y134065D01*
X530906Y133981D01*
X530872Y133899D01*
X530871Y133875D01*
X530863Y133853D01*
X530866Y133764D01*
X530862Y133675D01*
X530869Y133652D01*
X530870Y133628D01*
X530903Y133546D01*
X530930Y133461D01*
X530946Y133440D01*
X530954Y133421D01*
X530988Y133383D01*
X531042Y133311D01*
X534372Y129980D01*
X534407Y129956D01*
X534435Y129925D01*
X534498Y129893D01*
X534556Y129852D01*
X534597Y129842D01*
X534635Y129822D01*
X534725Y129809D01*
X534773Y129796D01*
X534794Y129799D01*
X534820Y129795D01*
X546441Y129795D01*
X546494Y129804D01*
X546549Y129804D01*
X546604Y129824D01*
X546662Y129834D01*
X546709Y129862D01*
X546760Y129880D01*
X546804Y129919D01*
X546855Y129949D01*
X546889Y129991D01*
X546931Y130026D01*
X546967Y130087D01*
X546997Y130123D01*
X547006Y130152D01*
X547027Y130186D01*
X548270Y133187D01*
X551343Y136260D01*
X555357Y137923D01*
X559703Y137923D01*
X563717Y136260D01*
X566790Y133187D01*
X568453Y129173D01*
X568453Y124827D01*
X566790Y120813D01*
X563717Y117740D01*
X559703Y116077D01*
X555357Y116077D01*
X551343Y117740D01*
X548270Y120813D01*
X547027Y123814D01*
X546998Y123859D01*
X546978Y123909D01*
X546938Y123953D01*
X546906Y124003D01*
X546863Y124035D01*
X546826Y124075D01*
X546774Y124102D01*
X546727Y124137D01*
X546675Y124153D01*
X546627Y124178D01*
X546556Y124188D01*
X546512Y124201D01*
X546481Y124199D01*
X546441Y124205D01*
X532242Y124205D01*
X519728Y136719D01*
X519693Y136744D01*
X519665Y136775D01*
X519602Y136807D01*
X519544Y136848D01*
X519503Y136858D01*
X519465Y136878D01*
X519375Y136891D01*
X519327Y136904D01*
X519306Y136901D01*
X519280Y136905D01*
X475703Y136905D01*
X475615Y136889D01*
X475527Y136880D01*
X475506Y136870D01*
X475482Y136866D01*
X475406Y136820D01*
X475326Y136781D01*
X475309Y136764D01*
X475289Y136751D01*
X475233Y136682D01*
X475172Y136618D01*
X475163Y136596D01*
X475148Y136577D01*
X475119Y136493D01*
X475084Y136411D01*
X475083Y136387D01*
X475076Y136365D01*
X475078Y136276D01*
X475074Y136187D01*
X475082Y136164D01*
X475082Y136140D01*
X475116Y136058D01*
X475143Y135973D01*
X475159Y135952D01*
X475167Y135933D01*
X475201Y135895D01*
X475255Y135823D01*
X477890Y133187D01*
X478607Y131456D01*
X478636Y131411D01*
X478656Y131361D01*
X478696Y131317D01*
X478728Y131267D01*
X478771Y131235D01*
X478808Y131195D01*
X478860Y131168D01*
X478907Y131133D01*
X478959Y131117D01*
X479007Y131092D01*
X479078Y131082D01*
X479122Y131069D01*
X479153Y131071D01*
X479193Y131065D01*
X484284Y131065D01*
X509498Y105851D01*
X509529Y105829D01*
X509547Y105809D01*
X509549Y105808D01*
X509561Y105795D01*
X509624Y105763D01*
X509682Y105722D01*
X509723Y105712D01*
X509761Y105692D01*
X509851Y105679D01*
X509899Y105666D01*
X509920Y105669D01*
X509946Y105665D01*
X549507Y105665D01*
X549560Y105674D01*
X549615Y105674D01*
X549670Y105694D01*
X549728Y105704D01*
X549775Y105732D01*
X549826Y105750D01*
X549871Y105789D01*
X549921Y105819D01*
X549955Y105861D01*
X549997Y105896D01*
X550033Y105957D01*
X550063Y105993D01*
X550067Y106005D01*
X550069Y106007D01*
X550075Y106026D01*
X550093Y106056D01*
X550810Y107787D01*
X553883Y110860D01*
X557897Y112523D01*
X562243Y112523D01*
X566257Y110860D01*
X569330Y107787D01*
X570047Y106056D01*
X570076Y106011D01*
X570090Y105975D01*
X570091Y105975D01*
X570096Y105961D01*
X570136Y105917D01*
X570168Y105867D01*
X570211Y105835D01*
X570248Y105795D01*
X570300Y105768D01*
X570347Y105733D01*
X570399Y105717D01*
X570447Y105692D01*
X570518Y105682D01*
X570562Y105669D01*
X570593Y105671D01*
X570633Y105665D01*
X574454Y105665D01*
X577021Y103098D01*
X611098Y69021D01*
X611133Y68996D01*
X611161Y68965D01*
X611224Y68933D01*
X611282Y68892D01*
X611323Y68882D01*
X611361Y68862D01*
X611451Y68849D01*
X611499Y68836D01*
X611520Y68839D01*
X611546Y68835D01*
X612554Y68835D01*
X613638Y67751D01*
X613673Y67726D01*
X613701Y67695D01*
X613764Y67663D01*
X613822Y67622D01*
X613863Y67612D01*
X613901Y67592D01*
X613991Y67579D01*
X614039Y67566D01*
X614060Y67569D01*
X614086Y67565D01*
X625869Y67565D01*
X625911Y67572D01*
X625954Y67570D01*
X626021Y67592D01*
X626090Y67604D01*
X626127Y67626D01*
X626167Y67639D01*
X626240Y67693D01*
X626283Y67719D01*
X626297Y67735D01*
X626318Y67751D01*
X631212Y72645D01*
X638788Y72645D01*
X643682Y67751D01*
X643717Y67726D01*
X643746Y67695D01*
X643808Y67663D01*
X643866Y67622D01*
X643907Y67612D01*
X643945Y67592D01*
X644035Y67579D01*
X644084Y67566D01*
X644104Y67569D01*
X644131Y67565D01*
X651269Y67565D01*
X651311Y67572D01*
X651354Y67570D01*
X651421Y67592D01*
X651490Y67604D01*
X651527Y67626D01*
X651567Y67639D01*
X651640Y67693D01*
X651683Y67719D01*
X651697Y67735D01*
X651718Y67751D01*
X656612Y72645D01*
X664188Y72645D01*
X669545Y67288D01*
X669545Y59712D01*
X664188Y54355D01*
X656612Y54355D01*
X651718Y59249D01*
X651683Y59274D01*
X651654Y59305D01*
X651592Y59337D01*
X651534Y59378D01*
X651493Y59388D01*
X651455Y59408D01*
X651365Y59421D01*
X651316Y59434D01*
X651296Y59431D01*
X651269Y59435D01*
X644131Y59435D01*
X644089Y59428D01*
X644046Y59430D01*
X643979Y59408D01*
X643910Y59396D01*
X643873Y59374D01*
X643833Y59361D01*
X643760Y59307D01*
X643717Y59281D01*
X643703Y59265D01*
X643682Y59249D01*
X638788Y54355D01*
X631212Y54355D01*
X626318Y59249D01*
X626283Y59274D01*
X626254Y59305D01*
X626192Y59337D01*
X626134Y59378D01*
X626093Y59388D01*
X626055Y59408D01*
X625965Y59421D01*
X625916Y59434D01*
X625896Y59431D01*
X625869Y59435D01*
X611546Y59435D01*
X611505Y59428D01*
X611462Y59430D01*
X611395Y59408D01*
X611326Y59396D01*
X611289Y59374D01*
X611249Y59361D01*
X611176Y59307D01*
X611132Y59281D01*
X611119Y59265D01*
X611098Y59249D01*
X598584Y46735D01*
X382946Y46735D01*
X382905Y46728D01*
X382862Y46730D01*
X382795Y46708D01*
X382726Y46696D01*
X382689Y46674D01*
X382649Y46661D01*
X382576Y46607D01*
X382532Y46581D01*
X382519Y46565D01*
X382498Y46549D01*
X365693Y29744D01*
X365668Y29709D01*
X365637Y29681D01*
X365605Y29618D01*
X365564Y29560D01*
X365554Y29519D01*
X365534Y29481D01*
X365521Y29391D01*
X365508Y29343D01*
X365511Y29322D01*
X365507Y29296D01*
X365507Y21296D01*
X359704Y15493D01*
X351496Y15493D01*
G37*
%LPD*%
G36*
X111975Y322588D02*
X111975Y322588D01*
X112017Y322586D01*
X112084Y322608D01*
X112154Y322620D01*
X112190Y322642D01*
X112231Y322655D01*
X112303Y322709D01*
X112347Y322735D01*
X112354Y322744D01*
X112359Y322747D01*
X112366Y322755D01*
X112381Y322767D01*
X147133Y357519D01*
X147158Y357554D01*
X147189Y357582D01*
X147221Y357645D01*
X147262Y357703D01*
X147272Y357744D01*
X147292Y357782D01*
X147305Y357871D01*
X147318Y357920D01*
X147315Y357941D01*
X147319Y357967D01*
X147319Y522224D01*
X147308Y522289D01*
X147306Y522355D01*
X147288Y522398D01*
X147280Y522445D01*
X147246Y522502D01*
X147221Y522562D01*
X147190Y522597D01*
X147165Y522638D01*
X147114Y522680D01*
X147070Y522728D01*
X147028Y522750D01*
X146991Y522779D01*
X146929Y522800D01*
X146870Y522831D01*
X146816Y522839D01*
X146779Y522851D01*
X146739Y522850D01*
X146685Y522858D01*
X11176Y522858D01*
X11111Y522847D01*
X11045Y522845D01*
X11002Y522827D01*
X10955Y522819D01*
X10898Y522785D01*
X10838Y522760D01*
X10803Y522729D01*
X10762Y522704D01*
X10720Y522653D01*
X10672Y522609D01*
X10650Y522567D01*
X10621Y522530D01*
X10600Y522468D01*
X10569Y522409D01*
X10561Y522355D01*
X10549Y522318D01*
X10550Y522278D01*
X10542Y522224D01*
X10542Y323215D01*
X10553Y323150D01*
X10555Y323084D01*
X10573Y323041D01*
X10581Y322994D01*
X10615Y322937D01*
X10640Y322877D01*
X10671Y322842D01*
X10696Y322801D01*
X10747Y322759D01*
X10791Y322711D01*
X10833Y322689D01*
X10870Y322660D01*
X10932Y322639D01*
X10991Y322608D01*
X11045Y322600D01*
X11082Y322588D01*
X11122Y322589D01*
X11176Y322581D01*
X111933Y322581D01*
X111975Y322588D01*
G37*
G36*
X359537Y35314D02*
X359537Y35314D01*
X359580Y35312D01*
X359647Y35334D01*
X359716Y35346D01*
X359753Y35368D01*
X359793Y35381D01*
X359866Y35435D01*
X359910Y35461D01*
X359923Y35477D01*
X359944Y35493D01*
X379316Y54865D01*
X594954Y54865D01*
X594995Y54872D01*
X595038Y54870D01*
X595105Y54892D01*
X595174Y54904D01*
X595211Y54926D01*
X595251Y54939D01*
X595324Y54993D01*
X595368Y55019D01*
X595381Y55035D01*
X595402Y55051D01*
X604038Y63687D01*
X604076Y63741D01*
X604121Y63788D01*
X604139Y63832D01*
X604166Y63871D01*
X604183Y63934D01*
X604208Y63995D01*
X604210Y64042D01*
X604222Y64088D01*
X604215Y64153D01*
X604218Y64219D01*
X604204Y64264D01*
X604199Y64311D01*
X604170Y64370D01*
X604150Y64433D01*
X604117Y64477D01*
X604099Y64512D01*
X604071Y64539D01*
X604038Y64583D01*
X571272Y97349D01*
X571237Y97374D01*
X571209Y97405D01*
X571146Y97437D01*
X571088Y97478D01*
X571047Y97488D01*
X571009Y97508D01*
X570919Y97521D01*
X570871Y97534D01*
X570850Y97531D01*
X570824Y97535D01*
X570633Y97535D01*
X570580Y97526D01*
X570525Y97526D01*
X570470Y97506D01*
X570412Y97496D01*
X570365Y97468D01*
X570314Y97450D01*
X570269Y97411D01*
X570219Y97381D01*
X570185Y97339D01*
X570143Y97304D01*
X570107Y97243D01*
X570077Y97207D01*
X570068Y97178D01*
X570047Y97144D01*
X569330Y95413D01*
X566257Y92340D01*
X562243Y90677D01*
X557897Y90677D01*
X553883Y92340D01*
X550810Y95413D01*
X550093Y97144D01*
X550064Y97189D01*
X550044Y97239D01*
X550004Y97283D01*
X549972Y97333D01*
X549929Y97365D01*
X549892Y97405D01*
X549840Y97432D01*
X549793Y97467D01*
X549741Y97483D01*
X549693Y97508D01*
X549622Y97518D01*
X549578Y97531D01*
X549547Y97529D01*
X549507Y97535D01*
X506316Y97535D01*
X481102Y122749D01*
X481067Y122774D01*
X481039Y122805D01*
X480976Y122837D01*
X480918Y122878D01*
X480877Y122888D01*
X480839Y122908D01*
X480749Y122921D01*
X480701Y122934D01*
X480680Y122931D01*
X480654Y122935D01*
X479193Y122935D01*
X479140Y122926D01*
X479085Y122926D01*
X479030Y122906D01*
X478972Y122896D01*
X478925Y122868D01*
X478874Y122850D01*
X478829Y122811D01*
X478779Y122781D01*
X478745Y122739D01*
X478703Y122704D01*
X478667Y122643D01*
X478637Y122607D01*
X478628Y122578D01*
X478607Y122544D01*
X477890Y120813D01*
X474817Y117740D01*
X470803Y116077D01*
X466457Y116077D01*
X462443Y117740D01*
X459370Y120813D01*
X457707Y124827D01*
X457707Y129173D01*
X459370Y133187D01*
X462005Y135823D01*
X462056Y135896D01*
X462112Y135965D01*
X462120Y135987D01*
X462134Y136007D01*
X462156Y136093D01*
X462184Y136177D01*
X462184Y136201D01*
X462189Y136224D01*
X462180Y136313D01*
X462178Y136402D01*
X462169Y136424D01*
X462166Y136447D01*
X462127Y136527D01*
X462093Y136609D01*
X462077Y136627D01*
X462067Y136648D01*
X462002Y136709D01*
X461942Y136775D01*
X461921Y136786D01*
X461904Y136802D01*
X461822Y136837D01*
X461742Y136878D01*
X461716Y136881D01*
X461697Y136890D01*
X461647Y136892D01*
X461557Y136905D01*
X141120Y136905D01*
X141079Y136898D01*
X141036Y136900D01*
X140969Y136878D01*
X140899Y136866D01*
X140863Y136844D01*
X140823Y136831D01*
X140750Y136777D01*
X140706Y136751D01*
X140693Y136735D01*
X140672Y136719D01*
X132493Y128540D01*
X132468Y128505D01*
X132437Y128477D01*
X132405Y128414D01*
X132364Y128356D01*
X132354Y128315D01*
X132334Y128277D01*
X132321Y128187D01*
X132308Y128139D01*
X132311Y128118D01*
X132307Y128092D01*
X132307Y124802D01*
X129198Y121693D01*
X124802Y121693D01*
X121693Y124802D01*
X121693Y129198D01*
X124802Y132307D01*
X128092Y132307D01*
X128133Y132314D01*
X128176Y132312D01*
X128243Y132334D01*
X128313Y132346D01*
X128349Y132368D01*
X128389Y132381D01*
X128462Y132435D01*
X128506Y132461D01*
X128513Y132469D01*
X128517Y132472D01*
X128524Y132481D01*
X128540Y132493D01*
X135934Y139887D01*
X135985Y139960D01*
X136041Y140029D01*
X136049Y140051D01*
X136062Y140071D01*
X136084Y140157D01*
X136113Y140241D01*
X136112Y140265D01*
X136118Y140288D01*
X136109Y140377D01*
X136106Y140466D01*
X136097Y140488D01*
X136095Y140511D01*
X136056Y140591D01*
X136022Y140673D01*
X136006Y140691D01*
X135996Y140712D01*
X135931Y140773D01*
X135871Y140839D01*
X135850Y140850D01*
X135832Y140866D01*
X135750Y140901D01*
X135671Y140942D01*
X135645Y140945D01*
X135626Y140954D01*
X135575Y140956D01*
X135486Y140969D01*
X131214Y140969D01*
X131173Y140962D01*
X131130Y140964D01*
X131063Y140942D01*
X130993Y140930D01*
X130957Y140908D01*
X130917Y140895D01*
X130844Y140841D01*
X130800Y140815D01*
X130787Y140799D01*
X130766Y140783D01*
X102013Y112030D01*
X101988Y111995D01*
X101957Y111967D01*
X101925Y111904D01*
X101884Y111846D01*
X101874Y111805D01*
X101854Y111767D01*
X101841Y111677D01*
X101828Y111629D01*
X101831Y111608D01*
X101827Y111582D01*
X101827Y108292D01*
X100282Y106747D01*
X100231Y106674D01*
X100175Y106605D01*
X100168Y106583D01*
X100154Y106563D01*
X100132Y106477D01*
X100104Y106393D01*
X100104Y106369D01*
X100098Y106346D01*
X100108Y106257D01*
X100110Y106168D01*
X100119Y106146D01*
X100122Y106123D01*
X100161Y106043D01*
X100194Y105961D01*
X100210Y105943D01*
X100221Y105922D01*
X100286Y105861D01*
X100346Y105795D01*
X100367Y105784D01*
X100384Y105768D01*
X100466Y105733D01*
X100545Y105692D01*
X100572Y105689D01*
X100591Y105680D01*
X100641Y105678D01*
X100731Y105665D01*
X281084Y105665D01*
X283651Y103098D01*
X351256Y35493D01*
X351291Y35468D01*
X351319Y35437D01*
X351382Y35405D01*
X351440Y35364D01*
X351481Y35354D01*
X351519Y35334D01*
X351609Y35321D01*
X351657Y35308D01*
X351678Y35311D01*
X351704Y35307D01*
X359496Y35307D01*
X359537Y35314D01*
G37*
%LPC*%
G36*
X466457Y217677D02*
X466457Y217677D01*
X462443Y219340D01*
X459370Y222413D01*
X457707Y226427D01*
X457707Y230773D01*
X459370Y234787D01*
X462443Y237860D01*
X466457Y239523D01*
X470803Y239523D01*
X474817Y237860D01*
X477890Y234787D01*
X478607Y233056D01*
X478636Y233011D01*
X478656Y232961D01*
X478696Y232917D01*
X478728Y232867D01*
X478771Y232835D01*
X478808Y232795D01*
X478860Y232768D01*
X478907Y232733D01*
X478959Y232717D01*
X479007Y232692D01*
X479078Y232682D01*
X479122Y232669D01*
X479153Y232671D01*
X479193Y232665D01*
X549507Y232665D01*
X549560Y232674D01*
X549615Y232674D01*
X549670Y232694D01*
X549728Y232704D01*
X549775Y232732D01*
X549826Y232750D01*
X549871Y232789D01*
X549921Y232819D01*
X549955Y232861D01*
X549997Y232896D01*
X550033Y232957D01*
X550063Y232993D01*
X550072Y233022D01*
X550093Y233056D01*
X550810Y234787D01*
X553883Y237860D01*
X557897Y239523D01*
X562243Y239523D01*
X563974Y238806D01*
X564027Y238794D01*
X564076Y238773D01*
X564135Y238770D01*
X564193Y238758D01*
X564246Y238765D01*
X564301Y238763D01*
X564357Y238781D01*
X564415Y238789D01*
X564463Y238815D01*
X564514Y238832D01*
X564571Y238874D01*
X564612Y238896D01*
X564633Y238919D01*
X564665Y238943D01*
X579949Y254228D01*
X579974Y254263D01*
X580005Y254291D01*
X580037Y254354D01*
X580078Y254412D01*
X580088Y254453D01*
X580108Y254491D01*
X580121Y254581D01*
X580134Y254629D01*
X580131Y254650D01*
X580135Y254676D01*
X580135Y293456D01*
X580122Y293528D01*
X580122Y293548D01*
X580118Y293556D01*
X580110Y293632D01*
X580100Y293653D01*
X580096Y293677D01*
X580050Y293753D01*
X580011Y293833D01*
X579994Y293849D01*
X579981Y293870D01*
X579912Y293926D01*
X579848Y293987D01*
X579826Y293996D01*
X579807Y294011D01*
X579723Y294040D01*
X579641Y294074D01*
X579617Y294075D01*
X579595Y294083D01*
X579506Y294080D01*
X579417Y294084D01*
X579394Y294077D01*
X579370Y294076D01*
X579288Y294043D01*
X579203Y294016D01*
X579182Y294000D01*
X579163Y293992D01*
X579125Y293958D01*
X579053Y293904D01*
X570041Y284893D01*
X570010Y284848D01*
X569972Y284810D01*
X569947Y284757D01*
X569913Y284709D01*
X569900Y284656D01*
X569877Y284607D01*
X569872Y284548D01*
X569857Y284491D01*
X569863Y284438D01*
X569858Y284384D01*
X569876Y284314D01*
X569880Y284268D01*
X569894Y284241D01*
X569904Y284202D01*
X570993Y281573D01*
X570993Y277227D01*
X569330Y273213D01*
X566257Y270140D01*
X562243Y268477D01*
X557897Y268477D01*
X553883Y270140D01*
X550810Y273213D01*
X549147Y277227D01*
X549147Y281573D01*
X550810Y285587D01*
X553883Y288660D01*
X557897Y290323D01*
X562243Y290323D01*
X563076Y289978D01*
X563129Y289966D01*
X563178Y289945D01*
X563237Y289942D01*
X563295Y289930D01*
X563348Y289937D01*
X563403Y289935D01*
X563459Y289953D01*
X563517Y289961D01*
X563565Y289987D01*
X563616Y290004D01*
X563673Y290046D01*
X563714Y290068D01*
X563734Y290091D01*
X563767Y290115D01*
X579949Y306298D01*
X579974Y306333D01*
X580005Y306361D01*
X580030Y306410D01*
X580047Y306430D01*
X580051Y306444D01*
X580078Y306482D01*
X580088Y306523D01*
X580108Y306561D01*
X580121Y306651D01*
X580134Y306699D01*
X580131Y306720D01*
X580135Y306746D01*
X580135Y362966D01*
X580124Y363031D01*
X580122Y363097D01*
X580104Y363140D01*
X580096Y363187D01*
X580062Y363244D01*
X580037Y363304D01*
X580006Y363339D01*
X579981Y363380D01*
X579930Y363422D01*
X579886Y363470D01*
X579844Y363492D01*
X579807Y363521D01*
X579745Y363542D01*
X579686Y363573D01*
X579632Y363581D01*
X579595Y363593D01*
X579555Y363592D01*
X579501Y363600D01*
X574081Y363600D01*
X574040Y363593D01*
X573997Y363595D01*
X573930Y363573D01*
X573861Y363561D01*
X573824Y363539D01*
X573784Y363526D01*
X573711Y363472D01*
X573667Y363446D01*
X573654Y363430D01*
X573633Y363415D01*
X570413Y360195D01*
X570382Y360150D01*
X570344Y360112D01*
X570319Y360059D01*
X570285Y360011D01*
X570272Y359958D01*
X570249Y359909D01*
X570244Y359850D01*
X570229Y359793D01*
X570235Y359739D01*
X570230Y359686D01*
X570248Y359616D01*
X570252Y359570D01*
X570266Y359543D01*
X570276Y359504D01*
X570993Y357773D01*
X570993Y353427D01*
X569330Y349413D01*
X566257Y346340D01*
X562243Y344677D01*
X557897Y344677D01*
X553883Y346340D01*
X550810Y349413D01*
X550093Y351144D01*
X550064Y351189D01*
X550044Y351239D01*
X550004Y351283D01*
X549972Y351333D01*
X549929Y351365D01*
X549892Y351405D01*
X549840Y351432D01*
X549793Y351467D01*
X549741Y351483D01*
X549693Y351508D01*
X549622Y351518D01*
X549578Y351531D01*
X549547Y351529D01*
X549507Y351535D01*
X481733Y351535D01*
X481680Y351526D01*
X481625Y351526D01*
X481570Y351506D01*
X481512Y351496D01*
X481465Y351468D01*
X481414Y351450D01*
X481369Y351411D01*
X481319Y351381D01*
X481285Y351339D01*
X481243Y351304D01*
X481207Y351243D01*
X481177Y351207D01*
X481168Y351178D01*
X481147Y351144D01*
X480430Y349413D01*
X477357Y346340D01*
X473343Y344677D01*
X468997Y344677D01*
X464983Y346340D01*
X461910Y349413D01*
X460247Y353427D01*
X460247Y357773D01*
X461767Y361442D01*
X461788Y361540D01*
X461814Y361637D01*
X461812Y361649D01*
X461815Y361661D01*
X461801Y361761D01*
X461790Y361861D01*
X461785Y361871D01*
X461783Y361883D01*
X461735Y361972D01*
X461691Y362062D01*
X461682Y362070D01*
X461677Y362080D01*
X461601Y362147D01*
X461528Y362216D01*
X461517Y362220D01*
X461508Y362228D01*
X461414Y362264D01*
X461321Y362303D01*
X461309Y362304D01*
X461298Y362308D01*
X461197Y362309D01*
X461097Y362313D01*
X461086Y362309D01*
X461074Y362309D01*
X460979Y362275D01*
X460883Y362244D01*
X460873Y362237D01*
X460863Y362233D01*
X460828Y362203D01*
X460733Y362133D01*
X453831Y355231D01*
X453806Y355196D01*
X453775Y355167D01*
X453743Y355104D01*
X453702Y355047D01*
X453692Y355005D01*
X453672Y354968D01*
X453659Y354878D01*
X453646Y354829D01*
X453649Y354809D01*
X453645Y354782D01*
X453645Y349400D01*
X453652Y349359D01*
X453650Y349316D01*
X453672Y349249D01*
X453684Y349179D01*
X453706Y349143D01*
X453719Y349103D01*
X453773Y349030D01*
X453799Y348986D01*
X453815Y348973D01*
X453831Y348952D01*
X462765Y340017D01*
X462810Y339986D01*
X462848Y339948D01*
X462901Y339923D01*
X462949Y339889D01*
X463002Y339876D01*
X463051Y339853D01*
X463110Y339848D01*
X463167Y339833D01*
X463221Y339839D01*
X463274Y339834D01*
X463344Y339852D01*
X463390Y339856D01*
X463417Y339870D01*
X463456Y339880D01*
X466457Y341123D01*
X470803Y341123D01*
X474817Y339460D01*
X477890Y336387D01*
X479553Y332373D01*
X479553Y328027D01*
X477890Y324013D01*
X474817Y320940D01*
X470803Y319277D01*
X466457Y319277D01*
X462443Y320940D01*
X459370Y324013D01*
X457707Y328027D01*
X457707Y332373D01*
X458950Y335374D01*
X458962Y335427D01*
X458983Y335476D01*
X458986Y335535D01*
X458998Y335593D01*
X458991Y335646D01*
X458993Y335701D01*
X458975Y335757D01*
X458967Y335815D01*
X458941Y335863D01*
X458924Y335914D01*
X458882Y335971D01*
X458860Y336012D01*
X458837Y336033D01*
X458813Y336065D01*
X449878Y344999D01*
X448377Y346500D01*
X448304Y346551D01*
X448235Y346607D01*
X448213Y346615D01*
X448193Y346628D01*
X448107Y346650D01*
X448023Y346679D01*
X447999Y346678D01*
X447976Y346684D01*
X447887Y346675D01*
X447798Y346672D01*
X447776Y346663D01*
X447753Y346661D01*
X447673Y346622D01*
X447591Y346588D01*
X447573Y346572D01*
X447552Y346562D01*
X447491Y346497D01*
X447425Y346437D01*
X447414Y346416D01*
X447398Y346398D01*
X447363Y346316D01*
X447322Y346237D01*
X447319Y346211D01*
X447310Y346192D01*
X447308Y346141D01*
X447295Y346052D01*
X447295Y318920D01*
X447302Y318879D01*
X447300Y318836D01*
X447322Y318769D01*
X447334Y318699D01*
X447356Y318663D01*
X447369Y318623D01*
X447423Y318550D01*
X447449Y318506D01*
X447465Y318493D01*
X447481Y318472D01*
X458172Y307781D01*
X458207Y307756D01*
X458235Y307725D01*
X458298Y307693D01*
X458356Y307652D01*
X458397Y307642D01*
X458435Y307622D01*
X458525Y307609D01*
X458573Y307596D01*
X458594Y307599D01*
X458620Y307595D01*
X460081Y307595D01*
X460134Y307604D01*
X460189Y307604D01*
X460244Y307624D01*
X460302Y307634D01*
X460349Y307662D01*
X460400Y307680D01*
X460444Y307719D01*
X460495Y307749D01*
X460529Y307791D01*
X460571Y307826D01*
X460607Y307887D01*
X460637Y307923D01*
X460646Y307952D01*
X460667Y307986D01*
X461910Y310987D01*
X464983Y314060D01*
X468997Y315723D01*
X473343Y315723D01*
X477357Y314060D01*
X480430Y310987D01*
X482093Y306973D01*
X482093Y302627D01*
X480430Y298613D01*
X477357Y295540D01*
X473343Y293877D01*
X468997Y293877D01*
X464983Y295540D01*
X461910Y298613D01*
X460667Y301614D01*
X460638Y301659D01*
X460618Y301709D01*
X460578Y301753D01*
X460546Y301803D01*
X460503Y301835D01*
X460466Y301875D01*
X460414Y301902D01*
X460367Y301937D01*
X460315Y301953D01*
X460267Y301978D01*
X460196Y301988D01*
X460152Y302001D01*
X460121Y301999D01*
X460081Y302005D01*
X456042Y302005D01*
X441705Y316342D01*
X441705Y356758D01*
X543119Y458172D01*
X543144Y458207D01*
X543175Y458235D01*
X543207Y458298D01*
X543248Y458356D01*
X543258Y458397D01*
X543278Y458435D01*
X543291Y458525D01*
X543304Y458573D01*
X543301Y458594D01*
X543305Y458620D01*
X543305Y487787D01*
X543298Y487829D01*
X543300Y487871D01*
X543278Y487938D01*
X543266Y488008D01*
X543244Y488045D01*
X543231Y488085D01*
X543177Y488158D01*
X543151Y488201D01*
X543135Y488214D01*
X543119Y488236D01*
X540793Y490562D01*
X540793Y494958D01*
X543902Y498067D01*
X548298Y498067D01*
X551407Y494958D01*
X551407Y490562D01*
X549081Y488236D01*
X549056Y488201D01*
X549025Y488172D01*
X548993Y488109D01*
X548952Y488051D01*
X548942Y488010D01*
X548922Y487973D01*
X548909Y487883D01*
X548896Y487834D01*
X548899Y487813D01*
X548895Y487787D01*
X548895Y459731D01*
X548911Y459643D01*
X548920Y459555D01*
X548930Y459533D01*
X548934Y459510D01*
X548980Y459433D01*
X549019Y459354D01*
X549036Y459337D01*
X549049Y459317D01*
X549118Y459261D01*
X549182Y459200D01*
X549204Y459190D01*
X549223Y459175D01*
X549307Y459147D01*
X549389Y459112D01*
X549413Y459111D01*
X549435Y459104D01*
X549524Y459106D01*
X549613Y459102D01*
X549636Y459110D01*
X549660Y459110D01*
X549742Y459144D01*
X549827Y459171D01*
X549848Y459187D01*
X549867Y459195D01*
X549905Y459229D01*
X549977Y459282D01*
X587706Y497011D01*
X587756Y497084D01*
X587813Y497153D01*
X587820Y497175D01*
X587834Y497195D01*
X587856Y497281D01*
X587884Y497365D01*
X587884Y497389D01*
X587890Y497412D01*
X587880Y497501D01*
X587878Y497590D01*
X587869Y497612D01*
X587866Y497635D01*
X587827Y497715D01*
X587793Y497797D01*
X587777Y497815D01*
X587767Y497836D01*
X587702Y497897D01*
X587642Y497963D01*
X587621Y497974D01*
X587604Y497990D01*
X587522Y498025D01*
X587442Y498066D01*
X587416Y498069D01*
X587397Y498078D01*
X587347Y498080D01*
X587257Y498093D01*
X580096Y498093D01*
X574293Y503896D01*
X574293Y512104D01*
X580096Y517907D01*
X588304Y517907D01*
X594107Y512104D01*
X594107Y504943D01*
X594123Y504855D01*
X594132Y504767D01*
X594142Y504745D01*
X594146Y504722D01*
X594192Y504645D01*
X594231Y504566D01*
X594248Y504549D01*
X594261Y504529D01*
X594330Y504473D01*
X594394Y504412D01*
X594416Y504402D01*
X594435Y504387D01*
X594519Y504359D01*
X594601Y504324D01*
X594625Y504323D01*
X594647Y504316D01*
X594736Y504318D01*
X594825Y504314D01*
X594848Y504322D01*
X594872Y504322D01*
X594954Y504356D01*
X595039Y504383D01*
X595060Y504399D01*
X595079Y504407D01*
X595117Y504441D01*
X595189Y504494D01*
X599507Y508812D01*
X599532Y508847D01*
X599563Y508876D01*
X599595Y508939D01*
X599636Y508997D01*
X599646Y509038D01*
X599666Y509076D01*
X599679Y509165D01*
X599692Y509214D01*
X599689Y509235D01*
X599693Y509261D01*
X599693Y512104D01*
X605496Y517907D01*
X613704Y517907D01*
X619507Y512104D01*
X619507Y503896D01*
X613704Y498093D01*
X605496Y498093D01*
X601543Y502047D01*
X601489Y502084D01*
X601441Y502129D01*
X601398Y502148D01*
X601359Y502175D01*
X601295Y502191D01*
X601235Y502217D01*
X601187Y502219D01*
X601142Y502231D01*
X601076Y502224D01*
X601011Y502227D01*
X600966Y502212D01*
X600919Y502207D01*
X600860Y502178D01*
X600797Y502158D01*
X600753Y502125D01*
X600717Y502108D01*
X600690Y502079D01*
X600646Y502047D01*
X597749Y499149D01*
X597698Y499076D01*
X597642Y499007D01*
X597635Y498985D01*
X597621Y498965D01*
X597599Y498879D01*
X597570Y498795D01*
X597571Y498771D01*
X597565Y498748D01*
X597574Y498659D01*
X597577Y498570D01*
X597586Y498548D01*
X597588Y498525D01*
X597628Y498445D01*
X597661Y498363D01*
X597677Y498345D01*
X597688Y498324D01*
X597753Y498263D01*
X597813Y498197D01*
X597834Y498186D01*
X597851Y498170D01*
X597933Y498135D01*
X598012Y498094D01*
X598038Y498091D01*
X598058Y498082D01*
X598108Y498080D01*
X598198Y498067D01*
X601638Y498067D01*
X603964Y495741D01*
X603999Y495716D01*
X604028Y495685D01*
X604091Y495653D01*
X604149Y495612D01*
X604190Y495602D01*
X604227Y495582D01*
X604317Y495569D01*
X604366Y495556D01*
X604387Y495559D01*
X604413Y495555D01*
X614530Y495555D01*
X614571Y495562D01*
X614614Y495560D01*
X614681Y495582D01*
X614751Y495594D01*
X614787Y495616D01*
X614827Y495629D01*
X614900Y495683D01*
X614944Y495709D01*
X614957Y495725D01*
X614978Y495741D01*
X619872Y500635D01*
X623420Y500635D01*
X623461Y500642D01*
X623504Y500640D01*
X623571Y500662D01*
X623641Y500674D01*
X623677Y500696D01*
X623717Y500709D01*
X623790Y500763D01*
X623834Y500789D01*
X623847Y500805D01*
X623868Y500820D01*
X625570Y502523D01*
X625608Y502577D01*
X625653Y502624D01*
X625671Y502668D01*
X625698Y502707D01*
X625715Y502770D01*
X625740Y502831D01*
X625742Y502878D01*
X625754Y502924D01*
X625747Y502989D01*
X625750Y503055D01*
X625736Y503100D01*
X625731Y503147D01*
X625702Y503206D01*
X625682Y503269D01*
X625649Y503313D01*
X625632Y503348D01*
X625603Y503375D01*
X625570Y503420D01*
X625093Y503896D01*
X625093Y512104D01*
X630896Y517907D01*
X639104Y517907D01*
X644907Y512104D01*
X644907Y503896D01*
X639104Y498093D01*
X630896Y498093D01*
X630420Y498570D01*
X630366Y498608D01*
X630318Y498653D01*
X630274Y498671D01*
X630235Y498698D01*
X630172Y498715D01*
X630111Y498740D01*
X630064Y498742D01*
X630018Y498754D01*
X629953Y498747D01*
X629887Y498750D01*
X629842Y498736D01*
X629795Y498731D01*
X629736Y498702D01*
X629673Y498682D01*
X629629Y498649D01*
X629594Y498632D01*
X629567Y498603D01*
X629523Y498570D01*
X627820Y496868D01*
X625998Y495045D01*
X622450Y495045D01*
X622409Y495038D01*
X622366Y495040D01*
X622299Y495018D01*
X622229Y495006D01*
X622193Y494984D01*
X622153Y494971D01*
X622080Y494917D01*
X622036Y494891D01*
X622023Y494875D01*
X622002Y494859D01*
X617108Y489965D01*
X604413Y489965D01*
X604371Y489958D01*
X604329Y489960D01*
X604262Y489938D01*
X604192Y489926D01*
X604155Y489904D01*
X604115Y489891D01*
X604042Y489837D01*
X603999Y489811D01*
X603986Y489795D01*
X603964Y489779D01*
X601638Y487453D01*
X597242Y487453D01*
X594133Y490562D01*
X594133Y494002D01*
X594117Y494090D01*
X594108Y494179D01*
X594098Y494200D01*
X594094Y494223D01*
X594048Y494300D01*
X594009Y494380D01*
X593992Y494396D01*
X593979Y494416D01*
X593910Y494472D01*
X593846Y494534D01*
X593824Y494543D01*
X593805Y494558D01*
X593721Y494586D01*
X593639Y494621D01*
X593615Y494622D01*
X593593Y494630D01*
X593504Y494627D01*
X593415Y494631D01*
X593392Y494624D01*
X593368Y494623D01*
X593286Y494590D01*
X593201Y494562D01*
X593180Y494547D01*
X593161Y494539D01*
X593123Y494505D01*
X593051Y494451D01*
X464637Y366037D01*
X464580Y365955D01*
X464519Y365874D01*
X464516Y365863D01*
X464509Y365853D01*
X464484Y365756D01*
X464455Y365659D01*
X464456Y365647D01*
X464453Y365636D01*
X464464Y365536D01*
X464470Y365435D01*
X464475Y365425D01*
X464476Y365413D01*
X464521Y365323D01*
X464562Y365231D01*
X464571Y365222D01*
X464576Y365212D01*
X464649Y365143D01*
X464720Y365071D01*
X464730Y365066D01*
X464739Y365058D01*
X464832Y365019D01*
X464923Y364976D01*
X464935Y364975D01*
X464946Y364970D01*
X465046Y364966D01*
X465146Y364958D01*
X465159Y364961D01*
X465170Y364960D01*
X465213Y364974D01*
X465328Y365003D01*
X468997Y366523D01*
X473343Y366523D01*
X477357Y364860D01*
X480430Y361787D01*
X481147Y360056D01*
X481176Y360011D01*
X481196Y359961D01*
X481236Y359917D01*
X481268Y359867D01*
X481311Y359835D01*
X481348Y359795D01*
X481400Y359768D01*
X481447Y359733D01*
X481499Y359717D01*
X481547Y359692D01*
X481618Y359682D01*
X481662Y359669D01*
X481693Y359671D01*
X481733Y359665D01*
X549507Y359665D01*
X549560Y359674D01*
X549615Y359674D01*
X549670Y359694D01*
X549728Y359704D01*
X549775Y359732D01*
X549826Y359750D01*
X549871Y359789D01*
X549921Y359819D01*
X549955Y359861D01*
X549997Y359896D01*
X550033Y359957D01*
X550063Y359993D01*
X550072Y360022D01*
X550093Y360056D01*
X550810Y361787D01*
X553883Y364860D01*
X557897Y366523D01*
X562243Y366523D01*
X563974Y365806D01*
X564027Y365794D01*
X564076Y365773D01*
X564135Y365770D01*
X564193Y365758D01*
X564247Y365765D01*
X564301Y365763D01*
X564357Y365781D01*
X564415Y365789D01*
X564463Y365815D01*
X564514Y365832D01*
X564571Y365874D01*
X564612Y365896D01*
X564632Y365919D01*
X564665Y365943D01*
X567885Y369163D01*
X568519Y369798D01*
X568544Y369833D01*
X568575Y369861D01*
X568607Y369924D01*
X568648Y369982D01*
X568658Y370023D01*
X568678Y370061D01*
X568691Y370151D01*
X568704Y370199D01*
X568701Y370220D01*
X568705Y370246D01*
X568705Y376248D01*
X568687Y376347D01*
X568673Y376447D01*
X568668Y376458D01*
X568666Y376469D01*
X568615Y376556D01*
X568567Y376644D01*
X568558Y376652D01*
X568551Y376662D01*
X568474Y376726D01*
X568398Y376792D01*
X568386Y376796D01*
X568377Y376804D01*
X568282Y376836D01*
X568188Y376872D01*
X568176Y376872D01*
X568165Y376876D01*
X568065Y376873D01*
X567964Y376874D01*
X567952Y376869D01*
X567940Y376869D01*
X567848Y376832D01*
X567753Y376797D01*
X567744Y376789D01*
X567733Y376785D01*
X567658Y376717D01*
X567582Y376652D01*
X567575Y376641D01*
X567567Y376633D01*
X567546Y376593D01*
X567485Y376491D01*
X566790Y374813D01*
X563717Y371740D01*
X559703Y370077D01*
X555357Y370077D01*
X551343Y371740D01*
X548270Y374813D01*
X546607Y378827D01*
X546607Y383173D01*
X548270Y387187D01*
X551343Y390260D01*
X555357Y391923D01*
X559703Y391923D01*
X563717Y390260D01*
X566790Y387187D01*
X567485Y385509D01*
X567539Y385424D01*
X567591Y385338D01*
X567600Y385330D01*
X567606Y385320D01*
X567687Y385260D01*
X567765Y385196D01*
X567776Y385192D01*
X567786Y385185D01*
X567882Y385156D01*
X567977Y385124D01*
X567989Y385125D01*
X568001Y385121D01*
X568102Y385128D01*
X568202Y385131D01*
X568213Y385135D01*
X568224Y385136D01*
X568317Y385178D01*
X568409Y385215D01*
X568418Y385223D01*
X568429Y385228D01*
X568501Y385299D01*
X568575Y385367D01*
X568581Y385377D01*
X568589Y385386D01*
X568631Y385476D01*
X568678Y385566D01*
X568680Y385579D01*
X568684Y385589D01*
X568688Y385634D01*
X568705Y385752D01*
X568705Y391754D01*
X568698Y391795D01*
X568700Y391838D01*
X568678Y391905D01*
X568666Y391974D01*
X568644Y392011D01*
X568631Y392051D01*
X568577Y392124D01*
X568551Y392168D01*
X568535Y392181D01*
X568519Y392202D01*
X564665Y396057D01*
X564620Y396088D01*
X564582Y396126D01*
X564529Y396151D01*
X564481Y396185D01*
X564428Y396198D01*
X564379Y396221D01*
X564320Y396226D01*
X564263Y396241D01*
X564209Y396235D01*
X564156Y396240D01*
X564086Y396222D01*
X564040Y396218D01*
X564013Y396204D01*
X563974Y396194D01*
X562243Y395477D01*
X557897Y395477D01*
X553883Y397140D01*
X550810Y400213D01*
X549147Y404227D01*
X549147Y408573D01*
X550810Y412587D01*
X553883Y415660D01*
X557897Y417323D01*
X562243Y417323D01*
X566257Y415660D01*
X569330Y412587D01*
X570993Y408573D01*
X570993Y404227D01*
X570276Y402496D01*
X570264Y402443D01*
X570243Y402394D01*
X570240Y402335D01*
X570228Y402277D01*
X570235Y402224D01*
X570233Y402169D01*
X570251Y402113D01*
X570259Y402055D01*
X570285Y402007D01*
X570302Y401956D01*
X570344Y401899D01*
X570366Y401858D01*
X570389Y401837D01*
X570413Y401805D01*
X576835Y395384D01*
X576835Y372491D01*
X576846Y372426D01*
X576848Y372360D01*
X576866Y372317D01*
X576874Y372270D01*
X576908Y372213D01*
X576933Y372153D01*
X576964Y372118D01*
X576989Y372077D01*
X577040Y372035D01*
X577084Y371987D01*
X577126Y371965D01*
X577163Y371936D01*
X577225Y371915D01*
X577284Y371884D01*
X577338Y371876D01*
X577375Y371864D01*
X577415Y371865D01*
X577469Y371857D01*
X581746Y371857D01*
X581787Y371864D01*
X581830Y371862D01*
X581897Y371884D01*
X581966Y371896D01*
X582003Y371918D01*
X582043Y371931D01*
X582116Y371985D01*
X582160Y372011D01*
X582173Y372027D01*
X582194Y372043D01*
X582516Y372365D01*
X585884Y372365D01*
X586206Y372043D01*
X586241Y372018D01*
X586269Y371987D01*
X586332Y371955D01*
X586390Y371914D01*
X586431Y371904D01*
X586469Y371884D01*
X586559Y371871D01*
X586607Y371858D01*
X586628Y371861D01*
X586654Y371857D01*
X625361Y371857D01*
X625403Y371864D01*
X625446Y371862D01*
X625513Y371884D01*
X625582Y371896D01*
X625619Y371918D01*
X625659Y371931D01*
X625732Y371985D01*
X625775Y372011D01*
X625789Y372027D01*
X625810Y372043D01*
X631212Y377445D01*
X638788Y377445D01*
X643682Y372551D01*
X643717Y372526D01*
X643746Y372495D01*
X643808Y372463D01*
X643866Y372422D01*
X643907Y372412D01*
X643945Y372392D01*
X644035Y372379D01*
X644084Y372366D01*
X644104Y372369D01*
X644131Y372365D01*
X651269Y372365D01*
X651311Y372372D01*
X651354Y372370D01*
X651421Y372392D01*
X651490Y372404D01*
X651527Y372426D01*
X651567Y372439D01*
X651640Y372493D01*
X651683Y372519D01*
X651697Y372535D01*
X651718Y372551D01*
X656612Y377445D01*
X664188Y377445D01*
X669545Y372088D01*
X669545Y364512D01*
X664188Y359155D01*
X656612Y359155D01*
X651718Y364049D01*
X651683Y364074D01*
X651654Y364105D01*
X651592Y364137D01*
X651534Y364178D01*
X651493Y364188D01*
X651455Y364208D01*
X651365Y364221D01*
X651316Y364234D01*
X651296Y364231D01*
X651269Y364235D01*
X644131Y364235D01*
X644089Y364228D01*
X644046Y364230D01*
X643979Y364208D01*
X643910Y364196D01*
X643873Y364174D01*
X643833Y364161D01*
X643760Y364107D01*
X643717Y364081D01*
X643703Y364065D01*
X643682Y364049D01*
X638788Y359155D01*
X631212Y359155D01*
X626953Y363414D01*
X626918Y363439D01*
X626889Y363470D01*
X626827Y363502D01*
X626769Y363543D01*
X626728Y363553D01*
X626690Y363573D01*
X626600Y363586D01*
X626551Y363599D01*
X626531Y363596D01*
X626504Y363600D01*
X588899Y363600D01*
X588834Y363589D01*
X588768Y363587D01*
X588725Y363569D01*
X588678Y363561D01*
X588621Y363527D01*
X588561Y363502D01*
X588526Y363471D01*
X588485Y363446D01*
X588443Y363395D01*
X588395Y363351D01*
X588373Y363309D01*
X588344Y363272D01*
X588323Y363210D01*
X588292Y363151D01*
X588284Y363097D01*
X588272Y363060D01*
X588273Y363020D01*
X588265Y362966D01*
X588265Y251046D01*
X585698Y248479D01*
X570413Y233195D01*
X570382Y233150D01*
X570344Y233112D01*
X570319Y233059D01*
X570285Y233011D01*
X570272Y232958D01*
X570249Y232909D01*
X570244Y232850D01*
X570229Y232793D01*
X570235Y232739D01*
X570230Y232686D01*
X570248Y232616D01*
X570252Y232570D01*
X570266Y232543D01*
X570276Y232504D01*
X570993Y230773D01*
X570993Y226427D01*
X569330Y222413D01*
X566257Y219340D01*
X562243Y217677D01*
X557897Y217677D01*
X553883Y219340D01*
X550810Y222413D01*
X550093Y224144D01*
X550064Y224189D01*
X550044Y224239D01*
X550004Y224283D01*
X549972Y224333D01*
X549929Y224365D01*
X549892Y224405D01*
X549840Y224432D01*
X549793Y224467D01*
X549741Y224483D01*
X549693Y224508D01*
X549622Y224518D01*
X549578Y224531D01*
X549547Y224529D01*
X549507Y224535D01*
X479193Y224535D01*
X479140Y224526D01*
X479085Y224526D01*
X479030Y224506D01*
X478972Y224496D01*
X478925Y224468D01*
X478874Y224450D01*
X478829Y224411D01*
X478779Y224381D01*
X478745Y224339D01*
X478703Y224304D01*
X478667Y224243D01*
X478637Y224207D01*
X478628Y224178D01*
X478607Y224144D01*
X477890Y222413D01*
X474817Y219340D01*
X470803Y217677D01*
X466457Y217677D01*
G37*
%LPD*%
%LPC*%
G36*
X124802Y197893D02*
X124802Y197893D01*
X121693Y201002D01*
X121693Y205398D01*
X124019Y207724D01*
X124044Y207759D01*
X124075Y207788D01*
X124107Y207851D01*
X124148Y207909D01*
X124158Y207950D01*
X124178Y207987D01*
X124191Y208077D01*
X124204Y208126D01*
X124201Y208147D01*
X124205Y208173D01*
X124205Y214518D01*
X141799Y232112D01*
X141824Y232147D01*
X141855Y232175D01*
X141887Y232238D01*
X141928Y232296D01*
X141938Y232337D01*
X141958Y232375D01*
X141971Y232465D01*
X141984Y232513D01*
X141981Y232534D01*
X141985Y232560D01*
X141985Y305412D01*
X141969Y305499D01*
X141960Y305588D01*
X141950Y305609D01*
X141946Y305633D01*
X141900Y305709D01*
X141861Y305789D01*
X141844Y305805D01*
X141831Y305826D01*
X141762Y305882D01*
X141698Y305943D01*
X141676Y305952D01*
X141657Y305967D01*
X141573Y305996D01*
X141491Y306030D01*
X141467Y306031D01*
X141445Y306039D01*
X141356Y306036D01*
X141267Y306040D01*
X141244Y306033D01*
X141220Y306032D01*
X141138Y305999D01*
X141053Y305972D01*
X141032Y305956D01*
X141013Y305948D01*
X140975Y305914D01*
X140903Y305860D01*
X138447Y303405D01*
X138423Y303370D01*
X138392Y303341D01*
X138359Y303279D01*
X138319Y303221D01*
X138309Y303180D01*
X138289Y303142D01*
X138276Y303052D01*
X138270Y303028D01*
X138268Y303025D01*
X138268Y303024D01*
X138263Y303003D01*
X138265Y302983D01*
X138261Y302956D01*
X138261Y235909D01*
X115458Y213105D01*
X93873Y213105D01*
X93831Y213098D01*
X93789Y213100D01*
X93722Y213078D01*
X93652Y213066D01*
X93615Y213044D01*
X93575Y213031D01*
X93502Y212977D01*
X93459Y212951D01*
X93446Y212935D01*
X93424Y212919D01*
X91098Y210593D01*
X86702Y210593D01*
X83593Y213702D01*
X83593Y218098D01*
X86702Y221207D01*
X91098Y221207D01*
X93424Y218881D01*
X93459Y218856D01*
X93488Y218825D01*
X93551Y218793D01*
X93609Y218752D01*
X93650Y218742D01*
X93687Y218722D01*
X93777Y218709D01*
X93826Y218696D01*
X93847Y218699D01*
X93873Y218695D01*
X112880Y218695D01*
X112921Y218702D01*
X112964Y218700D01*
X113031Y218722D01*
X113101Y218734D01*
X113137Y218756D01*
X113177Y218769D01*
X113250Y218823D01*
X113294Y218849D01*
X113307Y218865D01*
X113328Y218881D01*
X126818Y232371D01*
X126869Y232444D01*
X126925Y232513D01*
X126933Y232535D01*
X126946Y232555D01*
X126968Y232641D01*
X126997Y232725D01*
X126996Y232749D01*
X127002Y232772D01*
X126993Y232861D01*
X126990Y232950D01*
X126981Y232972D01*
X126979Y232995D01*
X126940Y233075D01*
X126906Y233157D01*
X126890Y233175D01*
X126880Y233196D01*
X126815Y233257D01*
X126755Y233323D01*
X126734Y233334D01*
X126716Y233350D01*
X126634Y233385D01*
X126555Y233426D01*
X126529Y233429D01*
X126510Y233438D01*
X126459Y233440D01*
X126370Y233453D01*
X124802Y233453D01*
X121693Y236562D01*
X121693Y240958D01*
X124019Y243284D01*
X124044Y243319D01*
X124075Y243348D01*
X124107Y243411D01*
X124148Y243469D01*
X124158Y243510D01*
X124178Y243547D01*
X124191Y243637D01*
X124204Y243686D01*
X124201Y243707D01*
X124205Y243733D01*
X124205Y304688D01*
X286579Y467062D01*
X286604Y467097D01*
X286635Y467125D01*
X286667Y467188D01*
X286708Y467246D01*
X286718Y467287D01*
X286738Y467325D01*
X286751Y467415D01*
X286764Y467463D01*
X286761Y467484D01*
X286765Y467510D01*
X286765Y497459D01*
X286754Y497524D01*
X286752Y497590D01*
X286734Y497633D01*
X286726Y497680D01*
X286692Y497737D01*
X286667Y497797D01*
X286636Y497832D01*
X286611Y497873D01*
X286560Y497915D01*
X286516Y497963D01*
X286474Y497985D01*
X286437Y498014D01*
X286375Y498035D01*
X286316Y498066D01*
X286262Y498074D01*
X286225Y498086D01*
X286185Y498085D01*
X286131Y498093D01*
X285456Y498093D01*
X279653Y503896D01*
X279653Y512104D01*
X285456Y517907D01*
X293664Y517907D01*
X299467Y512104D01*
X299467Y503896D01*
X293664Y498093D01*
X292989Y498093D01*
X292924Y498082D01*
X292858Y498080D01*
X292815Y498062D01*
X292768Y498054D01*
X292711Y498020D01*
X292651Y497995D01*
X292616Y497964D01*
X292575Y497939D01*
X292533Y497888D01*
X292485Y497844D01*
X292463Y497802D01*
X292434Y497765D01*
X292413Y497703D01*
X292382Y497644D01*
X292374Y497590D01*
X292362Y497553D01*
X292363Y497513D01*
X292355Y497459D01*
X292355Y466748D01*
X292371Y466661D01*
X292380Y466572D01*
X292390Y466551D01*
X292394Y466527D01*
X292440Y466451D01*
X292479Y466371D01*
X292496Y466355D01*
X292509Y466334D01*
X292578Y466278D01*
X292642Y466217D01*
X292664Y466208D01*
X292683Y466193D01*
X292767Y466164D01*
X292849Y466130D01*
X292873Y466129D01*
X292895Y466121D01*
X292984Y466124D01*
X293073Y466120D01*
X293096Y466127D01*
X293120Y466128D01*
X293202Y466161D01*
X293287Y466188D01*
X293308Y466204D01*
X293327Y466212D01*
X293365Y466246D01*
X293437Y466300D01*
X311979Y484842D01*
X312004Y484877D01*
X312035Y484905D01*
X312067Y484968D01*
X312108Y485026D01*
X312118Y485067D01*
X312138Y485105D01*
X312151Y485195D01*
X312164Y485243D01*
X312161Y485264D01*
X312165Y485290D01*
X312165Y497459D01*
X312154Y497524D01*
X312152Y497590D01*
X312134Y497633D01*
X312126Y497680D01*
X312092Y497737D01*
X312067Y497797D01*
X312036Y497832D01*
X312011Y497873D01*
X311960Y497915D01*
X311916Y497963D01*
X311874Y497985D01*
X311837Y498014D01*
X311775Y498035D01*
X311716Y498066D01*
X311662Y498074D01*
X311625Y498086D01*
X311585Y498085D01*
X311531Y498093D01*
X310856Y498093D01*
X305053Y503896D01*
X305053Y512104D01*
X310856Y517907D01*
X319064Y517907D01*
X324867Y512104D01*
X324867Y503896D01*
X319064Y498093D01*
X318389Y498093D01*
X318324Y498082D01*
X318258Y498080D01*
X318215Y498062D01*
X318168Y498054D01*
X318111Y498020D01*
X318051Y497995D01*
X318016Y497964D01*
X317975Y497939D01*
X317933Y497888D01*
X317885Y497844D01*
X317863Y497802D01*
X317834Y497765D01*
X317813Y497703D01*
X317782Y497644D01*
X317774Y497590D01*
X317762Y497553D01*
X317763Y497513D01*
X317755Y497459D01*
X317755Y485798D01*
X317771Y485711D01*
X317780Y485622D01*
X317790Y485601D01*
X317794Y485577D01*
X317840Y485501D01*
X317879Y485421D01*
X317896Y485405D01*
X317909Y485384D01*
X317978Y485328D01*
X318042Y485267D01*
X318064Y485258D01*
X318083Y485243D01*
X318167Y485214D01*
X318249Y485180D01*
X318273Y485179D01*
X318295Y485171D01*
X318384Y485174D01*
X318473Y485170D01*
X318496Y485177D01*
X318520Y485178D01*
X318602Y485211D01*
X318687Y485238D01*
X318708Y485254D01*
X318727Y485262D01*
X318765Y485296D01*
X318837Y485350D01*
X333470Y499983D01*
X333508Y500037D01*
X333553Y500084D01*
X333571Y500128D01*
X333598Y500167D01*
X333615Y500230D01*
X333640Y500291D01*
X333642Y500338D01*
X333654Y500384D01*
X333647Y500449D01*
X333650Y500515D01*
X333636Y500560D01*
X333631Y500607D01*
X333602Y500666D01*
X333582Y500729D01*
X333549Y500773D01*
X333532Y500808D01*
X333503Y500835D01*
X333470Y500880D01*
X330453Y503896D01*
X330453Y512104D01*
X336256Y517907D01*
X344464Y517907D01*
X350267Y512104D01*
X350267Y503896D01*
X344464Y498093D01*
X339748Y498093D01*
X339706Y498086D01*
X339664Y498088D01*
X339597Y498066D01*
X339527Y498054D01*
X339491Y498032D01*
X339450Y498019D01*
X339378Y497965D01*
X339334Y497939D01*
X339321Y497923D01*
X339300Y497907D01*
X327870Y486477D01*
X327819Y486404D01*
X327763Y486335D01*
X327755Y486313D01*
X327742Y486293D01*
X327720Y486207D01*
X327691Y486123D01*
X327692Y486099D01*
X327686Y486076D01*
X327695Y485987D01*
X327698Y485898D01*
X327707Y485876D01*
X327709Y485853D01*
X327748Y485773D01*
X327782Y485691D01*
X327798Y485673D01*
X327808Y485652D01*
X327873Y485591D01*
X327933Y485525D01*
X327954Y485514D01*
X327972Y485498D01*
X328054Y485463D01*
X328133Y485422D01*
X328159Y485419D01*
X328178Y485410D01*
X328229Y485408D01*
X328318Y485395D01*
X338940Y485395D01*
X338981Y485402D01*
X339024Y485400D01*
X339091Y485422D01*
X339161Y485434D01*
X339197Y485456D01*
X339237Y485469D01*
X339310Y485523D01*
X339354Y485549D01*
X339367Y485565D01*
X339388Y485581D01*
X356330Y502523D01*
X356368Y502577D01*
X356413Y502624D01*
X356431Y502668D01*
X356458Y502707D01*
X356475Y502770D01*
X356500Y502831D01*
X356502Y502878D01*
X356514Y502924D01*
X356507Y502989D01*
X356510Y503055D01*
X356496Y503100D01*
X356491Y503147D01*
X356462Y503206D01*
X356442Y503269D01*
X356409Y503313D01*
X356392Y503348D01*
X356363Y503375D01*
X356330Y503420D01*
X355853Y503896D01*
X355853Y512104D01*
X361656Y517907D01*
X369864Y517907D01*
X375667Y512104D01*
X375667Y503896D01*
X369864Y498093D01*
X361656Y498093D01*
X361180Y498570D01*
X361126Y498608D01*
X361078Y498653D01*
X361034Y498671D01*
X360995Y498698D01*
X360932Y498715D01*
X360871Y498740D01*
X360824Y498742D01*
X360778Y498754D01*
X360713Y498747D01*
X360647Y498750D01*
X360602Y498736D01*
X360555Y498731D01*
X360496Y498702D01*
X360433Y498682D01*
X360389Y498649D01*
X360354Y498632D01*
X360327Y498603D01*
X360283Y498570D01*
X341518Y479805D01*
X329080Y479805D01*
X329039Y479798D01*
X328996Y479800D01*
X328929Y479778D01*
X328859Y479766D01*
X328823Y479744D01*
X328783Y479731D01*
X328710Y479677D01*
X328666Y479651D01*
X328653Y479635D01*
X328632Y479619D01*
X156651Y307638D01*
X156626Y307603D01*
X156595Y307575D01*
X156563Y307512D01*
X156522Y307454D01*
X156512Y307413D01*
X156492Y307375D01*
X156479Y307285D01*
X156466Y307237D01*
X156469Y307216D01*
X156465Y307190D01*
X156465Y280820D01*
X156472Y280779D01*
X156470Y280736D01*
X156492Y280669D01*
X156504Y280599D01*
X156526Y280563D01*
X156539Y280523D01*
X156593Y280450D01*
X156619Y280406D01*
X156635Y280393D01*
X156651Y280372D01*
X179960Y257063D01*
X179960Y245638D01*
X179967Y245596D01*
X179965Y245554D01*
X179987Y245487D01*
X179999Y245417D01*
X180021Y245380D01*
X180034Y245340D01*
X180088Y245267D01*
X180114Y245224D01*
X180130Y245211D01*
X180146Y245189D01*
X182472Y242863D01*
X182472Y238467D01*
X179363Y235358D01*
X174967Y235358D01*
X171858Y238467D01*
X171858Y242863D01*
X174184Y245189D01*
X174209Y245224D01*
X174240Y245253D01*
X174272Y245316D01*
X174313Y245374D01*
X174323Y245415D01*
X174343Y245452D01*
X174356Y245542D01*
X174369Y245591D01*
X174366Y245612D01*
X174370Y245638D01*
X174370Y254485D01*
X174363Y254526D01*
X174365Y254569D01*
X174343Y254636D01*
X174331Y254706D01*
X174309Y254742D01*
X174296Y254782D01*
X174242Y254855D01*
X174216Y254899D01*
X174200Y254912D01*
X174184Y254933D01*
X150875Y278242D01*
X150875Y307952D01*
X150859Y308039D01*
X150850Y308128D01*
X150840Y308149D01*
X150836Y308173D01*
X150790Y308249D01*
X150751Y308329D01*
X150734Y308345D01*
X150721Y308366D01*
X150652Y308422D01*
X150588Y308483D01*
X150566Y308492D01*
X150547Y308507D01*
X150463Y308536D01*
X150381Y308570D01*
X150357Y308571D01*
X150335Y308579D01*
X150246Y308576D01*
X150157Y308580D01*
X150134Y308573D01*
X150110Y308572D01*
X150028Y308539D01*
X149943Y308512D01*
X149922Y308496D01*
X149903Y308488D01*
X149865Y308454D01*
X149793Y308400D01*
X147760Y306368D01*
X147736Y306333D01*
X147705Y306305D01*
X147673Y306242D01*
X147632Y306184D01*
X147622Y306143D01*
X147602Y306105D01*
X147589Y306015D01*
X147576Y305967D01*
X147579Y305946D01*
X147575Y305920D01*
X147575Y229982D01*
X129981Y212388D01*
X129956Y212353D01*
X129925Y212325D01*
X129893Y212262D01*
X129852Y212204D01*
X129842Y212163D01*
X129822Y212125D01*
X129809Y212035D01*
X129796Y211987D01*
X129799Y211966D01*
X129795Y211940D01*
X129795Y208173D01*
X129802Y208131D01*
X129800Y208089D01*
X129822Y208022D01*
X129834Y207952D01*
X129856Y207915D01*
X129869Y207875D01*
X129923Y207802D01*
X129949Y207759D01*
X129965Y207746D01*
X129981Y207724D01*
X132307Y205398D01*
X132307Y201002D01*
X129198Y197893D01*
X124802Y197893D01*
G37*
%LPD*%
%LPC*%
G36*
X442516Y254507D02*
X442516Y254507D01*
X438383Y258639D01*
X438349Y258664D01*
X438320Y258695D01*
X438257Y258727D01*
X438199Y258768D01*
X438158Y258778D01*
X438120Y258798D01*
X438031Y258811D01*
X437982Y258824D01*
X437961Y258821D01*
X437935Y258825D01*
X425562Y258825D01*
X409238Y275149D01*
X409203Y275174D01*
X409175Y275205D01*
X409112Y275237D01*
X409054Y275278D01*
X409013Y275288D01*
X408975Y275308D01*
X408885Y275321D01*
X408837Y275334D01*
X408816Y275331D01*
X408790Y275335D01*
X189380Y275335D01*
X189339Y275328D01*
X189296Y275330D01*
X189229Y275308D01*
X189159Y275296D01*
X189123Y275274D01*
X189083Y275261D01*
X189010Y275207D01*
X188966Y275181D01*
X188953Y275165D01*
X188932Y275149D01*
X187103Y273320D01*
X187078Y273285D01*
X187047Y273257D01*
X187015Y273194D01*
X186974Y273136D01*
X186964Y273095D01*
X186944Y273057D01*
X186931Y272967D01*
X186918Y272919D01*
X186921Y272898D01*
X186917Y272872D01*
X186917Y269582D01*
X183808Y266473D01*
X179412Y266473D01*
X176303Y269582D01*
X176303Y273978D01*
X179412Y277087D01*
X182702Y277087D01*
X182743Y277094D01*
X182786Y277092D01*
X182853Y277114D01*
X182923Y277126D01*
X182959Y277148D01*
X182999Y277161D01*
X183072Y277215D01*
X183116Y277241D01*
X183129Y277257D01*
X183150Y277273D01*
X184979Y279102D01*
X186480Y280603D01*
X186531Y280676D01*
X186587Y280745D01*
X186595Y280767D01*
X186608Y280787D01*
X186630Y280873D01*
X186659Y280957D01*
X186658Y280981D01*
X186664Y281004D01*
X186655Y281093D01*
X186652Y281182D01*
X186643Y281204D01*
X186641Y281227D01*
X186602Y281307D01*
X186568Y281389D01*
X186552Y281407D01*
X186542Y281428D01*
X186477Y281489D01*
X186417Y281555D01*
X186396Y281566D01*
X186378Y281582D01*
X186296Y281617D01*
X186217Y281658D01*
X186191Y281661D01*
X186172Y281670D01*
X186121Y281672D01*
X186032Y281685D01*
X172613Y281685D01*
X172571Y281678D01*
X172529Y281680D01*
X172462Y281658D01*
X172392Y281646D01*
X172355Y281624D01*
X172315Y281611D01*
X172242Y281557D01*
X172199Y281531D01*
X172186Y281515D01*
X172164Y281499D01*
X169838Y279173D01*
X165442Y279173D01*
X162333Y282282D01*
X162333Y286678D01*
X165442Y289787D01*
X169838Y289787D01*
X172164Y287461D01*
X172199Y287436D01*
X172228Y287405D01*
X172291Y287373D01*
X172349Y287332D01*
X172390Y287322D01*
X172427Y287302D01*
X172517Y287289D01*
X172566Y287276D01*
X172587Y287279D01*
X172613Y287275D01*
X415178Y287275D01*
X432772Y269681D01*
X432807Y269656D01*
X432835Y269625D01*
X432898Y269593D01*
X432956Y269552D01*
X432997Y269542D01*
X433035Y269522D01*
X433125Y269509D01*
X433173Y269496D01*
X433194Y269499D01*
X433220Y269495D01*
X437492Y269495D01*
X437579Y269510D01*
X437668Y269520D01*
X437689Y269530D01*
X437713Y269534D01*
X437789Y269580D01*
X437869Y269619D01*
X437885Y269636D01*
X437906Y269649D01*
X437962Y269718D01*
X438023Y269782D01*
X438032Y269804D01*
X438047Y269823D01*
X438076Y269907D01*
X438110Y269989D01*
X438111Y270013D01*
X438119Y270035D01*
X438116Y270124D01*
X438120Y270213D01*
X438113Y270236D01*
X438112Y270260D01*
X438079Y270342D01*
X438052Y270427D01*
X438036Y270448D01*
X438028Y270467D01*
X437994Y270505D01*
X437940Y270577D01*
X437504Y271014D01*
X437498Y271049D01*
X437500Y271091D01*
X437478Y271158D01*
X437466Y271228D01*
X437444Y271265D01*
X437431Y271305D01*
X437377Y271378D01*
X437351Y271421D01*
X437335Y271434D01*
X437319Y271456D01*
X434993Y273782D01*
X434993Y278178D01*
X438102Y281287D01*
X442498Y281287D01*
X445607Y278178D01*
X445607Y273782D01*
X444572Y272747D01*
X444534Y272693D01*
X444489Y272645D01*
X444471Y272602D01*
X444444Y272563D01*
X444428Y272499D01*
X444402Y272439D01*
X444400Y272391D01*
X444388Y272346D01*
X444395Y272280D01*
X444392Y272215D01*
X444406Y272170D01*
X444411Y272123D01*
X444440Y272064D01*
X444461Y272001D01*
X444493Y271957D01*
X444511Y271921D01*
X444539Y271894D01*
X444572Y271850D01*
X448012Y268410D01*
X448047Y268386D01*
X448075Y268355D01*
X448138Y268323D01*
X448196Y268282D01*
X448237Y268272D01*
X448275Y268252D01*
X448365Y268239D01*
X448413Y268226D01*
X448434Y268229D01*
X448460Y268225D01*
X456251Y268225D01*
X456287Y268231D01*
X456323Y268229D01*
X456397Y268251D01*
X456472Y268264D01*
X456503Y268283D01*
X456538Y268293D01*
X456599Y268339D01*
X456665Y268379D01*
X456688Y268407D01*
X456717Y268428D01*
X456758Y268493D01*
X456807Y268553D01*
X456818Y268587D01*
X456838Y268618D01*
X456854Y268693D01*
X456879Y268765D01*
X456878Y268801D01*
X456885Y268837D01*
X456873Y268940D01*
X456872Y268990D01*
X456866Y269004D01*
X456864Y269023D01*
X456691Y269667D01*
X456691Y278131D01*
X467995Y278131D01*
X468060Y278142D01*
X468125Y278144D01*
X468169Y278162D01*
X468216Y278170D01*
X468272Y278204D01*
X468333Y278229D01*
X468368Y278260D01*
X468409Y278285D01*
X468450Y278336D01*
X468499Y278380D01*
X468521Y278422D01*
X468550Y278459D01*
X468571Y278521D01*
X468601Y278580D01*
X468610Y278634D01*
X468622Y278671D01*
X468621Y278711D01*
X468629Y278765D01*
X468629Y279401D01*
X468631Y279401D01*
X468631Y278765D01*
X468643Y278700D01*
X468644Y278634D01*
X468662Y278591D01*
X468671Y278544D01*
X468704Y278487D01*
X468729Y278427D01*
X468761Y278392D01*
X468785Y278351D01*
X468836Y278310D01*
X468880Y278261D01*
X468922Y278239D01*
X468959Y278210D01*
X469021Y278189D01*
X469080Y278158D01*
X469134Y278150D01*
X469171Y278138D01*
X469211Y278139D01*
X469265Y278131D01*
X480569Y278131D01*
X480569Y269667D01*
X480396Y269023D01*
X480393Y268987D01*
X480381Y268953D01*
X480384Y268876D01*
X480377Y268800D01*
X480387Y268765D01*
X480388Y268728D01*
X480417Y268658D01*
X480437Y268583D01*
X480459Y268554D01*
X480472Y268521D01*
X480524Y268464D01*
X480569Y268402D01*
X480599Y268382D01*
X480624Y268355D01*
X480692Y268320D01*
X480756Y268277D01*
X480791Y268269D01*
X480823Y268252D01*
X480926Y268237D01*
X480974Y268226D01*
X480990Y268228D01*
X481009Y268225D01*
X497690Y268225D01*
X497731Y268232D01*
X497774Y268230D01*
X497841Y268252D01*
X497911Y268264D01*
X497947Y268286D01*
X497987Y268299D01*
X498060Y268353D01*
X498104Y268379D01*
X498117Y268395D01*
X498138Y268411D01*
X508829Y279102D01*
X508854Y279137D01*
X508885Y279165D01*
X508917Y279228D01*
X508958Y279286D01*
X508968Y279327D01*
X508988Y279365D01*
X509001Y279455D01*
X509014Y279503D01*
X509011Y279524D01*
X509015Y279550D01*
X509015Y298557D01*
X509008Y298599D01*
X509010Y298641D01*
X508988Y298708D01*
X508976Y298778D01*
X508954Y298815D01*
X508941Y298855D01*
X508887Y298928D01*
X508861Y298971D01*
X508845Y298984D01*
X508829Y299006D01*
X506503Y301332D01*
X506503Y305728D01*
X509612Y308837D01*
X514008Y308837D01*
X517117Y305728D01*
X517117Y301332D01*
X514791Y299006D01*
X514766Y298971D01*
X514735Y298942D01*
X514703Y298879D01*
X514662Y298821D01*
X514652Y298780D01*
X514632Y298743D01*
X514619Y298653D01*
X514606Y298604D01*
X514609Y298583D01*
X514605Y298557D01*
X514605Y295041D01*
X514621Y294953D01*
X514630Y294865D01*
X514640Y294843D01*
X514644Y294820D01*
X514690Y294743D01*
X514729Y294664D01*
X514746Y294647D01*
X514759Y294627D01*
X514828Y294571D01*
X514892Y294510D01*
X514914Y294500D01*
X514933Y294485D01*
X515017Y294457D01*
X515099Y294422D01*
X515123Y294421D01*
X515145Y294414D01*
X515234Y294416D01*
X515323Y294412D01*
X515346Y294419D01*
X515370Y294420D01*
X515452Y294453D01*
X515537Y294481D01*
X515558Y294497D01*
X515577Y294504D01*
X515615Y294538D01*
X515687Y294592D01*
X518502Y297407D01*
X522898Y297407D01*
X526007Y294298D01*
X526007Y289933D01*
X526023Y289845D01*
X526032Y289757D01*
X526042Y289735D01*
X526046Y289712D01*
X526092Y289635D01*
X526131Y289556D01*
X526148Y289539D01*
X526161Y289519D01*
X526230Y289463D01*
X526294Y289402D01*
X526316Y289392D01*
X526335Y289377D01*
X526419Y289349D01*
X526501Y289314D01*
X526525Y289313D01*
X526547Y289306D01*
X526636Y289308D01*
X526725Y289304D01*
X526748Y289311D01*
X526772Y289312D01*
X526854Y289345D01*
X526939Y289373D01*
X526960Y289389D01*
X526979Y289396D01*
X527017Y289430D01*
X527089Y289484D01*
X529932Y292327D01*
X534328Y292327D01*
X537437Y289218D01*
X537437Y284822D01*
X534328Y281713D01*
X531038Y281713D01*
X530997Y281706D01*
X530954Y281708D01*
X530887Y281686D01*
X530817Y281674D01*
X530781Y281652D01*
X530741Y281639D01*
X530668Y281585D01*
X530624Y281559D01*
X530611Y281543D01*
X530590Y281527D01*
X522919Y273856D01*
X522894Y273821D01*
X522863Y273793D01*
X522831Y273730D01*
X522790Y273672D01*
X522787Y273660D01*
X503634Y254507D01*
X442516Y254507D01*
G37*
%LPD*%
%LPC*%
G36*
X262532Y194944D02*
X262532Y194944D01*
X254829Y198135D01*
X248935Y204029D01*
X245744Y211732D01*
X245744Y220068D01*
X248935Y227771D01*
X254829Y233665D01*
X262532Y236856D01*
X270868Y236856D01*
X278571Y233665D01*
X284465Y227771D01*
X287656Y220068D01*
X287656Y211732D01*
X284465Y204029D01*
X278571Y198135D01*
X270868Y194944D01*
X262532Y194944D01*
G37*
%LPD*%
%LPC*%
G36*
X547500Y192277D02*
X547500Y192277D01*
X546607Y193170D01*
X546607Y213230D01*
X547500Y214123D01*
X567560Y214123D01*
X568453Y213230D01*
X568453Y193170D01*
X567560Y192277D01*
X547500Y192277D01*
G37*
%LPD*%
%LPC*%
G36*
X14100Y480567D02*
X14100Y480567D01*
X13207Y481460D01*
X13207Y501520D01*
X14100Y502413D01*
X34160Y502413D01*
X35053Y501520D01*
X35053Y481460D01*
X34160Y480567D01*
X14100Y480567D01*
G37*
%LPD*%
%LPC*%
G36*
X547500Y319277D02*
X547500Y319277D01*
X546607Y320170D01*
X546607Y340230D01*
X547500Y341123D01*
X567560Y341123D01*
X568453Y340230D01*
X568453Y320170D01*
X567560Y319277D01*
X547500Y319277D01*
G37*
%LPD*%
%LPC*%
G36*
X555357Y243077D02*
X555357Y243077D01*
X551343Y244740D01*
X548270Y247813D01*
X546607Y251827D01*
X546607Y256173D01*
X548270Y260187D01*
X551343Y263260D01*
X555357Y264923D01*
X559703Y264923D01*
X563717Y263260D01*
X566790Y260187D01*
X568453Y256173D01*
X568453Y251827D01*
X566790Y247813D01*
X563717Y244740D01*
X559703Y243077D01*
X555357Y243077D01*
G37*
%LPD*%
%LPC*%
G36*
X468997Y192277D02*
X468997Y192277D01*
X464983Y193940D01*
X461910Y197013D01*
X460247Y201027D01*
X460247Y205373D01*
X461910Y209387D01*
X464983Y212460D01*
X468997Y214123D01*
X473343Y214123D01*
X477357Y212460D01*
X480430Y209387D01*
X482093Y205373D01*
X482093Y201027D01*
X480430Y197013D01*
X477357Y193940D01*
X473343Y192277D01*
X468997Y192277D01*
G37*
%LPD*%
%LPC*%
G36*
X49897Y480567D02*
X49897Y480567D01*
X45883Y482230D01*
X42810Y485303D01*
X41147Y489317D01*
X41147Y493663D01*
X42810Y497677D01*
X45883Y500750D01*
X49897Y502413D01*
X54243Y502413D01*
X58257Y500750D01*
X61330Y497677D01*
X62993Y493663D01*
X62993Y489317D01*
X61330Y485303D01*
X58257Y482230D01*
X54243Y480567D01*
X49897Y480567D01*
G37*
%LPD*%
%LPC*%
G36*
X468997Y90677D02*
X468997Y90677D01*
X464983Y92340D01*
X461910Y95413D01*
X460247Y99427D01*
X460247Y103773D01*
X461910Y107787D01*
X464983Y110860D01*
X468997Y112523D01*
X473343Y112523D01*
X477357Y110860D01*
X480430Y107787D01*
X482093Y103773D01*
X482093Y99427D01*
X480430Y95413D01*
X477357Y92340D01*
X473343Y90677D01*
X468997Y90677D01*
G37*
%LPD*%
%LPC*%
G36*
X90808Y488695D02*
X90808Y488695D01*
X89915Y489588D01*
X89915Y506092D01*
X90808Y506985D01*
X107312Y506985D01*
X108205Y506092D01*
X108205Y489588D01*
X107312Y488695D01*
X90808Y488695D01*
G37*
%LPD*%
%LPC*%
G36*
X234656Y498093D02*
X234656Y498093D01*
X228853Y503896D01*
X228853Y512104D01*
X234656Y517907D01*
X242864Y517907D01*
X248667Y512104D01*
X248667Y503896D01*
X242864Y498093D01*
X234656Y498093D01*
G37*
%LPD*%
%LPC*%
G36*
X453096Y15493D02*
X453096Y15493D01*
X447293Y21296D01*
X447293Y29504D01*
X453096Y35307D01*
X461304Y35307D01*
X467107Y29504D01*
X467107Y21296D01*
X461304Y15493D01*
X453096Y15493D01*
G37*
%LPD*%
%LPC*%
G36*
X554696Y498093D02*
X554696Y498093D01*
X548893Y503896D01*
X548893Y512104D01*
X554696Y517907D01*
X562904Y517907D01*
X568707Y512104D01*
X568707Y503896D01*
X562904Y498093D01*
X554696Y498093D01*
G37*
%LPD*%
%LPC*%
G36*
X412456Y498093D02*
X412456Y498093D01*
X406653Y503896D01*
X406653Y512104D01*
X412456Y517907D01*
X420664Y517907D01*
X426467Y512104D01*
X426467Y503896D01*
X420664Y498093D01*
X412456Y498093D01*
G37*
%LPD*%
%LPC*%
G36*
X453096Y498093D02*
X453096Y498093D01*
X447293Y503896D01*
X447293Y512104D01*
X453096Y517907D01*
X461304Y517907D01*
X467107Y512104D01*
X467107Y503896D01*
X461304Y498093D01*
X453096Y498093D01*
G37*
%LPD*%
%LPC*%
G36*
X529296Y498093D02*
X529296Y498093D01*
X523493Y503896D01*
X523493Y512104D01*
X529296Y517907D01*
X537504Y517907D01*
X543307Y512104D01*
X543307Y503896D01*
X537504Y498093D01*
X529296Y498093D01*
G37*
%LPD*%
%LPC*%
G36*
X387056Y498093D02*
X387056Y498093D01*
X381253Y503896D01*
X381253Y512104D01*
X387056Y517907D01*
X395264Y517907D01*
X401067Y512104D01*
X401067Y503896D01*
X395264Y498093D01*
X387056Y498093D01*
G37*
%LPD*%
%LPC*%
G36*
X478496Y498093D02*
X478496Y498093D01*
X472693Y503896D01*
X472693Y512104D01*
X478496Y517907D01*
X486704Y517907D01*
X492507Y512104D01*
X492507Y503896D01*
X486704Y498093D01*
X478496Y498093D01*
G37*
%LPD*%
%LPC*%
G36*
X503896Y15493D02*
X503896Y15493D01*
X498093Y21296D01*
X498093Y29504D01*
X503896Y35307D01*
X512104Y35307D01*
X517907Y29504D01*
X517907Y21296D01*
X512104Y15493D01*
X503896Y15493D01*
G37*
%LPD*%
%LPC*%
G36*
X529296Y15493D02*
X529296Y15493D01*
X523493Y21296D01*
X523493Y29504D01*
X529296Y35307D01*
X537504Y35307D01*
X543307Y29504D01*
X543307Y21296D01*
X537504Y15493D01*
X529296Y15493D01*
G37*
%LPD*%
%LPC*%
G36*
X605496Y15493D02*
X605496Y15493D01*
X599693Y21296D01*
X599693Y29504D01*
X605496Y35307D01*
X613704Y35307D01*
X619507Y29504D01*
X619507Y21296D01*
X613704Y15493D01*
X605496Y15493D01*
G37*
%LPD*%
%LPC*%
G36*
X554696Y15493D02*
X554696Y15493D01*
X548893Y21296D01*
X548893Y29504D01*
X554696Y35307D01*
X562904Y35307D01*
X568707Y29504D01*
X568707Y21296D01*
X562904Y15493D01*
X554696Y15493D01*
G37*
%LPD*%
%LPC*%
G36*
X580096Y15493D02*
X580096Y15493D01*
X574293Y21296D01*
X574293Y29504D01*
X580096Y35307D01*
X588304Y35307D01*
X594107Y29504D01*
X594107Y21296D01*
X588304Y15493D01*
X580096Y15493D01*
G37*
%LPD*%
%LPC*%
G36*
X503896Y498093D02*
X503896Y498093D01*
X498093Y503896D01*
X498093Y512104D01*
X503896Y517907D01*
X512104Y517907D01*
X517907Y512104D01*
X517907Y503896D01*
X512104Y498093D01*
X503896Y498093D01*
G37*
%LPD*%
%LPC*%
G36*
X630896Y15493D02*
X630896Y15493D01*
X625093Y21296D01*
X625093Y29504D01*
X630896Y35307D01*
X639104Y35307D01*
X644907Y29504D01*
X644907Y21296D01*
X639104Y15493D01*
X630896Y15493D01*
G37*
%LPD*%
%LPC*%
G36*
X326096Y15493D02*
X326096Y15493D01*
X320293Y21296D01*
X320293Y29504D01*
X326096Y35307D01*
X334304Y35307D01*
X340107Y29504D01*
X340107Y21296D01*
X334304Y15493D01*
X326096Y15493D01*
G37*
%LPD*%
%LPC*%
G36*
X376896Y15493D02*
X376896Y15493D01*
X371093Y21296D01*
X371093Y29504D01*
X376896Y35307D01*
X385104Y35307D01*
X390907Y29504D01*
X390907Y21296D01*
X385104Y15493D01*
X376896Y15493D01*
G37*
%LPD*%
%LPC*%
G36*
X98359Y34543D02*
X98359Y34543D01*
X94718Y36052D01*
X91932Y38838D01*
X90423Y42479D01*
X90423Y46421D01*
X91932Y50062D01*
X94718Y52848D01*
X98359Y54357D01*
X102301Y54357D01*
X105942Y52848D01*
X108728Y50062D01*
X110237Y46421D01*
X110237Y42479D01*
X108728Y38838D01*
X105942Y36052D01*
X102301Y34543D01*
X98359Y34543D01*
G37*
%LPD*%
%LPC*%
G36*
X631212Y232155D02*
X631212Y232155D01*
X625855Y237512D01*
X625855Y245088D01*
X631212Y250445D01*
X638788Y250445D01*
X644145Y245088D01*
X644145Y237512D01*
X638788Y232155D01*
X631212Y232155D01*
G37*
%LPD*%
%LPC*%
G36*
X656612Y105155D02*
X656612Y105155D01*
X651255Y110512D01*
X651255Y118088D01*
X656612Y123445D01*
X664188Y123445D01*
X669545Y118088D01*
X669545Y110512D01*
X664188Y105155D01*
X656612Y105155D01*
G37*
%LPD*%
%LPC*%
G36*
X631212Y282955D02*
X631212Y282955D01*
X625855Y288312D01*
X625855Y295888D01*
X631212Y301245D01*
X638788Y301245D01*
X644145Y295888D01*
X644145Y288312D01*
X638788Y282955D01*
X631212Y282955D01*
G37*
%LPD*%
%LPC*%
G36*
X631212Y308355D02*
X631212Y308355D01*
X625855Y313712D01*
X625855Y321288D01*
X631212Y326645D01*
X638788Y326645D01*
X644145Y321288D01*
X644145Y313712D01*
X638788Y308355D01*
X631212Y308355D01*
G37*
%LPD*%
%LPC*%
G36*
X656612Y308355D02*
X656612Y308355D01*
X651255Y313712D01*
X651255Y321288D01*
X656612Y326645D01*
X664188Y326645D01*
X669545Y321288D01*
X669545Y313712D01*
X664188Y308355D01*
X656612Y308355D01*
G37*
%LPD*%
%LPC*%
G36*
X631212Y181355D02*
X631212Y181355D01*
X625855Y186712D01*
X625855Y194288D01*
X631212Y199645D01*
X638788Y199645D01*
X644145Y194288D01*
X644145Y186712D01*
X638788Y181355D01*
X631212Y181355D01*
G37*
%LPD*%
%LPC*%
G36*
X656612Y181355D02*
X656612Y181355D01*
X651255Y186712D01*
X651255Y194288D01*
X656612Y199645D01*
X664188Y199645D01*
X669545Y194288D01*
X669545Y186712D01*
X664188Y181355D01*
X656612Y181355D01*
G37*
%LPD*%
%LPC*%
G36*
X631212Y105155D02*
X631212Y105155D01*
X625855Y110512D01*
X625855Y118088D01*
X631212Y123445D01*
X638788Y123445D01*
X644145Y118088D01*
X644145Y110512D01*
X638788Y105155D01*
X631212Y105155D01*
G37*
%LPD*%
%LPC*%
G36*
X656612Y130555D02*
X656612Y130555D01*
X651255Y135912D01*
X651255Y143488D01*
X656612Y148845D01*
X664188Y148845D01*
X669545Y143488D01*
X669545Y135912D01*
X664188Y130555D01*
X656612Y130555D01*
G37*
%LPD*%
%LPC*%
G36*
X631212Y130555D02*
X631212Y130555D01*
X625855Y135912D01*
X625855Y143488D01*
X631212Y148845D01*
X638788Y148845D01*
X644145Y143488D01*
X644145Y135912D01*
X638788Y130555D01*
X631212Y130555D01*
G37*
%LPD*%
%LPC*%
G36*
X631212Y155955D02*
X631212Y155955D01*
X625855Y161312D01*
X625855Y168888D01*
X631212Y174245D01*
X638788Y174245D01*
X644145Y168888D01*
X644145Y161312D01*
X638788Y155955D01*
X631212Y155955D01*
G37*
%LPD*%
%LPC*%
G36*
X656612Y155955D02*
X656612Y155955D01*
X651255Y161312D01*
X651255Y168888D01*
X656612Y174245D01*
X664188Y174245D01*
X669545Y168888D01*
X669545Y161312D01*
X664188Y155955D01*
X656612Y155955D01*
G37*
%LPD*%
%LPC*%
G36*
X656612Y257555D02*
X656612Y257555D01*
X651255Y262912D01*
X651255Y270488D01*
X656612Y275845D01*
X664188Y275845D01*
X669545Y270488D01*
X669545Y262912D01*
X664188Y257555D01*
X656612Y257555D01*
G37*
%LPD*%
%LPC*%
G36*
X631212Y257555D02*
X631212Y257555D01*
X625855Y262912D01*
X625855Y270488D01*
X631212Y275845D01*
X638788Y275845D01*
X644145Y270488D01*
X644145Y262912D01*
X638788Y257555D01*
X631212Y257555D01*
G37*
%LPD*%
%LPC*%
G36*
X656612Y282955D02*
X656612Y282955D01*
X651255Y288312D01*
X651255Y295888D01*
X656612Y301245D01*
X664188Y301245D01*
X669545Y295888D01*
X669545Y288312D01*
X664188Y282955D01*
X656612Y282955D01*
G37*
%LPD*%
%LPC*%
G36*
X656612Y232155D02*
X656612Y232155D01*
X651255Y237512D01*
X651255Y245088D01*
X656612Y250445D01*
X664188Y250445D01*
X669545Y245088D01*
X669545Y237512D01*
X664188Y232155D01*
X656612Y232155D01*
G37*
%LPD*%
%LPC*%
G36*
X488022Y426493D02*
X488022Y426493D01*
X484913Y429602D01*
X484913Y433998D01*
X488022Y437107D01*
X490629Y437107D01*
X490694Y437118D01*
X490760Y437120D01*
X490803Y437138D01*
X490850Y437146D01*
X490907Y437180D01*
X490967Y437205D01*
X491002Y437236D01*
X491043Y437261D01*
X491085Y437312D01*
X491133Y437356D01*
X491155Y437398D01*
X491184Y437435D01*
X491205Y437497D01*
X491236Y437556D01*
X491244Y437610D01*
X491256Y437647D01*
X491255Y437687D01*
X491263Y437741D01*
X491263Y441618D01*
X494372Y444727D01*
X498768Y444727D01*
X501877Y441618D01*
X501877Y437222D01*
X498768Y434113D01*
X496161Y434113D01*
X496096Y434102D01*
X496030Y434100D01*
X495987Y434082D01*
X495940Y434074D01*
X495883Y434040D01*
X495823Y434015D01*
X495788Y433984D01*
X495747Y433959D01*
X495705Y433908D01*
X495657Y433864D01*
X495635Y433822D01*
X495606Y433785D01*
X495585Y433723D01*
X495554Y433664D01*
X495546Y433610D01*
X495534Y433573D01*
X495535Y433533D01*
X495527Y433479D01*
X495527Y429602D01*
X492418Y426493D01*
X488022Y426493D01*
G37*
%LPD*%
%LPC*%
G36*
X469899Y179069D02*
X469899Y179069D01*
X469899Y189739D01*
X478363Y189739D01*
X479009Y189566D01*
X479588Y189231D01*
X480061Y188758D01*
X480396Y188179D01*
X480569Y187533D01*
X480569Y179069D01*
X469899Y179069D01*
G37*
%LPD*%
%LPC*%
G36*
X558799Y77469D02*
X558799Y77469D01*
X558799Y88139D01*
X567263Y88139D01*
X567909Y87966D01*
X568488Y87631D01*
X568961Y87158D01*
X569296Y86579D01*
X569469Y85933D01*
X569469Y77469D01*
X558799Y77469D01*
G37*
%LPD*%
%LPC*%
G36*
X469899Y77469D02*
X469899Y77469D01*
X469899Y88139D01*
X478363Y88139D01*
X479009Y87966D01*
X479588Y87631D01*
X480061Y87158D01*
X480396Y86579D01*
X480569Y85933D01*
X480569Y77469D01*
X469899Y77469D01*
G37*
%LPD*%
%LPC*%
G36*
X469899Y280669D02*
X469899Y280669D01*
X469899Y291339D01*
X478363Y291339D01*
X479009Y291166D01*
X479588Y290831D01*
X480061Y290358D01*
X480396Y289779D01*
X480569Y289133D01*
X480569Y280669D01*
X469899Y280669D01*
G37*
%LPD*%
%LPC*%
G36*
X456691Y280669D02*
X456691Y280669D01*
X456691Y289133D01*
X456864Y289779D01*
X457199Y290358D01*
X457672Y290831D01*
X458251Y291166D01*
X458897Y291339D01*
X467361Y291339D01*
X467361Y280669D01*
X456691Y280669D01*
G37*
%LPD*%
%LPC*%
G36*
X456691Y77469D02*
X456691Y77469D01*
X456691Y85933D01*
X456864Y86579D01*
X457199Y87158D01*
X457672Y87631D01*
X458251Y87966D01*
X458897Y88139D01*
X467361Y88139D01*
X467361Y77469D01*
X456691Y77469D01*
G37*
%LPD*%
%LPC*%
G36*
X545591Y77469D02*
X545591Y77469D01*
X545591Y85933D01*
X545764Y86579D01*
X546099Y87158D01*
X546572Y87631D01*
X547151Y87966D01*
X547797Y88139D01*
X556261Y88139D01*
X556261Y77469D01*
X545591Y77469D01*
G37*
%LPD*%
%LPC*%
G36*
X456691Y179069D02*
X456691Y179069D01*
X456691Y187533D01*
X456864Y188179D01*
X457199Y188758D01*
X457672Y189231D01*
X458251Y189566D01*
X458897Y189739D01*
X467361Y189739D01*
X467361Y179069D01*
X456691Y179069D01*
G37*
%LPD*%
%LPC*%
G36*
X558799Y64261D02*
X558799Y64261D01*
X558799Y74931D01*
X569469Y74931D01*
X569469Y66467D01*
X569296Y65821D01*
X568961Y65242D01*
X568488Y64769D01*
X567909Y64434D01*
X567263Y64261D01*
X558799Y64261D01*
G37*
%LPD*%
%LPC*%
G36*
X469899Y165861D02*
X469899Y165861D01*
X469899Y176531D01*
X480569Y176531D01*
X480569Y168067D01*
X480396Y167421D01*
X480061Y166842D01*
X479588Y166369D01*
X479009Y166034D01*
X478363Y165861D01*
X469899Y165861D01*
G37*
%LPD*%
%LPC*%
G36*
X469899Y64261D02*
X469899Y64261D01*
X469899Y74931D01*
X480569Y74931D01*
X480569Y66467D01*
X480396Y65821D01*
X480061Y65242D01*
X479588Y64769D01*
X479009Y64434D01*
X478363Y64261D01*
X469899Y64261D01*
G37*
%LPD*%
%LPC*%
G36*
X547797Y64261D02*
X547797Y64261D01*
X547151Y64434D01*
X546572Y64769D01*
X546099Y65242D01*
X545764Y65821D01*
X545591Y66467D01*
X545591Y74931D01*
X556261Y74931D01*
X556261Y64261D01*
X547797Y64261D01*
G37*
%LPD*%
%LPC*%
G36*
X458897Y64261D02*
X458897Y64261D01*
X458251Y64434D01*
X457672Y64769D01*
X457199Y65242D01*
X456864Y65821D01*
X456691Y66467D01*
X456691Y74931D01*
X467361Y74931D01*
X467361Y64261D01*
X458897Y64261D01*
G37*
%LPD*%
%LPC*%
G36*
X458897Y165861D02*
X458897Y165861D01*
X458251Y166034D01*
X457672Y166369D01*
X457199Y166842D01*
X456864Y167421D01*
X456691Y168067D01*
X456691Y176531D01*
X467361Y176531D01*
X467361Y165861D01*
X458897Y165861D01*
G37*
%LPD*%
%LPC*%
G36*
X392772Y97563D02*
X392772Y97563D01*
X389663Y100672D01*
X389663Y105068D01*
X392772Y108177D01*
X397168Y108177D01*
X400277Y105068D01*
X400277Y100672D01*
X397168Y97563D01*
X392772Y97563D01*
G37*
%LPD*%
%LPC*%
G36*
X429602Y159793D02*
X429602Y159793D01*
X426493Y162902D01*
X426493Y167298D01*
X429602Y170407D01*
X433998Y170407D01*
X437107Y167298D01*
X437107Y162902D01*
X433998Y159793D01*
X429602Y159793D01*
G37*
%LPD*%
%LPC*%
G36*
X482942Y369343D02*
X482942Y369343D01*
X479833Y372452D01*
X479833Y376848D01*
X482942Y379957D01*
X487338Y379957D01*
X490447Y376848D01*
X490447Y372452D01*
X487338Y369343D01*
X482942Y369343D01*
G37*
%LPD*%
%LPC*%
G36*
X582002Y413793D02*
X582002Y413793D01*
X578893Y416902D01*
X578893Y421298D01*
X582002Y424407D01*
X586398Y424407D01*
X589507Y421298D01*
X589507Y416902D01*
X586398Y413793D01*
X582002Y413793D01*
G37*
%LPD*%
%LPC*%
G36*
X125729Y499109D02*
X125729Y499109D01*
X125729Y508001D01*
X132415Y508001D01*
X133061Y507828D01*
X133640Y507493D01*
X134113Y507020D01*
X134448Y506441D01*
X134621Y505795D01*
X134621Y499109D01*
X125729Y499109D01*
G37*
%LPD*%
%LPC*%
G36*
X114299Y499109D02*
X114299Y499109D01*
X114299Y505795D01*
X114472Y506441D01*
X114807Y507020D01*
X115280Y507493D01*
X115859Y507828D01*
X116505Y508001D01*
X123191Y508001D01*
X123191Y499109D01*
X114299Y499109D01*
G37*
%LPD*%
%LPC*%
G36*
X125729Y487679D02*
X125729Y487679D01*
X125729Y496571D01*
X134621Y496571D01*
X134621Y489885D01*
X134448Y489239D01*
X134113Y488660D01*
X133640Y488187D01*
X133061Y487852D01*
X132415Y487679D01*
X125729Y487679D01*
G37*
%LPD*%
%LPC*%
G36*
X116505Y487679D02*
X116505Y487679D01*
X115859Y487852D01*
X115280Y488187D01*
X114807Y488660D01*
X114472Y489239D01*
X114299Y489885D01*
X114299Y496571D01*
X123191Y496571D01*
X123191Y487679D01*
X116505Y487679D01*
G37*
%LPD*%
%LPC*%
G36*
X265429Y509269D02*
X265429Y509269D01*
X265429Y518923D01*
X268684Y518923D01*
X275083Y512524D01*
X275083Y509269D01*
X265429Y509269D01*
G37*
%LPD*%
%LPC*%
G36*
X433069Y26669D02*
X433069Y26669D01*
X433069Y36323D01*
X436324Y36323D01*
X442723Y29924D01*
X442723Y26669D01*
X433069Y26669D01*
G37*
%LPD*%
%LPC*%
G36*
X407669Y26669D02*
X407669Y26669D01*
X407669Y36323D01*
X410924Y36323D01*
X417323Y29924D01*
X417323Y26669D01*
X407669Y26669D01*
G37*
%LPD*%
%LPC*%
G36*
X265429Y497077D02*
X265429Y497077D01*
X265429Y506731D01*
X275083Y506731D01*
X275083Y503476D01*
X268684Y497077D01*
X265429Y497077D01*
G37*
%LPD*%
%LPC*%
G36*
X253237Y509269D02*
X253237Y509269D01*
X253237Y512524D01*
X259636Y518923D01*
X262891Y518923D01*
X262891Y509269D01*
X253237Y509269D01*
G37*
%LPD*%
%LPC*%
G36*
X420877Y26669D02*
X420877Y26669D01*
X420877Y29924D01*
X427276Y36323D01*
X430531Y36323D01*
X430531Y26669D01*
X420877Y26669D01*
G37*
%LPD*%
%LPC*%
G36*
X395477Y26669D02*
X395477Y26669D01*
X395477Y29924D01*
X401876Y36323D01*
X405131Y36323D01*
X405131Y26669D01*
X395477Y26669D01*
G37*
%LPD*%
%LPC*%
G36*
X433069Y14477D02*
X433069Y14477D01*
X433069Y24131D01*
X442723Y24131D01*
X442723Y20876D01*
X436324Y14477D01*
X433069Y14477D01*
G37*
%LPD*%
%LPC*%
G36*
X407669Y14477D02*
X407669Y14477D01*
X407669Y24131D01*
X417323Y24131D01*
X417323Y20876D01*
X410924Y14477D01*
X407669Y14477D01*
G37*
%LPD*%
%LPC*%
G36*
X401876Y14477D02*
X401876Y14477D01*
X395477Y20876D01*
X395477Y24131D01*
X405131Y24131D01*
X405131Y14477D01*
X401876Y14477D01*
G37*
%LPD*%
%LPC*%
G36*
X427276Y14477D02*
X427276Y14477D01*
X420877Y20876D01*
X420877Y24131D01*
X430531Y24131D01*
X430531Y14477D01*
X427276Y14477D01*
G37*
%LPD*%
%LPC*%
G36*
X259636Y497077D02*
X259636Y497077D01*
X253237Y503476D01*
X253237Y506731D01*
X262891Y506731D01*
X262891Y497077D01*
X259636Y497077D01*
G37*
%LPD*%
%LPC*%
G36*
X636269Y344169D02*
X636269Y344169D01*
X636269Y353061D01*
X639209Y353061D01*
X645161Y347109D01*
X645161Y344169D01*
X636269Y344169D01*
G37*
%LPD*%
%LPC*%
G36*
X661669Y90169D02*
X661669Y90169D01*
X661669Y99061D01*
X664609Y99061D01*
X670561Y93109D01*
X670561Y90169D01*
X661669Y90169D01*
G37*
%LPD*%
%LPC*%
G36*
X636269Y90169D02*
X636269Y90169D01*
X636269Y99061D01*
X639209Y99061D01*
X645161Y93109D01*
X645161Y90169D01*
X636269Y90169D01*
G37*
%LPD*%
%LPC*%
G36*
X661669Y344169D02*
X661669Y344169D01*
X661669Y353061D01*
X664609Y353061D01*
X670561Y347109D01*
X670561Y344169D01*
X661669Y344169D01*
G37*
%LPD*%
%LPC*%
G36*
X661669Y341631D02*
X661669Y341631D01*
X670561Y341631D01*
X670561Y338691D01*
X664609Y332739D01*
X661669Y332739D01*
X661669Y341631D01*
G37*
%LPD*%
%LPC*%
G36*
X636269Y341631D02*
X636269Y341631D01*
X645161Y341631D01*
X645161Y338691D01*
X639209Y332739D01*
X636269Y332739D01*
X636269Y341631D01*
G37*
%LPD*%
%LPC*%
G36*
X661669Y87631D02*
X661669Y87631D01*
X670561Y87631D01*
X670561Y84691D01*
X664609Y78739D01*
X661669Y78739D01*
X661669Y87631D01*
G37*
%LPD*%
%LPC*%
G36*
X636269Y87631D02*
X636269Y87631D01*
X645161Y87631D01*
X645161Y84691D01*
X639209Y78739D01*
X636269Y78739D01*
X636269Y87631D01*
G37*
%LPD*%
%LPC*%
G36*
X624839Y344169D02*
X624839Y344169D01*
X624839Y347109D01*
X630791Y353061D01*
X633731Y353061D01*
X633731Y344169D01*
X624839Y344169D01*
G37*
%LPD*%
%LPC*%
G36*
X624839Y90169D02*
X624839Y90169D01*
X624839Y93109D01*
X630791Y99061D01*
X633731Y99061D01*
X633731Y90169D01*
X624839Y90169D01*
G37*
%LPD*%
%LPC*%
G36*
X650239Y90169D02*
X650239Y90169D01*
X650239Y93109D01*
X656191Y99061D01*
X659131Y99061D01*
X659131Y90169D01*
X650239Y90169D01*
G37*
%LPD*%
%LPC*%
G36*
X650239Y344169D02*
X650239Y344169D01*
X650239Y347109D01*
X656191Y353061D01*
X659131Y353061D01*
X659131Y344169D01*
X650239Y344169D01*
G37*
%LPD*%
%LPC*%
G36*
X656191Y78739D02*
X656191Y78739D01*
X650239Y84691D01*
X650239Y87631D01*
X659131Y87631D01*
X659131Y78739D01*
X656191Y78739D01*
G37*
%LPD*%
%LPC*%
G36*
X656191Y332739D02*
X656191Y332739D01*
X650239Y338691D01*
X650239Y341631D01*
X659131Y341631D01*
X659131Y332739D01*
X656191Y332739D01*
G37*
%LPD*%
%LPC*%
G36*
X630791Y332739D02*
X630791Y332739D01*
X624839Y338691D01*
X624839Y341631D01*
X633731Y341631D01*
X633731Y332739D01*
X630791Y332739D01*
G37*
%LPD*%
%LPC*%
G36*
X630791Y78739D02*
X630791Y78739D01*
X624839Y84691D01*
X624839Y87631D01*
X633731Y87631D01*
X633731Y78739D01*
X630791Y78739D01*
G37*
%LPD*%
%LPC*%
G36*
X468629Y76199D02*
X468629Y76199D01*
X468629Y76201D01*
X468631Y76201D01*
X468631Y76199D01*
X468629Y76199D01*
G37*
%LPD*%
%LPC*%
G36*
X557529Y76199D02*
X557529Y76199D01*
X557529Y76201D01*
X557531Y76201D01*
X557531Y76199D01*
X557529Y76199D01*
G37*
%LPD*%
%LPC*%
G36*
X264159Y507999D02*
X264159Y507999D01*
X264159Y508001D01*
X264161Y508001D01*
X264161Y507999D01*
X264159Y507999D01*
G37*
%LPD*%
%LPC*%
G36*
X124459Y497839D02*
X124459Y497839D01*
X124459Y497841D01*
X124461Y497841D01*
X124461Y497839D01*
X124459Y497839D01*
G37*
%LPD*%
%LPC*%
G36*
X468629Y177799D02*
X468629Y177799D01*
X468629Y177801D01*
X468631Y177801D01*
X468631Y177799D01*
X468629Y177799D01*
G37*
%LPD*%
%LPC*%
G36*
X634999Y88899D02*
X634999Y88899D01*
X634999Y88901D01*
X635001Y88901D01*
X635001Y88899D01*
X634999Y88899D01*
G37*
%LPD*%
%LPC*%
G36*
X660399Y88899D02*
X660399Y88899D01*
X660399Y88901D01*
X660401Y88901D01*
X660401Y88899D01*
X660399Y88899D01*
G37*
%LPD*%
%LPC*%
G36*
X634999Y342899D02*
X634999Y342899D01*
X634999Y342901D01*
X635001Y342901D01*
X635001Y342899D01*
X634999Y342899D01*
G37*
%LPD*%
%LPC*%
G36*
X660399Y342899D02*
X660399Y342899D01*
X660399Y342901D01*
X660401Y342901D01*
X660401Y342899D01*
X660399Y342899D01*
G37*
%LPD*%
%LPC*%
G36*
X431799Y25399D02*
X431799Y25399D01*
X431799Y25401D01*
X431801Y25401D01*
X431801Y25399D01*
X431799Y25399D01*
G37*
%LPD*%
%LPC*%
G36*
X406399Y25399D02*
X406399Y25399D01*
X406399Y25401D01*
X406401Y25401D01*
X406401Y25399D01*
X406399Y25399D01*
G37*
%LPD*%
D10*
X533400Y508000D03*
X508000Y25400D03*
X558800Y508000D03*
X584200Y508000D03*
X609600Y508000D03*
X635000Y508000D03*
X508000Y508000D03*
X482600Y508000D03*
X457200Y508000D03*
X416560Y508000D03*
X391160Y508000D03*
X365760Y508000D03*
X340360Y508000D03*
X314960Y508000D03*
X289560Y508000D03*
X264160Y508000D03*
X238760Y508000D03*
X533400Y25400D03*
X558800Y25400D03*
X584200Y25400D03*
X609600Y25400D03*
X635000Y25400D03*
X457200Y25400D03*
X431800Y25400D03*
X406400Y25400D03*
X381000Y25400D03*
X355600Y25400D03*
X330200Y25400D03*
D11*
X468630Y177800D03*
D12*
X471170Y203200D03*
X468630Y228600D03*
D11*
X468630Y76200D03*
D12*
X471170Y101600D03*
X468630Y127000D03*
D11*
X557530Y76200D03*
D12*
X560070Y101600D03*
X557530Y127000D03*
X560070Y152400D03*
D13*
X635000Y190500D03*
X660400Y190500D03*
X635000Y165100D03*
X660400Y165100D03*
X635000Y139700D03*
X660400Y139700D03*
X635000Y114300D03*
X660400Y114300D03*
X635000Y88900D03*
X660400Y88900D03*
X635000Y63500D03*
X660400Y63500D03*
D11*
X24130Y491490D03*
D12*
X52070Y491490D03*
D11*
X468630Y279400D03*
D12*
X471170Y304800D03*
X468630Y330200D03*
X471170Y355600D03*
D14*
X660400Y241300D03*
X635000Y241300D03*
X660400Y266700D03*
X635000Y266700D03*
X660400Y292100D03*
X635000Y292100D03*
X660400Y317500D03*
X635000Y317500D03*
X660400Y342900D03*
X635000Y342900D03*
X660400Y368300D03*
X635000Y368300D03*
D11*
X557530Y203200D03*
D12*
X560070Y228600D03*
X557530Y254000D03*
X560070Y279400D03*
D11*
X557530Y330200D03*
D12*
X560070Y355600D03*
X557530Y381000D03*
X560070Y406400D03*
D15*
X100330Y44450D03*
X100330Y19050D03*
D16*
X124460Y497840D03*
X99060Y497840D03*
D17*
X38100Y381000D03*
X25400Y393700D03*
X50800Y393700D03*
X76200Y393700D03*
X63500Y381000D03*
X76200Y368300D03*
X50800Y368300D03*
X25400Y368300D03*
X59690Y330200D03*
X73660Y330200D03*
X87630Y330200D03*
X101600Y330200D03*
X113030Y336550D03*
X121920Y345440D03*
X132080Y354330D03*
X138430Y364490D03*
X140970Y378460D03*
X140970Y393700D03*
X140970Y427990D03*
X140970Y440690D03*
X31750Y424180D03*
X31750Y436880D03*
X31750Y452120D03*
X140970Y455930D03*
X140970Y469900D03*
X72390Y494030D03*
X31750Y467360D03*
X140970Y486410D03*
X140970Y500380D03*
X140970Y515620D03*
X289556Y333588D03*
X299720Y396240D03*
X185420Y459740D03*
X185420Y408940D03*
X223520Y447040D03*
X210820Y256540D03*
X198120Y180340D03*
X312420Y180340D03*
X312420Y243840D03*
X584200Y419100D03*
X511810Y303530D03*
D18*
X511810Y278130D01*
X499110Y265430D01*
X447040Y265430D01*
X440300Y272170D02*
X440300Y275980D01*
D17*
X440300Y275980D03*
D18*
X440300Y272170D02*
X447040Y265430D01*
D17*
X490220Y431800D03*
X496570Y439420D03*
X181610Y271780D03*
D18*
X187960Y278130D01*
X410210Y278130D01*
X426720Y261620D01*
D17*
X532130Y287020D03*
D18*
X519938Y274763D02*
X502477Y257302D01*
X519938Y274763D02*
X519938Y274828D01*
X532130Y287020D01*
X439355Y261620D02*
X426720Y261620D01*
X439355Y261620D02*
X443673Y257302D01*
X502477Y257302D01*
D17*
X167640Y284480D03*
D18*
X414020Y284480D01*
X431800Y266700D01*
D17*
X520700Y292100D03*
D18*
X515874Y276447D02*
X500793Y261366D01*
X515874Y276447D02*
X515874Y287274D01*
X520700Y292100D01*
X440023Y266700D02*
X431800Y266700D01*
X440023Y266700D02*
X445357Y261366D01*
X500793Y261366D01*
D17*
X127000Y127000D03*
D18*
X139700Y139700D01*
X520700Y139700D02*
X533400Y127000D01*
X557530Y127000D01*
X520700Y139700D02*
X139700Y139700D01*
D17*
X533400Y139700D03*
D18*
X547370Y139700D01*
X560070Y152400D01*
D17*
X96520Y110490D03*
D18*
X129794Y143764D02*
X529336Y143764D01*
X129794Y143764D02*
X96520Y110490D01*
X529336Y143764D02*
X533400Y139700D01*
D17*
X394970Y102870D03*
X431800Y165100D03*
D18*
X340360Y482600D02*
X327660Y482600D01*
X153670Y308610D01*
X153670Y279400D02*
X177165Y255905D01*
X153670Y279400D02*
X153670Y308610D01*
X177165Y255905D02*
X177165Y240665D01*
D17*
X177165Y240665D03*
D18*
X340360Y482600D02*
X365760Y508000D01*
X340360Y508000D02*
X340360Y502920D01*
X144780Y307340D01*
X144780Y231140D01*
X127000Y213360D02*
X127000Y203200D01*
D17*
X127000Y203200D03*
D18*
X127000Y213360D02*
X144780Y231140D01*
X314960Y483870D02*
X314960Y508000D01*
X314960Y483870D02*
X135467Y304377D01*
X135467Y237067D01*
D17*
X88900Y215900D03*
D18*
X114300Y215900D02*
X135467Y237067D01*
X114300Y215900D02*
X88900Y215900D01*
X289560Y466090D02*
X289560Y508000D01*
X289560Y466090D02*
X271145Y447675D01*
X127000Y303530D01*
X127000Y238760D01*
D17*
X127000Y238760D03*
D19*
X560070Y355600D02*
X572135Y367665D01*
X572770Y368300D01*
X584200Y368300D01*
X635000Y368300D01*
X572770Y368300D02*
X572770Y393700D01*
X584200Y368300D02*
X584200Y304800D01*
X584200Y252730D02*
X560070Y228600D01*
X584200Y252730D02*
X584200Y304800D01*
D17*
X45720Y27940D03*
D18*
X45720Y101600D01*
X45720Y163830D01*
X44450Y165100D01*
X43180Y165100D01*
D17*
X43180Y165100D03*
D20*
X279400Y101600D02*
X355600Y25400D01*
X279400Y101600D02*
X45720Y101600D01*
X635000Y63500D02*
X660400Y63500D01*
X635000Y63500D02*
X609600Y63500D01*
X610235Y64135D02*
X572770Y101600D01*
X560070Y101600D01*
X482600Y127000D02*
X468630Y127000D01*
X482600Y127000D02*
X508000Y101600D01*
X560070Y101600D01*
X381000Y50800D02*
X355600Y25400D01*
X381000Y50800D02*
X596900Y50800D01*
X609600Y63500D01*
X610870Y64770D01*
X610235Y64135D01*
X635000Y368300D02*
X660400Y368300D01*
X560070Y228600D02*
X468630Y228600D01*
X560070Y228600D02*
X584200Y252730D01*
X584200Y304800D01*
X584200Y368300D01*
X634365Y367665D02*
X635000Y368300D01*
X634365Y367665D02*
X572135Y367665D01*
X560070Y280670D02*
X560070Y279400D01*
X560070Y280670D02*
X584200Y304800D01*
X560070Y355600D02*
X572135Y367665D01*
X572770Y368300D01*
X572770Y393700D02*
X560070Y406400D01*
X572770Y393700D02*
X572770Y368300D01*
X572135Y367665D01*
X560070Y355600D02*
X471170Y355600D01*
D18*
X624840Y497840D02*
X635000Y508000D01*
X624840Y497840D02*
X621030Y497840D01*
X615950Y492760D01*
X599440Y492760D01*
D17*
X599440Y492760D03*
X546100Y492760D03*
D18*
X546100Y457200D01*
X444500Y355600D01*
X444500Y317500D01*
X457200Y304800D01*
X471170Y304800D01*
D17*
X485140Y374650D03*
D18*
X450850Y347980D02*
X468630Y330200D01*
X602647Y508000D02*
X609600Y508000D01*
X602647Y508000D02*
X450850Y356203D01*
X450850Y347980D01*
M02*
