G04 EAGLE Gerber RS-274X export*
G75*
%MOMM*%
%FSLAX34Y34*%
%LPD*%
%INEAGLE Copper Layer 2*%
%IPPOS*%
%AMOC8*
5,1,8,0,0,1.08239X$1,22.5*%
G01*
%ADD10C,1.508000*%
%ADD11C,1.524000*%
%ADD12C,1.320800*%
%ADD13C,0.756400*%

G36*
X94416Y10559D02*
X94416Y10559D01*
X94555Y10572D01*
X94574Y10579D01*
X94594Y10582D01*
X94723Y10633D01*
X94854Y10680D01*
X94871Y10691D01*
X94889Y10699D01*
X95002Y10780D01*
X95117Y10858D01*
X95130Y10874D01*
X95147Y10885D01*
X95236Y10993D01*
X95328Y11097D01*
X95337Y11115D01*
X95350Y11130D01*
X95409Y11256D01*
X95472Y11380D01*
X95477Y11400D01*
X95485Y11418D01*
X95511Y11555D01*
X95542Y11690D01*
X95541Y11711D01*
X95545Y11730D01*
X95536Y11869D01*
X95532Y12008D01*
X95526Y12028D01*
X95525Y12048D01*
X95482Y12180D01*
X95444Y12314D01*
X95433Y12331D01*
X95427Y12350D01*
X95353Y12468D01*
X95282Y12588D01*
X95264Y12609D01*
X95257Y12619D01*
X95242Y12633D01*
X95176Y12708D01*
X93439Y14445D01*
X92201Y17433D01*
X92201Y20667D01*
X93439Y23655D01*
X95725Y25941D01*
X98713Y27179D01*
X101947Y27179D01*
X104935Y25941D01*
X107221Y23655D01*
X108459Y20667D01*
X108459Y17433D01*
X107221Y14445D01*
X105484Y12708D01*
X105399Y12599D01*
X105310Y12492D01*
X105302Y12473D01*
X105289Y12457D01*
X105234Y12329D01*
X105175Y12204D01*
X105171Y12184D01*
X105163Y12165D01*
X105141Y12027D01*
X105115Y11891D01*
X105116Y11871D01*
X105113Y11851D01*
X105126Y11712D01*
X105135Y11574D01*
X105141Y11555D01*
X105143Y11535D01*
X105190Y11403D01*
X105233Y11272D01*
X105244Y11254D01*
X105251Y11235D01*
X105329Y11120D01*
X105403Y11003D01*
X105418Y10989D01*
X105429Y10972D01*
X105533Y10880D01*
X105635Y10785D01*
X105652Y10775D01*
X105668Y10762D01*
X105792Y10698D01*
X105913Y10631D01*
X105933Y10626D01*
X105951Y10617D01*
X106087Y10587D01*
X106221Y10552D01*
X106249Y10550D01*
X106261Y10547D01*
X106282Y10548D01*
X106382Y10542D01*
X648589Y10542D01*
X648707Y10557D01*
X648826Y10564D01*
X648864Y10577D01*
X648905Y10582D01*
X649015Y10625D01*
X649128Y10662D01*
X649163Y10684D01*
X649200Y10699D01*
X649296Y10768D01*
X649397Y10832D01*
X649425Y10862D01*
X649458Y10885D01*
X649534Y10977D01*
X649615Y11064D01*
X649635Y11099D01*
X649660Y11130D01*
X649711Y11238D01*
X649769Y11342D01*
X649779Y11382D01*
X649796Y11418D01*
X649818Y11535D01*
X649848Y11650D01*
X649852Y11710D01*
X649856Y11730D01*
X649854Y11751D01*
X649858Y11811D01*
X649858Y27497D01*
X651463Y31371D01*
X654607Y34515D01*
X674887Y54795D01*
X674947Y54873D01*
X675015Y54945D01*
X675044Y54998D01*
X675081Y55046D01*
X675121Y55137D01*
X675169Y55224D01*
X675184Y55282D01*
X675208Y55338D01*
X675223Y55436D01*
X675248Y55532D01*
X675254Y55632D01*
X675258Y55652D01*
X675256Y55664D01*
X675258Y55692D01*
X675258Y373568D01*
X675246Y373666D01*
X675243Y373765D01*
X675226Y373823D01*
X675218Y373883D01*
X675182Y373975D01*
X675154Y374070D01*
X675124Y374123D01*
X675101Y374179D01*
X675043Y374259D01*
X674993Y374344D01*
X674927Y374420D01*
X674915Y374436D01*
X674905Y374444D01*
X674887Y374465D01*
X654607Y394745D01*
X651463Y397889D01*
X649858Y401763D01*
X649858Y439358D01*
X649841Y439496D01*
X649828Y439635D01*
X649821Y439654D01*
X649818Y439674D01*
X649767Y439803D01*
X649720Y439934D01*
X649709Y439951D01*
X649701Y439969D01*
X649620Y440082D01*
X649542Y440197D01*
X649526Y440210D01*
X649515Y440227D01*
X649407Y440316D01*
X649303Y440407D01*
X649285Y440417D01*
X649270Y440430D01*
X649144Y440489D01*
X649020Y440552D01*
X649000Y440556D01*
X648982Y440565D01*
X648845Y440591D01*
X648710Y440622D01*
X648689Y440621D01*
X648670Y440625D01*
X648531Y440616D01*
X648392Y440612D01*
X648372Y440606D01*
X648352Y440605D01*
X648220Y440562D01*
X648086Y440524D01*
X648069Y440513D01*
X648050Y440507D01*
X647932Y440433D01*
X647812Y440362D01*
X647791Y440343D01*
X647781Y440337D01*
X647767Y440322D01*
X647692Y440256D01*
X646870Y439435D01*
X639168Y436244D01*
X630832Y436244D01*
X623130Y439435D01*
X617235Y445330D01*
X614044Y453032D01*
X614044Y461368D01*
X617235Y469070D01*
X623130Y474965D01*
X630832Y478156D01*
X639168Y478156D01*
X646870Y474965D01*
X647692Y474144D01*
X647786Y474071D01*
X647797Y474061D01*
X647804Y474057D01*
X647908Y473970D01*
X647927Y473962D01*
X647943Y473949D01*
X648070Y473894D01*
X648196Y473835D01*
X648216Y473831D01*
X648235Y473823D01*
X648373Y473801D01*
X648509Y473775D01*
X648529Y473776D01*
X648549Y473773D01*
X648688Y473786D01*
X648826Y473795D01*
X648845Y473801D01*
X648865Y473803D01*
X648997Y473850D01*
X649128Y473893D01*
X649146Y473904D01*
X649165Y473911D01*
X649280Y473989D01*
X649397Y474063D01*
X649411Y474078D01*
X649428Y474089D01*
X649520Y474193D01*
X649615Y474295D01*
X649625Y474312D01*
X649638Y474328D01*
X649701Y474451D01*
X649769Y474573D01*
X649774Y474593D01*
X649783Y474611D01*
X649813Y474747D01*
X649848Y474881D01*
X649850Y474909D01*
X649853Y474921D01*
X649852Y474942D01*
X649858Y475042D01*
X649858Y513566D01*
X649849Y513637D01*
X649850Y513708D01*
X649829Y513794D01*
X649818Y513881D01*
X649792Y513948D01*
X649775Y514017D01*
X649734Y514095D01*
X649701Y514177D01*
X649659Y514235D01*
X649626Y514298D01*
X649525Y514423D01*
X642170Y522447D01*
X642074Y522528D01*
X641981Y522615D01*
X641953Y522631D01*
X641927Y522652D01*
X641814Y522708D01*
X641703Y522769D01*
X641671Y522777D01*
X641641Y522791D01*
X641517Y522817D01*
X641395Y522848D01*
X641347Y522851D01*
X641330Y522855D01*
X641308Y522854D01*
X641234Y522858D01*
X208342Y522858D01*
X208204Y522841D01*
X208065Y522828D01*
X208046Y522821D01*
X208026Y522818D01*
X207897Y522767D01*
X207766Y522720D01*
X207749Y522709D01*
X207731Y522701D01*
X207618Y522620D01*
X207503Y522542D01*
X207490Y522526D01*
X207473Y522515D01*
X207384Y522407D01*
X207293Y522303D01*
X207283Y522285D01*
X207270Y522270D01*
X207211Y522144D01*
X207148Y522020D01*
X207144Y522000D01*
X207135Y521982D01*
X207109Y521845D01*
X207078Y521710D01*
X207079Y521689D01*
X207075Y521670D01*
X207084Y521531D01*
X207088Y521392D01*
X207094Y521372D01*
X207095Y521352D01*
X207138Y521220D01*
X207176Y521086D01*
X207187Y521069D01*
X207193Y521050D01*
X207267Y520932D01*
X207338Y520812D01*
X207357Y520791D01*
X207363Y520781D01*
X207378Y520767D01*
X207444Y520692D01*
X208265Y519870D01*
X211456Y512168D01*
X211456Y503832D01*
X208265Y496130D01*
X202370Y490235D01*
X194668Y487044D01*
X186332Y487044D01*
X178630Y490235D01*
X172735Y496130D01*
X169544Y503832D01*
X169544Y512168D01*
X172735Y519870D01*
X173556Y520692D01*
X173640Y520801D01*
X173730Y520908D01*
X173738Y520927D01*
X173751Y520943D01*
X173806Y521070D01*
X173865Y521196D01*
X173869Y521216D01*
X173877Y521235D01*
X173899Y521373D01*
X173925Y521509D01*
X173924Y521529D01*
X173927Y521549D01*
X173914Y521688D01*
X173905Y521826D01*
X173899Y521845D01*
X173897Y521865D01*
X173850Y521997D01*
X173807Y522128D01*
X173796Y522146D01*
X173789Y522165D01*
X173711Y522280D01*
X173637Y522397D01*
X173622Y522411D01*
X173611Y522428D01*
X173507Y522520D01*
X173405Y522615D01*
X173388Y522625D01*
X173372Y522638D01*
X173249Y522701D01*
X173127Y522769D01*
X173107Y522774D01*
X173089Y522783D01*
X172953Y522813D01*
X172819Y522848D01*
X172791Y522850D01*
X172779Y522853D01*
X172758Y522852D01*
X172658Y522858D01*
X158750Y522858D01*
X158632Y522843D01*
X158513Y522836D01*
X158475Y522823D01*
X158434Y522818D01*
X158324Y522775D01*
X158211Y522738D01*
X158176Y522716D01*
X158139Y522701D01*
X158043Y522632D01*
X157942Y522568D01*
X157914Y522538D01*
X157881Y522515D01*
X157805Y522423D01*
X157724Y522336D01*
X157704Y522301D01*
X157679Y522270D01*
X157628Y522162D01*
X157570Y522058D01*
X157560Y522018D01*
X157543Y521982D01*
X157521Y521865D01*
X157491Y521750D01*
X157487Y521690D01*
X157483Y521670D01*
X157485Y521649D01*
X157481Y521589D01*
X157481Y354589D01*
X156707Y352722D01*
X117178Y313193D01*
X115311Y312419D01*
X11811Y312419D01*
X11693Y312404D01*
X11574Y312397D01*
X11536Y312384D01*
X11495Y312379D01*
X11385Y312336D01*
X11272Y312299D01*
X11237Y312277D01*
X11200Y312262D01*
X11104Y312193D01*
X11003Y312129D01*
X10975Y312099D01*
X10942Y312076D01*
X10866Y311984D01*
X10785Y311897D01*
X10765Y311862D01*
X10740Y311831D01*
X10689Y311723D01*
X10631Y311619D01*
X10621Y311579D01*
X10604Y311543D01*
X10582Y311426D01*
X10552Y311311D01*
X10548Y311251D01*
X10544Y311231D01*
X10546Y311210D01*
X10542Y311150D01*
X10542Y11811D01*
X10557Y11693D01*
X10564Y11574D01*
X10577Y11536D01*
X10582Y11495D01*
X10625Y11385D01*
X10662Y11272D01*
X10684Y11237D01*
X10699Y11200D01*
X10768Y11104D01*
X10832Y11003D01*
X10862Y10975D01*
X10885Y10942D01*
X10977Y10866D01*
X11064Y10785D01*
X11099Y10765D01*
X11130Y10740D01*
X11238Y10689D01*
X11342Y10631D01*
X11382Y10621D01*
X11418Y10604D01*
X11535Y10582D01*
X11650Y10552D01*
X11710Y10548D01*
X11730Y10544D01*
X11751Y10546D01*
X11811Y10542D01*
X94278Y10542D01*
X94416Y10559D01*
G37*
G36*
X111768Y322593D02*
X111768Y322593D01*
X111867Y322596D01*
X111925Y322613D01*
X111985Y322621D01*
X112077Y322657D01*
X112172Y322685D01*
X112225Y322715D01*
X112281Y322738D01*
X112361Y322796D01*
X112446Y322846D01*
X112522Y322912D01*
X112538Y322924D01*
X112546Y322934D01*
X112567Y322952D01*
X146948Y357333D01*
X147008Y357411D01*
X147076Y357483D01*
X147105Y357536D01*
X147142Y357584D01*
X147182Y357675D01*
X147230Y357762D01*
X147245Y357820D01*
X147269Y357876D01*
X147284Y357974D01*
X147309Y358070D01*
X147315Y358170D01*
X147319Y358190D01*
X147317Y358202D01*
X147319Y358230D01*
X147319Y521589D01*
X147304Y521707D01*
X147297Y521826D01*
X147284Y521864D01*
X147279Y521905D01*
X147236Y522015D01*
X147199Y522128D01*
X147177Y522163D01*
X147162Y522200D01*
X147093Y522296D01*
X147029Y522397D01*
X146999Y522425D01*
X146976Y522458D01*
X146884Y522534D01*
X146797Y522615D01*
X146762Y522635D01*
X146731Y522660D01*
X146623Y522711D01*
X146519Y522769D01*
X146479Y522779D01*
X146443Y522796D01*
X146326Y522818D01*
X146211Y522848D01*
X146151Y522852D01*
X146131Y522856D01*
X146110Y522854D01*
X146050Y522858D01*
X11811Y522858D01*
X11693Y522843D01*
X11574Y522836D01*
X11536Y522823D01*
X11495Y522818D01*
X11385Y522775D01*
X11272Y522738D01*
X11237Y522716D01*
X11200Y522701D01*
X11104Y522632D01*
X11003Y522568D01*
X10975Y522538D01*
X10942Y522515D01*
X10866Y522423D01*
X10785Y522336D01*
X10765Y522301D01*
X10740Y522270D01*
X10689Y522162D01*
X10631Y522058D01*
X10621Y522018D01*
X10604Y521982D01*
X10582Y521865D01*
X10552Y521750D01*
X10548Y521690D01*
X10544Y521670D01*
X10546Y521649D01*
X10542Y521589D01*
X10542Y323850D01*
X10557Y323732D01*
X10564Y323613D01*
X10577Y323575D01*
X10582Y323534D01*
X10625Y323424D01*
X10662Y323311D01*
X10684Y323276D01*
X10699Y323239D01*
X10768Y323143D01*
X10832Y323042D01*
X10862Y323014D01*
X10885Y322981D01*
X10977Y322905D01*
X11064Y322824D01*
X11099Y322804D01*
X11130Y322779D01*
X11238Y322728D01*
X11342Y322670D01*
X11382Y322660D01*
X11418Y322643D01*
X11535Y322621D01*
X11650Y322591D01*
X11710Y322587D01*
X11730Y322583D01*
X11751Y322585D01*
X11811Y322581D01*
X111670Y322581D01*
X111768Y322593D01*
G37*
%LPC*%
G36*
X262532Y194944D02*
X262532Y194944D01*
X254830Y198135D01*
X248935Y204030D01*
X245744Y211732D01*
X245744Y220068D01*
X248935Y227770D01*
X254830Y233665D01*
X262532Y236856D01*
X270868Y236856D01*
X278570Y233665D01*
X284465Y227770D01*
X287656Y220068D01*
X287656Y211732D01*
X284465Y204030D01*
X278570Y198135D01*
X270868Y194944D01*
X262532Y194944D01*
G37*
%LPD*%
%LPC*%
G36*
X658581Y130555D02*
X658581Y130555D01*
X655220Y131947D01*
X652647Y134520D01*
X651255Y137881D01*
X651255Y141519D01*
X652647Y144880D01*
X655220Y147453D01*
X658581Y148845D01*
X662219Y148845D01*
X665580Y147453D01*
X668153Y144880D01*
X669545Y141519D01*
X669545Y137881D01*
X668153Y134520D01*
X665580Y131947D01*
X662219Y130555D01*
X658581Y130555D01*
G37*
%LPD*%
%LPC*%
G36*
X633181Y155955D02*
X633181Y155955D01*
X629820Y157347D01*
X627247Y159920D01*
X625855Y163281D01*
X625855Y166919D01*
X627247Y170280D01*
X629820Y172853D01*
X633181Y174245D01*
X636819Y174245D01*
X640180Y172853D01*
X642753Y170280D01*
X644145Y166919D01*
X644145Y163281D01*
X642753Y159920D01*
X640180Y157347D01*
X636819Y155955D01*
X633181Y155955D01*
G37*
%LPD*%
%LPC*%
G36*
X658581Y155955D02*
X658581Y155955D01*
X655220Y157347D01*
X652647Y159920D01*
X651255Y163281D01*
X651255Y166919D01*
X652647Y170280D01*
X655220Y172853D01*
X658581Y174245D01*
X662219Y174245D01*
X665580Y172853D01*
X668153Y170280D01*
X669545Y166919D01*
X669545Y163281D01*
X668153Y159920D01*
X665580Y157347D01*
X662219Y155955D01*
X658581Y155955D01*
G37*
%LPD*%
%LPC*%
G36*
X633181Y181355D02*
X633181Y181355D01*
X629820Y182747D01*
X627247Y185320D01*
X625855Y188681D01*
X625855Y192319D01*
X627247Y195680D01*
X629820Y198253D01*
X633181Y199645D01*
X636819Y199645D01*
X640180Y198253D01*
X642753Y195680D01*
X644145Y192319D01*
X644145Y188681D01*
X642753Y185320D01*
X640180Y182747D01*
X636819Y181355D01*
X633181Y181355D01*
G37*
%LPD*%
%LPC*%
G36*
X658581Y181355D02*
X658581Y181355D01*
X655220Y182747D01*
X652647Y185320D01*
X651255Y188681D01*
X651255Y192319D01*
X652647Y195680D01*
X655220Y198253D01*
X658581Y199645D01*
X662219Y199645D01*
X665580Y198253D01*
X668153Y195680D01*
X669545Y192319D01*
X669545Y188681D01*
X668153Y185320D01*
X665580Y182747D01*
X662219Y181355D01*
X658581Y181355D01*
G37*
%LPD*%
%LPC*%
G36*
X555711Y321055D02*
X555711Y321055D01*
X552350Y322447D01*
X549777Y325020D01*
X548385Y328381D01*
X548385Y332019D01*
X549777Y335380D01*
X552350Y337953D01*
X555711Y339345D01*
X559349Y339345D01*
X562710Y337953D01*
X565283Y335380D01*
X566675Y332019D01*
X566675Y328381D01*
X565283Y325020D01*
X562710Y322447D01*
X559349Y321055D01*
X555711Y321055D01*
G37*
%LPD*%
%LPC*%
G36*
X466811Y321055D02*
X466811Y321055D01*
X463450Y322447D01*
X460877Y325020D01*
X459485Y328381D01*
X459485Y332019D01*
X460877Y335380D01*
X463450Y337953D01*
X466811Y339345D01*
X470449Y339345D01*
X473810Y337953D01*
X476383Y335380D01*
X477775Y332019D01*
X477775Y328381D01*
X476383Y325020D01*
X473810Y322447D01*
X470449Y321055D01*
X466811Y321055D01*
G37*
%LPD*%
%LPC*%
G36*
X658581Y359155D02*
X658581Y359155D01*
X655220Y360547D01*
X652647Y363120D01*
X651255Y366481D01*
X651255Y370119D01*
X652647Y373480D01*
X655220Y376053D01*
X658581Y377445D01*
X662219Y377445D01*
X665580Y376053D01*
X668153Y373480D01*
X669545Y370119D01*
X669545Y366481D01*
X668153Y363120D01*
X665580Y360547D01*
X662219Y359155D01*
X658581Y359155D01*
G37*
%LPD*%
%LPC*%
G36*
X658581Y308355D02*
X658581Y308355D01*
X655220Y309747D01*
X652647Y312320D01*
X651255Y315681D01*
X651255Y319319D01*
X652647Y322680D01*
X655220Y325253D01*
X658581Y326645D01*
X662219Y326645D01*
X665580Y325253D01*
X668153Y322680D01*
X669545Y319319D01*
X669545Y315681D01*
X668153Y312320D01*
X665580Y309747D01*
X662219Y308355D01*
X658581Y308355D01*
G37*
%LPD*%
%LPC*%
G36*
X633181Y308355D02*
X633181Y308355D01*
X629820Y309747D01*
X627247Y312320D01*
X625855Y315681D01*
X625855Y319319D01*
X627247Y322680D01*
X629820Y325253D01*
X633181Y326645D01*
X636819Y326645D01*
X640180Y325253D01*
X642753Y322680D01*
X644145Y319319D01*
X644145Y315681D01*
X642753Y312320D01*
X640180Y309747D01*
X636819Y308355D01*
X633181Y308355D01*
G37*
%LPD*%
%LPC*%
G36*
X469351Y295655D02*
X469351Y295655D01*
X465990Y297047D01*
X463417Y299620D01*
X462025Y302981D01*
X462025Y306619D01*
X463417Y309980D01*
X465990Y312553D01*
X469351Y313945D01*
X472989Y313945D01*
X476350Y312553D01*
X478923Y309980D01*
X480315Y306619D01*
X480315Y302981D01*
X478923Y299620D01*
X476350Y297047D01*
X472989Y295655D01*
X469351Y295655D01*
G37*
%LPD*%
%LPC*%
G36*
X633181Y257555D02*
X633181Y257555D01*
X629820Y258947D01*
X627247Y261520D01*
X625855Y264881D01*
X625855Y268519D01*
X627247Y271880D01*
X629820Y274453D01*
X633181Y275845D01*
X636819Y275845D01*
X640180Y274453D01*
X642753Y271880D01*
X644145Y268519D01*
X644145Y264881D01*
X642753Y261520D01*
X640180Y258947D01*
X636819Y257555D01*
X633181Y257555D01*
G37*
%LPD*%
%LPC*%
G36*
X658581Y282955D02*
X658581Y282955D01*
X655220Y284347D01*
X652647Y286920D01*
X651255Y290281D01*
X651255Y293919D01*
X652647Y297280D01*
X655220Y299853D01*
X658581Y301245D01*
X662219Y301245D01*
X665580Y299853D01*
X668153Y297280D01*
X669545Y293919D01*
X669545Y290281D01*
X668153Y286920D01*
X665580Y284347D01*
X662219Y282955D01*
X658581Y282955D01*
G37*
%LPD*%
%LPC*%
G36*
X633181Y282955D02*
X633181Y282955D01*
X629820Y284347D01*
X627247Y286920D01*
X625855Y290281D01*
X625855Y293919D01*
X627247Y297280D01*
X629820Y299853D01*
X633181Y301245D01*
X636819Y301245D01*
X640180Y299853D01*
X642753Y297280D01*
X644145Y293919D01*
X644145Y290281D01*
X642753Y286920D01*
X640180Y284347D01*
X636819Y282955D01*
X633181Y282955D01*
G37*
%LPD*%
%LPC*%
G36*
X555711Y244855D02*
X555711Y244855D01*
X552350Y246247D01*
X549777Y248820D01*
X548385Y252181D01*
X548385Y255819D01*
X549777Y259180D01*
X552350Y261753D01*
X555711Y263145D01*
X559349Y263145D01*
X562710Y261753D01*
X565283Y259180D01*
X566675Y255819D01*
X566675Y252181D01*
X565283Y248820D01*
X562710Y246247D01*
X559349Y244855D01*
X555711Y244855D01*
G37*
%LPD*%
%LPC*%
G36*
X469351Y194055D02*
X469351Y194055D01*
X465990Y195447D01*
X463417Y198020D01*
X462025Y201381D01*
X462025Y205019D01*
X463417Y208380D01*
X465990Y210953D01*
X469351Y212345D01*
X472989Y212345D01*
X476350Y210953D01*
X478923Y208380D01*
X480315Y205019D01*
X480315Y201381D01*
X478923Y198020D01*
X476350Y195447D01*
X472989Y194055D01*
X469351Y194055D01*
G37*
%LPD*%
%LPC*%
G36*
X555711Y194055D02*
X555711Y194055D01*
X552350Y195447D01*
X549777Y198020D01*
X548385Y201381D01*
X548385Y205019D01*
X549777Y208380D01*
X552350Y210953D01*
X555711Y212345D01*
X559349Y212345D01*
X562710Y210953D01*
X565283Y208380D01*
X566675Y205019D01*
X566675Y201381D01*
X565283Y198020D01*
X562710Y195447D01*
X559349Y194055D01*
X555711Y194055D01*
G37*
%LPD*%
%LPC*%
G36*
X558251Y270255D02*
X558251Y270255D01*
X554890Y271647D01*
X552317Y274220D01*
X550925Y277581D01*
X550925Y281219D01*
X552317Y284580D01*
X554890Y287153D01*
X558251Y288545D01*
X561889Y288545D01*
X565250Y287153D01*
X567823Y284580D01*
X569215Y281219D01*
X569215Y277581D01*
X567823Y274220D01*
X565250Y271647D01*
X561889Y270255D01*
X558251Y270255D01*
G37*
%LPD*%
%LPC*%
G36*
X658581Y232155D02*
X658581Y232155D01*
X655220Y233547D01*
X652647Y236120D01*
X651255Y239481D01*
X651255Y243119D01*
X652647Y246480D01*
X655220Y249053D01*
X658581Y250445D01*
X662219Y250445D01*
X665580Y249053D01*
X668153Y246480D01*
X669545Y243119D01*
X669545Y239481D01*
X668153Y236120D01*
X665580Y233547D01*
X662219Y232155D01*
X658581Y232155D01*
G37*
%LPD*%
%LPC*%
G36*
X97241Y488695D02*
X97241Y488695D01*
X93880Y490087D01*
X91307Y492660D01*
X89915Y496021D01*
X89915Y499659D01*
X91307Y503020D01*
X93880Y505593D01*
X97241Y506985D01*
X100879Y506985D01*
X104240Y505593D01*
X106813Y503020D01*
X108205Y499659D01*
X108205Y496021D01*
X106813Y492660D01*
X104240Y490087D01*
X100879Y488695D01*
X97241Y488695D01*
G37*
%LPD*%
%LPC*%
G36*
X633181Y54355D02*
X633181Y54355D01*
X629820Y55747D01*
X627247Y58320D01*
X625855Y61681D01*
X625855Y65319D01*
X627247Y68680D01*
X629820Y71253D01*
X633181Y72645D01*
X636819Y72645D01*
X640180Y71253D01*
X642753Y68680D01*
X644145Y65319D01*
X644145Y61681D01*
X642753Y58320D01*
X640180Y55747D01*
X636819Y54355D01*
X633181Y54355D01*
G37*
%LPD*%
%LPC*%
G36*
X658581Y54355D02*
X658581Y54355D01*
X655220Y55747D01*
X652647Y58320D01*
X651255Y61681D01*
X651255Y65319D01*
X652647Y68680D01*
X655220Y71253D01*
X658581Y72645D01*
X662219Y72645D01*
X665580Y71253D01*
X668153Y68680D01*
X669545Y65319D01*
X669545Y61681D01*
X668153Y58320D01*
X665580Y55747D01*
X662219Y54355D01*
X658581Y54355D01*
G37*
%LPD*%
%LPC*%
G36*
X50251Y482345D02*
X50251Y482345D01*
X46890Y483737D01*
X44317Y486310D01*
X42925Y489671D01*
X42925Y493309D01*
X44317Y496670D01*
X46890Y499243D01*
X50251Y500635D01*
X53889Y500635D01*
X57250Y499243D01*
X59823Y496670D01*
X61215Y493309D01*
X61215Y489671D01*
X59823Y486310D01*
X57250Y483737D01*
X53889Y482345D01*
X50251Y482345D01*
G37*
%LPD*%
%LPC*%
G36*
X22311Y482345D02*
X22311Y482345D01*
X18950Y483737D01*
X16377Y486310D01*
X14985Y489671D01*
X14985Y493309D01*
X16377Y496670D01*
X18950Y499243D01*
X22311Y500635D01*
X25949Y500635D01*
X29310Y499243D01*
X31883Y496670D01*
X33275Y493309D01*
X33275Y489671D01*
X31883Y486310D01*
X29310Y483737D01*
X25949Y482345D01*
X22311Y482345D01*
G37*
%LPD*%
%LPC*%
G36*
X633181Y232155D02*
X633181Y232155D01*
X629820Y233547D01*
X627247Y236120D01*
X625855Y239481D01*
X625855Y243119D01*
X627247Y246480D01*
X629820Y249053D01*
X633181Y250445D01*
X636819Y250445D01*
X640180Y249053D01*
X642753Y246480D01*
X644145Y243119D01*
X644145Y239481D01*
X642753Y236120D01*
X640180Y233547D01*
X636819Y232155D01*
X633181Y232155D01*
G37*
%LPD*%
%LPC*%
G36*
X466811Y219455D02*
X466811Y219455D01*
X463450Y220847D01*
X460877Y223420D01*
X459485Y226781D01*
X459485Y230419D01*
X460877Y233780D01*
X463450Y236353D01*
X466811Y237745D01*
X470449Y237745D01*
X473810Y236353D01*
X476383Y233780D01*
X477775Y230419D01*
X477775Y226781D01*
X476383Y223420D01*
X473810Y220847D01*
X470449Y219455D01*
X466811Y219455D01*
G37*
%LPD*%
%LPC*%
G36*
X469351Y92455D02*
X469351Y92455D01*
X465990Y93847D01*
X463417Y96420D01*
X462025Y99781D01*
X462025Y103419D01*
X463417Y106780D01*
X465990Y109353D01*
X469351Y110745D01*
X472989Y110745D01*
X476350Y109353D01*
X478923Y106780D01*
X480315Y103419D01*
X480315Y99781D01*
X478923Y96420D01*
X476350Y93847D01*
X472989Y92455D01*
X469351Y92455D01*
G37*
%LPD*%
%LPC*%
G36*
X558251Y92455D02*
X558251Y92455D01*
X554890Y93847D01*
X552317Y96420D01*
X550925Y99781D01*
X550925Y103419D01*
X552317Y106780D01*
X554890Y109353D01*
X558251Y110745D01*
X561889Y110745D01*
X565250Y109353D01*
X567823Y106780D01*
X569215Y103419D01*
X569215Y99781D01*
X567823Y96420D01*
X565250Y93847D01*
X561889Y92455D01*
X558251Y92455D01*
G37*
%LPD*%
%LPC*%
G36*
X633181Y105155D02*
X633181Y105155D01*
X629820Y106547D01*
X627247Y109120D01*
X625855Y112481D01*
X625855Y116119D01*
X627247Y119480D01*
X629820Y122053D01*
X633181Y123445D01*
X636819Y123445D01*
X640180Y122053D01*
X642753Y119480D01*
X644145Y116119D01*
X644145Y112481D01*
X642753Y109120D01*
X640180Y106547D01*
X636819Y105155D01*
X633181Y105155D01*
G37*
%LPD*%
%LPC*%
G36*
X558251Y219455D02*
X558251Y219455D01*
X554890Y220847D01*
X552317Y223420D01*
X550925Y226781D01*
X550925Y230419D01*
X552317Y233780D01*
X554890Y236353D01*
X558251Y237745D01*
X561889Y237745D01*
X565250Y236353D01*
X567823Y233780D01*
X569215Y230419D01*
X569215Y226781D01*
X567823Y223420D01*
X565250Y220847D01*
X561889Y219455D01*
X558251Y219455D01*
G37*
%LPD*%
%LPC*%
G36*
X558251Y397255D02*
X558251Y397255D01*
X554890Y398647D01*
X552317Y401220D01*
X550925Y404581D01*
X550925Y408219D01*
X552317Y411580D01*
X554890Y414153D01*
X558251Y415545D01*
X561889Y415545D01*
X565250Y414153D01*
X567823Y411580D01*
X569215Y408219D01*
X569215Y404581D01*
X567823Y401220D01*
X565250Y398647D01*
X561889Y397255D01*
X558251Y397255D01*
G37*
%LPD*%
%LPC*%
G36*
X555711Y371855D02*
X555711Y371855D01*
X552350Y373247D01*
X549777Y375820D01*
X548385Y379181D01*
X548385Y382819D01*
X549777Y386180D01*
X552350Y388753D01*
X555711Y390145D01*
X559349Y390145D01*
X562710Y388753D01*
X565283Y386180D01*
X566675Y382819D01*
X566675Y379181D01*
X565283Y375820D01*
X562710Y373247D01*
X559349Y371855D01*
X555711Y371855D01*
G37*
%LPD*%
%LPC*%
G36*
X658581Y257555D02*
X658581Y257555D01*
X655220Y258947D01*
X652647Y261520D01*
X651255Y264881D01*
X651255Y268519D01*
X652647Y271880D01*
X655220Y274453D01*
X658581Y275845D01*
X662219Y275845D01*
X665580Y274453D01*
X668153Y271880D01*
X669545Y268519D01*
X669545Y264881D01*
X668153Y261520D01*
X665580Y258947D01*
X662219Y257555D01*
X658581Y257555D01*
G37*
%LPD*%
%LPC*%
G36*
X558251Y143255D02*
X558251Y143255D01*
X554890Y144647D01*
X552317Y147220D01*
X550925Y150581D01*
X550925Y154219D01*
X552317Y157580D01*
X554890Y160153D01*
X558251Y161545D01*
X561889Y161545D01*
X565250Y160153D01*
X567823Y157580D01*
X569215Y154219D01*
X569215Y150581D01*
X567823Y147220D01*
X565250Y144647D01*
X561889Y143255D01*
X558251Y143255D01*
G37*
%LPD*%
%LPC*%
G36*
X633181Y359155D02*
X633181Y359155D01*
X629820Y360547D01*
X627247Y363120D01*
X625855Y366481D01*
X625855Y370119D01*
X627247Y373480D01*
X629820Y376053D01*
X633181Y377445D01*
X636819Y377445D01*
X640180Y376053D01*
X642753Y373480D01*
X644145Y370119D01*
X644145Y366481D01*
X642753Y363120D01*
X640180Y360547D01*
X636819Y359155D01*
X633181Y359155D01*
G37*
%LPD*%
%LPC*%
G36*
X558251Y346455D02*
X558251Y346455D01*
X554890Y347847D01*
X552317Y350420D01*
X550925Y353781D01*
X550925Y357419D01*
X552317Y360780D01*
X554890Y363353D01*
X558251Y364745D01*
X561889Y364745D01*
X565250Y363353D01*
X567823Y360780D01*
X569215Y357419D01*
X569215Y353781D01*
X567823Y350420D01*
X565250Y347847D01*
X561889Y346455D01*
X558251Y346455D01*
G37*
%LPD*%
%LPC*%
G36*
X469351Y346455D02*
X469351Y346455D01*
X465990Y347847D01*
X463417Y350420D01*
X462025Y353781D01*
X462025Y357419D01*
X463417Y360780D01*
X465990Y363353D01*
X469351Y364745D01*
X472989Y364745D01*
X476350Y363353D01*
X478923Y360780D01*
X480315Y357419D01*
X480315Y353781D01*
X478923Y350420D01*
X476350Y347847D01*
X472989Y346455D01*
X469351Y346455D01*
G37*
%LPD*%
%LPC*%
G36*
X658581Y105155D02*
X658581Y105155D01*
X655220Y106547D01*
X652647Y109120D01*
X651255Y112481D01*
X651255Y116119D01*
X652647Y119480D01*
X655220Y122053D01*
X658581Y123445D01*
X662219Y123445D01*
X665580Y122053D01*
X668153Y119480D01*
X669545Y116119D01*
X669545Y112481D01*
X668153Y109120D01*
X665580Y106547D01*
X662219Y105155D01*
X658581Y105155D01*
G37*
%LPD*%
%LPC*%
G36*
X466811Y117855D02*
X466811Y117855D01*
X463450Y119247D01*
X460877Y121820D01*
X459485Y125181D01*
X459485Y128819D01*
X460877Y132180D01*
X463450Y134753D01*
X466811Y136145D01*
X470449Y136145D01*
X473810Y134753D01*
X476383Y132180D01*
X477775Y128819D01*
X477775Y125181D01*
X476383Y121820D01*
X473810Y119247D01*
X470449Y117855D01*
X466811Y117855D01*
G37*
%LPD*%
%LPC*%
G36*
X555711Y117855D02*
X555711Y117855D01*
X552350Y119247D01*
X549777Y121820D01*
X548385Y125181D01*
X548385Y128819D01*
X549777Y132180D01*
X552350Y134753D01*
X555711Y136145D01*
X559349Y136145D01*
X562710Y134753D01*
X565283Y132180D01*
X566675Y128819D01*
X566675Y125181D01*
X565283Y121820D01*
X562710Y119247D01*
X559349Y117855D01*
X555711Y117855D01*
G37*
%LPD*%
%LPC*%
G36*
X633181Y130555D02*
X633181Y130555D01*
X629820Y131947D01*
X627247Y134520D01*
X625855Y137881D01*
X625855Y141519D01*
X627247Y144880D01*
X629820Y147453D01*
X633181Y148845D01*
X636819Y148845D01*
X640180Y147453D01*
X642753Y144880D01*
X644145Y141519D01*
X644145Y137881D01*
X642753Y134520D01*
X640180Y131947D01*
X636819Y130555D01*
X633181Y130555D01*
G37*
%LPD*%
%LPC*%
G36*
X582397Y16335D02*
X582397Y16335D01*
X579065Y17715D01*
X576515Y20265D01*
X575135Y23597D01*
X575135Y27203D01*
X576515Y30535D01*
X579065Y33085D01*
X582397Y34465D01*
X586003Y34465D01*
X589335Y33085D01*
X591885Y30535D01*
X593265Y27203D01*
X593265Y23597D01*
X591885Y20265D01*
X589335Y17715D01*
X586003Y16335D01*
X582397Y16335D01*
G37*
%LPD*%
%LPC*%
G36*
X607797Y16335D02*
X607797Y16335D01*
X604465Y17715D01*
X601915Y20265D01*
X600535Y23597D01*
X600535Y27203D01*
X601915Y30535D01*
X604465Y33085D01*
X607797Y34465D01*
X611403Y34465D01*
X614735Y33085D01*
X617285Y30535D01*
X618665Y27203D01*
X618665Y23597D01*
X617285Y20265D01*
X614735Y17715D01*
X611403Y16335D01*
X607797Y16335D01*
G37*
%LPD*%
%LPC*%
G36*
X287757Y498935D02*
X287757Y498935D01*
X284425Y500315D01*
X281875Y502865D01*
X280495Y506197D01*
X280495Y509803D01*
X281875Y513135D01*
X284425Y515685D01*
X287757Y517065D01*
X291363Y517065D01*
X294695Y515685D01*
X297245Y513135D01*
X298625Y509803D01*
X298625Y506197D01*
X297245Y502865D01*
X294695Y500315D01*
X291363Y498935D01*
X287757Y498935D01*
G37*
%LPD*%
%LPC*%
G36*
X582397Y498935D02*
X582397Y498935D01*
X579065Y500315D01*
X576515Y502865D01*
X575135Y506197D01*
X575135Y509803D01*
X576515Y513135D01*
X579065Y515685D01*
X582397Y517065D01*
X586003Y517065D01*
X589335Y515685D01*
X591885Y513135D01*
X593265Y509803D01*
X593265Y506197D01*
X591885Y502865D01*
X589335Y500315D01*
X586003Y498935D01*
X582397Y498935D01*
G37*
%LPD*%
%LPC*%
G36*
X236957Y498935D02*
X236957Y498935D01*
X233625Y500315D01*
X231075Y502865D01*
X229695Y506197D01*
X229695Y509803D01*
X231075Y513135D01*
X233625Y515685D01*
X236957Y517065D01*
X240563Y517065D01*
X243895Y515685D01*
X246445Y513135D01*
X247825Y509803D01*
X247825Y506197D01*
X246445Y502865D01*
X243895Y500315D01*
X240563Y498935D01*
X236957Y498935D01*
G37*
%LPD*%
%LPC*%
G36*
X531597Y498935D02*
X531597Y498935D01*
X528265Y500315D01*
X525715Y502865D01*
X524335Y506197D01*
X524335Y509803D01*
X525715Y513135D01*
X528265Y515685D01*
X531597Y517065D01*
X535203Y517065D01*
X538535Y515685D01*
X541085Y513135D01*
X542465Y509803D01*
X542465Y506197D01*
X541085Y502865D01*
X538535Y500315D01*
X535203Y498935D01*
X531597Y498935D01*
G37*
%LPD*%
%LPC*%
G36*
X633197Y498935D02*
X633197Y498935D01*
X629865Y500315D01*
X627315Y502865D01*
X625935Y506197D01*
X625935Y509803D01*
X627315Y513135D01*
X629865Y515685D01*
X633197Y517065D01*
X636803Y517065D01*
X640135Y515685D01*
X642685Y513135D01*
X644065Y509803D01*
X644065Y506197D01*
X642685Y502865D01*
X640135Y500315D01*
X636803Y498935D01*
X633197Y498935D01*
G37*
%LPD*%
%LPC*%
G36*
X556997Y498935D02*
X556997Y498935D01*
X553665Y500315D01*
X551115Y502865D01*
X549735Y506197D01*
X549735Y509803D01*
X551115Y513135D01*
X553665Y515685D01*
X556997Y517065D01*
X560603Y517065D01*
X563935Y515685D01*
X566485Y513135D01*
X567865Y509803D01*
X567865Y506197D01*
X566485Y502865D01*
X563935Y500315D01*
X560603Y498935D01*
X556997Y498935D01*
G37*
%LPD*%
%LPC*%
G36*
X506197Y498935D02*
X506197Y498935D01*
X502865Y500315D01*
X500315Y502865D01*
X498935Y506197D01*
X498935Y509803D01*
X500315Y513135D01*
X502865Y515685D01*
X506197Y517065D01*
X509803Y517065D01*
X513135Y515685D01*
X515685Y513135D01*
X517065Y509803D01*
X517065Y506197D01*
X515685Y502865D01*
X513135Y500315D01*
X509803Y498935D01*
X506197Y498935D01*
G37*
%LPD*%
%LPC*%
G36*
X480797Y498935D02*
X480797Y498935D01*
X477465Y500315D01*
X474915Y502865D01*
X473535Y506197D01*
X473535Y509803D01*
X474915Y513135D01*
X477465Y515685D01*
X480797Y517065D01*
X484403Y517065D01*
X487735Y515685D01*
X490285Y513135D01*
X491665Y509803D01*
X491665Y506197D01*
X490285Y502865D01*
X487735Y500315D01*
X484403Y498935D01*
X480797Y498935D01*
G37*
%LPD*%
%LPC*%
G36*
X455397Y498935D02*
X455397Y498935D01*
X452065Y500315D01*
X449515Y502865D01*
X448135Y506197D01*
X448135Y509803D01*
X449515Y513135D01*
X452065Y515685D01*
X455397Y517065D01*
X459003Y517065D01*
X462335Y515685D01*
X464885Y513135D01*
X466265Y509803D01*
X466265Y506197D01*
X464885Y502865D01*
X462335Y500315D01*
X459003Y498935D01*
X455397Y498935D01*
G37*
%LPD*%
%LPC*%
G36*
X414757Y498935D02*
X414757Y498935D01*
X411425Y500315D01*
X408875Y502865D01*
X407495Y506197D01*
X407495Y509803D01*
X408875Y513135D01*
X411425Y515685D01*
X414757Y517065D01*
X418363Y517065D01*
X421695Y515685D01*
X424245Y513135D01*
X425625Y509803D01*
X425625Y506197D01*
X424245Y502865D01*
X421695Y500315D01*
X418363Y498935D01*
X414757Y498935D01*
G37*
%LPD*%
%LPC*%
G36*
X389357Y498935D02*
X389357Y498935D01*
X386025Y500315D01*
X383475Y502865D01*
X382095Y506197D01*
X382095Y509803D01*
X383475Y513135D01*
X386025Y515685D01*
X389357Y517065D01*
X392963Y517065D01*
X396295Y515685D01*
X398845Y513135D01*
X400225Y509803D01*
X400225Y506197D01*
X398845Y502865D01*
X396295Y500315D01*
X392963Y498935D01*
X389357Y498935D01*
G37*
%LPD*%
%LPC*%
G36*
X363957Y498935D02*
X363957Y498935D01*
X360625Y500315D01*
X358075Y502865D01*
X356695Y506197D01*
X356695Y509803D01*
X358075Y513135D01*
X360625Y515685D01*
X363957Y517065D01*
X367563Y517065D01*
X370895Y515685D01*
X373445Y513135D01*
X374825Y509803D01*
X374825Y506197D01*
X373445Y502865D01*
X370895Y500315D01*
X367563Y498935D01*
X363957Y498935D01*
G37*
%LPD*%
%LPC*%
G36*
X338557Y498935D02*
X338557Y498935D01*
X335225Y500315D01*
X332675Y502865D01*
X331295Y506197D01*
X331295Y509803D01*
X332675Y513135D01*
X335225Y515685D01*
X338557Y517065D01*
X342163Y517065D01*
X345495Y515685D01*
X348045Y513135D01*
X349425Y509803D01*
X349425Y506197D01*
X348045Y502865D01*
X345495Y500315D01*
X342163Y498935D01*
X338557Y498935D01*
G37*
%LPD*%
%LPC*%
G36*
X607797Y498935D02*
X607797Y498935D01*
X604465Y500315D01*
X601915Y502865D01*
X600535Y506197D01*
X600535Y509803D01*
X601915Y513135D01*
X604465Y515685D01*
X607797Y517065D01*
X611403Y517065D01*
X614735Y515685D01*
X617285Y513135D01*
X618665Y509803D01*
X618665Y506197D01*
X617285Y502865D01*
X614735Y500315D01*
X611403Y498935D01*
X607797Y498935D01*
G37*
%LPD*%
%LPC*%
G36*
X633197Y16335D02*
X633197Y16335D01*
X629865Y17715D01*
X627315Y20265D01*
X625935Y23597D01*
X625935Y27203D01*
X627315Y30535D01*
X629865Y33085D01*
X633197Y34465D01*
X636803Y34465D01*
X640135Y33085D01*
X642685Y30535D01*
X644065Y27203D01*
X644065Y23597D01*
X642685Y20265D01*
X640135Y17715D01*
X636803Y16335D01*
X633197Y16335D01*
G37*
%LPD*%
%LPC*%
G36*
X313157Y498935D02*
X313157Y498935D01*
X309825Y500315D01*
X307275Y502865D01*
X305895Y506197D01*
X305895Y509803D01*
X307275Y513135D01*
X309825Y515685D01*
X313157Y517065D01*
X316763Y517065D01*
X320095Y515685D01*
X322645Y513135D01*
X324025Y509803D01*
X324025Y506197D01*
X322645Y502865D01*
X320095Y500315D01*
X316763Y498935D01*
X313157Y498935D01*
G37*
%LPD*%
%LPC*%
G36*
X556997Y16335D02*
X556997Y16335D01*
X553665Y17715D01*
X551115Y20265D01*
X549735Y23597D01*
X549735Y27203D01*
X551115Y30535D01*
X553665Y33085D01*
X556997Y34465D01*
X560603Y34465D01*
X563935Y33085D01*
X566485Y30535D01*
X567865Y27203D01*
X567865Y23597D01*
X566485Y20265D01*
X563935Y17715D01*
X560603Y16335D01*
X556997Y16335D01*
G37*
%LPD*%
%LPC*%
G36*
X531597Y16335D02*
X531597Y16335D01*
X528265Y17715D01*
X525715Y20265D01*
X524335Y23597D01*
X524335Y27203D01*
X525715Y30535D01*
X528265Y33085D01*
X531597Y34465D01*
X535203Y34465D01*
X538535Y33085D01*
X541085Y30535D01*
X542465Y27203D01*
X542465Y23597D01*
X541085Y20265D01*
X538535Y17715D01*
X535203Y16335D01*
X531597Y16335D01*
G37*
%LPD*%
%LPC*%
G36*
X506197Y16335D02*
X506197Y16335D01*
X502865Y17715D01*
X500315Y20265D01*
X498935Y23597D01*
X498935Y27203D01*
X500315Y30535D01*
X502865Y33085D01*
X506197Y34465D01*
X509803Y34465D01*
X513135Y33085D01*
X515685Y30535D01*
X517065Y27203D01*
X517065Y23597D01*
X515685Y20265D01*
X513135Y17715D01*
X509803Y16335D01*
X506197Y16335D01*
G37*
%LPD*%
%LPC*%
G36*
X455397Y16335D02*
X455397Y16335D01*
X452065Y17715D01*
X449515Y20265D01*
X448135Y23597D01*
X448135Y27203D01*
X449515Y30535D01*
X452065Y33085D01*
X455397Y34465D01*
X459003Y34465D01*
X462335Y33085D01*
X464885Y30535D01*
X466265Y27203D01*
X466265Y23597D01*
X464885Y20265D01*
X462335Y17715D01*
X459003Y16335D01*
X455397Y16335D01*
G37*
%LPD*%
%LPC*%
G36*
X379197Y16335D02*
X379197Y16335D01*
X375865Y17715D01*
X373315Y20265D01*
X371935Y23597D01*
X371935Y27203D01*
X373315Y30535D01*
X375865Y33085D01*
X379197Y34465D01*
X382803Y34465D01*
X386135Y33085D01*
X388685Y30535D01*
X390065Y27203D01*
X390065Y23597D01*
X388685Y20265D01*
X386135Y17715D01*
X382803Y16335D01*
X379197Y16335D01*
G37*
%LPD*%
%LPC*%
G36*
X353797Y16335D02*
X353797Y16335D01*
X350465Y17715D01*
X347915Y20265D01*
X346535Y23597D01*
X346535Y27203D01*
X347915Y30535D01*
X350465Y33085D01*
X353797Y34465D01*
X357403Y34465D01*
X360735Y33085D01*
X363285Y30535D01*
X364665Y27203D01*
X364665Y23597D01*
X363285Y20265D01*
X360735Y17715D01*
X357403Y16335D01*
X353797Y16335D01*
G37*
%LPD*%
%LPC*%
G36*
X328397Y16335D02*
X328397Y16335D01*
X325065Y17715D01*
X322515Y20265D01*
X321135Y23597D01*
X321135Y27203D01*
X322515Y30535D01*
X325065Y33085D01*
X328397Y34465D01*
X332003Y34465D01*
X335335Y33085D01*
X337885Y30535D01*
X339265Y27203D01*
X339265Y23597D01*
X337885Y20265D01*
X335335Y17715D01*
X332003Y16335D01*
X328397Y16335D01*
G37*
%LPD*%
%LPC*%
G36*
X98713Y36321D02*
X98713Y36321D01*
X95725Y37559D01*
X93439Y39845D01*
X92201Y42833D01*
X92201Y46067D01*
X93439Y49055D01*
X95725Y51341D01*
X98713Y52579D01*
X101947Y52579D01*
X104935Y51341D01*
X107221Y49055D01*
X108459Y46067D01*
X108459Y42833D01*
X107221Y39845D01*
X104935Y37559D01*
X101947Y36321D01*
X98713Y36321D01*
G37*
%LPD*%
%LPC*%
G36*
X531074Y281713D02*
X531074Y281713D01*
X529124Y282521D01*
X527631Y284014D01*
X526823Y285964D01*
X526823Y287654D01*
X526806Y287792D01*
X526793Y287931D01*
X526786Y287950D01*
X526783Y287970D01*
X526732Y288099D01*
X526685Y288230D01*
X526674Y288247D01*
X526666Y288265D01*
X526585Y288378D01*
X526507Y288493D01*
X526491Y288506D01*
X526480Y288523D01*
X526372Y288612D01*
X526268Y288703D01*
X526250Y288713D01*
X526235Y288726D01*
X526109Y288785D01*
X525985Y288848D01*
X525965Y288852D01*
X525947Y288861D01*
X525810Y288887D01*
X525675Y288918D01*
X525654Y288917D01*
X525635Y288921D01*
X525496Y288912D01*
X525357Y288908D01*
X525337Y288902D01*
X525317Y288901D01*
X525185Y288858D01*
X525051Y288820D01*
X525034Y288809D01*
X525015Y288803D01*
X524897Y288729D01*
X524777Y288658D01*
X524756Y288639D01*
X524746Y288633D01*
X524732Y288618D01*
X524657Y288552D01*
X523706Y287601D01*
X521756Y286793D01*
X519644Y286793D01*
X517694Y287601D01*
X516201Y289094D01*
X515393Y291044D01*
X515393Y293156D01*
X516201Y295106D01*
X517694Y296599D01*
X519644Y297407D01*
X521756Y297407D01*
X523706Y296599D01*
X525199Y295106D01*
X526007Y293156D01*
X526007Y291466D01*
X526024Y291328D01*
X526037Y291189D01*
X526044Y291170D01*
X526047Y291150D01*
X526098Y291021D01*
X526145Y290890D01*
X526156Y290873D01*
X526164Y290855D01*
X526245Y290742D01*
X526323Y290627D01*
X526339Y290614D01*
X526350Y290597D01*
X526458Y290508D01*
X526562Y290417D01*
X526580Y290407D01*
X526595Y290394D01*
X526721Y290335D01*
X526845Y290272D01*
X526865Y290268D01*
X526883Y290259D01*
X527020Y290233D01*
X527155Y290202D01*
X527176Y290203D01*
X527195Y290199D01*
X527334Y290208D01*
X527473Y290212D01*
X527493Y290218D01*
X527513Y290219D01*
X527645Y290262D01*
X527779Y290300D01*
X527796Y290311D01*
X527815Y290317D01*
X527933Y290391D01*
X528053Y290462D01*
X528074Y290481D01*
X528084Y290487D01*
X528098Y290502D01*
X528173Y290568D01*
X529124Y291519D01*
X531074Y292327D01*
X533186Y292327D01*
X535136Y291519D01*
X536629Y290026D01*
X537437Y288076D01*
X537437Y285964D01*
X536629Y284014D01*
X535136Y282521D01*
X533186Y281713D01*
X531074Y281713D01*
G37*
%LPD*%
%LPC*%
G36*
X489164Y426493D02*
X489164Y426493D01*
X487214Y427301D01*
X485721Y428794D01*
X484913Y430744D01*
X484913Y432856D01*
X485721Y434806D01*
X487214Y436299D01*
X489164Y437107D01*
X489994Y437107D01*
X490112Y437122D01*
X490231Y437129D01*
X490269Y437142D01*
X490310Y437147D01*
X490420Y437190D01*
X490533Y437227D01*
X490568Y437249D01*
X490605Y437264D01*
X490701Y437333D01*
X490802Y437397D01*
X490830Y437427D01*
X490863Y437450D01*
X490939Y437542D01*
X491020Y437629D01*
X491040Y437664D01*
X491065Y437695D01*
X491116Y437803D01*
X491174Y437907D01*
X491184Y437947D01*
X491201Y437983D01*
X491223Y438100D01*
X491253Y438215D01*
X491257Y438275D01*
X491261Y438295D01*
X491259Y438316D01*
X491263Y438376D01*
X491263Y440476D01*
X492071Y442426D01*
X493564Y443919D01*
X495514Y444727D01*
X497626Y444727D01*
X499576Y443919D01*
X501069Y442426D01*
X501877Y440476D01*
X501877Y438364D01*
X501069Y436414D01*
X499576Y434921D01*
X497626Y434113D01*
X496796Y434113D01*
X496678Y434098D01*
X496559Y434091D01*
X496521Y434078D01*
X496480Y434073D01*
X496370Y434030D01*
X496257Y433993D01*
X496222Y433971D01*
X496185Y433956D01*
X496089Y433887D01*
X495988Y433823D01*
X495960Y433793D01*
X495927Y433770D01*
X495851Y433678D01*
X495770Y433591D01*
X495750Y433556D01*
X495725Y433525D01*
X495674Y433417D01*
X495616Y433313D01*
X495606Y433273D01*
X495589Y433237D01*
X495567Y433120D01*
X495537Y433005D01*
X495533Y432945D01*
X495529Y432925D01*
X495531Y432904D01*
X495527Y432844D01*
X495527Y430744D01*
X494719Y428794D01*
X493226Y427301D01*
X491276Y426493D01*
X489164Y426493D01*
G37*
%LPD*%
%LPC*%
G36*
X180554Y266473D02*
X180554Y266473D01*
X178604Y267281D01*
X177111Y268774D01*
X176303Y270724D01*
X176303Y272836D01*
X177111Y274786D01*
X178604Y276279D01*
X180554Y277087D01*
X182666Y277087D01*
X184616Y276279D01*
X186109Y274786D01*
X186917Y272836D01*
X186917Y270724D01*
X186109Y268774D01*
X184616Y267281D01*
X182666Y266473D01*
X180554Y266473D01*
G37*
%LPD*%
%LPC*%
G36*
X176109Y235358D02*
X176109Y235358D01*
X174159Y236166D01*
X172666Y237659D01*
X171858Y239609D01*
X171858Y241721D01*
X172666Y243671D01*
X174159Y245164D01*
X176109Y245972D01*
X178221Y245972D01*
X180171Y245164D01*
X181664Y243671D01*
X182472Y241721D01*
X182472Y239609D01*
X181664Y237659D01*
X180171Y236166D01*
X178221Y235358D01*
X176109Y235358D01*
G37*
%LPD*%
%LPC*%
G36*
X125944Y233453D02*
X125944Y233453D01*
X123994Y234261D01*
X122501Y235754D01*
X121693Y237704D01*
X121693Y239816D01*
X122501Y241766D01*
X123994Y243259D01*
X125944Y244067D01*
X128056Y244067D01*
X130006Y243259D01*
X131499Y241766D01*
X132307Y239816D01*
X132307Y237704D01*
X131499Y235754D01*
X130006Y234261D01*
X128056Y233453D01*
X125944Y233453D01*
G37*
%LPD*%
%LPC*%
G36*
X87844Y210593D02*
X87844Y210593D01*
X85894Y211401D01*
X84401Y212894D01*
X83593Y214844D01*
X83593Y216956D01*
X84401Y218906D01*
X85894Y220399D01*
X87844Y221207D01*
X89956Y221207D01*
X91906Y220399D01*
X93399Y218906D01*
X94207Y216956D01*
X94207Y214844D01*
X93399Y212894D01*
X91906Y211401D01*
X89956Y210593D01*
X87844Y210593D01*
G37*
%LPD*%
%LPC*%
G36*
X125944Y197893D02*
X125944Y197893D01*
X123994Y198701D01*
X122501Y200194D01*
X121693Y202144D01*
X121693Y204256D01*
X122501Y206206D01*
X123994Y207699D01*
X125944Y208507D01*
X128056Y208507D01*
X130006Y207699D01*
X131499Y206206D01*
X132307Y204256D01*
X132307Y202144D01*
X131499Y200194D01*
X130006Y198701D01*
X128056Y197893D01*
X125944Y197893D01*
G37*
%LPD*%
%LPC*%
G36*
X430744Y159793D02*
X430744Y159793D01*
X428794Y160601D01*
X427301Y162094D01*
X426493Y164044D01*
X426493Y166156D01*
X427301Y168106D01*
X428794Y169599D01*
X430744Y170407D01*
X432856Y170407D01*
X434806Y169599D01*
X436299Y168106D01*
X437107Y166156D01*
X437107Y164044D01*
X436299Y162094D01*
X434806Y160601D01*
X432856Y159793D01*
X430744Y159793D01*
G37*
%LPD*%
%LPC*%
G36*
X42124Y159793D02*
X42124Y159793D01*
X40174Y160601D01*
X38681Y162094D01*
X37873Y164044D01*
X37873Y166156D01*
X38681Y168106D01*
X40174Y169599D01*
X42124Y170407D01*
X44236Y170407D01*
X46186Y169599D01*
X47679Y168106D01*
X48487Y166156D01*
X48487Y164044D01*
X47679Y162094D01*
X46186Y160601D01*
X44236Y159793D01*
X42124Y159793D01*
G37*
%LPD*%
%LPC*%
G36*
X532344Y134393D02*
X532344Y134393D01*
X530394Y135201D01*
X528901Y136694D01*
X528093Y138644D01*
X528093Y140756D01*
X528901Y142706D01*
X530394Y144199D01*
X532344Y145007D01*
X534456Y145007D01*
X536406Y144199D01*
X537899Y142706D01*
X538707Y140756D01*
X538707Y138644D01*
X537899Y136694D01*
X536406Y135201D01*
X534456Y134393D01*
X532344Y134393D01*
G37*
%LPD*%
%LPC*%
G36*
X125944Y121693D02*
X125944Y121693D01*
X123994Y122501D01*
X122501Y123994D01*
X121693Y125944D01*
X121693Y128056D01*
X122501Y130006D01*
X123994Y131499D01*
X125944Y132307D01*
X128056Y132307D01*
X130006Y131499D01*
X131499Y130006D01*
X132307Y128056D01*
X132307Y125944D01*
X131499Y123994D01*
X130006Y122501D01*
X128056Y121693D01*
X125944Y121693D01*
G37*
%LPD*%
%LPC*%
G36*
X95464Y105183D02*
X95464Y105183D01*
X93514Y105991D01*
X92021Y107484D01*
X91213Y109434D01*
X91213Y111546D01*
X92021Y113496D01*
X93514Y114989D01*
X95464Y115797D01*
X97576Y115797D01*
X99526Y114989D01*
X101019Y113496D01*
X101827Y111546D01*
X101827Y109434D01*
X101019Y107484D01*
X99526Y105991D01*
X97576Y105183D01*
X95464Y105183D01*
G37*
%LPD*%
%LPC*%
G36*
X393914Y97563D02*
X393914Y97563D01*
X391964Y98371D01*
X390471Y99864D01*
X389663Y101814D01*
X389663Y103926D01*
X390471Y105876D01*
X391964Y107369D01*
X393914Y108177D01*
X396026Y108177D01*
X397976Y107369D01*
X399469Y105876D01*
X400277Y103926D01*
X400277Y101814D01*
X399469Y99864D01*
X397976Y98371D01*
X396026Y97563D01*
X393914Y97563D01*
G37*
%LPD*%
%LPC*%
G36*
X598384Y487453D02*
X598384Y487453D01*
X596434Y488261D01*
X594941Y489754D01*
X594133Y491704D01*
X594133Y493816D01*
X594941Y495766D01*
X596434Y497259D01*
X598384Y498067D01*
X600496Y498067D01*
X602446Y497259D01*
X603939Y495766D01*
X604747Y493816D01*
X604747Y491704D01*
X603939Y489754D01*
X602446Y488261D01*
X600496Y487453D01*
X598384Y487453D01*
G37*
%LPD*%
%LPC*%
G36*
X545044Y487453D02*
X545044Y487453D01*
X543094Y488261D01*
X541601Y489754D01*
X540793Y491704D01*
X540793Y493816D01*
X541601Y495766D01*
X543094Y497259D01*
X545044Y498067D01*
X547156Y498067D01*
X549106Y497259D01*
X550599Y495766D01*
X551407Y493816D01*
X551407Y491704D01*
X550599Y489754D01*
X549106Y488261D01*
X547156Y487453D01*
X545044Y487453D01*
G37*
%LPD*%
%LPC*%
G36*
X583144Y413793D02*
X583144Y413793D01*
X581194Y414601D01*
X579701Y416094D01*
X578893Y418044D01*
X578893Y420156D01*
X579701Y422106D01*
X581194Y423599D01*
X583144Y424407D01*
X585256Y424407D01*
X587206Y423599D01*
X588699Y422106D01*
X589507Y420156D01*
X589507Y418044D01*
X588699Y416094D01*
X587206Y414601D01*
X585256Y413793D01*
X583144Y413793D01*
G37*
%LPD*%
%LPC*%
G36*
X484084Y369343D02*
X484084Y369343D01*
X482134Y370151D01*
X480641Y371644D01*
X479833Y373594D01*
X479833Y375706D01*
X480641Y377656D01*
X482134Y379149D01*
X484084Y379957D01*
X486196Y379957D01*
X488146Y379149D01*
X489639Y377656D01*
X490447Y375706D01*
X490447Y373594D01*
X489639Y371644D01*
X488146Y370151D01*
X486196Y369343D01*
X484084Y369343D01*
G37*
%LPD*%
%LPC*%
G36*
X510754Y298223D02*
X510754Y298223D01*
X508804Y299031D01*
X507311Y300524D01*
X506503Y302474D01*
X506503Y304586D01*
X507311Y306536D01*
X508804Y308029D01*
X510754Y308837D01*
X512866Y308837D01*
X514816Y308029D01*
X516309Y306536D01*
X517117Y304586D01*
X517117Y302474D01*
X516309Y300524D01*
X514816Y299031D01*
X512866Y298223D01*
X510754Y298223D01*
G37*
%LPD*%
%LPC*%
G36*
X166584Y279173D02*
X166584Y279173D01*
X164634Y279981D01*
X163141Y281474D01*
X162333Y283424D01*
X162333Y285536D01*
X163141Y287486D01*
X164634Y288979D01*
X166584Y289787D01*
X168696Y289787D01*
X170646Y288979D01*
X172139Y287486D01*
X172947Y285536D01*
X172947Y283424D01*
X172139Y281474D01*
X170646Y279981D01*
X168696Y279173D01*
X166584Y279173D01*
G37*
%LPD*%
%LPC*%
G36*
X439244Y270673D02*
X439244Y270673D01*
X437294Y271481D01*
X435801Y272974D01*
X434993Y274924D01*
X434993Y277036D01*
X435801Y278986D01*
X437294Y280479D01*
X439244Y281287D01*
X441356Y281287D01*
X443306Y280479D01*
X444799Y278986D01*
X445607Y277036D01*
X445607Y274924D01*
X444799Y272974D01*
X443306Y271481D01*
X441356Y270673D01*
X439244Y270673D01*
G37*
%LPD*%
%LPC*%
G36*
X44664Y22633D02*
X44664Y22633D01*
X42714Y23441D01*
X41221Y24934D01*
X40413Y26884D01*
X40413Y28996D01*
X41221Y30946D01*
X42714Y32439D01*
X44664Y33247D01*
X46776Y33247D01*
X48726Y32439D01*
X50219Y30946D01*
X51027Y28996D01*
X51027Y26884D01*
X50219Y24934D01*
X48726Y23441D01*
X46776Y22633D01*
X44664Y22633D01*
G37*
%LPD*%
%LPC*%
G36*
X662939Y345439D02*
X662939Y345439D01*
X662939Y352759D01*
X664300Y352316D01*
X665725Y351590D01*
X667019Y350650D01*
X668150Y349519D01*
X669090Y348225D01*
X669816Y346800D01*
X670259Y345439D01*
X662939Y345439D01*
G37*
%LPD*%
%LPC*%
G36*
X662939Y91439D02*
X662939Y91439D01*
X662939Y98759D01*
X664300Y98316D01*
X665725Y97590D01*
X667019Y96650D01*
X668150Y95519D01*
X669090Y94225D01*
X669816Y92800D01*
X670259Y91439D01*
X662939Y91439D01*
G37*
%LPD*%
%LPC*%
G36*
X471169Y180339D02*
X471169Y180339D01*
X471169Y187659D01*
X472530Y187216D01*
X473955Y186490D01*
X475249Y185550D01*
X476380Y184419D01*
X477320Y183125D01*
X478046Y181700D01*
X478489Y180339D01*
X471169Y180339D01*
G37*
%LPD*%
%LPC*%
G36*
X637539Y91439D02*
X637539Y91439D01*
X637539Y98759D01*
X638900Y98316D01*
X640325Y97590D01*
X641619Y96650D01*
X642750Y95519D01*
X643690Y94225D01*
X644416Y92800D01*
X644859Y91439D01*
X637539Y91439D01*
G37*
%LPD*%
%LPC*%
G36*
X560069Y78739D02*
X560069Y78739D01*
X560069Y86059D01*
X561430Y85616D01*
X562855Y84890D01*
X564149Y83950D01*
X565280Y82819D01*
X566220Y81525D01*
X566946Y80100D01*
X567389Y78739D01*
X560069Y78739D01*
G37*
%LPD*%
%LPC*%
G36*
X471169Y281939D02*
X471169Y281939D01*
X471169Y289259D01*
X472530Y288816D01*
X473955Y288090D01*
X475249Y287150D01*
X476380Y286019D01*
X477320Y284725D01*
X478046Y283300D01*
X478489Y281939D01*
X471169Y281939D01*
G37*
%LPD*%
%LPC*%
G36*
X637539Y345439D02*
X637539Y345439D01*
X637539Y352759D01*
X638900Y352316D01*
X640325Y351590D01*
X641619Y350650D01*
X642750Y349519D01*
X643690Y348225D01*
X644416Y346800D01*
X644859Y345439D01*
X637539Y345439D01*
G37*
%LPD*%
%LPC*%
G36*
X126999Y500379D02*
X126999Y500379D01*
X126999Y507699D01*
X128360Y507256D01*
X129785Y506530D01*
X131079Y505590D01*
X132210Y504459D01*
X133150Y503165D01*
X133876Y501740D01*
X134319Y500379D01*
X126999Y500379D01*
G37*
%LPD*%
%LPC*%
G36*
X471169Y78739D02*
X471169Y78739D01*
X471169Y86059D01*
X472530Y85616D01*
X473955Y84890D01*
X475249Y83950D01*
X476380Y82819D01*
X477320Y81525D01*
X478046Y80100D01*
X478489Y78739D01*
X471169Y78739D01*
G37*
%LPD*%
%LPC*%
G36*
X625141Y345439D02*
X625141Y345439D01*
X625584Y346800D01*
X626310Y348225D01*
X627250Y349519D01*
X628381Y350650D01*
X629675Y351590D01*
X631100Y352316D01*
X632461Y352759D01*
X632461Y345439D01*
X625141Y345439D01*
G37*
%LPD*%
%LPC*%
G36*
X458771Y78739D02*
X458771Y78739D01*
X459214Y80100D01*
X459940Y81525D01*
X460880Y82819D01*
X462011Y83950D01*
X463305Y84890D01*
X464730Y85616D01*
X466091Y86059D01*
X466091Y78739D01*
X458771Y78739D01*
G37*
%LPD*%
%LPC*%
G36*
X471169Y175261D02*
X471169Y175261D01*
X478489Y175261D01*
X478046Y173900D01*
X477320Y172475D01*
X476380Y171181D01*
X475249Y170050D01*
X473955Y169110D01*
X472530Y168384D01*
X471169Y167941D01*
X471169Y175261D01*
G37*
%LPD*%
%LPC*%
G36*
X560069Y73661D02*
X560069Y73661D01*
X567389Y73661D01*
X566946Y72300D01*
X566220Y70875D01*
X565280Y69581D01*
X564149Y68450D01*
X562855Y67510D01*
X561430Y66784D01*
X560069Y66341D01*
X560069Y73661D01*
G37*
%LPD*%
%LPC*%
G36*
X650541Y345439D02*
X650541Y345439D01*
X650984Y346800D01*
X651710Y348225D01*
X652650Y349519D01*
X653781Y350650D01*
X655075Y351590D01*
X656500Y352316D01*
X657861Y352759D01*
X657861Y345439D01*
X650541Y345439D01*
G37*
%LPD*%
%LPC*%
G36*
X547671Y78739D02*
X547671Y78739D01*
X548114Y80100D01*
X548840Y81525D01*
X549780Y82819D01*
X550911Y83950D01*
X552205Y84890D01*
X553630Y85616D01*
X554991Y86059D01*
X554991Y78739D01*
X547671Y78739D01*
G37*
%LPD*%
%LPC*%
G36*
X458771Y281939D02*
X458771Y281939D01*
X459214Y283300D01*
X459940Y284725D01*
X460880Y286019D01*
X462011Y287150D01*
X463305Y288090D01*
X464730Y288816D01*
X466091Y289259D01*
X466091Y281939D01*
X458771Y281939D01*
G37*
%LPD*%
%LPC*%
G36*
X471169Y73661D02*
X471169Y73661D01*
X478489Y73661D01*
X478046Y72300D01*
X477320Y70875D01*
X476380Y69581D01*
X475249Y68450D01*
X473955Y67510D01*
X472530Y66784D01*
X471169Y66341D01*
X471169Y73661D01*
G37*
%LPD*%
%LPC*%
G36*
X471169Y276861D02*
X471169Y276861D01*
X478489Y276861D01*
X478046Y275500D01*
X477320Y274075D01*
X476380Y272781D01*
X475249Y271650D01*
X473955Y270710D01*
X472530Y269984D01*
X471169Y269541D01*
X471169Y276861D01*
G37*
%LPD*%
%LPC*%
G36*
X126999Y495301D02*
X126999Y495301D01*
X134319Y495301D01*
X133876Y493940D01*
X133150Y492515D01*
X132210Y491221D01*
X131079Y490090D01*
X129785Y489150D01*
X128360Y488424D01*
X126999Y487981D01*
X126999Y495301D01*
G37*
%LPD*%
%LPC*%
G36*
X114601Y500379D02*
X114601Y500379D01*
X115044Y501740D01*
X115770Y503165D01*
X116710Y504459D01*
X117841Y505590D01*
X119135Y506530D01*
X120560Y507256D01*
X121921Y507699D01*
X121921Y500379D01*
X114601Y500379D01*
G37*
%LPD*%
%LPC*%
G36*
X637539Y340361D02*
X637539Y340361D01*
X644859Y340361D01*
X644416Y339000D01*
X643690Y337575D01*
X642750Y336281D01*
X641619Y335150D01*
X640325Y334210D01*
X638900Y333484D01*
X637539Y333041D01*
X637539Y340361D01*
G37*
%LPD*%
%LPC*%
G36*
X650541Y91439D02*
X650541Y91439D01*
X650984Y92800D01*
X651710Y94225D01*
X652650Y95519D01*
X653781Y96650D01*
X655075Y97590D01*
X656500Y98316D01*
X657861Y98759D01*
X657861Y91439D01*
X650541Y91439D01*
G37*
%LPD*%
%LPC*%
G36*
X625141Y91439D02*
X625141Y91439D01*
X625584Y92800D01*
X626310Y94225D01*
X627250Y95519D01*
X628381Y96650D01*
X629675Y97590D01*
X631100Y98316D01*
X632461Y98759D01*
X632461Y91439D01*
X625141Y91439D01*
G37*
%LPD*%
%LPC*%
G36*
X458771Y180339D02*
X458771Y180339D01*
X459214Y181700D01*
X459940Y183125D01*
X460880Y184419D01*
X462011Y185550D01*
X463305Y186490D01*
X464730Y187216D01*
X466091Y187659D01*
X466091Y180339D01*
X458771Y180339D01*
G37*
%LPD*%
%LPC*%
G36*
X662939Y340361D02*
X662939Y340361D01*
X670259Y340361D01*
X669816Y339000D01*
X669090Y337575D01*
X668150Y336281D01*
X667019Y335150D01*
X665725Y334210D01*
X664300Y333484D01*
X662939Y333041D01*
X662939Y340361D01*
G37*
%LPD*%
%LPC*%
G36*
X662939Y86361D02*
X662939Y86361D01*
X670259Y86361D01*
X669816Y85000D01*
X669090Y83575D01*
X668150Y82281D01*
X667019Y81150D01*
X665725Y80210D01*
X664300Y79484D01*
X662939Y79041D01*
X662939Y86361D01*
G37*
%LPD*%
%LPC*%
G36*
X637539Y86361D02*
X637539Y86361D01*
X644859Y86361D01*
X644416Y85000D01*
X643690Y83575D01*
X642750Y82281D01*
X641619Y81150D01*
X640325Y80210D01*
X638900Y79484D01*
X637539Y79041D01*
X637539Y86361D01*
G37*
%LPD*%
%LPC*%
G36*
X464730Y269984D02*
X464730Y269984D01*
X463305Y270710D01*
X462011Y271650D01*
X460880Y272781D01*
X459940Y274075D01*
X459214Y275500D01*
X458771Y276861D01*
X466091Y276861D01*
X466091Y269541D01*
X464730Y269984D01*
G37*
%LPD*%
%LPC*%
G36*
X120560Y488424D02*
X120560Y488424D01*
X119135Y489150D01*
X117841Y490090D01*
X116710Y491221D01*
X115770Y492515D01*
X115044Y493940D01*
X114601Y495301D01*
X121921Y495301D01*
X121921Y487981D01*
X120560Y488424D01*
G37*
%LPD*%
%LPC*%
G36*
X631100Y79484D02*
X631100Y79484D01*
X629675Y80210D01*
X628381Y81150D01*
X627250Y82281D01*
X626310Y83575D01*
X625584Y85000D01*
X625141Y86361D01*
X632461Y86361D01*
X632461Y79041D01*
X631100Y79484D01*
G37*
%LPD*%
%LPC*%
G36*
X464730Y66784D02*
X464730Y66784D01*
X463305Y67510D01*
X462011Y68450D01*
X460880Y69581D01*
X459940Y70875D01*
X459214Y72300D01*
X458771Y73661D01*
X466091Y73661D01*
X466091Y66341D01*
X464730Y66784D01*
G37*
%LPD*%
%LPC*%
G36*
X553630Y66784D02*
X553630Y66784D01*
X552205Y67510D01*
X550911Y68450D01*
X549780Y69581D01*
X548840Y70875D01*
X548114Y72300D01*
X547671Y73661D01*
X554991Y73661D01*
X554991Y66341D01*
X553630Y66784D01*
G37*
%LPD*%
%LPC*%
G36*
X656500Y79484D02*
X656500Y79484D01*
X655075Y80210D01*
X653781Y81150D01*
X652650Y82281D01*
X651710Y83575D01*
X650984Y85000D01*
X650541Y86361D01*
X657861Y86361D01*
X657861Y79041D01*
X656500Y79484D01*
G37*
%LPD*%
%LPC*%
G36*
X631100Y333484D02*
X631100Y333484D01*
X629675Y334210D01*
X628381Y335150D01*
X627250Y336281D01*
X626310Y337575D01*
X625584Y339000D01*
X625141Y340361D01*
X632461Y340361D01*
X632461Y333041D01*
X631100Y333484D01*
G37*
%LPD*%
%LPC*%
G36*
X464730Y168384D02*
X464730Y168384D01*
X463305Y169110D01*
X462011Y170050D01*
X460880Y171181D01*
X459940Y172475D01*
X459214Y173900D01*
X458771Y175261D01*
X466091Y175261D01*
X466091Y167941D01*
X464730Y168384D01*
G37*
%LPD*%
%LPC*%
G36*
X656500Y333484D02*
X656500Y333484D01*
X655075Y334210D01*
X653781Y335150D01*
X652650Y336281D01*
X651710Y337575D01*
X650984Y339000D01*
X650541Y340361D01*
X657861Y340361D01*
X657861Y333041D01*
X656500Y333484D01*
G37*
%LPD*%
%LPC*%
G36*
X408899Y27899D02*
X408899Y27899D01*
X408899Y35187D01*
X410270Y34742D01*
X411683Y34022D01*
X412967Y33089D01*
X414089Y31967D01*
X415022Y30683D01*
X415742Y29270D01*
X416187Y27899D01*
X408899Y27899D01*
G37*
%LPD*%
%LPC*%
G36*
X434299Y27899D02*
X434299Y27899D01*
X434299Y35187D01*
X435670Y34742D01*
X437083Y34022D01*
X438367Y33089D01*
X439489Y31967D01*
X440422Y30683D01*
X441142Y29270D01*
X441587Y27899D01*
X434299Y27899D01*
G37*
%LPD*%
%LPC*%
G36*
X266659Y510499D02*
X266659Y510499D01*
X266659Y517787D01*
X268030Y517342D01*
X269443Y516622D01*
X270727Y515689D01*
X271849Y514567D01*
X272782Y513283D01*
X273502Y511870D01*
X273947Y510499D01*
X266659Y510499D01*
G37*
%LPD*%
%LPC*%
G36*
X396613Y27899D02*
X396613Y27899D01*
X397058Y29270D01*
X397778Y30683D01*
X398711Y31967D01*
X399833Y33089D01*
X401117Y34022D01*
X402530Y34742D01*
X403901Y35187D01*
X403901Y27899D01*
X396613Y27899D01*
G37*
%LPD*%
%LPC*%
G36*
X266659Y505501D02*
X266659Y505501D01*
X273947Y505501D01*
X273502Y504130D01*
X272782Y502717D01*
X271849Y501433D01*
X270727Y500311D01*
X269443Y499378D01*
X268030Y498658D01*
X266659Y498213D01*
X266659Y505501D01*
G37*
%LPD*%
%LPC*%
G36*
X422013Y27899D02*
X422013Y27899D01*
X422458Y29270D01*
X423178Y30683D01*
X424111Y31967D01*
X425233Y33089D01*
X426517Y34022D01*
X427930Y34742D01*
X429301Y35187D01*
X429301Y27899D01*
X422013Y27899D01*
G37*
%LPD*%
%LPC*%
G36*
X254373Y510499D02*
X254373Y510499D01*
X254818Y511870D01*
X255538Y513283D01*
X256471Y514567D01*
X257593Y515689D01*
X258877Y516622D01*
X260290Y517342D01*
X261661Y517787D01*
X261661Y510499D01*
X254373Y510499D01*
G37*
%LPD*%
%LPC*%
G36*
X408899Y22901D02*
X408899Y22901D01*
X416187Y22901D01*
X415742Y21530D01*
X415022Y20117D01*
X414089Y18833D01*
X412967Y17711D01*
X411683Y16778D01*
X410270Y16058D01*
X408899Y15613D01*
X408899Y22901D01*
G37*
%LPD*%
%LPC*%
G36*
X434299Y22901D02*
X434299Y22901D01*
X441587Y22901D01*
X441142Y21530D01*
X440422Y20117D01*
X439489Y18833D01*
X438367Y17711D01*
X437083Y16778D01*
X435670Y16058D01*
X434299Y15613D01*
X434299Y22901D01*
G37*
%LPD*%
%LPC*%
G36*
X260290Y498658D02*
X260290Y498658D01*
X258877Y499378D01*
X257593Y500311D01*
X256471Y501433D01*
X255538Y502717D01*
X254818Y504130D01*
X254373Y505501D01*
X261661Y505501D01*
X261661Y498213D01*
X260290Y498658D01*
G37*
%LPD*%
%LPC*%
G36*
X427930Y16058D02*
X427930Y16058D01*
X426517Y16778D01*
X425233Y17711D01*
X424111Y18833D01*
X423178Y20117D01*
X422458Y21530D01*
X422013Y22901D01*
X429301Y22901D01*
X429301Y15613D01*
X427930Y16058D01*
G37*
%LPD*%
%LPC*%
G36*
X402530Y16058D02*
X402530Y16058D01*
X401117Y16778D01*
X399833Y17711D01*
X398711Y18833D01*
X397778Y20117D01*
X397058Y21530D01*
X396613Y22901D01*
X403901Y22901D01*
X403901Y15613D01*
X402530Y16058D01*
G37*
%LPD*%
%LPC*%
G36*
X660399Y342899D02*
X660399Y342899D01*
X660399Y342901D01*
X660401Y342901D01*
X660401Y342899D01*
X660399Y342899D01*
G37*
%LPD*%
%LPC*%
G36*
X634999Y342899D02*
X634999Y342899D01*
X634999Y342901D01*
X635001Y342901D01*
X635001Y342899D01*
X634999Y342899D01*
G37*
%LPD*%
%LPC*%
G36*
X124459Y497839D02*
X124459Y497839D01*
X124459Y497841D01*
X124461Y497841D01*
X124461Y497839D01*
X124459Y497839D01*
G37*
%LPD*%
%LPC*%
G36*
X468629Y279399D02*
X468629Y279399D01*
X468629Y279401D01*
X468631Y279401D01*
X468631Y279399D01*
X468629Y279399D01*
G37*
%LPD*%
%LPC*%
G36*
X660399Y88899D02*
X660399Y88899D01*
X660399Y88901D01*
X660401Y88901D01*
X660401Y88899D01*
X660399Y88899D01*
G37*
%LPD*%
%LPC*%
G36*
X557529Y76199D02*
X557529Y76199D01*
X557529Y76201D01*
X557531Y76201D01*
X557531Y76199D01*
X557529Y76199D01*
G37*
%LPD*%
%LPC*%
G36*
X468629Y177799D02*
X468629Y177799D01*
X468629Y177801D01*
X468631Y177801D01*
X468631Y177799D01*
X468629Y177799D01*
G37*
%LPD*%
%LPC*%
G36*
X468629Y76199D02*
X468629Y76199D01*
X468629Y76201D01*
X468631Y76201D01*
X468631Y76199D01*
X468629Y76199D01*
G37*
%LPD*%
%LPC*%
G36*
X634999Y88899D02*
X634999Y88899D01*
X634999Y88901D01*
X635001Y88901D01*
X635001Y88899D01*
X634999Y88899D01*
G37*
%LPD*%
D10*
X533400Y508000D03*
X508000Y25400D03*
X558800Y508000D03*
X584200Y508000D03*
X609600Y508000D03*
X635000Y508000D03*
X508000Y508000D03*
X482600Y508000D03*
X457200Y508000D03*
X416560Y508000D03*
X391160Y508000D03*
X365760Y508000D03*
X340360Y508000D03*
X314960Y508000D03*
X289560Y508000D03*
X264160Y508000D03*
X238760Y508000D03*
X533400Y25400D03*
X558800Y25400D03*
X584200Y25400D03*
X609600Y25400D03*
X635000Y25400D03*
X457200Y25400D03*
X431800Y25400D03*
X406400Y25400D03*
X381000Y25400D03*
X355600Y25400D03*
X330200Y25400D03*
D11*
X468630Y177800D03*
X471170Y203200D03*
X468630Y228600D03*
X468630Y76200D03*
X471170Y101600D03*
X468630Y127000D03*
X557530Y76200D03*
X560070Y101600D03*
X557530Y127000D03*
X560070Y152400D03*
X635000Y190500D03*
X660400Y190500D03*
X635000Y165100D03*
X660400Y165100D03*
X635000Y139700D03*
X660400Y139700D03*
X635000Y114300D03*
X660400Y114300D03*
X635000Y88900D03*
X660400Y88900D03*
X635000Y63500D03*
X660400Y63500D03*
X24130Y491490D03*
X52070Y491490D03*
X468630Y279400D03*
X471170Y304800D03*
X468630Y330200D03*
X471170Y355600D03*
X660400Y241300D03*
X635000Y241300D03*
X660400Y266700D03*
X635000Y266700D03*
X660400Y292100D03*
X635000Y292100D03*
X660400Y317500D03*
X635000Y317500D03*
X660400Y342900D03*
X635000Y342900D03*
X660400Y368300D03*
X635000Y368300D03*
X557530Y203200D03*
X560070Y228600D03*
X557530Y254000D03*
X560070Y279400D03*
X557530Y330200D03*
X560070Y355600D03*
X557530Y381000D03*
X560070Y406400D03*
D12*
X100330Y44450D03*
X100330Y19050D03*
D11*
X124460Y497840D03*
X99060Y497840D03*
D13*
X38100Y381000D03*
X25400Y393700D03*
X50800Y393700D03*
X76200Y393700D03*
X63500Y381000D03*
X76200Y368300D03*
X50800Y368300D03*
X25400Y368300D03*
X59690Y330200D03*
X73660Y330200D03*
X87630Y330200D03*
X101600Y330200D03*
X113030Y336550D03*
X121920Y345440D03*
X132080Y354330D03*
X138430Y364490D03*
X140970Y378460D03*
X140970Y393700D03*
X140970Y427990D03*
X140970Y440690D03*
X31750Y424180D03*
X31750Y436880D03*
X31750Y452120D03*
X140970Y455930D03*
X140970Y469900D03*
X72390Y494030D03*
X31750Y467360D03*
X140970Y486410D03*
X140970Y500380D03*
X140970Y515620D03*
X289556Y333588D03*
X299720Y396240D03*
X185420Y459740D03*
X185420Y408940D03*
X223520Y447040D03*
X210820Y256540D03*
X198120Y180340D03*
X312420Y180340D03*
X312420Y243840D03*
X584200Y419100D03*
X511810Y303530D03*
X440300Y275980D03*
X490220Y431800D03*
X496570Y439420D03*
X181610Y271780D03*
X532130Y287020D03*
X167640Y284480D03*
X520700Y292100D03*
X127000Y127000D03*
X533400Y139700D03*
X96520Y110490D03*
X394970Y102870D03*
X431800Y165100D03*
X177165Y240665D03*
X127000Y203200D03*
X88900Y215900D03*
X127000Y238760D03*
X45720Y27940D03*
X43180Y165100D03*
X599440Y492760D03*
X546100Y492760D03*
X485140Y374650D03*
M02*
