G04 EAGLE Gerber RS-274X export*
G75*
%MOMM*%
%FSLAX34Y34*%
%LPD*%
%IN*%
%IPPOS*%
%AMOC8*
5,1,8,0,0,1.08239X$1,22.5*%
G01*
%ADD10C,0.254000*%


D10*
X0Y0D02*
X660400Y0D01*
X660400Y25400D01*
X685800Y50800D01*
X685800Y378460D01*
X660400Y403860D01*
X660400Y518160D01*
X646430Y533400D01*
X0Y533400D01*
X0Y0D01*
X645795Y456776D02*
X645728Y455930D01*
X645596Y455092D01*
X645398Y454268D01*
X645136Y453461D01*
X644811Y452677D01*
X644426Y451921D01*
X643983Y451198D01*
X643484Y450512D01*
X642933Y449867D01*
X642333Y449267D01*
X641688Y448716D01*
X641002Y448217D01*
X640279Y447774D01*
X639523Y447389D01*
X638739Y447064D01*
X637932Y446802D01*
X637108Y446604D01*
X636270Y446472D01*
X635424Y446405D01*
X634576Y446405D01*
X633730Y446472D01*
X632892Y446604D01*
X632068Y446802D01*
X631261Y447064D01*
X630477Y447389D01*
X629721Y447774D01*
X628998Y448217D01*
X628312Y448716D01*
X627667Y449267D01*
X627067Y449867D01*
X626516Y450512D01*
X626017Y451198D01*
X625574Y451921D01*
X625189Y452677D01*
X624864Y453461D01*
X624602Y454268D01*
X624404Y455092D01*
X624272Y455930D01*
X624205Y456776D01*
X624205Y457624D01*
X624272Y458470D01*
X624404Y459308D01*
X624602Y460132D01*
X624864Y460939D01*
X625189Y461723D01*
X625574Y462479D01*
X626017Y463202D01*
X626516Y463888D01*
X627067Y464533D01*
X627667Y465133D01*
X628312Y465684D01*
X628998Y466183D01*
X629721Y466626D01*
X630477Y467011D01*
X631261Y467336D01*
X632068Y467598D01*
X632892Y467796D01*
X633730Y467928D01*
X634576Y467995D01*
X635424Y467995D01*
X636270Y467928D01*
X637108Y467796D01*
X637932Y467598D01*
X638739Y467336D01*
X639523Y467011D01*
X640279Y466626D01*
X641002Y466183D01*
X641688Y465684D01*
X642333Y465133D01*
X642933Y464533D01*
X643484Y463888D01*
X643983Y463202D01*
X644426Y462479D01*
X644811Y461723D01*
X645136Y460939D01*
X645398Y460132D01*
X645596Y459308D01*
X645728Y458470D01*
X645795Y457624D01*
X645795Y456776D01*
X201295Y507576D02*
X201228Y506730D01*
X201096Y505892D01*
X200898Y505068D01*
X200636Y504261D01*
X200311Y503477D01*
X199926Y502721D01*
X199483Y501998D01*
X198984Y501312D01*
X198433Y500667D01*
X197833Y500067D01*
X197188Y499516D01*
X196502Y499017D01*
X195779Y498574D01*
X195023Y498189D01*
X194239Y497864D01*
X193432Y497602D01*
X192608Y497404D01*
X191770Y497272D01*
X190924Y497205D01*
X190076Y497205D01*
X189230Y497272D01*
X188392Y497404D01*
X187568Y497602D01*
X186761Y497864D01*
X185977Y498189D01*
X185221Y498574D01*
X184498Y499017D01*
X183812Y499516D01*
X183167Y500067D01*
X182567Y500667D01*
X182016Y501312D01*
X181517Y501998D01*
X181074Y502721D01*
X180689Y503477D01*
X180364Y504261D01*
X180102Y505068D01*
X179904Y505892D01*
X179772Y506730D01*
X179705Y507576D01*
X179705Y508424D01*
X179772Y509270D01*
X179904Y510108D01*
X180102Y510932D01*
X180364Y511739D01*
X180689Y512523D01*
X181074Y513279D01*
X181517Y514002D01*
X182016Y514688D01*
X182567Y515333D01*
X183167Y515933D01*
X183812Y516484D01*
X184498Y516983D01*
X185221Y517426D01*
X185977Y517811D01*
X186761Y518136D01*
X187568Y518398D01*
X188392Y518596D01*
X189230Y518728D01*
X190076Y518795D01*
X190924Y518795D01*
X191770Y518728D01*
X192608Y518596D01*
X193432Y518398D01*
X194239Y518136D01*
X195023Y517811D01*
X195779Y517426D01*
X196502Y516983D01*
X197188Y516484D01*
X197833Y515933D01*
X198433Y515333D01*
X198984Y514688D01*
X199483Y514002D01*
X199926Y513279D01*
X200311Y512523D01*
X200636Y511739D01*
X200898Y510932D01*
X201096Y510108D01*
X201228Y509270D01*
X201295Y508424D01*
X201295Y507576D01*
X277495Y215476D02*
X277428Y214630D01*
X277296Y213792D01*
X277098Y212968D01*
X276836Y212161D01*
X276511Y211377D01*
X276126Y210621D01*
X275683Y209898D01*
X275184Y209212D01*
X274633Y208567D01*
X274033Y207967D01*
X273388Y207416D01*
X272702Y206917D01*
X271979Y206474D01*
X271223Y206089D01*
X270439Y205764D01*
X269632Y205502D01*
X268808Y205304D01*
X267970Y205172D01*
X267124Y205105D01*
X266276Y205105D01*
X265430Y205172D01*
X264592Y205304D01*
X263768Y205502D01*
X262961Y205764D01*
X262177Y206089D01*
X261421Y206474D01*
X260698Y206917D01*
X260012Y207416D01*
X259367Y207967D01*
X258767Y208567D01*
X258216Y209212D01*
X257717Y209898D01*
X257274Y210621D01*
X256889Y211377D01*
X256564Y212161D01*
X256302Y212968D01*
X256104Y213792D01*
X255972Y214630D01*
X255905Y215476D01*
X255905Y216324D01*
X255972Y217170D01*
X256104Y218008D01*
X256302Y218832D01*
X256564Y219639D01*
X256889Y220423D01*
X257274Y221179D01*
X257717Y221902D01*
X258216Y222588D01*
X258767Y223233D01*
X259367Y223833D01*
X260012Y224384D01*
X260698Y224883D01*
X261421Y225326D01*
X262177Y225711D01*
X262961Y226036D01*
X263768Y226298D01*
X264592Y226496D01*
X265430Y226628D01*
X266276Y226695D01*
X267124Y226695D01*
X267970Y226628D01*
X268808Y226496D01*
X269632Y226298D01*
X270439Y226036D01*
X271223Y225711D01*
X271979Y225326D01*
X272702Y224883D01*
X273388Y224384D01*
X274033Y223833D01*
X274633Y223233D01*
X275184Y222588D01*
X275683Y221902D01*
X276126Y221179D01*
X276511Y220423D01*
X276836Y219639D01*
X277098Y218832D01*
X277296Y218008D01*
X277428Y217170D01*
X277495Y216324D01*
X277495Y215476D01*
M02*
