G04 EAGLE Gerber RS-274X export*
G75*
%MOMM*%
%FSLAX34Y34*%
%LPD*%
%INSoldermask Top*%
%IPPOS*%
%AMOC8*
5,1,8,0,0,1.08239X$1,22.5*%
G01*
%ADD10C,2.362200*%
%ADD11P,2.034460X8X22.500000*%
%ADD12R,2.082800X2.082800*%
%ADD13C,2.082800*%
%ADD14P,1.869504X8X292.500000*%
%ADD15R,2.103200X1.603200*%
%ADD16R,1.603200X2.003200*%
%ADD17R,1.703200X0.903200*%
%ADD18R,1.303200X1.203200*%
%ADD19R,1.283200X1.253200*%
%ADD20R,0.803200X2.403200*%
%ADD21R,1.253200X1.283200*%
%ADD22R,1.703200X1.803200*%
%ADD23R,1.403200X1.403200*%
%ADD24R,0.853200X1.728200*%
%ADD25R,3.303200X2.603200*%
%ADD26R,1.203200X1.303200*%
%ADD27R,3.203200X1.603200*%
%ADD28R,1.303200X1.603200*%
%ADD29R,0.990600X1.092200*%
%ADD30P,1.869504X8X112.500000*%
%ADD31R,1.092200X0.990600*%
%ADD32R,1.753200X0.803200*%
%ADD33C,1.879600*%
%ADD34R,4.165600X4.165600*%
%ADD35R,3.378200X3.378200*%
%ADD36R,1.727200X1.727200*%
%ADD37R,2.203200X1.703200*%
%ADD38R,1.422400X2.438400*%
%ADD39R,3.803200X2.403200*%


D10*
X635000Y457200D03*
X190500Y508000D03*
X266700Y215900D03*
D11*
X533400Y508000D03*
X508000Y25400D03*
X558800Y508000D03*
X584200Y508000D03*
X609600Y508000D03*
X635000Y508000D03*
X508000Y508000D03*
X482600Y508000D03*
X457200Y508000D03*
X416560Y508000D03*
X391160Y508000D03*
X365760Y508000D03*
X340360Y508000D03*
X314960Y508000D03*
X289560Y508000D03*
X264160Y508000D03*
X238760Y508000D03*
X533400Y25400D03*
X558800Y25400D03*
X584200Y25400D03*
X609600Y25400D03*
X635000Y25400D03*
X457200Y25400D03*
X431800Y25400D03*
X406400Y25400D03*
X381000Y25400D03*
X355600Y25400D03*
X330200Y25400D03*
D12*
X468630Y177800D03*
D13*
X471170Y203200D03*
X468630Y228600D03*
D12*
X468630Y76200D03*
D13*
X471170Y101600D03*
X468630Y127000D03*
D12*
X557530Y76200D03*
D13*
X560070Y101600D03*
X557530Y127000D03*
X560070Y152400D03*
D14*
X635000Y190500D03*
X660400Y190500D03*
X635000Y165100D03*
X660400Y165100D03*
X635000Y139700D03*
X660400Y139700D03*
X635000Y114300D03*
X660400Y114300D03*
X635000Y88900D03*
X660400Y88900D03*
X635000Y63500D03*
X660400Y63500D03*
D15*
X32240Y227140D03*
X23240Y95140D03*
D16*
X163240Y211140D03*
X163240Y151140D03*
D17*
X61240Y218140D03*
X61240Y207140D03*
X57240Y196140D03*
X61240Y185140D03*
X57240Y174140D03*
X61240Y163140D03*
X65240Y152140D03*
X61240Y141140D03*
D18*
X114300Y245500D03*
X114300Y262500D03*
X88900Y245500D03*
X88900Y262500D03*
X139700Y245500D03*
X139700Y262500D03*
X165100Y245500D03*
X165100Y262500D03*
D19*
X63500Y245250D03*
X63500Y262750D03*
D18*
X513080Y179460D03*
X513080Y196460D03*
X511810Y132960D03*
X511810Y115960D03*
D20*
X389890Y132750D03*
X389890Y184750D03*
X377190Y132750D03*
X402590Y132750D03*
X415290Y132750D03*
X377190Y184750D03*
X402590Y184750D03*
X415290Y184750D03*
D18*
X388620Y209940D03*
X388620Y226940D03*
X386080Y88510D03*
X386080Y71510D03*
D21*
X363080Y123190D03*
X345580Y123190D03*
X364350Y199390D03*
X346850Y199390D03*
D22*
X356870Y102630D03*
D23*
X346870Y69380D03*
X366870Y69380D03*
D22*
X358140Y218680D03*
D23*
X368140Y251930D03*
X348140Y251930D03*
D12*
X24130Y491490D03*
D13*
X52070Y491490D03*
D24*
X19050Y353880D03*
X31750Y353880D03*
X44450Y353880D03*
X57150Y353880D03*
X57150Y408120D03*
X44450Y408120D03*
X31750Y408120D03*
X19050Y408120D03*
D25*
X38100Y381000D03*
D26*
X89780Y353060D03*
X72780Y353060D03*
D27*
X128140Y410210D03*
X80140Y410210D03*
D28*
X81120Y453390D03*
X61120Y453390D03*
D12*
X468630Y279400D03*
D13*
X471170Y304800D03*
X468630Y330200D03*
X471170Y355600D03*
D29*
X479806Y441960D03*
X460502Y441960D03*
X470154Y421640D03*
D26*
X461400Y457200D03*
X478400Y457200D03*
X478400Y406400D03*
X461400Y406400D03*
D29*
X441706Y441960D03*
X422402Y441960D03*
X432054Y421640D03*
D26*
X423300Y457200D03*
X440300Y457200D03*
X423300Y406400D03*
X440300Y406400D03*
D30*
X660400Y241300D03*
X635000Y241300D03*
X660400Y266700D03*
X635000Y266700D03*
X660400Y292100D03*
X635000Y292100D03*
X660400Y317500D03*
X635000Y317500D03*
X660400Y342900D03*
X635000Y342900D03*
X660400Y368300D03*
X635000Y368300D03*
D12*
X557530Y203200D03*
D13*
X560070Y228600D03*
X557530Y254000D03*
X560070Y279400D03*
D12*
X557530Y330200D03*
D13*
X560070Y355600D03*
X557530Y381000D03*
X560070Y406400D03*
D31*
X568960Y434594D03*
X568960Y453898D03*
X548640Y444246D03*
X397510Y274574D03*
X397510Y293878D03*
X377190Y284226D03*
D18*
X533400Y453000D03*
X533400Y436000D03*
X584200Y453000D03*
X584200Y436000D03*
X360680Y291710D03*
X360680Y274710D03*
X415290Y292980D03*
X415290Y275980D03*
D32*
X75160Y16510D03*
X75160Y29210D03*
X75160Y41910D03*
X75160Y54610D03*
X21160Y54610D03*
X21160Y41910D03*
X21160Y29210D03*
X21160Y16510D03*
D33*
X100330Y44450D03*
X100330Y19050D03*
D34*
X246380Y68580D03*
D35*
X319405Y68580D03*
X173355Y68580D03*
D36*
X124460Y497840D03*
X99060Y497840D03*
D18*
X351790Y376800D03*
X351790Y359800D03*
X330200Y359800D03*
X330200Y376800D03*
D19*
X370840Y359550D03*
X370840Y377050D03*
D37*
X389890Y340600D03*
X389890Y370600D03*
D38*
X357886Y400812D03*
X381000Y400812D03*
X404114Y400812D03*
D39*
X381000Y462790D03*
D26*
X596020Y276860D03*
X613020Y276860D03*
D21*
X613270Y259080D03*
X595770Y259080D03*
D26*
X611750Y400050D03*
X594750Y400050D03*
D21*
X594500Y379730D03*
X612000Y379730D03*
D18*
X408940Y216290D03*
X408940Y233290D03*
X407670Y84700D03*
X407670Y67700D03*
D19*
X349250Y170040D03*
X349250Y152540D03*
M02*
