G04 EAGLE Gerber RS-274X export*
G75*
%MOMM*%
%FSLAX34Y34*%
%LPD*%
%INSolderpaste Top*%
%IPPOS*%
%AMOC8*
5,1,8,0,0,1.08239X$1,22.5*%
G01*
%ADD10R,1.900000X1.400000*%
%ADD11R,1.400000X1.800000*%
%ADD12R,1.500000X0.700000*%
%ADD13R,1.100000X1.000000*%
%ADD14R,1.080000X1.050000*%
%ADD15R,0.600000X2.200000*%
%ADD16R,1.050000X1.080000*%
%ADD17R,1.500000X1.600000*%
%ADD18R,1.200000X1.200000*%
%ADD19R,0.650000X1.525000*%
%ADD20R,3.100000X2.400000*%
%ADD21R,1.000000X1.100000*%
%ADD22R,3.000000X1.400000*%
%ADD23R,1.100000X1.400000*%
%ADD24R,0.787400X0.889000*%
%ADD25R,0.889000X0.787400*%
%ADD26R,1.550000X0.600000*%
%ADD27R,3.962400X3.962400*%
%ADD28R,3.175000X3.175000*%
%ADD29R,2.000000X1.500000*%
%ADD30R,1.219200X2.235200*%
%ADD31R,3.600000X2.200000*%


D10*
X32240Y227140D03*
X23240Y95140D03*
D11*
X163240Y211140D03*
X163240Y151140D03*
D12*
X61240Y218140D03*
X61240Y207140D03*
X57240Y196140D03*
X61240Y185140D03*
X57240Y174140D03*
X61240Y163140D03*
X65240Y152140D03*
X61240Y141140D03*
D13*
X114300Y245500D03*
X114300Y262500D03*
X88900Y245500D03*
X88900Y262500D03*
X139700Y245500D03*
X139700Y262500D03*
X165100Y245500D03*
X165100Y262500D03*
D14*
X63500Y245250D03*
X63500Y262750D03*
D13*
X513080Y179460D03*
X513080Y196460D03*
X511810Y132960D03*
X511810Y115960D03*
D15*
X389890Y132750D03*
X389890Y184750D03*
X377190Y132750D03*
X402590Y132750D03*
X415290Y132750D03*
X377190Y184750D03*
X402590Y184750D03*
X415290Y184750D03*
D13*
X388620Y209940D03*
X388620Y226940D03*
X386080Y88510D03*
X386080Y71510D03*
D16*
X363080Y123190D03*
X345580Y123190D03*
X364350Y199390D03*
X346850Y199390D03*
D17*
X356870Y102630D03*
D18*
X346870Y69380D03*
X366870Y69380D03*
D17*
X358140Y218680D03*
D18*
X368140Y251930D03*
X348140Y251930D03*
D19*
X19050Y353880D03*
X31750Y353880D03*
X44450Y353880D03*
X57150Y353880D03*
X57150Y408120D03*
X44450Y408120D03*
X31750Y408120D03*
X19050Y408120D03*
D20*
X38100Y381000D03*
D21*
X89780Y353060D03*
X72780Y353060D03*
D22*
X128140Y410210D03*
X80140Y410210D03*
D23*
X81120Y453390D03*
X61120Y453390D03*
D24*
X479806Y441960D03*
X460502Y441960D03*
X470154Y421640D03*
D21*
X461400Y457200D03*
X478400Y457200D03*
X478400Y406400D03*
X461400Y406400D03*
D24*
X441706Y441960D03*
X422402Y441960D03*
X432054Y421640D03*
D21*
X423300Y457200D03*
X440300Y457200D03*
X423300Y406400D03*
X440300Y406400D03*
D25*
X568960Y434594D03*
X568960Y453898D03*
X548640Y444246D03*
X397510Y274574D03*
X397510Y293878D03*
X377190Y284226D03*
D13*
X533400Y453000D03*
X533400Y436000D03*
X584200Y453000D03*
X584200Y436000D03*
X360680Y291710D03*
X360680Y274710D03*
X415290Y292980D03*
X415290Y275980D03*
D26*
X75160Y16510D03*
X75160Y29210D03*
X75160Y41910D03*
X75160Y54610D03*
X21160Y54610D03*
X21160Y41910D03*
X21160Y29210D03*
X21160Y16510D03*
D27*
X246380Y68580D03*
D28*
X319405Y68580D03*
X173355Y68580D03*
D13*
X351790Y376800D03*
X351790Y359800D03*
X330200Y359800D03*
X330200Y376800D03*
D14*
X370840Y359550D03*
X370840Y377050D03*
D29*
X389890Y340600D03*
X389890Y370600D03*
D30*
X357886Y400812D03*
X381000Y400812D03*
X404114Y400812D03*
D31*
X381000Y462790D03*
D21*
X596020Y276860D03*
X613020Y276860D03*
D16*
X613270Y259080D03*
X595770Y259080D03*
D21*
X611750Y400050D03*
X594750Y400050D03*
D16*
X594500Y379730D03*
X612000Y379730D03*
D13*
X408940Y216290D03*
X408940Y233290D03*
X407670Y84700D03*
X407670Y67700D03*
D14*
X349250Y170040D03*
X349250Y152540D03*
M02*
