G04 EAGLE Gerber RS-274X export*
G75*
%MOMM*%
%FSLAX34Y34*%
%LPD*%
%INInner Layer 2*%
%IPPOS*%
%AMOC8*
5,1,8,0,0,1.08239X$1,22.5*%
G01*
%ADD10C,1.508000*%
%ADD11C,1.524000*%
%ADD12C,1.800000*%
%ADD13C,1.308000*%
%ADD14C,3.516000*%
%ADD15C,4.013200*%
%ADD16C,0.756400*%
%ADD17C,0.706400*%

G36*
X815706Y-4692D02*
X815706Y-4692D01*
X815756Y-4694D01*
X815863Y-4672D01*
X815972Y-4658D01*
X816018Y-4640D01*
X816067Y-4630D01*
X816166Y-4582D01*
X816268Y-4541D01*
X816308Y-4512D01*
X816353Y-4490D01*
X816436Y-4419D01*
X816525Y-4355D01*
X816557Y-4316D01*
X816595Y-4284D01*
X816658Y-4194D01*
X816728Y-4110D01*
X816749Y-4065D01*
X816778Y-4024D01*
X816817Y-3921D01*
X816864Y-3822D01*
X816873Y-3773D01*
X816891Y-3727D01*
X816903Y-3617D01*
X816923Y-3510D01*
X816920Y-3460D01*
X816926Y-3411D01*
X816910Y-3302D01*
X816904Y-3192D01*
X816888Y-3145D01*
X816881Y-3096D01*
X816829Y-2943D01*
X815824Y-517D01*
X815824Y2691D01*
X816958Y5427D01*
X816989Y5542D01*
X817028Y5655D01*
X817031Y5695D01*
X817042Y5734D01*
X817043Y5853D01*
X817053Y5972D01*
X817046Y6012D01*
X817047Y6052D01*
X817019Y6168D01*
X816999Y6285D01*
X816982Y6322D01*
X816972Y6361D01*
X816917Y6467D01*
X816868Y6575D01*
X816843Y6607D01*
X816824Y6642D01*
X816744Y6731D01*
X816669Y6824D01*
X816637Y6848D01*
X816610Y6878D01*
X816510Y6943D01*
X816415Y7015D01*
X816361Y7041D01*
X816344Y7053D01*
X816325Y7059D01*
X816271Y7086D01*
X813602Y8191D01*
X808493Y13300D01*
X805728Y19975D01*
X805728Y27200D01*
X808493Y33874D01*
X813602Y38983D01*
X820277Y41748D01*
X827502Y41748D01*
X834176Y38983D01*
X839285Y33874D01*
X842050Y27200D01*
X842050Y19975D01*
X839285Y13300D01*
X834176Y8191D01*
X831507Y7086D01*
X831404Y7027D01*
X831297Y6974D01*
X831266Y6948D01*
X831231Y6928D01*
X831146Y6845D01*
X831055Y6768D01*
X831032Y6735D01*
X831003Y6707D01*
X830941Y6605D01*
X830872Y6508D01*
X830858Y6470D01*
X830837Y6436D01*
X830802Y6322D01*
X830759Y6211D01*
X830755Y6170D01*
X830743Y6132D01*
X830737Y6013D01*
X830724Y5895D01*
X830730Y5854D01*
X830728Y5814D01*
X830752Y5698D01*
X830768Y5580D01*
X830788Y5523D01*
X830792Y5503D01*
X830801Y5484D01*
X830821Y5427D01*
X831954Y2691D01*
X831954Y-517D01*
X830949Y-2943D01*
X830936Y-2991D01*
X830915Y-3036D01*
X830894Y-3144D01*
X830865Y-3250D01*
X830864Y-3300D01*
X830855Y-3349D01*
X830862Y-3458D01*
X830860Y-3568D01*
X830871Y-3616D01*
X830875Y-3666D01*
X830908Y-3770D01*
X830934Y-3877D01*
X830957Y-3921D01*
X830973Y-3968D01*
X831031Y-4061D01*
X831083Y-4158D01*
X831116Y-4195D01*
X831143Y-4237D01*
X831223Y-4312D01*
X831297Y-4394D01*
X831338Y-4421D01*
X831374Y-4455D01*
X831471Y-4508D01*
X831562Y-4568D01*
X831609Y-4585D01*
X831653Y-4609D01*
X831759Y-4636D01*
X831863Y-4672D01*
X831913Y-4676D01*
X831961Y-4688D01*
X832121Y-4698D01*
X967227Y-4698D01*
X967277Y-4692D01*
X967326Y-4694D01*
X967434Y-4672D01*
X967543Y-4658D01*
X967589Y-4640D01*
X967638Y-4630D01*
X967736Y-4582D01*
X967838Y-4541D01*
X967879Y-4512D01*
X967923Y-4490D01*
X968007Y-4419D01*
X968096Y-4355D01*
X968127Y-4316D01*
X968165Y-4284D01*
X968228Y-4194D01*
X968299Y-4110D01*
X968320Y-4065D01*
X968348Y-4024D01*
X968387Y-3921D01*
X968434Y-3822D01*
X968443Y-3773D01*
X968461Y-3727D01*
X968473Y-3617D01*
X968494Y-3510D01*
X968491Y-3460D01*
X968496Y-3411D01*
X968481Y-3302D01*
X968474Y-3192D01*
X968459Y-3145D01*
X968452Y-3096D01*
X968400Y-2943D01*
X967395Y-517D01*
X967395Y2691D01*
X968528Y5427D01*
X968560Y5542D01*
X968598Y5655D01*
X968601Y5695D01*
X968612Y5734D01*
X968614Y5853D01*
X968623Y5972D01*
X968616Y6012D01*
X968617Y6052D01*
X968589Y6168D01*
X968569Y6285D01*
X968552Y6322D01*
X968543Y6361D01*
X968487Y6467D01*
X968438Y6575D01*
X968413Y6607D01*
X968394Y6642D01*
X968314Y6731D01*
X968240Y6824D01*
X968208Y6848D01*
X968180Y6878D01*
X968081Y6943D01*
X967986Y7015D01*
X967932Y7041D01*
X967915Y7053D01*
X967895Y7059D01*
X967841Y7086D01*
X965172Y8191D01*
X960064Y13300D01*
X957299Y19975D01*
X957299Y27200D01*
X960064Y33874D01*
X965172Y38983D01*
X971847Y41748D01*
X979072Y41748D01*
X985747Y38983D01*
X990856Y33874D01*
X993620Y27200D01*
X993620Y19975D01*
X990856Y13300D01*
X985747Y8191D01*
X983078Y7086D01*
X982975Y7027D01*
X982868Y6974D01*
X982837Y6948D01*
X982802Y6928D01*
X982716Y6845D01*
X982626Y6768D01*
X982602Y6735D01*
X982573Y6707D01*
X982511Y6605D01*
X982442Y6508D01*
X982428Y6470D01*
X982407Y6436D01*
X982372Y6322D01*
X982330Y6211D01*
X982325Y6170D01*
X982313Y6132D01*
X982308Y6013D01*
X982294Y5895D01*
X982300Y5854D01*
X982298Y5814D01*
X982322Y5698D01*
X982339Y5580D01*
X982358Y5523D01*
X982363Y5503D01*
X982372Y5484D01*
X982391Y5427D01*
X983524Y2691D01*
X983524Y-517D01*
X982519Y-2943D01*
X982506Y-2991D01*
X982485Y-3036D01*
X982464Y-3144D01*
X982435Y-3250D01*
X982435Y-3300D01*
X982425Y-3349D01*
X982432Y-3458D01*
X982430Y-3568D01*
X982442Y-3616D01*
X982445Y-3666D01*
X982479Y-3770D01*
X982504Y-3877D01*
X982528Y-3921D01*
X982543Y-3968D01*
X982602Y-4061D01*
X982653Y-4158D01*
X982687Y-4195D01*
X982713Y-4237D01*
X982793Y-4312D01*
X982867Y-4394D01*
X982909Y-4421D01*
X982945Y-4455D01*
X983041Y-4508D01*
X983133Y-4568D01*
X983180Y-4585D01*
X983223Y-4609D01*
X983330Y-4636D01*
X983434Y-4672D01*
X983483Y-4676D01*
X983531Y-4688D01*
X983692Y-4698D01*
X1047298Y-4698D01*
X1047347Y-4692D01*
X1047397Y-4694D01*
X1047504Y-4672D01*
X1047614Y-4658D01*
X1047660Y-4640D01*
X1047708Y-4630D01*
X1047807Y-4582D01*
X1047909Y-4541D01*
X1047949Y-4512D01*
X1047994Y-4490D01*
X1048078Y-4419D01*
X1048167Y-4355D01*
X1048198Y-4316D01*
X1048236Y-4284D01*
X1048299Y-4194D01*
X1048369Y-4110D01*
X1048391Y-4065D01*
X1048419Y-4024D01*
X1048458Y-3921D01*
X1048505Y-3822D01*
X1048514Y-3773D01*
X1048532Y-3727D01*
X1048544Y-3617D01*
X1048565Y-3510D01*
X1048562Y-3460D01*
X1048567Y-3411D01*
X1048552Y-3302D01*
X1048545Y-3192D01*
X1048530Y-3145D01*
X1048523Y-3096D01*
X1048471Y-2943D01*
X1045844Y3397D01*
X1045844Y11734D01*
X1049035Y19436D01*
X1054930Y25331D01*
X1062632Y28521D01*
X1070968Y28521D01*
X1078670Y25331D01*
X1079492Y24510D01*
X1079601Y24425D01*
X1079708Y24336D01*
X1079727Y24327D01*
X1079743Y24315D01*
X1079870Y24260D01*
X1079996Y24201D01*
X1080016Y24197D01*
X1080035Y24189D01*
X1080173Y24167D01*
X1080309Y24141D01*
X1080329Y24142D01*
X1080349Y24139D01*
X1080488Y24152D01*
X1080626Y24161D01*
X1080645Y24167D01*
X1080665Y24169D01*
X1080797Y24216D01*
X1080928Y24259D01*
X1080946Y24269D01*
X1080965Y24276D01*
X1081080Y24354D01*
X1081197Y24429D01*
X1081211Y24444D01*
X1081228Y24455D01*
X1081320Y24559D01*
X1081415Y24660D01*
X1081425Y24678D01*
X1081438Y24693D01*
X1081501Y24817D01*
X1081569Y24939D01*
X1081574Y24958D01*
X1081583Y24977D01*
X1081613Y25112D01*
X1081648Y25247D01*
X1081650Y25275D01*
X1081653Y25287D01*
X1081652Y25307D01*
X1081658Y25407D01*
X1081658Y237485D01*
X1081650Y237554D01*
X1081651Y237624D01*
X1081630Y237711D01*
X1081618Y237800D01*
X1081593Y237865D01*
X1081576Y237933D01*
X1081534Y238013D01*
X1081501Y238096D01*
X1081460Y238152D01*
X1081428Y238214D01*
X1081367Y238281D01*
X1081315Y238353D01*
X1081261Y238398D01*
X1081214Y238450D01*
X1081139Y238499D01*
X1081070Y238556D01*
X1081006Y238586D01*
X1080948Y238624D01*
X1080863Y238654D01*
X1080782Y238692D01*
X1080713Y238705D01*
X1080647Y238728D01*
X1080558Y238735D01*
X1080470Y238752D01*
X1080400Y238747D01*
X1080330Y238753D01*
X1080242Y238737D01*
X1080152Y238732D01*
X1080086Y238710D01*
X1080017Y238698D01*
X1079935Y238661D01*
X1079850Y238634D01*
X1079791Y238596D01*
X1079727Y238568D01*
X1079657Y238512D01*
X1079581Y238464D01*
X1079533Y238413D01*
X1079479Y238369D01*
X1079424Y238297D01*
X1079363Y238232D01*
X1079329Y238171D01*
X1079287Y238115D01*
X1079216Y237971D01*
X1077341Y233443D01*
X1071967Y228069D01*
X1064945Y225160D01*
X1057345Y225160D01*
X1050323Y228069D01*
X1044948Y233443D01*
X1042040Y240465D01*
X1042040Y248065D01*
X1044948Y255087D01*
X1050323Y260461D01*
X1057345Y263369D01*
X1064945Y263369D01*
X1071967Y260461D01*
X1077341Y255087D01*
X1079216Y250559D01*
X1079251Y250498D01*
X1079277Y250433D01*
X1079329Y250361D01*
X1079374Y250283D01*
X1079422Y250233D01*
X1079463Y250176D01*
X1079533Y250119D01*
X1079595Y250054D01*
X1079655Y250018D01*
X1079708Y249973D01*
X1079790Y249935D01*
X1079866Y249888D01*
X1079933Y249867D01*
X1079996Y249838D01*
X1080084Y249821D01*
X1080170Y249794D01*
X1080240Y249791D01*
X1080309Y249778D01*
X1080398Y249784D01*
X1080488Y249779D01*
X1080556Y249793D01*
X1080626Y249798D01*
X1080711Y249825D01*
X1080799Y249844D01*
X1080862Y249874D01*
X1080928Y249896D01*
X1081004Y249944D01*
X1081085Y249983D01*
X1081138Y250029D01*
X1081197Y250066D01*
X1081259Y250131D01*
X1081327Y250190D01*
X1081367Y250247D01*
X1081415Y250298D01*
X1081458Y250376D01*
X1081510Y250450D01*
X1081535Y250515D01*
X1081569Y250576D01*
X1081591Y250663D01*
X1081623Y250747D01*
X1081631Y250817D01*
X1081648Y250884D01*
X1081658Y251045D01*
X1081658Y547485D01*
X1081650Y547554D01*
X1081651Y547624D01*
X1081630Y547711D01*
X1081618Y547800D01*
X1081593Y547865D01*
X1081576Y547933D01*
X1081534Y548013D01*
X1081501Y548096D01*
X1081460Y548152D01*
X1081428Y548214D01*
X1081367Y548281D01*
X1081315Y548353D01*
X1081261Y548398D01*
X1081214Y548450D01*
X1081139Y548499D01*
X1081070Y548556D01*
X1081006Y548586D01*
X1080948Y548624D01*
X1080863Y548654D01*
X1080782Y548692D01*
X1080713Y548705D01*
X1080647Y548728D01*
X1080558Y548735D01*
X1080470Y548752D01*
X1080400Y548747D01*
X1080330Y548753D01*
X1080242Y548737D01*
X1080152Y548732D01*
X1080086Y548710D01*
X1080017Y548698D01*
X1079935Y548661D01*
X1079850Y548634D01*
X1079791Y548596D01*
X1079727Y548568D01*
X1079657Y548512D01*
X1079581Y548464D01*
X1079533Y548413D01*
X1079479Y548369D01*
X1079424Y548297D01*
X1079363Y548232D01*
X1079329Y548171D01*
X1079287Y548115D01*
X1079216Y547971D01*
X1077341Y543443D01*
X1071967Y538069D01*
X1064945Y535160D01*
X1057345Y535160D01*
X1050323Y538069D01*
X1044948Y543443D01*
X1042040Y550465D01*
X1042040Y558065D01*
X1044948Y565087D01*
X1050323Y570461D01*
X1052147Y571216D01*
X1052207Y571251D01*
X1052272Y571277D01*
X1052345Y571329D01*
X1052423Y571374D01*
X1052473Y571422D01*
X1052529Y571463D01*
X1052587Y571533D01*
X1052651Y571595D01*
X1052688Y571655D01*
X1052732Y571708D01*
X1052771Y571790D01*
X1052817Y571866D01*
X1052838Y571933D01*
X1052868Y571996D01*
X1052885Y572084D01*
X1052911Y572170D01*
X1052914Y572240D01*
X1052928Y572309D01*
X1052922Y572398D01*
X1052926Y572488D01*
X1052912Y572556D01*
X1052908Y572626D01*
X1052880Y572711D01*
X1052862Y572799D01*
X1052831Y572862D01*
X1052810Y572928D01*
X1052762Y573004D01*
X1052722Y573085D01*
X1052677Y573138D01*
X1052640Y573197D01*
X1052574Y573259D01*
X1052516Y573327D01*
X1052459Y573367D01*
X1052408Y573415D01*
X1052329Y573458D01*
X1052256Y573510D01*
X1052190Y573535D01*
X1052129Y573569D01*
X1052043Y573591D01*
X1051958Y573623D01*
X1051889Y573631D01*
X1051822Y573648D01*
X1051661Y573658D01*
X1022874Y573658D01*
X1022804Y573650D01*
X1022734Y573651D01*
X1022647Y573630D01*
X1022558Y573618D01*
X1022493Y573593D01*
X1022425Y573576D01*
X1022346Y573534D01*
X1022262Y573501D01*
X1022206Y573460D01*
X1022144Y573428D01*
X1022078Y573367D01*
X1022005Y573315D01*
X1021960Y573261D01*
X1021909Y573214D01*
X1021859Y573139D01*
X1021802Y573070D01*
X1021772Y573006D01*
X1021734Y572948D01*
X1021705Y572863D01*
X1021667Y572782D01*
X1021654Y572713D01*
X1021631Y572647D01*
X1021624Y572558D01*
X1021607Y572470D01*
X1021611Y572400D01*
X1021606Y572330D01*
X1021621Y572242D01*
X1021627Y572152D01*
X1021648Y572086D01*
X1021660Y572017D01*
X1021697Y571935D01*
X1021725Y571850D01*
X1021762Y571791D01*
X1021791Y571727D01*
X1021847Y571657D01*
X1021895Y571581D01*
X1021946Y571533D01*
X1021989Y571479D01*
X1022061Y571424D01*
X1022126Y571363D01*
X1022187Y571329D01*
X1022243Y571287D01*
X1022388Y571216D01*
X1027870Y568945D01*
X1033765Y563050D01*
X1036956Y555348D01*
X1036956Y547012D01*
X1033765Y539310D01*
X1027870Y533415D01*
X1020168Y530224D01*
X1011832Y530224D01*
X1004130Y533415D01*
X998235Y539310D01*
X995044Y547012D01*
X995044Y555348D01*
X998235Y563050D01*
X1004130Y568945D01*
X1009612Y571216D01*
X1009673Y571251D01*
X1009738Y571277D01*
X1009810Y571329D01*
X1009888Y571374D01*
X1009939Y571422D01*
X1009995Y571463D01*
X1010052Y571533D01*
X1010117Y571595D01*
X1010153Y571655D01*
X1010198Y571708D01*
X1010236Y571790D01*
X1010283Y571866D01*
X1010304Y571933D01*
X1010333Y571996D01*
X1010350Y572084D01*
X1010377Y572170D01*
X1010380Y572240D01*
X1010393Y572309D01*
X1010388Y572398D01*
X1010392Y572488D01*
X1010378Y572556D01*
X1010373Y572626D01*
X1010346Y572711D01*
X1010328Y572799D01*
X1010297Y572862D01*
X1010275Y572928D01*
X1010227Y573004D01*
X1010188Y573085D01*
X1010143Y573138D01*
X1010105Y573197D01*
X1010040Y573259D01*
X1009982Y573327D01*
X1009924Y573367D01*
X1009874Y573415D01*
X1009795Y573458D01*
X1009721Y573510D01*
X1009656Y573535D01*
X1009595Y573569D01*
X1009508Y573591D01*
X1009424Y573623D01*
X1009355Y573631D01*
X1009287Y573648D01*
X1009126Y573658D01*
X320629Y573658D01*
X320559Y573650D01*
X320490Y573651D01*
X320402Y573630D01*
X320313Y573618D01*
X320248Y573593D01*
X320180Y573576D01*
X320101Y573534D01*
X320017Y573501D01*
X319961Y573460D01*
X319899Y573428D01*
X319833Y573367D01*
X319760Y573315D01*
X319716Y573261D01*
X319664Y573214D01*
X319615Y573139D01*
X319557Y573070D01*
X319527Y573006D01*
X319489Y572948D01*
X319460Y572863D01*
X319422Y572782D01*
X319409Y572713D01*
X319386Y572647D01*
X319379Y572558D01*
X319362Y572470D01*
X319366Y572400D01*
X319361Y572330D01*
X319376Y572242D01*
X319382Y572152D01*
X319403Y572086D01*
X319415Y572017D01*
X319452Y571935D01*
X319480Y571850D01*
X319517Y571791D01*
X319546Y571727D01*
X319602Y571657D01*
X319650Y571581D01*
X319701Y571533D01*
X319744Y571479D01*
X319816Y571424D01*
X319881Y571363D01*
X319943Y571329D01*
X319998Y571287D01*
X320143Y571216D01*
X321967Y570461D01*
X327341Y565087D01*
X330249Y558065D01*
X330249Y550465D01*
X327341Y543443D01*
X321967Y538069D01*
X314945Y535160D01*
X307345Y535160D01*
X300323Y538069D01*
X294948Y543443D01*
X292040Y550465D01*
X292040Y558065D01*
X294948Y565087D01*
X300323Y570461D01*
X302147Y571216D01*
X302207Y571251D01*
X302272Y571277D01*
X302345Y571329D01*
X302423Y571374D01*
X302473Y571422D01*
X302529Y571463D01*
X302587Y571533D01*
X302651Y571595D01*
X302688Y571655D01*
X302732Y571708D01*
X302771Y571790D01*
X302817Y571866D01*
X302838Y571933D01*
X302868Y571996D01*
X302885Y572084D01*
X302911Y572170D01*
X302914Y572240D01*
X302928Y572309D01*
X302922Y572398D01*
X302926Y572488D01*
X302912Y572556D01*
X302908Y572626D01*
X302880Y572711D01*
X302862Y572799D01*
X302831Y572862D01*
X302810Y572928D01*
X302762Y573004D01*
X302722Y573085D01*
X302677Y573138D01*
X302640Y573197D01*
X302574Y573259D01*
X302516Y573327D01*
X302459Y573367D01*
X302408Y573415D01*
X302329Y573458D01*
X302256Y573510D01*
X302190Y573535D01*
X302129Y573569D01*
X302043Y573591D01*
X301958Y573623D01*
X301889Y573631D01*
X301822Y573648D01*
X301661Y573658D01*
X65294Y573658D01*
X65224Y573650D01*
X65154Y573651D01*
X65067Y573630D01*
X64978Y573618D01*
X64913Y573593D01*
X64845Y573576D01*
X64766Y573534D01*
X64682Y573501D01*
X64626Y573460D01*
X64564Y573428D01*
X64498Y573367D01*
X64425Y573315D01*
X64380Y573261D01*
X64329Y573214D01*
X64279Y573139D01*
X64222Y573070D01*
X64192Y573006D01*
X64154Y572948D01*
X64125Y572863D01*
X64087Y572782D01*
X64074Y572713D01*
X64051Y572647D01*
X64044Y572558D01*
X64027Y572470D01*
X64031Y572400D01*
X64026Y572330D01*
X64041Y572242D01*
X64047Y572152D01*
X64068Y572086D01*
X64080Y572017D01*
X64117Y571935D01*
X64145Y571850D01*
X64182Y571791D01*
X64211Y571727D01*
X64267Y571657D01*
X64315Y571581D01*
X64366Y571533D01*
X64409Y571479D01*
X64481Y571424D01*
X64546Y571363D01*
X64607Y571329D01*
X64663Y571287D01*
X64808Y571216D01*
X70290Y568945D01*
X76185Y563050D01*
X79376Y555348D01*
X79376Y547012D01*
X76185Y539310D01*
X70290Y533415D01*
X62588Y530224D01*
X54252Y530224D01*
X46550Y533415D01*
X45474Y534490D01*
X45365Y534574D01*
X45258Y534664D01*
X45239Y534672D01*
X45223Y534685D01*
X45096Y534740D01*
X44970Y534799D01*
X44950Y534803D01*
X44931Y534811D01*
X44793Y534833D01*
X44657Y534859D01*
X44637Y534858D01*
X44617Y534861D01*
X44478Y534848D01*
X44340Y534839D01*
X44321Y534833D01*
X44301Y534831D01*
X44169Y534784D01*
X44038Y534741D01*
X44020Y534730D01*
X44001Y534723D01*
X43886Y534645D01*
X43769Y534571D01*
X43755Y534556D01*
X43738Y534545D01*
X43646Y534441D01*
X43551Y534339D01*
X43541Y534322D01*
X43528Y534306D01*
X43465Y534183D01*
X43397Y534061D01*
X43392Y534041D01*
X43383Y534023D01*
X43353Y533887D01*
X43318Y533753D01*
X43316Y533725D01*
X43313Y533713D01*
X43314Y533692D01*
X43308Y533592D01*
X43308Y518185D01*
X43308Y518184D01*
X43308Y518179D01*
X43318Y516087D01*
X42516Y514152D01*
X42516Y514151D01*
X42514Y514147D01*
X41721Y512207D01*
X40241Y510727D01*
X40240Y510725D01*
X40237Y510722D01*
X18460Y488739D01*
X18401Y488663D01*
X18336Y488593D01*
X18305Y488537D01*
X18266Y488487D01*
X18228Y488399D01*
X18182Y488315D01*
X18166Y488253D01*
X18141Y488195D01*
X18127Y488100D01*
X18103Y488007D01*
X18096Y487899D01*
X18093Y487880D01*
X18094Y487870D01*
X18092Y487846D01*
X18092Y169938D01*
X18105Y169840D01*
X18108Y169741D01*
X18125Y169682D01*
X18132Y169622D01*
X18169Y169530D01*
X18196Y169435D01*
X18227Y169383D01*
X18249Y169327D01*
X18307Y169247D01*
X18358Y169161D01*
X18424Y169086D01*
X18436Y169069D01*
X18446Y169062D01*
X18464Y169040D01*
X38744Y148761D01*
X41888Y145617D01*
X43492Y141743D01*
X43492Y104078D01*
X43510Y103940D01*
X43523Y103802D01*
X43530Y103783D01*
X43532Y103763D01*
X43583Y103634D01*
X43630Y103502D01*
X43642Y103486D01*
X43649Y103467D01*
X43731Y103355D01*
X43809Y103239D01*
X43824Y103226D01*
X43836Y103210D01*
X43943Y103121D01*
X44047Y103029D01*
X44065Y103020D01*
X44081Y103007D01*
X44207Y102948D01*
X44331Y102884D01*
X44351Y102880D01*
X44369Y102871D01*
X44505Y102845D01*
X44641Y102815D01*
X44661Y102815D01*
X44681Y102811D01*
X44820Y102820D01*
X44959Y102824D01*
X44978Y102830D01*
X44999Y102831D01*
X45130Y102874D01*
X45264Y102913D01*
X45282Y102923D01*
X45301Y102929D01*
X45418Y103004D01*
X45538Y103074D01*
X45559Y103093D01*
X45570Y103099D01*
X45584Y103114D01*
X45659Y103181D01*
X46550Y104071D01*
X54252Y107261D01*
X62588Y107261D01*
X70290Y104071D01*
X76185Y98176D01*
X79376Y90474D01*
X79376Y82137D01*
X76185Y74435D01*
X70290Y68540D01*
X62588Y65350D01*
X54252Y65350D01*
X46550Y68540D01*
X45659Y69431D01*
X45550Y69515D01*
X45442Y69605D01*
X45424Y69613D01*
X45408Y69626D01*
X45280Y69681D01*
X45154Y69740D01*
X45135Y69744D01*
X45116Y69752D01*
X44978Y69774D01*
X44842Y69800D01*
X44822Y69799D01*
X44802Y69802D01*
X44663Y69789D01*
X44525Y69780D01*
X44506Y69774D01*
X44485Y69772D01*
X44354Y69725D01*
X44222Y69682D01*
X44205Y69671D01*
X44186Y69664D01*
X44071Y69586D01*
X43954Y69512D01*
X43940Y69497D01*
X43923Y69486D01*
X43831Y69382D01*
X43736Y69280D01*
X43726Y69263D01*
X43712Y69247D01*
X43649Y69124D01*
X43582Y69002D01*
X43577Y68982D01*
X43568Y68964D01*
X43537Y68828D01*
X43503Y68694D01*
X43501Y68666D01*
X43498Y68654D01*
X43499Y68633D01*
X43492Y68533D01*
X43492Y14262D01*
X43505Y14163D01*
X43508Y14063D01*
X43525Y14006D01*
X43532Y13946D01*
X43569Y13854D01*
X43597Y13758D01*
X43627Y13706D01*
X43649Y13651D01*
X43708Y13570D01*
X43759Y13484D01*
X43824Y13410D01*
X43836Y13393D01*
X43846Y13385D01*
X43865Y13364D01*
X61596Y-4328D01*
X61673Y-4388D01*
X61745Y-4455D01*
X61799Y-4485D01*
X61847Y-4522D01*
X61937Y-4561D01*
X62023Y-4609D01*
X62083Y-4624D01*
X62139Y-4648D01*
X62236Y-4663D01*
X62331Y-4688D01*
X62433Y-4695D01*
X62453Y-4698D01*
X62465Y-4697D01*
X62492Y-4698D01*
X815657Y-4698D01*
X815706Y-4692D01*
G37*
%LPC*%
G36*
X675155Y69689D02*
X675155Y69689D01*
X667220Y72976D01*
X661146Y79050D01*
X657859Y86985D01*
X657859Y95575D01*
X661146Y103510D01*
X667220Y109584D01*
X675155Y112871D01*
X683745Y112871D01*
X691680Y109584D01*
X697754Y103510D01*
X701041Y95575D01*
X701041Y86985D01*
X697754Y79050D01*
X691680Y72976D01*
X683745Y69689D01*
X675155Y69689D01*
G37*
%LPD*%
%LPC*%
G36*
X498682Y14550D02*
X498682Y14550D01*
X490980Y17740D01*
X485085Y23635D01*
X481895Y31337D01*
X481895Y39674D01*
X485085Y47376D01*
X490980Y53271D01*
X498682Y56461D01*
X507019Y56461D01*
X514721Y53271D01*
X520616Y47376D01*
X523806Y39674D01*
X523806Y31337D01*
X520616Y23635D01*
X514721Y17740D01*
X507019Y14550D01*
X498682Y14550D01*
G37*
%LPD*%
%LPC*%
G36*
X820277Y95426D02*
X820277Y95426D01*
X813602Y98191D01*
X808493Y103300D01*
X805728Y109975D01*
X805728Y117200D01*
X808493Y123874D01*
X813602Y128983D01*
X816271Y130089D01*
X816374Y130147D01*
X816481Y130200D01*
X816512Y130226D01*
X816547Y130246D01*
X816632Y130329D01*
X816723Y130406D01*
X816746Y130439D01*
X816775Y130467D01*
X816838Y130569D01*
X816906Y130666D01*
X816921Y130704D01*
X816942Y130738D01*
X816977Y130852D01*
X817019Y130964D01*
X817023Y131004D01*
X817035Y131042D01*
X817041Y131161D01*
X817054Y131280D01*
X817048Y131320D01*
X817050Y131360D01*
X817026Y131477D01*
X817010Y131595D01*
X816990Y131651D01*
X816986Y131672D01*
X816977Y131690D01*
X816958Y131747D01*
X815824Y134483D01*
X815824Y137691D01*
X817052Y140655D01*
X819321Y142924D01*
X822285Y144152D01*
X825493Y144152D01*
X828457Y142924D01*
X830726Y140655D01*
X831954Y137691D01*
X831954Y134483D01*
X830821Y131747D01*
X830789Y131632D01*
X830750Y131519D01*
X830747Y131479D01*
X830737Y131440D01*
X830735Y131321D01*
X830725Y131202D01*
X830732Y131163D01*
X830732Y131122D01*
X830759Y131006D01*
X830780Y130889D01*
X830796Y130852D01*
X830806Y130813D01*
X830861Y130707D01*
X830910Y130599D01*
X830935Y130568D01*
X830954Y130532D01*
X831034Y130444D01*
X831109Y130351D01*
X831141Y130326D01*
X831168Y130296D01*
X831268Y130231D01*
X831363Y130159D01*
X831417Y130133D01*
X831434Y130122D01*
X831453Y130115D01*
X831507Y130089D01*
X834176Y128983D01*
X839285Y123874D01*
X842050Y117200D01*
X842050Y109975D01*
X839285Y103300D01*
X834176Y98191D01*
X827502Y95426D01*
X820277Y95426D01*
G37*
%LPD*%
%LPC*%
G36*
X971847Y95426D02*
X971847Y95426D01*
X965172Y98191D01*
X960064Y103300D01*
X957299Y109975D01*
X957299Y117200D01*
X960064Y123874D01*
X965172Y128983D01*
X967841Y130089D01*
X967945Y130147D01*
X968052Y130200D01*
X968082Y130226D01*
X968117Y130246D01*
X968203Y130329D01*
X968294Y130406D01*
X968317Y130439D01*
X968346Y130467D01*
X968408Y130569D01*
X968477Y130666D01*
X968491Y130704D01*
X968512Y130738D01*
X968547Y130852D01*
X968589Y130964D01*
X968594Y131004D01*
X968606Y131042D01*
X968611Y131161D01*
X968625Y131280D01*
X968619Y131320D01*
X968621Y131360D01*
X968597Y131477D01*
X968580Y131595D01*
X968561Y131651D01*
X968557Y131672D01*
X968548Y131690D01*
X968528Y131747D01*
X967395Y134483D01*
X967395Y137691D01*
X968623Y140655D01*
X970891Y142924D01*
X973855Y144152D01*
X977064Y144152D01*
X980028Y142924D01*
X982297Y140655D01*
X983524Y137691D01*
X983524Y134483D01*
X982391Y131747D01*
X982360Y131632D01*
X982321Y131519D01*
X982318Y131479D01*
X982307Y131440D01*
X982305Y131321D01*
X982296Y131202D01*
X982303Y131163D01*
X982302Y131122D01*
X982330Y131006D01*
X982350Y130889D01*
X982367Y130852D01*
X982376Y130813D01*
X982432Y130708D01*
X982481Y130599D01*
X982506Y130568D01*
X982525Y130532D01*
X982605Y130444D01*
X982679Y130351D01*
X982712Y130326D01*
X982739Y130296D01*
X982838Y130231D01*
X982933Y130159D01*
X982987Y130133D01*
X983004Y130122D01*
X983024Y130115D01*
X983078Y130089D01*
X985747Y128983D01*
X990856Y123874D01*
X993620Y117200D01*
X993620Y109975D01*
X990856Y103300D01*
X985747Y98191D01*
X979072Y95426D01*
X971847Y95426D01*
G37*
%LPD*%
%LPC*%
G36*
X307345Y225160D02*
X307345Y225160D01*
X300323Y228069D01*
X294948Y233443D01*
X292040Y240465D01*
X292040Y248065D01*
X294948Y255087D01*
X300323Y260461D01*
X307345Y263369D01*
X314945Y263369D01*
X321967Y260461D01*
X327341Y255087D01*
X330249Y248065D01*
X330249Y240465D01*
X327341Y233443D01*
X321967Y228069D01*
X314945Y225160D01*
X307345Y225160D01*
G37*
%LPD*%
%LPC*%
G36*
X990220Y196398D02*
X990220Y196398D01*
X988807Y197118D01*
X987523Y198051D01*
X986401Y199173D01*
X985468Y200457D01*
X984748Y201870D01*
X984734Y201912D01*
X984722Y201939D01*
X984715Y201968D01*
X984654Y202082D01*
X984599Y202199D01*
X984580Y202222D01*
X984566Y202249D01*
X984479Y202345D01*
X984396Y202445D01*
X984372Y202462D01*
X984352Y202484D01*
X984244Y202555D01*
X984139Y202632D01*
X984111Y202643D01*
X984086Y202659D01*
X983964Y202701D01*
X983843Y202749D01*
X983814Y202752D01*
X983786Y202762D01*
X983656Y202772D01*
X983528Y202789D01*
X983498Y202785D01*
X983469Y202787D01*
X983341Y202765D01*
X983212Y202749D01*
X983185Y202738D01*
X983155Y202733D01*
X983037Y202680D01*
X982917Y202632D01*
X982892Y202615D01*
X982865Y202602D01*
X982764Y202522D01*
X982659Y202446D01*
X982640Y202423D01*
X982617Y202404D01*
X982539Y202300D01*
X982456Y202201D01*
X982444Y202174D01*
X982426Y202150D01*
X982355Y202005D01*
X981775Y200605D01*
X979225Y198055D01*
X975893Y196675D01*
X972287Y196675D01*
X968955Y198055D01*
X966405Y200605D01*
X965263Y203364D01*
X965194Y203484D01*
X965129Y203608D01*
X965115Y203622D01*
X965105Y203640D01*
X965008Y203740D01*
X964915Y203843D01*
X964898Y203854D01*
X964884Y203869D01*
X964766Y203941D01*
X964649Y204018D01*
X964630Y204024D01*
X964613Y204035D01*
X964480Y204076D01*
X964348Y204121D01*
X964328Y204122D01*
X964309Y204128D01*
X964170Y204135D01*
X964031Y204146D01*
X964011Y204143D01*
X963991Y204144D01*
X963855Y204115D01*
X963718Y204092D01*
X963700Y204083D01*
X963680Y204079D01*
X963554Y204018D01*
X963428Y203961D01*
X963412Y203948D01*
X963394Y203940D01*
X963288Y203849D01*
X963180Y203762D01*
X963167Y203746D01*
X963152Y203733D01*
X963072Y203619D01*
X962988Y203508D01*
X962976Y203483D01*
X962969Y203473D01*
X962962Y203454D01*
X962917Y203364D01*
X961775Y200605D01*
X959225Y198055D01*
X955893Y196675D01*
X952287Y196675D01*
X948955Y198055D01*
X946405Y200605D01*
X945025Y203937D01*
X945025Y207543D01*
X946405Y210875D01*
X948955Y213425D01*
X952287Y214805D01*
X955893Y214805D01*
X959225Y213425D01*
X961775Y210875D01*
X962917Y208116D01*
X962986Y207995D01*
X963051Y207872D01*
X963065Y207857D01*
X963075Y207840D01*
X963172Y207740D01*
X963265Y207637D01*
X963282Y207626D01*
X963296Y207611D01*
X963415Y207539D01*
X963531Y207462D01*
X963550Y207456D01*
X963567Y207445D01*
X963700Y207404D01*
X963832Y207359D01*
X963852Y207358D01*
X963871Y207352D01*
X964010Y207345D01*
X964149Y207334D01*
X964169Y207337D01*
X964189Y207336D01*
X964325Y207365D01*
X964462Y207388D01*
X964481Y207397D01*
X964500Y207401D01*
X964626Y207462D01*
X964752Y207519D01*
X964768Y207532D01*
X964786Y207540D01*
X964892Y207631D01*
X965000Y207718D01*
X965013Y207734D01*
X965028Y207747D01*
X965108Y207860D01*
X965192Y207972D01*
X965204Y207997D01*
X965211Y208007D01*
X965218Y208026D01*
X965263Y208116D01*
X966405Y210875D01*
X968955Y213425D01*
X972287Y214805D01*
X975893Y214805D01*
X979225Y213425D01*
X981775Y210875D01*
X982355Y209475D01*
X982369Y209449D01*
X982379Y209420D01*
X982448Y209311D01*
X982512Y209199D01*
X982533Y209177D01*
X982549Y209152D01*
X982643Y209063D01*
X982733Y208970D01*
X982759Y208955D01*
X982781Y208934D01*
X982894Y208871D01*
X983005Y208804D01*
X983033Y208795D01*
X983059Y208781D01*
X983185Y208748D01*
X983308Y208710D01*
X983338Y208709D01*
X983367Y208701D01*
X983497Y208701D01*
X983626Y208695D01*
X983655Y208701D01*
X983685Y208701D01*
X983811Y208733D01*
X983938Y208759D01*
X983965Y208773D01*
X983993Y208780D01*
X984107Y208842D01*
X984223Y208899D01*
X984246Y208919D01*
X984272Y208933D01*
X984367Y209021D01*
X984465Y209105D01*
X984483Y209130D01*
X984504Y209150D01*
X984574Y209259D01*
X984648Y209365D01*
X984659Y209394D01*
X984675Y209419D01*
X984734Y209568D01*
X984748Y209610D01*
X985468Y211023D01*
X986401Y212307D01*
X987523Y213429D01*
X988807Y214362D01*
X990220Y215082D01*
X991591Y215527D01*
X991591Y206970D01*
X991606Y206852D01*
X991613Y206733D01*
X991625Y206695D01*
X991631Y206655D01*
X991674Y206544D01*
X991711Y206431D01*
X991733Y206397D01*
X991748Y206359D01*
X991818Y206263D01*
X991881Y206162D01*
X991911Y206134D01*
X991934Y206102D01*
X992026Y206026D01*
X992113Y205944D01*
X992148Y205925D01*
X992179Y205899D01*
X992287Y205848D01*
X992391Y205791D01*
X992431Y205781D01*
X992467Y205763D01*
X992574Y205743D01*
X992544Y205739D01*
X992434Y205695D01*
X992321Y205659D01*
X992286Y205637D01*
X992249Y205622D01*
X992152Y205552D01*
X992052Y205489D01*
X992024Y205459D01*
X991991Y205435D01*
X991915Y205344D01*
X991834Y205257D01*
X991814Y205222D01*
X991789Y205190D01*
X991738Y205083D01*
X991680Y204978D01*
X991670Y204939D01*
X991653Y204903D01*
X991631Y204786D01*
X991601Y204670D01*
X991597Y204610D01*
X991593Y204590D01*
X991595Y204570D01*
X991591Y204510D01*
X991591Y195953D01*
X990220Y196398D01*
G37*
%LPD*%
%LPC*%
G36*
X990220Y151398D02*
X990220Y151398D01*
X988807Y152118D01*
X987523Y153051D01*
X986401Y154173D01*
X985468Y155457D01*
X984748Y156870D01*
X984734Y156912D01*
X984722Y156939D01*
X984715Y156968D01*
X984691Y157012D01*
X984684Y157036D01*
X984654Y157083D01*
X984599Y157199D01*
X984580Y157222D01*
X984566Y157249D01*
X984479Y157345D01*
X984396Y157445D01*
X984372Y157462D01*
X984352Y157484D01*
X984244Y157555D01*
X984139Y157632D01*
X984111Y157643D01*
X984086Y157659D01*
X983964Y157701D01*
X983843Y157749D01*
X983814Y157752D01*
X983786Y157762D01*
X983656Y157772D01*
X983528Y157789D01*
X983498Y157785D01*
X983469Y157787D01*
X983341Y157765D01*
X983212Y157749D01*
X983185Y157738D01*
X983155Y157733D01*
X983037Y157680D01*
X982917Y157632D01*
X982892Y157615D01*
X982865Y157602D01*
X982764Y157522D01*
X982659Y157446D01*
X982640Y157423D01*
X982617Y157404D01*
X982539Y157300D01*
X982456Y157201D01*
X982444Y157174D01*
X982426Y157150D01*
X982355Y157005D01*
X981775Y155605D01*
X979225Y153055D01*
X975893Y151675D01*
X972287Y151675D01*
X968955Y153055D01*
X966405Y155605D01*
X965263Y158364D01*
X965194Y158485D01*
X965129Y158608D01*
X965115Y158623D01*
X965105Y158640D01*
X965008Y158740D01*
X964915Y158843D01*
X964898Y158854D01*
X964884Y158869D01*
X964765Y158941D01*
X964649Y159018D01*
X964630Y159024D01*
X964613Y159035D01*
X964480Y159076D01*
X964348Y159121D01*
X964328Y159122D01*
X964309Y159128D01*
X964170Y159135D01*
X964031Y159146D01*
X964011Y159143D01*
X963991Y159144D01*
X963855Y159115D01*
X963718Y159092D01*
X963699Y159083D01*
X963680Y159079D01*
X963554Y159018D01*
X963428Y158961D01*
X963412Y158948D01*
X963394Y158940D01*
X963288Y158849D01*
X963180Y158762D01*
X963167Y158746D01*
X963152Y158733D01*
X963072Y158620D01*
X962988Y158508D01*
X962976Y158483D01*
X962969Y158473D01*
X962962Y158454D01*
X962917Y158364D01*
X961775Y155605D01*
X959225Y153055D01*
X955893Y151675D01*
X952287Y151675D01*
X948955Y153055D01*
X946405Y155605D01*
X945025Y158937D01*
X945025Y162543D01*
X946405Y165875D01*
X948955Y168425D01*
X952287Y169805D01*
X955893Y169805D01*
X959225Y168425D01*
X961775Y165875D01*
X962917Y163116D01*
X962986Y162996D01*
X963051Y162872D01*
X963065Y162858D01*
X963075Y162840D01*
X963172Y162740D01*
X963265Y162637D01*
X963282Y162626D01*
X963296Y162611D01*
X963414Y162539D01*
X963531Y162462D01*
X963550Y162456D01*
X963567Y162445D01*
X963700Y162404D01*
X963832Y162359D01*
X963852Y162358D01*
X963871Y162352D01*
X964010Y162345D01*
X964149Y162334D01*
X964169Y162337D01*
X964189Y162336D01*
X964325Y162365D01*
X964462Y162388D01*
X964480Y162397D01*
X964500Y162401D01*
X964626Y162462D01*
X964752Y162519D01*
X964768Y162532D01*
X964786Y162540D01*
X964892Y162631D01*
X965000Y162718D01*
X965013Y162734D01*
X965028Y162747D01*
X965108Y162861D01*
X965192Y162972D01*
X965204Y162997D01*
X965211Y163007D01*
X965218Y163026D01*
X965263Y163116D01*
X966405Y165875D01*
X968955Y168425D01*
X972287Y169805D01*
X975893Y169805D01*
X979225Y168425D01*
X981775Y165875D01*
X982355Y164475D01*
X982369Y164449D01*
X982379Y164420D01*
X982448Y164311D01*
X982512Y164199D01*
X982533Y164177D01*
X982549Y164152D01*
X982643Y164063D01*
X982733Y163970D01*
X982759Y163955D01*
X982781Y163934D01*
X982894Y163871D01*
X983005Y163804D01*
X983033Y163795D01*
X983059Y163781D01*
X983185Y163748D01*
X983308Y163710D01*
X983338Y163709D01*
X983367Y163701D01*
X983497Y163701D01*
X983626Y163695D01*
X983655Y163701D01*
X983685Y163701D01*
X983811Y163733D01*
X983938Y163759D01*
X983965Y163773D01*
X983993Y163780D01*
X984107Y163842D01*
X984223Y163899D01*
X984246Y163919D01*
X984272Y163933D01*
X984367Y164021D01*
X984465Y164105D01*
X984483Y164130D01*
X984504Y164150D01*
X984574Y164259D01*
X984648Y164365D01*
X984659Y164394D01*
X984675Y164419D01*
X984734Y164568D01*
X984748Y164610D01*
X985468Y166023D01*
X986401Y167307D01*
X987523Y168429D01*
X988807Y169362D01*
X990220Y170082D01*
X991591Y170527D01*
X991591Y161970D01*
X991606Y161852D01*
X991613Y161733D01*
X991625Y161695D01*
X991631Y161655D01*
X991674Y161544D01*
X991711Y161431D01*
X991733Y161397D01*
X991748Y161359D01*
X991817Y161263D01*
X991881Y161162D01*
X991911Y161134D01*
X991934Y161102D01*
X992026Y161026D01*
X992113Y160944D01*
X992148Y160925D01*
X992179Y160899D01*
X992287Y160848D01*
X992391Y160791D01*
X992431Y160781D01*
X992467Y160763D01*
X992574Y160743D01*
X992544Y160739D01*
X992434Y160695D01*
X992321Y160659D01*
X992286Y160637D01*
X992249Y160622D01*
X992152Y160552D01*
X992052Y160489D01*
X992024Y160459D01*
X991991Y160435D01*
X991915Y160344D01*
X991834Y160257D01*
X991814Y160222D01*
X991789Y160190D01*
X991738Y160083D01*
X991680Y159978D01*
X991670Y159939D01*
X991653Y159903D01*
X991631Y159786D01*
X991601Y159670D01*
X991597Y159610D01*
X991593Y159590D01*
X991595Y159570D01*
X991591Y159510D01*
X991591Y150953D01*
X990220Y151398D01*
G37*
%LPD*%
%LPC*%
G36*
X841630Y151398D02*
X841630Y151398D01*
X840217Y152118D01*
X838933Y153051D01*
X837811Y154173D01*
X836878Y155457D01*
X836158Y156870D01*
X836144Y156912D01*
X836132Y156939D01*
X836125Y156968D01*
X836101Y157012D01*
X836094Y157036D01*
X836064Y157083D01*
X836009Y157199D01*
X835990Y157222D01*
X835976Y157249D01*
X835889Y157345D01*
X835806Y157445D01*
X835782Y157462D01*
X835762Y157484D01*
X835654Y157555D01*
X835549Y157632D01*
X835521Y157643D01*
X835496Y157659D01*
X835374Y157701D01*
X835253Y157749D01*
X835224Y157752D01*
X835196Y157762D01*
X835066Y157772D01*
X834938Y157789D01*
X834908Y157785D01*
X834879Y157787D01*
X834751Y157765D01*
X834622Y157749D01*
X834595Y157738D01*
X834565Y157733D01*
X834447Y157680D01*
X834327Y157632D01*
X834302Y157615D01*
X834275Y157602D01*
X834174Y157522D01*
X834069Y157446D01*
X834050Y157423D01*
X834027Y157404D01*
X833949Y157300D01*
X833866Y157201D01*
X833854Y157174D01*
X833836Y157150D01*
X833765Y157005D01*
X833185Y155605D01*
X830635Y153055D01*
X827303Y151675D01*
X823697Y151675D01*
X820365Y153055D01*
X817815Y155605D01*
X816673Y158364D01*
X816604Y158485D01*
X816539Y158608D01*
X816525Y158623D01*
X816515Y158640D01*
X816418Y158740D01*
X816325Y158843D01*
X816308Y158854D01*
X816294Y158869D01*
X816175Y158941D01*
X816059Y159018D01*
X816040Y159024D01*
X816023Y159035D01*
X815890Y159076D01*
X815758Y159121D01*
X815738Y159122D01*
X815719Y159128D01*
X815580Y159135D01*
X815441Y159146D01*
X815421Y159143D01*
X815401Y159144D01*
X815265Y159115D01*
X815128Y159092D01*
X815109Y159083D01*
X815090Y159079D01*
X814964Y159018D01*
X814838Y158961D01*
X814822Y158948D01*
X814804Y158940D01*
X814698Y158849D01*
X814590Y158762D01*
X814577Y158746D01*
X814562Y158733D01*
X814482Y158620D01*
X814398Y158508D01*
X814386Y158483D01*
X814379Y158473D01*
X814372Y158454D01*
X814327Y158364D01*
X813185Y155605D01*
X810635Y153055D01*
X807303Y151675D01*
X803697Y151675D01*
X800365Y153055D01*
X797815Y155605D01*
X796435Y158937D01*
X796435Y162543D01*
X797815Y165875D01*
X800365Y168425D01*
X803697Y169805D01*
X807303Y169805D01*
X810635Y168425D01*
X813185Y165875D01*
X814327Y163116D01*
X814396Y162996D01*
X814461Y162872D01*
X814475Y162858D01*
X814485Y162840D01*
X814582Y162740D01*
X814675Y162637D01*
X814692Y162626D01*
X814706Y162611D01*
X814824Y162539D01*
X814941Y162462D01*
X814960Y162456D01*
X814977Y162445D01*
X815110Y162404D01*
X815242Y162359D01*
X815262Y162358D01*
X815281Y162352D01*
X815420Y162345D01*
X815559Y162334D01*
X815579Y162337D01*
X815599Y162336D01*
X815735Y162365D01*
X815872Y162388D01*
X815890Y162397D01*
X815910Y162401D01*
X816036Y162462D01*
X816162Y162519D01*
X816178Y162532D01*
X816196Y162540D01*
X816302Y162631D01*
X816410Y162718D01*
X816423Y162734D01*
X816438Y162747D01*
X816518Y162861D01*
X816602Y162972D01*
X816614Y162997D01*
X816621Y163007D01*
X816628Y163026D01*
X816673Y163116D01*
X817815Y165875D01*
X820365Y168425D01*
X823697Y169805D01*
X827303Y169805D01*
X830635Y168425D01*
X833185Y165875D01*
X833765Y164475D01*
X833779Y164449D01*
X833789Y164420D01*
X833858Y164311D01*
X833922Y164199D01*
X833943Y164177D01*
X833959Y164152D01*
X834053Y164063D01*
X834143Y163970D01*
X834169Y163955D01*
X834191Y163934D01*
X834304Y163871D01*
X834415Y163804D01*
X834443Y163795D01*
X834469Y163781D01*
X834595Y163748D01*
X834718Y163710D01*
X834748Y163709D01*
X834777Y163701D01*
X834907Y163701D01*
X835036Y163695D01*
X835065Y163701D01*
X835095Y163701D01*
X835221Y163733D01*
X835348Y163759D01*
X835375Y163773D01*
X835403Y163780D01*
X835517Y163842D01*
X835633Y163899D01*
X835656Y163919D01*
X835682Y163933D01*
X835777Y164021D01*
X835875Y164105D01*
X835893Y164130D01*
X835914Y164150D01*
X835984Y164259D01*
X836058Y164365D01*
X836069Y164394D01*
X836085Y164419D01*
X836144Y164568D01*
X836158Y164610D01*
X836878Y166023D01*
X837811Y167307D01*
X838933Y168429D01*
X840217Y169362D01*
X841630Y170082D01*
X843001Y170527D01*
X843001Y161970D01*
X843016Y161852D01*
X843023Y161733D01*
X843035Y161695D01*
X843041Y161655D01*
X843084Y161544D01*
X843121Y161431D01*
X843143Y161397D01*
X843158Y161359D01*
X843227Y161263D01*
X843291Y161162D01*
X843321Y161134D01*
X843344Y161102D01*
X843436Y161026D01*
X843523Y160944D01*
X843558Y160925D01*
X843589Y160899D01*
X843697Y160848D01*
X843801Y160791D01*
X843841Y160781D01*
X843877Y160763D01*
X843984Y160743D01*
X843954Y160739D01*
X843844Y160695D01*
X843731Y160659D01*
X843696Y160637D01*
X843659Y160622D01*
X843562Y160552D01*
X843462Y160489D01*
X843434Y160459D01*
X843401Y160435D01*
X843325Y160344D01*
X843244Y160257D01*
X843224Y160222D01*
X843199Y160190D01*
X843148Y160083D01*
X843090Y159978D01*
X843080Y159939D01*
X843063Y159903D01*
X843041Y159786D01*
X843011Y159670D01*
X843007Y159610D01*
X843003Y159590D01*
X843005Y159570D01*
X843001Y159510D01*
X843001Y150953D01*
X841630Y151398D01*
G37*
%LPD*%
%LPC*%
G36*
X841630Y196398D02*
X841630Y196398D01*
X840217Y197118D01*
X838933Y198051D01*
X837811Y199173D01*
X836878Y200457D01*
X836158Y201870D01*
X836144Y201912D01*
X836132Y201939D01*
X836125Y201968D01*
X836064Y202082D01*
X836009Y202199D01*
X835990Y202222D01*
X835976Y202249D01*
X835889Y202345D01*
X835806Y202444D01*
X835782Y202462D01*
X835762Y202484D01*
X835654Y202555D01*
X835549Y202632D01*
X835521Y202643D01*
X835496Y202659D01*
X835374Y202701D01*
X835254Y202749D01*
X835224Y202753D01*
X835196Y202762D01*
X835067Y202772D01*
X834938Y202789D01*
X834908Y202785D01*
X834878Y202787D01*
X834751Y202765D01*
X834623Y202749D01*
X834595Y202738D01*
X834565Y202733D01*
X834447Y202680D01*
X834327Y202632D01*
X834303Y202615D01*
X834275Y202602D01*
X834174Y202522D01*
X834069Y202446D01*
X834050Y202423D01*
X834027Y202404D01*
X833949Y202300D01*
X833866Y202201D01*
X833854Y202174D01*
X833836Y202150D01*
X833765Y202005D01*
X833185Y200605D01*
X830635Y198055D01*
X827303Y196675D01*
X823697Y196675D01*
X820365Y198055D01*
X817815Y200605D01*
X816673Y203364D01*
X816604Y203484D01*
X816539Y203608D01*
X816525Y203622D01*
X816515Y203640D01*
X816418Y203740D01*
X816325Y203843D01*
X816308Y203854D01*
X816294Y203869D01*
X816176Y203941D01*
X816059Y204018D01*
X816040Y204024D01*
X816023Y204035D01*
X815890Y204076D01*
X815758Y204121D01*
X815738Y204122D01*
X815719Y204128D01*
X815580Y204135D01*
X815441Y204146D01*
X815421Y204143D01*
X815401Y204144D01*
X815265Y204115D01*
X815128Y204092D01*
X815110Y204083D01*
X815090Y204079D01*
X814964Y204018D01*
X814838Y203961D01*
X814822Y203948D01*
X814804Y203940D01*
X814698Y203849D01*
X814590Y203762D01*
X814577Y203746D01*
X814562Y203733D01*
X814482Y203619D01*
X814398Y203508D01*
X814386Y203483D01*
X814379Y203473D01*
X814372Y203454D01*
X814327Y203364D01*
X813185Y200605D01*
X810635Y198055D01*
X807303Y196675D01*
X803697Y196675D01*
X800365Y198055D01*
X797815Y200605D01*
X796435Y203937D01*
X796435Y207543D01*
X797815Y210875D01*
X800365Y213425D01*
X803697Y214805D01*
X807303Y214805D01*
X810635Y213425D01*
X813185Y210875D01*
X814327Y208116D01*
X814396Y207995D01*
X814461Y207872D01*
X814475Y207857D01*
X814485Y207840D01*
X814582Y207740D01*
X814675Y207637D01*
X814692Y207626D01*
X814706Y207611D01*
X814825Y207539D01*
X814941Y207462D01*
X814960Y207456D01*
X814977Y207445D01*
X815110Y207404D01*
X815242Y207359D01*
X815262Y207358D01*
X815281Y207352D01*
X815420Y207345D01*
X815559Y207334D01*
X815579Y207337D01*
X815599Y207336D01*
X815735Y207365D01*
X815872Y207388D01*
X815891Y207397D01*
X815910Y207401D01*
X816036Y207462D01*
X816162Y207519D01*
X816178Y207532D01*
X816196Y207540D01*
X816302Y207631D01*
X816410Y207718D01*
X816423Y207734D01*
X816438Y207747D01*
X816518Y207860D01*
X816602Y207972D01*
X816614Y207997D01*
X816621Y208007D01*
X816628Y208026D01*
X816673Y208116D01*
X817815Y210875D01*
X820365Y213425D01*
X823697Y214805D01*
X827303Y214805D01*
X830635Y213425D01*
X833185Y210875D01*
X833765Y209475D01*
X833779Y209449D01*
X833789Y209420D01*
X833858Y209311D01*
X833922Y209198D01*
X833943Y209177D01*
X833959Y209152D01*
X834053Y209063D01*
X834143Y208970D01*
X834169Y208954D01*
X834191Y208934D01*
X834304Y208872D01*
X834415Y208804D01*
X834443Y208795D01*
X834469Y208781D01*
X834595Y208748D01*
X834718Y208710D01*
X834748Y208709D01*
X834777Y208701D01*
X834907Y208701D01*
X835036Y208695D01*
X835066Y208701D01*
X835095Y208701D01*
X835220Y208733D01*
X835348Y208759D01*
X835375Y208773D01*
X835403Y208780D01*
X835517Y208842D01*
X835633Y208899D01*
X835656Y208919D01*
X835682Y208933D01*
X835777Y209021D01*
X835875Y209105D01*
X835893Y209130D01*
X835914Y209150D01*
X835984Y209260D01*
X836058Y209365D01*
X836069Y209393D01*
X836085Y209419D01*
X836144Y209568D01*
X836158Y209610D01*
X836878Y211023D01*
X837811Y212307D01*
X838933Y213429D01*
X840217Y214362D01*
X841630Y215082D01*
X843001Y215527D01*
X843001Y206970D01*
X843016Y206852D01*
X843023Y206733D01*
X843035Y206695D01*
X843041Y206655D01*
X843084Y206544D01*
X843121Y206431D01*
X843143Y206397D01*
X843158Y206359D01*
X843228Y206263D01*
X843291Y206162D01*
X843321Y206134D01*
X843344Y206102D01*
X843436Y206026D01*
X843523Y205944D01*
X843558Y205925D01*
X843589Y205899D01*
X843697Y205848D01*
X843801Y205791D01*
X843841Y205781D01*
X843877Y205763D01*
X843984Y205743D01*
X843954Y205739D01*
X843844Y205695D01*
X843731Y205659D01*
X843696Y205637D01*
X843659Y205622D01*
X843562Y205552D01*
X843462Y205489D01*
X843434Y205459D01*
X843401Y205435D01*
X843325Y205344D01*
X843244Y205257D01*
X843224Y205222D01*
X843199Y205190D01*
X843148Y205083D01*
X843090Y204978D01*
X843080Y204939D01*
X843063Y204903D01*
X843041Y204786D01*
X843011Y204670D01*
X843007Y204610D01*
X843003Y204590D01*
X843005Y204570D01*
X843001Y204510D01*
X843001Y195953D01*
X841630Y196398D01*
G37*
%LPD*%
%LPC*%
G36*
X910866Y83062D02*
X910866Y83062D01*
X906998Y84665D01*
X904037Y87625D01*
X902435Y91494D01*
X902435Y95681D01*
X904037Y99549D01*
X906998Y102510D01*
X910866Y104112D01*
X915053Y104112D01*
X918921Y102510D01*
X921882Y99549D01*
X923484Y95681D01*
X923484Y91494D01*
X921882Y87625D01*
X918921Y84665D01*
X915053Y83062D01*
X910866Y83062D01*
G37*
%LPD*%
%LPC*%
G36*
X910866Y33062D02*
X910866Y33062D01*
X906998Y34665D01*
X904037Y37625D01*
X902435Y41494D01*
X902435Y45681D01*
X904037Y49549D01*
X906998Y52510D01*
X910866Y54112D01*
X915053Y54112D01*
X918921Y52510D01*
X921882Y49549D01*
X923484Y45681D01*
X923484Y41494D01*
X921882Y37625D01*
X918921Y34665D01*
X915053Y33062D01*
X910866Y33062D01*
G37*
%LPD*%
%LPC*%
G36*
X1035866Y33062D02*
X1035866Y33062D01*
X1031998Y34665D01*
X1029037Y37625D01*
X1027435Y41494D01*
X1027435Y45681D01*
X1029037Y49549D01*
X1031998Y52510D01*
X1035866Y54112D01*
X1040053Y54112D01*
X1043921Y52510D01*
X1046882Y49549D01*
X1048484Y45681D01*
X1048484Y41494D01*
X1046882Y37625D01*
X1043921Y34665D01*
X1040053Y33062D01*
X1035866Y33062D01*
G37*
%LPD*%
%LPC*%
G36*
X759296Y33062D02*
X759296Y33062D01*
X755427Y34665D01*
X752467Y37625D01*
X750864Y41494D01*
X750864Y45681D01*
X752467Y49549D01*
X755427Y52510D01*
X759296Y54112D01*
X763483Y54112D01*
X767351Y52510D01*
X770312Y49549D01*
X771914Y45681D01*
X771914Y41494D01*
X770312Y37625D01*
X767351Y34665D01*
X763483Y33062D01*
X759296Y33062D01*
G37*
%LPD*%
%LPC*%
G36*
X884296Y33062D02*
X884296Y33062D01*
X880427Y34665D01*
X877467Y37625D01*
X875864Y41494D01*
X875864Y45681D01*
X877467Y49549D01*
X880427Y52510D01*
X884296Y54112D01*
X888483Y54112D01*
X892351Y52510D01*
X895312Y49549D01*
X896914Y45681D01*
X896914Y41494D01*
X895312Y37625D01*
X892351Y34665D01*
X888483Y33062D01*
X884296Y33062D01*
G37*
%LPD*%
%LPC*%
G36*
X759296Y83062D02*
X759296Y83062D01*
X755427Y84665D01*
X752467Y87625D01*
X750864Y91494D01*
X750864Y95681D01*
X752467Y99549D01*
X755427Y102510D01*
X759296Y104112D01*
X763483Y104112D01*
X767351Y102510D01*
X770312Y99549D01*
X771914Y95681D01*
X771914Y91494D01*
X770312Y87625D01*
X767351Y84665D01*
X763483Y83062D01*
X759296Y83062D01*
G37*
%LPD*%
%LPC*%
G36*
X1035866Y83062D02*
X1035866Y83062D01*
X1031998Y84665D01*
X1029037Y87625D01*
X1027435Y91494D01*
X1027435Y95681D01*
X1029037Y99549D01*
X1031998Y102510D01*
X1035866Y104112D01*
X1040053Y104112D01*
X1043921Y102510D01*
X1046882Y99549D01*
X1048484Y95681D01*
X1048484Y91494D01*
X1046882Y87625D01*
X1043921Y84665D01*
X1040053Y83062D01*
X1035866Y83062D01*
G37*
%LPD*%
%LPC*%
G36*
X884296Y83062D02*
X884296Y83062D01*
X880427Y84665D01*
X877467Y87625D01*
X875864Y91494D01*
X875864Y95681D01*
X877467Y99549D01*
X880427Y102510D01*
X884296Y104112D01*
X888483Y104112D01*
X892351Y102510D01*
X895312Y99549D01*
X896914Y95681D01*
X896914Y91494D01*
X895312Y87625D01*
X892351Y84665D01*
X888483Y83062D01*
X884296Y83062D01*
G37*
%LPD*%
%LPC*%
G36*
X681989Y33819D02*
X681989Y33819D01*
X681989Y53744D01*
X683243Y53602D01*
X685718Y53037D01*
X688115Y52199D01*
X690403Y51097D01*
X692552Y49746D01*
X694538Y48163D01*
X696333Y46368D01*
X697916Y44382D01*
X699267Y42233D01*
X700369Y39945D01*
X701207Y37548D01*
X701772Y35073D01*
X701914Y33819D01*
X681989Y33819D01*
G37*
%LPD*%
%LPC*%
G36*
X728989Y63819D02*
X728989Y63819D01*
X728989Y83744D01*
X730243Y83602D01*
X732718Y83037D01*
X735115Y82199D01*
X737403Y81097D01*
X739552Y79746D01*
X741538Y78163D01*
X743333Y76368D01*
X744916Y74382D01*
X746267Y72233D01*
X747369Y69945D01*
X748207Y67548D01*
X748772Y65073D01*
X748914Y63819D01*
X728989Y63819D01*
G37*
%LPD*%
%LPC*%
G36*
X681989Y28741D02*
X681989Y28741D01*
X701914Y28741D01*
X701772Y27487D01*
X701207Y25012D01*
X700369Y22615D01*
X699267Y20327D01*
X697916Y18178D01*
X696333Y16192D01*
X694538Y14397D01*
X692552Y12814D01*
X690403Y11463D01*
X688115Y10361D01*
X685718Y9523D01*
X683243Y8958D01*
X681989Y8816D01*
X681989Y28741D01*
G37*
%LPD*%
%LPC*%
G36*
X728989Y58741D02*
X728989Y58741D01*
X748914Y58741D01*
X748772Y57487D01*
X748207Y55012D01*
X747369Y52615D01*
X746267Y50327D01*
X744916Y48178D01*
X743333Y46192D01*
X741538Y44397D01*
X739552Y42814D01*
X737403Y41463D01*
X735115Y40361D01*
X732718Y39523D01*
X730243Y38958D01*
X728989Y38816D01*
X728989Y58741D01*
G37*
%LPD*%
%LPC*%
G36*
X656986Y33819D02*
X656986Y33819D01*
X657128Y35073D01*
X657693Y37548D01*
X658531Y39945D01*
X659633Y42233D01*
X660984Y44382D01*
X662567Y46368D01*
X664362Y48163D01*
X666348Y49746D01*
X668497Y51097D01*
X670785Y52199D01*
X673182Y53037D01*
X675657Y53602D01*
X676911Y53744D01*
X676911Y33819D01*
X656986Y33819D01*
G37*
%LPD*%
%LPC*%
G36*
X703986Y63819D02*
X703986Y63819D01*
X704128Y65073D01*
X704693Y67548D01*
X705531Y69945D01*
X706633Y72233D01*
X707984Y74382D01*
X709567Y76368D01*
X711362Y78163D01*
X713348Y79746D01*
X715497Y81097D01*
X717785Y82199D01*
X720182Y83037D01*
X722657Y83602D01*
X723911Y83744D01*
X723911Y63819D01*
X703986Y63819D01*
G37*
%LPD*%
%LPC*%
G36*
X675657Y8958D02*
X675657Y8958D01*
X673182Y9523D01*
X670785Y10361D01*
X668497Y11463D01*
X666348Y12814D01*
X664362Y14397D01*
X662567Y16192D01*
X660984Y18178D01*
X659633Y20327D01*
X658531Y22615D01*
X657693Y25012D01*
X657128Y27487D01*
X656986Y28741D01*
X676911Y28741D01*
X676911Y8816D01*
X675657Y8958D01*
G37*
%LPD*%
%LPC*%
G36*
X722657Y38958D02*
X722657Y38958D01*
X720182Y39523D01*
X717785Y40361D01*
X715497Y41463D01*
X713348Y42814D01*
X711362Y44397D01*
X709567Y46192D01*
X707984Y48178D01*
X706633Y50327D01*
X705531Y52615D01*
X704693Y55012D01*
X704128Y57487D01*
X703986Y58741D01*
X723911Y58741D01*
X723911Y38816D01*
X722657Y38958D01*
G37*
%LPD*%
%LPC*%
G36*
X56601Y166061D02*
X56601Y166061D01*
X53240Y167453D01*
X50667Y170026D01*
X49275Y173387D01*
X49275Y177025D01*
X50667Y180386D01*
X53240Y182958D01*
X56601Y184350D01*
X60239Y184350D01*
X63600Y182958D01*
X66173Y180386D01*
X67565Y177025D01*
X67565Y173387D01*
X66173Y170026D01*
X63600Y167453D01*
X60239Y166061D01*
X56601Y166061D01*
G37*
%LPD*%
%LPC*%
G36*
X220362Y178761D02*
X220362Y178761D01*
X217001Y180153D01*
X214428Y182726D01*
X213036Y186087D01*
X213036Y189725D01*
X214428Y193086D01*
X217001Y195658D01*
X220362Y197050D01*
X224000Y197050D01*
X227361Y195658D01*
X229933Y193086D01*
X231325Y189725D01*
X231325Y186087D01*
X229933Y182726D01*
X227361Y180153D01*
X224000Y178761D01*
X220362Y178761D01*
G37*
%LPD*%
%LPC*%
G36*
X31201Y412550D02*
X31201Y412550D01*
X27840Y413942D01*
X25267Y416514D01*
X23875Y419875D01*
X23875Y423513D01*
X25267Y426874D01*
X27840Y429447D01*
X31201Y430839D01*
X34839Y430839D01*
X38200Y429447D01*
X40773Y426874D01*
X42165Y423513D01*
X42165Y419875D01*
X40773Y416514D01*
X38200Y413942D01*
X34839Y412550D01*
X31201Y412550D01*
G37*
%LPD*%
%LPC*%
G36*
X222902Y407361D02*
X222902Y407361D01*
X219541Y408753D01*
X216968Y411326D01*
X215576Y414687D01*
X215576Y418325D01*
X216968Y421686D01*
X219541Y424258D01*
X222902Y425650D01*
X226540Y425650D01*
X229901Y424258D01*
X232473Y421686D01*
X233865Y418325D01*
X233865Y414687D01*
X232473Y411326D01*
X229901Y408753D01*
X226540Y407361D01*
X222902Y407361D01*
G37*
%LPD*%
%LPC*%
G36*
X134002Y407361D02*
X134002Y407361D01*
X130641Y408753D01*
X128068Y411326D01*
X126676Y414687D01*
X126676Y418325D01*
X128068Y421686D01*
X130641Y424258D01*
X134002Y425650D01*
X137640Y425650D01*
X141001Y424258D01*
X143573Y421686D01*
X144965Y418325D01*
X144965Y414687D01*
X143573Y411326D01*
X141001Y408753D01*
X137640Y407361D01*
X134002Y407361D01*
G37*
%LPD*%
%LPC*%
G36*
X56601Y387150D02*
X56601Y387150D01*
X53240Y388542D01*
X50667Y391114D01*
X49275Y394475D01*
X49275Y398113D01*
X50667Y401474D01*
X53240Y404047D01*
X56601Y405439D01*
X60239Y405439D01*
X63600Y404047D01*
X66173Y401474D01*
X67565Y398113D01*
X67565Y394475D01*
X66173Y391114D01*
X63600Y388542D01*
X60239Y387150D01*
X56601Y387150D01*
G37*
%LPD*%
%LPC*%
G36*
X31201Y387150D02*
X31201Y387150D01*
X27840Y388542D01*
X25267Y391114D01*
X23875Y394475D01*
X23875Y398113D01*
X25267Y401474D01*
X27840Y404047D01*
X31201Y405439D01*
X34839Y405439D01*
X38200Y404047D01*
X40773Y401474D01*
X42165Y398113D01*
X42165Y394475D01*
X40773Y391114D01*
X38200Y388542D01*
X34839Y387150D01*
X31201Y387150D01*
G37*
%LPD*%
%LPC*%
G36*
X131462Y381961D02*
X131462Y381961D01*
X128101Y383353D01*
X125528Y385926D01*
X124136Y389287D01*
X124136Y392925D01*
X125528Y396286D01*
X128101Y398858D01*
X131462Y400250D01*
X135100Y400250D01*
X138461Y398858D01*
X141033Y396286D01*
X142425Y392925D01*
X142425Y389287D01*
X141033Y385926D01*
X138461Y383353D01*
X135100Y381961D01*
X131462Y381961D01*
G37*
%LPD*%
%LPC*%
G36*
X31201Y293061D02*
X31201Y293061D01*
X27840Y294453D01*
X25267Y297026D01*
X23875Y300387D01*
X23875Y304025D01*
X25267Y307386D01*
X27840Y309958D01*
X31201Y311350D01*
X34839Y311350D01*
X38200Y309958D01*
X40773Y307386D01*
X42165Y304025D01*
X42165Y300387D01*
X40773Y297026D01*
X38200Y294453D01*
X34839Y293061D01*
X31201Y293061D01*
G37*
%LPD*%
%LPC*%
G36*
X134002Y280361D02*
X134002Y280361D01*
X130641Y281753D01*
X128068Y284326D01*
X126676Y287687D01*
X126676Y291325D01*
X128068Y294686D01*
X130641Y297258D01*
X134002Y298650D01*
X137640Y298650D01*
X141001Y297258D01*
X143573Y294686D01*
X144965Y291325D01*
X144965Y287687D01*
X143573Y284326D01*
X141001Y281753D01*
X137640Y280361D01*
X134002Y280361D01*
G37*
%LPD*%
%LPC*%
G36*
X131462Y254961D02*
X131462Y254961D01*
X128101Y256353D01*
X125528Y258926D01*
X124136Y262287D01*
X124136Y265925D01*
X125528Y269286D01*
X128101Y271858D01*
X131462Y273250D01*
X135100Y273250D01*
X138461Y271858D01*
X141033Y269286D01*
X142425Y265925D01*
X142425Y262287D01*
X141033Y258926D01*
X138461Y256353D01*
X135100Y254961D01*
X131462Y254961D01*
G37*
%LPD*%
%LPC*%
G36*
X31201Y267661D02*
X31201Y267661D01*
X27840Y269053D01*
X25267Y271626D01*
X23875Y274987D01*
X23875Y278625D01*
X25267Y281986D01*
X27840Y284558D01*
X31201Y285950D01*
X34839Y285950D01*
X38200Y284558D01*
X40773Y281986D01*
X42165Y278625D01*
X42165Y274987D01*
X40773Y271626D01*
X38200Y269053D01*
X34839Y267661D01*
X31201Y267661D01*
G37*
%LPD*%
%LPC*%
G36*
X56601Y267661D02*
X56601Y267661D01*
X53240Y269053D01*
X50667Y271626D01*
X49275Y274987D01*
X49275Y278625D01*
X50667Y281986D01*
X53240Y284558D01*
X56601Y285950D01*
X60239Y285950D01*
X63600Y284558D01*
X66173Y281986D01*
X67565Y278625D01*
X67565Y274987D01*
X66173Y271626D01*
X63600Y269053D01*
X60239Y267661D01*
X56601Y267661D01*
G37*
%LPD*%
%LPC*%
G36*
X56601Y336350D02*
X56601Y336350D01*
X53240Y337742D01*
X50667Y340314D01*
X49275Y343675D01*
X49275Y347313D01*
X50667Y350674D01*
X53240Y353247D01*
X56601Y354639D01*
X60239Y354639D01*
X63600Y353247D01*
X66173Y350674D01*
X67565Y347313D01*
X67565Y343675D01*
X66173Y340314D01*
X63600Y337742D01*
X60239Y336350D01*
X56601Y336350D01*
G37*
%LPD*%
%LPC*%
G36*
X31201Y336350D02*
X31201Y336350D01*
X27840Y337742D01*
X25267Y340314D01*
X23875Y343675D01*
X23875Y347313D01*
X25267Y350674D01*
X27840Y353247D01*
X31201Y354639D01*
X34839Y354639D01*
X38200Y353247D01*
X40773Y350674D01*
X42165Y347313D01*
X42165Y343675D01*
X40773Y340314D01*
X38200Y337742D01*
X34839Y336350D01*
X31201Y336350D01*
G37*
%LPD*%
%LPC*%
G36*
X220362Y331161D02*
X220362Y331161D01*
X217001Y332553D01*
X214428Y335126D01*
X213036Y338487D01*
X213036Y342125D01*
X214428Y345486D01*
X217001Y348058D01*
X220362Y349450D01*
X224000Y349450D01*
X227361Y348058D01*
X229933Y345486D01*
X231325Y342125D01*
X231325Y338487D01*
X229933Y335126D01*
X227361Y332553D01*
X224000Y331161D01*
X220362Y331161D01*
G37*
%LPD*%
%LPC*%
G36*
X134002Y331161D02*
X134002Y331161D01*
X130641Y332553D01*
X128068Y335126D01*
X126676Y338487D01*
X126676Y342125D01*
X128068Y345486D01*
X130641Y348058D01*
X134002Y349450D01*
X137640Y349450D01*
X141001Y348058D01*
X143573Y345486D01*
X144965Y342125D01*
X144965Y338487D01*
X143573Y335126D01*
X141001Y332553D01*
X137640Y331161D01*
X134002Y331161D01*
G37*
%LPD*%
%LPC*%
G36*
X131462Y178761D02*
X131462Y178761D01*
X128101Y180153D01*
X125528Y182726D01*
X124136Y186087D01*
X124136Y189725D01*
X125528Y193086D01*
X128101Y195658D01*
X131462Y197050D01*
X135100Y197050D01*
X138461Y195658D01*
X141033Y193086D01*
X142425Y189725D01*
X142425Y186087D01*
X141033Y182726D01*
X138461Y180153D01*
X135100Y178761D01*
X131462Y178761D01*
G37*
%LPD*%
%LPC*%
G36*
X31201Y166061D02*
X31201Y166061D01*
X27840Y167453D01*
X25267Y170026D01*
X23875Y173387D01*
X23875Y177025D01*
X25267Y180386D01*
X27840Y182958D01*
X31201Y184350D01*
X34839Y184350D01*
X38200Y182958D01*
X40773Y180386D01*
X42165Y177025D01*
X42165Y173387D01*
X40773Y170026D01*
X38200Y167453D01*
X34839Y166061D01*
X31201Y166061D01*
G37*
%LPD*%
%LPC*%
G36*
X134002Y153361D02*
X134002Y153361D01*
X130641Y154753D01*
X128068Y157326D01*
X126676Y160687D01*
X126676Y164325D01*
X128068Y167686D01*
X130641Y170258D01*
X134002Y171650D01*
X137640Y171650D01*
X141001Y170258D01*
X143573Y167686D01*
X144965Y164325D01*
X144965Y160687D01*
X143573Y157326D01*
X141001Y154753D01*
X137640Y153361D01*
X134002Y153361D01*
G37*
%LPD*%
%LPC*%
G36*
X638261Y516635D02*
X638261Y516635D01*
X634900Y518027D01*
X632327Y520600D01*
X630935Y523961D01*
X630935Y527599D01*
X632327Y530960D01*
X634900Y533533D01*
X638261Y534925D01*
X641899Y534925D01*
X645260Y533533D01*
X647833Y530960D01*
X649225Y527599D01*
X649225Y523961D01*
X647833Y520600D01*
X645260Y518027D01*
X641899Y516635D01*
X638261Y516635D01*
G37*
%LPD*%
%LPC*%
G36*
X612861Y516635D02*
X612861Y516635D01*
X609500Y518027D01*
X606927Y520600D01*
X605535Y523961D01*
X605535Y527599D01*
X606927Y530960D01*
X609500Y533533D01*
X612861Y534925D01*
X616499Y534925D01*
X619860Y533533D01*
X622433Y530960D01*
X623825Y527599D01*
X623825Y523961D01*
X622433Y520600D01*
X619860Y518027D01*
X616499Y516635D01*
X612861Y516635D01*
G37*
%LPD*%
%LPC*%
G36*
X587461Y516635D02*
X587461Y516635D01*
X584100Y518027D01*
X581527Y520600D01*
X580135Y523961D01*
X580135Y527599D01*
X581527Y530960D01*
X584100Y533533D01*
X587461Y534925D01*
X591099Y534925D01*
X594460Y533533D01*
X597033Y530960D01*
X598425Y527599D01*
X598425Y523961D01*
X597033Y520600D01*
X594460Y518027D01*
X591099Y516635D01*
X587461Y516635D01*
G37*
%LPD*%
%LPC*%
G36*
X131462Y127961D02*
X131462Y127961D01*
X128101Y129353D01*
X125528Y131926D01*
X124136Y135287D01*
X124136Y138925D01*
X125528Y142286D01*
X128101Y144858D01*
X131462Y146250D01*
X135100Y146250D01*
X138461Y144858D01*
X141033Y142286D01*
X142425Y138925D01*
X142425Y135287D01*
X141033Y131926D01*
X138461Y129353D01*
X135100Y127961D01*
X131462Y127961D01*
G37*
%LPD*%
%LPC*%
G36*
X334662Y111451D02*
X334662Y111451D01*
X331301Y112843D01*
X328728Y115416D01*
X327336Y118777D01*
X327336Y122415D01*
X328728Y125776D01*
X331301Y128348D01*
X334662Y129740D01*
X338300Y129740D01*
X341661Y128348D01*
X344233Y125776D01*
X345625Y122415D01*
X345625Y118777D01*
X344233Y115416D01*
X341661Y112843D01*
X338300Y111451D01*
X334662Y111451D01*
G37*
%LPD*%
%LPC*%
G36*
X306722Y111451D02*
X306722Y111451D01*
X303361Y112843D01*
X300788Y115416D01*
X299396Y118777D01*
X299396Y122415D01*
X300788Y125776D01*
X303361Y128348D01*
X306722Y129740D01*
X310360Y129740D01*
X313721Y128348D01*
X316293Y125776D01*
X317685Y122415D01*
X317685Y118777D01*
X316293Y115416D01*
X313721Y112843D01*
X310360Y111451D01*
X306722Y111451D01*
G37*
%LPD*%
%LPC*%
G36*
X578571Y21335D02*
X578571Y21335D01*
X575210Y22727D01*
X572637Y25300D01*
X571245Y28661D01*
X571245Y32299D01*
X572637Y35660D01*
X575210Y38233D01*
X578571Y39625D01*
X582209Y39625D01*
X585570Y38233D01*
X588143Y35660D01*
X589535Y32299D01*
X589535Y28661D01*
X588143Y25300D01*
X585570Y22727D01*
X582209Y21335D01*
X578571Y21335D01*
G37*
%LPD*%
%LPC*%
G36*
X222902Y305761D02*
X222902Y305761D01*
X219541Y307153D01*
X216968Y309726D01*
X215576Y313087D01*
X215576Y316725D01*
X216968Y320086D01*
X219541Y322658D01*
X222902Y324050D01*
X226540Y324050D01*
X229901Y322658D01*
X232473Y320086D01*
X233865Y316725D01*
X233865Y313087D01*
X232473Y309726D01*
X229901Y307153D01*
X226540Y305761D01*
X222902Y305761D01*
G37*
%LPD*%
%LPC*%
G36*
X222902Y204161D02*
X222902Y204161D01*
X219541Y205553D01*
X216968Y208126D01*
X215576Y211487D01*
X215576Y215125D01*
X216968Y218486D01*
X219541Y221058D01*
X222902Y222450D01*
X226540Y222450D01*
X229901Y221058D01*
X232473Y218486D01*
X233865Y215125D01*
X233865Y211487D01*
X232473Y208126D01*
X229901Y205553D01*
X226540Y204161D01*
X222902Y204161D01*
G37*
%LPD*%
%LPC*%
G36*
X134002Y204161D02*
X134002Y204161D01*
X130641Y205553D01*
X128068Y208126D01*
X126676Y211487D01*
X126676Y215125D01*
X128068Y218486D01*
X130641Y221058D01*
X134002Y222450D01*
X137640Y222450D01*
X141001Y221058D01*
X143573Y218486D01*
X144965Y215125D01*
X144965Y211487D01*
X143573Y208126D01*
X141001Y205553D01*
X137640Y204161D01*
X134002Y204161D01*
G37*
%LPD*%
%LPC*%
G36*
X31201Y216861D02*
X31201Y216861D01*
X27840Y218253D01*
X25267Y220826D01*
X23875Y224187D01*
X23875Y227825D01*
X25267Y231186D01*
X27840Y233758D01*
X31201Y235150D01*
X34839Y235150D01*
X38200Y233758D01*
X40773Y231186D01*
X42165Y227825D01*
X42165Y224187D01*
X40773Y220826D01*
X38200Y218253D01*
X34839Y216861D01*
X31201Y216861D01*
G37*
%LPD*%
%LPC*%
G36*
X56601Y216861D02*
X56601Y216861D01*
X53240Y218253D01*
X50667Y220826D01*
X49275Y224187D01*
X49275Y227825D01*
X50667Y231186D01*
X53240Y233758D01*
X56601Y235150D01*
X60239Y235150D01*
X63600Y233758D01*
X66173Y231186D01*
X67565Y227825D01*
X67565Y224187D01*
X66173Y220826D01*
X63600Y218253D01*
X60239Y216861D01*
X56601Y216861D01*
G37*
%LPD*%
%LPC*%
G36*
X56601Y463350D02*
X56601Y463350D01*
X53240Y464742D01*
X50667Y467314D01*
X49275Y470675D01*
X49275Y474313D01*
X50667Y477674D01*
X53240Y480247D01*
X56601Y481639D01*
X60239Y481639D01*
X63600Y480247D01*
X66173Y477674D01*
X67565Y474313D01*
X67565Y470675D01*
X66173Y467314D01*
X63600Y464742D01*
X60239Y463350D01*
X56601Y463350D01*
G37*
%LPD*%
%LPC*%
G36*
X31201Y463350D02*
X31201Y463350D01*
X27840Y464742D01*
X25267Y467314D01*
X23875Y470675D01*
X23875Y474313D01*
X25267Y477674D01*
X27840Y480247D01*
X31201Y481639D01*
X34839Y481639D01*
X38200Y480247D01*
X40773Y477674D01*
X42165Y474313D01*
X42165Y470675D01*
X40773Y467314D01*
X38200Y464742D01*
X34839Y463350D01*
X31201Y463350D01*
G37*
%LPD*%
%LPC*%
G36*
X131462Y305761D02*
X131462Y305761D01*
X128101Y307153D01*
X125528Y309726D01*
X124136Y313087D01*
X124136Y316725D01*
X125528Y320086D01*
X128101Y322658D01*
X131462Y324050D01*
X135100Y324050D01*
X138461Y322658D01*
X141033Y320086D01*
X142425Y316725D01*
X142425Y313087D01*
X141033Y309726D01*
X138461Y307153D01*
X135100Y305761D01*
X131462Y305761D01*
G37*
%LPD*%
%LPC*%
G36*
X220362Y229561D02*
X220362Y229561D01*
X217001Y230953D01*
X214428Y233526D01*
X213036Y236887D01*
X213036Y240525D01*
X214428Y243886D01*
X217001Y246458D01*
X220362Y247850D01*
X224000Y247850D01*
X227361Y246458D01*
X229933Y243886D01*
X231325Y240525D01*
X231325Y236887D01*
X229933Y233526D01*
X227361Y230953D01*
X224000Y229561D01*
X220362Y229561D01*
G37*
%LPD*%
%LPC*%
G36*
X31201Y242261D02*
X31201Y242261D01*
X27840Y243653D01*
X25267Y246226D01*
X23875Y249587D01*
X23875Y253225D01*
X25267Y256586D01*
X27840Y259158D01*
X31201Y260550D01*
X34839Y260550D01*
X38200Y259158D01*
X40773Y256586D01*
X42165Y253225D01*
X42165Y249587D01*
X40773Y246226D01*
X38200Y243653D01*
X34839Y242261D01*
X31201Y242261D01*
G37*
%LPD*%
%LPC*%
G36*
X56601Y242261D02*
X56601Y242261D01*
X53240Y243653D01*
X50667Y246226D01*
X49275Y249587D01*
X49275Y253225D01*
X50667Y256586D01*
X53240Y259158D01*
X56601Y260550D01*
X60239Y260550D01*
X63600Y259158D01*
X66173Y256586D01*
X67565Y253225D01*
X67565Y249587D01*
X66173Y246226D01*
X63600Y243653D01*
X60239Y242261D01*
X56601Y242261D01*
G37*
%LPD*%
%LPC*%
G36*
X56601Y293061D02*
X56601Y293061D01*
X53240Y294453D01*
X50667Y297026D01*
X49275Y300387D01*
X49275Y304025D01*
X50667Y307386D01*
X53240Y309958D01*
X56601Y311350D01*
X60239Y311350D01*
X63600Y309958D01*
X66173Y307386D01*
X67565Y304025D01*
X67565Y300387D01*
X66173Y297026D01*
X63600Y294453D01*
X60239Y293061D01*
X56601Y293061D01*
G37*
%LPD*%
%LPC*%
G36*
X56601Y437950D02*
X56601Y437950D01*
X53240Y439342D01*
X50667Y441914D01*
X49275Y445275D01*
X49275Y448913D01*
X50667Y452274D01*
X53240Y454847D01*
X56601Y456239D01*
X60239Y456239D01*
X63600Y454847D01*
X66173Y452274D01*
X67565Y448913D01*
X67565Y445275D01*
X66173Y441914D01*
X63600Y439342D01*
X60239Y437950D01*
X56601Y437950D01*
G37*
%LPD*%
%LPC*%
G36*
X31201Y437950D02*
X31201Y437950D01*
X27840Y439342D01*
X25267Y441914D01*
X23875Y445275D01*
X23875Y448913D01*
X25267Y452274D01*
X27840Y454847D01*
X31201Y456239D01*
X34839Y456239D01*
X38200Y454847D01*
X40773Y452274D01*
X42165Y448913D01*
X42165Y445275D01*
X40773Y441914D01*
X38200Y439342D01*
X34839Y437950D01*
X31201Y437950D01*
G37*
%LPD*%
%LPC*%
G36*
X220362Y432761D02*
X220362Y432761D01*
X217001Y434153D01*
X214428Y436726D01*
X213036Y440087D01*
X213036Y443725D01*
X214428Y447086D01*
X217001Y449658D01*
X220362Y451050D01*
X224000Y451050D01*
X227361Y449658D01*
X229933Y447086D01*
X231325Y443725D01*
X231325Y440087D01*
X229933Y436726D01*
X227361Y434153D01*
X224000Y432761D01*
X220362Y432761D01*
G37*
%LPD*%
%LPC*%
G36*
X131462Y432761D02*
X131462Y432761D01*
X128101Y434153D01*
X125528Y436726D01*
X124136Y440087D01*
X124136Y443725D01*
X125528Y447086D01*
X128101Y449658D01*
X131462Y451050D01*
X135100Y451050D01*
X138461Y449658D01*
X141033Y447086D01*
X142425Y443725D01*
X142425Y440087D01*
X141033Y436726D01*
X138461Y434153D01*
X135100Y432761D01*
X131462Y432761D01*
G37*
%LPD*%
%LPC*%
G36*
X56601Y412550D02*
X56601Y412550D01*
X53240Y413942D01*
X50667Y416514D01*
X49275Y419875D01*
X49275Y423513D01*
X50667Y426874D01*
X53240Y429447D01*
X56601Y430839D01*
X60239Y430839D01*
X63600Y429447D01*
X66173Y426874D01*
X67565Y423513D01*
X67565Y419875D01*
X66173Y416514D01*
X63600Y413942D01*
X60239Y412550D01*
X56601Y412550D01*
G37*
%LPD*%
%LPC*%
G36*
X587542Y550200D02*
X587542Y550200D01*
X584210Y551580D01*
X581660Y554130D01*
X580280Y557462D01*
X580280Y561068D01*
X581660Y564399D01*
X584210Y566949D01*
X587542Y568329D01*
X591148Y568329D01*
X594479Y566949D01*
X597029Y564399D01*
X598409Y561068D01*
X598409Y557462D01*
X597029Y554130D01*
X594479Y551580D01*
X591148Y550200D01*
X587542Y550200D01*
G37*
%LPD*%
%LPC*%
G36*
X511342Y550200D02*
X511342Y550200D01*
X508010Y551580D01*
X505460Y554130D01*
X504080Y557462D01*
X504080Y561068D01*
X505460Y564399D01*
X508010Y566949D01*
X511342Y568329D01*
X514948Y568329D01*
X518279Y566949D01*
X520829Y564399D01*
X522209Y561068D01*
X522209Y557462D01*
X520829Y554130D01*
X518279Y551580D01*
X514948Y550200D01*
X511342Y550200D01*
G37*
%LPD*%
%LPC*%
G36*
X739942Y550200D02*
X739942Y550200D01*
X736610Y551580D01*
X734060Y554130D01*
X732680Y557462D01*
X732680Y561068D01*
X734060Y564399D01*
X736610Y566949D01*
X739942Y568329D01*
X743548Y568329D01*
X746879Y566949D01*
X749429Y564399D01*
X750809Y561068D01*
X750809Y557462D01*
X749429Y554130D01*
X746879Y551580D01*
X743548Y550200D01*
X739942Y550200D01*
G37*
%LPD*%
%LPC*%
G36*
X714542Y550200D02*
X714542Y550200D01*
X711210Y551580D01*
X708660Y554130D01*
X707280Y557462D01*
X707280Y561068D01*
X708660Y564399D01*
X711210Y566949D01*
X714542Y568329D01*
X718148Y568329D01*
X721479Y566949D01*
X724029Y564399D01*
X725409Y561068D01*
X725409Y557462D01*
X724029Y554130D01*
X721479Y551580D01*
X718148Y550200D01*
X714542Y550200D01*
G37*
%LPD*%
%LPC*%
G36*
X689142Y550200D02*
X689142Y550200D01*
X685810Y551580D01*
X683260Y554130D01*
X681880Y557462D01*
X681880Y561068D01*
X683260Y564399D01*
X685810Y566949D01*
X689142Y568329D01*
X692748Y568329D01*
X696079Y566949D01*
X698629Y564399D01*
X700009Y561068D01*
X700009Y557462D01*
X698629Y554130D01*
X696079Y551580D01*
X692748Y550200D01*
X689142Y550200D01*
G37*
%LPD*%
%LPC*%
G36*
X409742Y550200D02*
X409742Y550200D01*
X406410Y551580D01*
X403860Y554130D01*
X402480Y557462D01*
X402480Y561068D01*
X403860Y564399D01*
X406410Y566949D01*
X409742Y568329D01*
X413348Y568329D01*
X416679Y566949D01*
X419229Y564399D01*
X420609Y561068D01*
X420609Y557462D01*
X419229Y554130D01*
X416679Y551580D01*
X413348Y550200D01*
X409742Y550200D01*
G37*
%LPD*%
%LPC*%
G36*
X384342Y550200D02*
X384342Y550200D01*
X381010Y551580D01*
X378460Y554130D01*
X377080Y557462D01*
X377080Y561068D01*
X378460Y564399D01*
X381010Y566949D01*
X384342Y568329D01*
X387948Y568329D01*
X391279Y566949D01*
X393829Y564399D01*
X395209Y561068D01*
X395209Y557462D01*
X393829Y554130D01*
X391279Y551580D01*
X387948Y550200D01*
X384342Y550200D01*
G37*
%LPD*%
%LPC*%
G36*
X663742Y550200D02*
X663742Y550200D01*
X660410Y551580D01*
X657860Y554130D01*
X656480Y557462D01*
X656480Y561068D01*
X657860Y564399D01*
X660410Y566949D01*
X663742Y568329D01*
X667348Y568329D01*
X670679Y566949D01*
X673229Y564399D01*
X674609Y561068D01*
X674609Y557462D01*
X673229Y554130D01*
X670679Y551580D01*
X667348Y550200D01*
X663742Y550200D01*
G37*
%LPD*%
%LPC*%
G36*
X612942Y550200D02*
X612942Y550200D01*
X609610Y551580D01*
X607060Y554130D01*
X605680Y557462D01*
X605680Y561068D01*
X607060Y564399D01*
X609610Y566949D01*
X612942Y568329D01*
X616548Y568329D01*
X619879Y566949D01*
X622429Y564399D01*
X623809Y561068D01*
X623809Y557462D01*
X622429Y554130D01*
X619879Y551580D01*
X616548Y550200D01*
X612942Y550200D01*
G37*
%LPD*%
%LPC*%
G36*
X562142Y550200D02*
X562142Y550200D01*
X558810Y551580D01*
X556260Y554130D01*
X554880Y557462D01*
X554880Y561068D01*
X556260Y564399D01*
X558810Y566949D01*
X562142Y568329D01*
X565748Y568329D01*
X569079Y566949D01*
X571629Y564399D01*
X573009Y561068D01*
X573009Y557462D01*
X571629Y554130D01*
X569079Y551580D01*
X565748Y550200D01*
X562142Y550200D01*
G37*
%LPD*%
%LPC*%
G36*
X638342Y550200D02*
X638342Y550200D01*
X635010Y551580D01*
X632460Y554130D01*
X631080Y557462D01*
X631080Y561068D01*
X632460Y564399D01*
X635010Y566949D01*
X638342Y568329D01*
X641948Y568329D01*
X645279Y566949D01*
X647829Y564399D01*
X649209Y561068D01*
X649209Y557462D01*
X647829Y554130D01*
X645279Y551580D01*
X641948Y550200D01*
X638342Y550200D01*
G37*
%LPD*%
%LPC*%
G36*
X536742Y550200D02*
X536742Y550200D01*
X533410Y551580D01*
X530860Y554130D01*
X529480Y557462D01*
X529480Y561068D01*
X530860Y564399D01*
X533410Y566949D01*
X536742Y568329D01*
X540348Y568329D01*
X543679Y566949D01*
X546229Y564399D01*
X547609Y561068D01*
X547609Y557462D01*
X546229Y554130D01*
X543679Y551580D01*
X540348Y550200D01*
X536742Y550200D01*
G37*
%LPD*%
%LPC*%
G36*
X485942Y550200D02*
X485942Y550200D01*
X482610Y551580D01*
X480060Y554130D01*
X478680Y557462D01*
X478680Y561068D01*
X480060Y564399D01*
X482610Y566949D01*
X485942Y568329D01*
X489548Y568329D01*
X492879Y566949D01*
X495429Y564399D01*
X496809Y561068D01*
X496809Y557462D01*
X495429Y554130D01*
X492879Y551580D01*
X489548Y550200D01*
X485942Y550200D01*
G37*
%LPD*%
%LPC*%
G36*
X460542Y550200D02*
X460542Y550200D01*
X457210Y551580D01*
X454660Y554130D01*
X453280Y557462D01*
X453280Y561068D01*
X454660Y564399D01*
X457210Y566949D01*
X460542Y568329D01*
X464148Y568329D01*
X467479Y566949D01*
X470029Y564399D01*
X471409Y561068D01*
X471409Y557462D01*
X470029Y554130D01*
X467479Y551580D01*
X464148Y550200D01*
X460542Y550200D01*
G37*
%LPD*%
%LPC*%
G36*
X435142Y550200D02*
X435142Y550200D01*
X431810Y551580D01*
X429260Y554130D01*
X427880Y557462D01*
X427880Y561068D01*
X429260Y564399D01*
X431810Y566949D01*
X435142Y568329D01*
X438748Y568329D01*
X442079Y566949D01*
X444629Y564399D01*
X446009Y561068D01*
X446009Y557462D01*
X444629Y554130D01*
X442079Y551580D01*
X438748Y550200D01*
X435142Y550200D01*
G37*
%LPD*%
%LPC*%
G36*
X56548Y509041D02*
X56548Y509041D01*
X53216Y510421D01*
X50666Y512971D01*
X49286Y516303D01*
X49286Y519909D01*
X50666Y523240D01*
X53216Y525790D01*
X56548Y527170D01*
X60154Y527170D01*
X63485Y525790D01*
X66035Y523240D01*
X67415Y519909D01*
X67415Y516303D01*
X66035Y512971D01*
X63485Y510421D01*
X60154Y509041D01*
X56548Y509041D01*
G37*
%LPD*%
%LPC*%
G36*
X81948Y509041D02*
X81948Y509041D01*
X78616Y510421D01*
X76066Y512971D01*
X74686Y516303D01*
X74686Y519909D01*
X76066Y523240D01*
X78616Y525790D01*
X81948Y527170D01*
X85554Y527170D01*
X88885Y525790D01*
X91435Y523240D01*
X92815Y519909D01*
X92815Y516303D01*
X91435Y512971D01*
X88885Y510421D01*
X85554Y509041D01*
X81948Y509041D01*
G37*
%LPD*%
%LPC*%
G36*
X376588Y26441D02*
X376588Y26441D01*
X373256Y27821D01*
X370706Y30371D01*
X369326Y33703D01*
X369326Y37309D01*
X370706Y40640D01*
X373256Y43190D01*
X376588Y44570D01*
X380194Y44570D01*
X383525Y43190D01*
X386075Y40640D01*
X387455Y37309D01*
X387455Y33703D01*
X386075Y30371D01*
X383525Y27821D01*
X380194Y26441D01*
X376588Y26441D01*
G37*
%LPD*%
%LPC*%
G36*
X132748Y509041D02*
X132748Y509041D01*
X129416Y510421D01*
X126866Y512971D01*
X125486Y516303D01*
X125486Y519909D01*
X126866Y523240D01*
X129416Y525790D01*
X132748Y527170D01*
X136354Y527170D01*
X139685Y525790D01*
X142235Y523240D01*
X143615Y519909D01*
X143615Y516303D01*
X142235Y512971D01*
X139685Y510421D01*
X136354Y509041D01*
X132748Y509041D01*
G37*
%LPD*%
%LPC*%
G36*
X158148Y509041D02*
X158148Y509041D01*
X154816Y510421D01*
X152266Y512971D01*
X150886Y516303D01*
X150886Y519909D01*
X152266Y523240D01*
X154816Y525790D01*
X158148Y527170D01*
X161754Y527170D01*
X165085Y525790D01*
X167635Y523240D01*
X169015Y519909D01*
X169015Y516303D01*
X167635Y512971D01*
X165085Y510421D01*
X161754Y509041D01*
X158148Y509041D01*
G37*
%LPD*%
%LPC*%
G36*
X183548Y509041D02*
X183548Y509041D01*
X180216Y510421D01*
X177666Y512971D01*
X176286Y516303D01*
X176286Y519909D01*
X177666Y523240D01*
X180216Y525790D01*
X183548Y527170D01*
X187154Y527170D01*
X190485Y525790D01*
X193035Y523240D01*
X194415Y519909D01*
X194415Y516303D01*
X193035Y512971D01*
X190485Y510421D01*
X187154Y509041D01*
X183548Y509041D01*
G37*
%LPD*%
%LPC*%
G36*
X234348Y509041D02*
X234348Y509041D01*
X231016Y510421D01*
X228466Y512971D01*
X227086Y516303D01*
X227086Y519909D01*
X228466Y523240D01*
X231016Y525790D01*
X234348Y527170D01*
X237954Y527170D01*
X241285Y525790D01*
X243835Y523240D01*
X245215Y519909D01*
X245215Y516303D01*
X243835Y512971D01*
X241285Y510421D01*
X237954Y509041D01*
X234348Y509041D01*
G37*
%LPD*%
%LPC*%
G36*
X310548Y509041D02*
X310548Y509041D01*
X307216Y510421D01*
X304666Y512971D01*
X303286Y516303D01*
X303286Y519909D01*
X304666Y523240D01*
X307216Y525790D01*
X310548Y527170D01*
X314154Y527170D01*
X317485Y525790D01*
X320035Y523240D01*
X321415Y519909D01*
X321415Y516303D01*
X320035Y512971D01*
X317485Y510421D01*
X314154Y509041D01*
X310548Y509041D01*
G37*
%LPD*%
%LPC*%
G36*
X335948Y509041D02*
X335948Y509041D01*
X332616Y510421D01*
X330066Y512971D01*
X328686Y516303D01*
X328686Y519909D01*
X330066Y523240D01*
X332616Y525790D01*
X335948Y527170D01*
X339554Y527170D01*
X342885Y525790D01*
X345435Y523240D01*
X346815Y519909D01*
X346815Y516303D01*
X345435Y512971D01*
X342885Y510421D01*
X339554Y509041D01*
X335948Y509041D01*
G37*
%LPD*%
%LPC*%
G36*
X361348Y509041D02*
X361348Y509041D01*
X358016Y510421D01*
X355466Y512971D01*
X354086Y516303D01*
X354086Y519909D01*
X355466Y523240D01*
X358016Y525790D01*
X361348Y527170D01*
X364954Y527170D01*
X368285Y525790D01*
X370835Y523240D01*
X372215Y519909D01*
X372215Y516303D01*
X370835Y512971D01*
X368285Y510421D01*
X364954Y509041D01*
X361348Y509041D01*
G37*
%LPD*%
%LPC*%
G36*
X107348Y509041D02*
X107348Y509041D01*
X104016Y510421D01*
X101466Y512971D01*
X100086Y516303D01*
X100086Y519909D01*
X101466Y523240D01*
X104016Y525790D01*
X107348Y527170D01*
X110954Y527170D01*
X114285Y525790D01*
X116835Y523240D01*
X118215Y519909D01*
X118215Y516303D01*
X116835Y512971D01*
X114285Y510421D01*
X110954Y509041D01*
X107348Y509041D01*
G37*
%LPD*%
%LPC*%
G36*
X183548Y26441D02*
X183548Y26441D01*
X180216Y27821D01*
X177666Y30371D01*
X176286Y33703D01*
X176286Y37309D01*
X177666Y40640D01*
X180216Y43190D01*
X183548Y44570D01*
X187154Y44570D01*
X190485Y43190D01*
X193035Y40640D01*
X194415Y37309D01*
X194415Y33703D01*
X193035Y30371D01*
X190485Y27821D01*
X187154Y26441D01*
X183548Y26441D01*
G37*
%LPD*%
%LPC*%
G36*
X208948Y26441D02*
X208948Y26441D01*
X205616Y27821D01*
X203066Y30371D01*
X201686Y33703D01*
X201686Y37309D01*
X203066Y40640D01*
X205616Y43190D01*
X208948Y44570D01*
X212554Y44570D01*
X215885Y43190D01*
X218435Y40640D01*
X219815Y37309D01*
X219815Y33703D01*
X218435Y30371D01*
X215885Y27821D01*
X212554Y26441D01*
X208948Y26441D01*
G37*
%LPD*%
%LPC*%
G36*
X234348Y26441D02*
X234348Y26441D01*
X231016Y27821D01*
X228466Y30371D01*
X227086Y33703D01*
X227086Y37309D01*
X228466Y40640D01*
X231016Y43190D01*
X234348Y44570D01*
X237954Y44570D01*
X241285Y43190D01*
X243835Y40640D01*
X245215Y37309D01*
X245215Y33703D01*
X243835Y30371D01*
X241285Y27821D01*
X237954Y26441D01*
X234348Y26441D01*
G37*
%LPD*%
%LPC*%
G36*
X274988Y26441D02*
X274988Y26441D01*
X271656Y27821D01*
X269106Y30371D01*
X267726Y33703D01*
X267726Y37309D01*
X269106Y40640D01*
X271656Y43190D01*
X274988Y44570D01*
X278594Y44570D01*
X281925Y43190D01*
X284475Y40640D01*
X285855Y37309D01*
X285855Y33703D01*
X284475Y30371D01*
X281925Y27821D01*
X278594Y26441D01*
X274988Y26441D01*
G37*
%LPD*%
%LPC*%
G36*
X401988Y26441D02*
X401988Y26441D01*
X398656Y27821D01*
X396106Y30371D01*
X394726Y33703D01*
X394726Y37309D01*
X396106Y40640D01*
X398656Y43190D01*
X401988Y44570D01*
X405594Y44570D01*
X408925Y43190D01*
X411475Y40640D01*
X412855Y37309D01*
X412855Y33703D01*
X411475Y30371D01*
X408925Y27821D01*
X405594Y26441D01*
X401988Y26441D01*
G37*
%LPD*%
%LPC*%
G36*
X300388Y26441D02*
X300388Y26441D01*
X297056Y27821D01*
X294506Y30371D01*
X293126Y33703D01*
X293126Y37309D01*
X294506Y40640D01*
X297056Y43190D01*
X300388Y44570D01*
X303994Y44570D01*
X307325Y43190D01*
X309875Y40640D01*
X311255Y37309D01*
X311255Y33703D01*
X309875Y30371D01*
X307325Y27821D01*
X303994Y26441D01*
X300388Y26441D01*
G37*
%LPD*%
%LPC*%
G36*
X325788Y26441D02*
X325788Y26441D01*
X322456Y27821D01*
X319906Y30371D01*
X318526Y33703D01*
X318526Y37309D01*
X319906Y40640D01*
X322456Y43190D01*
X325788Y44570D01*
X329394Y44570D01*
X332725Y43190D01*
X335275Y40640D01*
X336655Y37309D01*
X336655Y33703D01*
X335275Y30371D01*
X332725Y27821D01*
X329394Y26441D01*
X325788Y26441D01*
G37*
%LPD*%
%LPC*%
G36*
X351188Y26441D02*
X351188Y26441D01*
X347856Y27821D01*
X345306Y30371D01*
X343926Y33703D01*
X343926Y37309D01*
X345306Y40640D01*
X347856Y43190D01*
X351188Y44570D01*
X354794Y44570D01*
X358125Y43190D01*
X360675Y40640D01*
X362055Y37309D01*
X362055Y33703D01*
X360675Y30371D01*
X358125Y27821D01*
X354794Y26441D01*
X351188Y26441D01*
G37*
%LPD*%
%LPC*%
G36*
X452788Y26441D02*
X452788Y26441D01*
X449456Y27821D01*
X446906Y30371D01*
X445526Y33703D01*
X445526Y37309D01*
X446906Y40640D01*
X449456Y43190D01*
X452788Y44570D01*
X456394Y44570D01*
X459725Y43190D01*
X462275Y40640D01*
X463655Y37309D01*
X463655Y33703D01*
X462275Y30371D01*
X459725Y27821D01*
X456394Y26441D01*
X452788Y26441D01*
G37*
%LPD*%
%LPC*%
G36*
X158148Y26441D02*
X158148Y26441D01*
X154816Y27821D01*
X152266Y30371D01*
X150886Y33703D01*
X150886Y37309D01*
X152266Y40640D01*
X154816Y43190D01*
X158148Y44570D01*
X161754Y44570D01*
X165085Y43190D01*
X167635Y40640D01*
X169015Y37309D01*
X169015Y33703D01*
X167635Y30371D01*
X165085Y27821D01*
X161754Y26441D01*
X158148Y26441D01*
G37*
%LPD*%
%LPC*%
G36*
X132748Y26441D02*
X132748Y26441D01*
X129416Y27821D01*
X126866Y30371D01*
X125486Y33703D01*
X125486Y37309D01*
X126866Y40640D01*
X129416Y43190D01*
X132748Y44570D01*
X136354Y44570D01*
X139685Y43190D01*
X142235Y40640D01*
X143615Y37309D01*
X143615Y33703D01*
X142235Y30371D01*
X139685Y27821D01*
X136354Y26441D01*
X132748Y26441D01*
G37*
%LPD*%
%LPC*%
G36*
X107348Y26441D02*
X107348Y26441D01*
X104016Y27821D01*
X101466Y30371D01*
X100086Y33703D01*
X100086Y37309D01*
X101466Y40640D01*
X104016Y43190D01*
X107348Y44570D01*
X110954Y44570D01*
X114285Y43190D01*
X116835Y40640D01*
X118215Y37309D01*
X118215Y33703D01*
X116835Y30371D01*
X114285Y27821D01*
X110954Y26441D01*
X107348Y26441D01*
G37*
%LPD*%
%LPC*%
G36*
X81948Y26441D02*
X81948Y26441D01*
X78616Y27821D01*
X76066Y30371D01*
X74686Y33703D01*
X74686Y37309D01*
X76066Y40640D01*
X78616Y43190D01*
X81948Y44570D01*
X85554Y44570D01*
X88885Y43190D01*
X91435Y40640D01*
X92815Y37309D01*
X92815Y33703D01*
X91435Y30371D01*
X88885Y27821D01*
X85554Y26441D01*
X81948Y26441D01*
G37*
%LPD*%
%LPC*%
G36*
X56548Y26441D02*
X56548Y26441D01*
X53216Y27821D01*
X50666Y30371D01*
X49286Y33703D01*
X49286Y37309D01*
X50666Y40640D01*
X53216Y43190D01*
X56548Y44570D01*
X60154Y44570D01*
X63485Y43190D01*
X66035Y40640D01*
X67415Y37309D01*
X67415Y33703D01*
X66035Y30371D01*
X63485Y27821D01*
X60154Y26441D01*
X56548Y26441D01*
G37*
%LPD*%
%LPC*%
G36*
X748244Y309653D02*
X748244Y309653D01*
X746294Y310461D01*
X744801Y311954D01*
X743993Y313904D01*
X743993Y316016D01*
X744801Y317966D01*
X746294Y319459D01*
X748244Y320267D01*
X748664Y320267D01*
X748802Y320284D01*
X748941Y320297D01*
X748960Y320304D01*
X748980Y320307D01*
X749109Y320358D01*
X749240Y320405D01*
X749257Y320416D01*
X749275Y320424D01*
X749388Y320505D01*
X749503Y320583D01*
X749516Y320599D01*
X749533Y320610D01*
X749622Y320718D01*
X749713Y320822D01*
X749723Y320840D01*
X749736Y320855D01*
X749795Y320981D01*
X749858Y321105D01*
X749862Y321125D01*
X749871Y321143D01*
X749897Y321280D01*
X749928Y321415D01*
X749927Y321436D01*
X749931Y321455D01*
X749922Y321594D01*
X749918Y321733D01*
X749912Y321753D01*
X749911Y321773D01*
X749868Y321905D01*
X749830Y322039D01*
X749819Y322056D01*
X749813Y322075D01*
X749739Y322193D01*
X749668Y322313D01*
X749649Y322334D01*
X749643Y322344D01*
X749628Y322358D01*
X749562Y322433D01*
X748611Y323384D01*
X747803Y325334D01*
X747803Y327446D01*
X748611Y329396D01*
X750104Y330889D01*
X752054Y331697D01*
X754166Y331697D01*
X756116Y330889D01*
X757609Y329396D01*
X758417Y327446D01*
X758417Y325334D01*
X757609Y323384D01*
X756116Y321891D01*
X754166Y321083D01*
X753746Y321083D01*
X753608Y321066D01*
X753469Y321053D01*
X753450Y321046D01*
X753430Y321043D01*
X753301Y320992D01*
X753170Y320945D01*
X753153Y320934D01*
X753135Y320926D01*
X753022Y320845D01*
X752907Y320767D01*
X752894Y320751D01*
X752877Y320740D01*
X752788Y320632D01*
X752697Y320528D01*
X752687Y320510D01*
X752674Y320495D01*
X752615Y320369D01*
X752552Y320245D01*
X752548Y320225D01*
X752539Y320207D01*
X752513Y320070D01*
X752482Y319935D01*
X752483Y319914D01*
X752479Y319895D01*
X752488Y319756D01*
X752492Y319617D01*
X752498Y319597D01*
X752499Y319577D01*
X752542Y319445D01*
X752580Y319311D01*
X752591Y319294D01*
X752597Y319275D01*
X752671Y319157D01*
X752742Y319037D01*
X752761Y319016D01*
X752767Y319006D01*
X752782Y318992D01*
X752848Y318917D01*
X753799Y317966D01*
X754607Y316016D01*
X754607Y313904D01*
X753799Y311954D01*
X752306Y310461D01*
X750356Y309653D01*
X748244Y309653D01*
G37*
%LPD*%
%LPC*%
G36*
X100544Y368073D02*
X100544Y368073D01*
X98594Y368881D01*
X97101Y370374D01*
X96293Y372324D01*
X96293Y374436D01*
X97139Y376478D01*
X97153Y376526D01*
X97174Y376571D01*
X97194Y376679D01*
X97223Y376785D01*
X97224Y376835D01*
X97233Y376884D01*
X97227Y376993D01*
X97228Y377103D01*
X97217Y377151D01*
X97214Y377201D01*
X97180Y377305D01*
X97154Y377412D01*
X97131Y377456D01*
X97116Y377503D01*
X97057Y377596D01*
X97006Y377693D01*
X96972Y377730D01*
X96946Y377772D01*
X96865Y377847D01*
X96792Y377929D01*
X96750Y377956D01*
X96714Y377990D01*
X96618Y378043D01*
X96526Y378103D01*
X96479Y378120D01*
X96435Y378144D01*
X96329Y378171D01*
X96225Y378207D01*
X96176Y378211D01*
X96127Y378223D01*
X95967Y378233D01*
X95464Y378233D01*
X93514Y379041D01*
X92021Y380534D01*
X91213Y382484D01*
X91213Y384596D01*
X92021Y386546D01*
X93514Y388039D01*
X95464Y388847D01*
X97576Y388847D01*
X99526Y388039D01*
X101019Y386546D01*
X101827Y384596D01*
X101827Y382484D01*
X100981Y380442D01*
X100967Y380394D01*
X100946Y380349D01*
X100926Y380241D01*
X100897Y380135D01*
X100896Y380085D01*
X100887Y380036D01*
X100893Y379927D01*
X100892Y379817D01*
X100903Y379769D01*
X100906Y379719D01*
X100940Y379615D01*
X100966Y379508D01*
X100989Y379464D01*
X101004Y379417D01*
X101063Y379324D01*
X101114Y379227D01*
X101148Y379190D01*
X101174Y379148D01*
X101255Y379073D01*
X101328Y378991D01*
X101370Y378964D01*
X101406Y378930D01*
X101502Y378877D01*
X101594Y378817D01*
X101641Y378800D01*
X101685Y378776D01*
X101791Y378749D01*
X101895Y378713D01*
X101944Y378709D01*
X101993Y378697D01*
X102153Y378687D01*
X102656Y378687D01*
X104606Y377879D01*
X106099Y376386D01*
X106907Y374436D01*
X106907Y372324D01*
X106099Y370374D01*
X104606Y368881D01*
X102656Y368073D01*
X100544Y368073D01*
G37*
%LPD*%
%LPC*%
G36*
X108095Y106453D02*
X108095Y106453D01*
X106145Y107261D01*
X104652Y108754D01*
X103844Y110704D01*
X103844Y112816D01*
X104652Y114766D01*
X106145Y116259D01*
X108095Y117067D01*
X110206Y117067D01*
X112157Y116259D01*
X113650Y114766D01*
X114457Y112816D01*
X114457Y110704D01*
X113650Y108754D01*
X112157Y107261D01*
X110206Y106453D01*
X108095Y106453D01*
G37*
%LPD*%
%LPC*%
G36*
X959064Y335053D02*
X959064Y335053D01*
X957114Y335861D01*
X955621Y337354D01*
X954813Y339304D01*
X954813Y341416D01*
X955621Y343366D01*
X957114Y344859D01*
X959064Y345667D01*
X961176Y345667D01*
X963126Y344859D01*
X964619Y343366D01*
X965427Y341416D01*
X965427Y339304D01*
X964619Y337354D01*
X963126Y335861D01*
X961176Y335053D01*
X959064Y335053D01*
G37*
%LPD*%
%LPC*%
G36*
X354544Y411253D02*
X354544Y411253D01*
X352594Y412061D01*
X351101Y413554D01*
X350293Y415504D01*
X350293Y417616D01*
X351101Y419566D01*
X352594Y421059D01*
X354544Y421867D01*
X356656Y421867D01*
X358606Y421059D01*
X360099Y419566D01*
X360907Y417616D01*
X360907Y415504D01*
X360099Y413554D01*
X358606Y412061D01*
X356656Y411253D01*
X354544Y411253D01*
G37*
%LPD*%
%LPC*%
G36*
X297394Y197893D02*
X297394Y197893D01*
X295444Y198701D01*
X293951Y200194D01*
X293143Y202144D01*
X293143Y204256D01*
X293951Y206206D01*
X295444Y207699D01*
X297394Y208507D01*
X299506Y208507D01*
X301456Y207699D01*
X302949Y206206D01*
X303757Y204256D01*
X303757Y202144D01*
X302949Y200194D01*
X301456Y198701D01*
X299506Y197893D01*
X297394Y197893D01*
G37*
%LPD*%
%LPC*%
G36*
X324064Y439193D02*
X324064Y439193D01*
X322114Y440001D01*
X320621Y441494D01*
X319813Y443444D01*
X319813Y445556D01*
X320621Y447506D01*
X322114Y448999D01*
X324064Y449807D01*
X326176Y449807D01*
X328126Y448999D01*
X329619Y447506D01*
X330427Y445556D01*
X330427Y443444D01*
X329619Y441494D01*
X328126Y440001D01*
X326176Y439193D01*
X324064Y439193D01*
G37*
%LPD*%
%LPC*%
G36*
X1009864Y335053D02*
X1009864Y335053D01*
X1007914Y335861D01*
X1006421Y337354D01*
X1005613Y339304D01*
X1005613Y341416D01*
X1006421Y343366D01*
X1007914Y344859D01*
X1009864Y345667D01*
X1011976Y345667D01*
X1013926Y344859D01*
X1015419Y343366D01*
X1016227Y341416D01*
X1016227Y339304D01*
X1015419Y337354D01*
X1013926Y335861D01*
X1011976Y335053D01*
X1009864Y335053D01*
G37*
%LPD*%
%LPC*%
G36*
X402804Y340133D02*
X402804Y340133D01*
X400854Y340941D01*
X399361Y342434D01*
X398553Y344384D01*
X398553Y346496D01*
X399361Y348446D01*
X400854Y349939D01*
X402804Y350747D01*
X404916Y350747D01*
X406866Y349939D01*
X408359Y348446D01*
X409167Y346496D01*
X409167Y344384D01*
X408359Y342434D01*
X406866Y340941D01*
X404916Y340133D01*
X402804Y340133D01*
G37*
%LPD*%
%LPC*%
G36*
X984464Y284253D02*
X984464Y284253D01*
X982514Y285061D01*
X981021Y286554D01*
X980213Y288504D01*
X980213Y290616D01*
X981021Y292566D01*
X982514Y294059D01*
X984464Y294867D01*
X986576Y294867D01*
X988526Y294059D01*
X990019Y292566D01*
X990827Y290616D01*
X990827Y288504D01*
X990019Y286554D01*
X988526Y285061D01*
X986576Y284253D01*
X984464Y284253D01*
G37*
%LPD*%
%LPC*%
G36*
X181824Y256313D02*
X181824Y256313D01*
X179874Y257121D01*
X178381Y258614D01*
X177573Y260564D01*
X177573Y262676D01*
X178381Y264626D01*
X179874Y266119D01*
X181824Y266927D01*
X183936Y266927D01*
X185886Y266119D01*
X187379Y264626D01*
X188187Y262676D01*
X188187Y260564D01*
X187379Y258614D01*
X185886Y257121D01*
X183936Y256313D01*
X181824Y256313D01*
G37*
%LPD*%
%LPC*%
G36*
X984464Y335053D02*
X984464Y335053D01*
X982514Y335861D01*
X981021Y337354D01*
X980213Y339304D01*
X980213Y341416D01*
X981021Y343366D01*
X982514Y344859D01*
X984464Y345667D01*
X986576Y345667D01*
X988526Y344859D01*
X990019Y343366D01*
X990827Y341416D01*
X990827Y339304D01*
X990019Y337354D01*
X988526Y335861D01*
X986576Y335053D01*
X984464Y335053D01*
G37*
%LPD*%
%LPC*%
G36*
X387564Y73433D02*
X387564Y73433D01*
X385614Y74241D01*
X384121Y75734D01*
X383313Y77684D01*
X383313Y79796D01*
X384121Y81746D01*
X385614Y83239D01*
X387564Y84047D01*
X389676Y84047D01*
X391626Y83239D01*
X393119Y81746D01*
X393927Y79796D01*
X393927Y77684D01*
X393119Y75734D01*
X391626Y74241D01*
X389676Y73433D01*
X387564Y73433D01*
G37*
%LPD*%
%LPC*%
G36*
X1035264Y335053D02*
X1035264Y335053D01*
X1033314Y335861D01*
X1031821Y337354D01*
X1031013Y339304D01*
X1031013Y341416D01*
X1031821Y343366D01*
X1033314Y344859D01*
X1035264Y345667D01*
X1037376Y345667D01*
X1039326Y344859D01*
X1040819Y343366D01*
X1041627Y341416D01*
X1041627Y339304D01*
X1040819Y337354D01*
X1039326Y335861D01*
X1037376Y335053D01*
X1035264Y335053D01*
G37*
%LPD*%
%LPC*%
G36*
X908264Y335053D02*
X908264Y335053D01*
X906314Y335861D01*
X904821Y337354D01*
X904013Y339304D01*
X904013Y341416D01*
X904821Y343366D01*
X906314Y344859D01*
X908264Y345667D01*
X910376Y345667D01*
X912326Y344859D01*
X913819Y343366D01*
X914627Y341416D01*
X914627Y339304D01*
X913819Y337354D01*
X912326Y335861D01*
X910376Y335053D01*
X908264Y335053D01*
G37*
%LPD*%
%LPC*%
G36*
X936204Y335053D02*
X936204Y335053D01*
X934254Y335861D01*
X932761Y337354D01*
X931953Y339304D01*
X931953Y341416D01*
X932761Y343366D01*
X934254Y344859D01*
X936204Y345667D01*
X938316Y345667D01*
X940266Y344859D01*
X941759Y343366D01*
X942567Y341416D01*
X942567Y339304D01*
X941759Y337354D01*
X940266Y335861D01*
X938316Y335053D01*
X936204Y335053D01*
G37*
%LPD*%
%LPC*%
G36*
X329144Y279173D02*
X329144Y279173D01*
X327194Y279981D01*
X325701Y281474D01*
X324893Y283424D01*
X324893Y285536D01*
X325701Y287486D01*
X327194Y288979D01*
X329144Y289787D01*
X331256Y289787D01*
X333206Y288979D01*
X334699Y287486D01*
X335507Y285536D01*
X335507Y283424D01*
X334699Y281474D01*
X333206Y279981D01*
X331256Y279173D01*
X329144Y279173D01*
G37*
%LPD*%
%LPC*%
G36*
X957794Y285523D02*
X957794Y285523D01*
X955844Y286331D01*
X954351Y287824D01*
X953543Y289774D01*
X953543Y291886D01*
X954351Y293836D01*
X955844Y295329D01*
X957794Y296137D01*
X959906Y296137D01*
X961856Y295329D01*
X963349Y293836D01*
X964157Y291886D01*
X964157Y289774D01*
X963349Y287824D01*
X961856Y286331D01*
X959906Y285523D01*
X957794Y285523D01*
G37*
%LPD*%
%LPC*%
G36*
X593304Y302033D02*
X593304Y302033D01*
X591354Y302841D01*
X589861Y304334D01*
X589053Y306284D01*
X589053Y308396D01*
X589861Y310346D01*
X591354Y311839D01*
X593304Y312647D01*
X595416Y312647D01*
X597366Y311839D01*
X598859Y310346D01*
X599667Y308396D01*
X599667Y306284D01*
X598859Y304334D01*
X597366Y302841D01*
X595416Y302033D01*
X593304Y302033D01*
G37*
%LPD*%
%LPC*%
G36*
X585178Y291367D02*
X585178Y291367D01*
X583228Y292175D01*
X581735Y293668D01*
X580927Y295618D01*
X580927Y297729D01*
X581735Y299680D01*
X583228Y301173D01*
X585178Y301980D01*
X587289Y301980D01*
X589240Y301173D01*
X590733Y299680D01*
X591540Y297729D01*
X591540Y295618D01*
X590733Y293668D01*
X589240Y292175D01*
X587289Y291367D01*
X585178Y291367D01*
G37*
%LPD*%
%LPC*%
G36*
X242784Y144553D02*
X242784Y144553D01*
X240834Y145361D01*
X239341Y146854D01*
X238533Y148804D01*
X238533Y150916D01*
X239341Y152866D01*
X240834Y154359D01*
X242784Y155167D01*
X244896Y155167D01*
X246846Y154359D01*
X248339Y152866D01*
X249147Y150916D01*
X249147Y148804D01*
X248339Y146854D01*
X246846Y145361D01*
X244896Y144553D01*
X242784Y144553D01*
G37*
%LPD*%
%LPC*%
G36*
X933664Y284253D02*
X933664Y284253D01*
X931714Y285061D01*
X930221Y286554D01*
X929413Y288504D01*
X929413Y290616D01*
X930221Y292566D01*
X931714Y294059D01*
X933664Y294867D01*
X935776Y294867D01*
X937726Y294059D01*
X939219Y292566D01*
X940027Y290616D01*
X940027Y288504D01*
X939219Y286554D01*
X937726Y285061D01*
X935776Y284253D01*
X933664Y284253D01*
G37*
%LPD*%
%LPC*%
G36*
X336764Y345213D02*
X336764Y345213D01*
X334814Y346021D01*
X333321Y347514D01*
X332513Y349464D01*
X332513Y351576D01*
X333321Y353526D01*
X334814Y355019D01*
X336764Y355827D01*
X338876Y355827D01*
X340826Y355019D01*
X342319Y353526D01*
X343127Y351576D01*
X343127Y349464D01*
X342319Y347514D01*
X340826Y346021D01*
X338876Y345213D01*
X336764Y345213D01*
G37*
%LPD*%
%LPC*%
G36*
X1006054Y286793D02*
X1006054Y286793D01*
X1004104Y287601D01*
X1002611Y289094D01*
X1001803Y291044D01*
X1001803Y293156D01*
X1002611Y295106D01*
X1004104Y296599D01*
X1006054Y297407D01*
X1008166Y297407D01*
X1010116Y296599D01*
X1011609Y295106D01*
X1012417Y293156D01*
X1012417Y291044D01*
X1011609Y289094D01*
X1010116Y287601D01*
X1008166Y286793D01*
X1006054Y286793D01*
G37*
%LPD*%
%LPC*%
G36*
X809204Y401093D02*
X809204Y401093D01*
X807254Y401901D01*
X805761Y403394D01*
X804953Y405344D01*
X804953Y407456D01*
X805761Y409406D01*
X807254Y410899D01*
X809204Y411707D01*
X811316Y411707D01*
X813266Y410899D01*
X814759Y409406D01*
X815567Y407456D01*
X815567Y405344D01*
X814759Y403394D01*
X813266Y401901D01*
X811316Y401093D01*
X809204Y401093D01*
G37*
%LPD*%
%LPC*%
G36*
X199535Y98779D02*
X199535Y98779D01*
X197585Y99587D01*
X196092Y101080D01*
X195284Y103030D01*
X195284Y105141D01*
X196092Y107092D01*
X197585Y108585D01*
X199535Y109392D01*
X201646Y109392D01*
X203597Y108585D01*
X205090Y107092D01*
X205897Y105141D01*
X205897Y103030D01*
X205090Y101080D01*
X203597Y99587D01*
X201646Y98779D01*
X199535Y98779D01*
G37*
%LPD*%
%LPC*%
G36*
X92924Y63273D02*
X92924Y63273D01*
X90974Y64081D01*
X89481Y65574D01*
X88673Y67524D01*
X88673Y69636D01*
X89481Y71586D01*
X90974Y73079D01*
X92924Y73887D01*
X95036Y73887D01*
X96986Y73079D01*
X98479Y71586D01*
X99287Y69636D01*
X99287Y67524D01*
X98479Y65574D01*
X96986Y64081D01*
X95036Y63273D01*
X92924Y63273D01*
G37*
%LPD*%
%LPC*%
G36*
X400264Y63273D02*
X400264Y63273D01*
X398314Y64081D01*
X396821Y65574D01*
X396013Y67524D01*
X396013Y69636D01*
X396821Y71586D01*
X398314Y73079D01*
X400264Y73887D01*
X402376Y73887D01*
X404326Y73079D01*
X405819Y71586D01*
X406627Y69636D01*
X406627Y67524D01*
X405819Y65574D01*
X404326Y64081D01*
X402376Y63273D01*
X400264Y63273D01*
G37*
%LPD*%
%LPC*%
G36*
X379944Y58193D02*
X379944Y58193D01*
X377994Y59001D01*
X376501Y60494D01*
X375693Y62444D01*
X375693Y64556D01*
X376501Y66506D01*
X377994Y67999D01*
X379944Y68807D01*
X382056Y68807D01*
X384006Y67999D01*
X385499Y66506D01*
X386307Y64556D01*
X386307Y62444D01*
X385499Y60494D01*
X384006Y59001D01*
X382056Y58193D01*
X379944Y58193D01*
G37*
%LPD*%
%LPC*%
G36*
X197064Y55653D02*
X197064Y55653D01*
X195114Y56461D01*
X193621Y57954D01*
X192813Y59904D01*
X192813Y62016D01*
X193621Y63966D01*
X195114Y65459D01*
X197064Y66267D01*
X199176Y66267D01*
X201126Y65459D01*
X202619Y63966D01*
X203427Y62016D01*
X203427Y59904D01*
X202619Y57954D01*
X201126Y56461D01*
X199176Y55653D01*
X197064Y55653D01*
G37*
%LPD*%
%LPC*%
G36*
X374864Y192813D02*
X374864Y192813D01*
X372914Y193621D01*
X371421Y195114D01*
X370613Y197064D01*
X370613Y199176D01*
X371421Y201126D01*
X372914Y202619D01*
X374864Y203427D01*
X376976Y203427D01*
X378926Y202619D01*
X380419Y201126D01*
X381227Y199176D01*
X381227Y197064D01*
X380419Y195114D01*
X378926Y193621D01*
X376976Y192813D01*
X374864Y192813D01*
G37*
%LPD*%
%LPC*%
G36*
X250404Y63273D02*
X250404Y63273D01*
X248454Y64081D01*
X246961Y65574D01*
X246153Y67524D01*
X246153Y69636D01*
X246961Y71586D01*
X248454Y73079D01*
X250404Y73887D01*
X252516Y73887D01*
X254466Y73079D01*
X255959Y71586D01*
X256767Y69636D01*
X256767Y67524D01*
X255959Y65574D01*
X254466Y64081D01*
X252516Y63273D01*
X250404Y63273D01*
G37*
%LPD*%
%LPC*%
G36*
X710194Y96543D02*
X710194Y96543D01*
X708336Y97313D01*
X706913Y98736D01*
X706143Y100594D01*
X706143Y102606D01*
X706913Y104464D01*
X708336Y105887D01*
X710194Y106657D01*
X712206Y106657D01*
X714064Y105887D01*
X715487Y104464D01*
X716257Y102606D01*
X716257Y100594D01*
X715487Y98736D01*
X714064Y97313D01*
X712206Y96543D01*
X710194Y96543D01*
G37*
%LPD*%
%LPC*%
G36*
X735594Y96543D02*
X735594Y96543D01*
X733736Y97313D01*
X732313Y98736D01*
X731543Y100594D01*
X731543Y102606D01*
X732313Y104464D01*
X733736Y105887D01*
X735594Y106657D01*
X737606Y106657D01*
X739464Y105887D01*
X740887Y104464D01*
X741657Y102606D01*
X741657Y100594D01*
X740887Y98736D01*
X739464Y97313D01*
X737606Y96543D01*
X735594Y96543D01*
G37*
%LPD*%
%LPC*%
G36*
X646694Y71143D02*
X646694Y71143D01*
X644836Y71913D01*
X643413Y73336D01*
X642643Y75194D01*
X642643Y77206D01*
X643413Y79064D01*
X644836Y80487D01*
X646694Y81257D01*
X648706Y81257D01*
X650564Y80487D01*
X651987Y79064D01*
X652757Y77206D01*
X652757Y75194D01*
X651987Y73336D01*
X650564Y71913D01*
X648706Y71143D01*
X646694Y71143D01*
G37*
%LPD*%
%LPC*%
G36*
X554989Y33019D02*
X554989Y33019D01*
X554989Y40339D01*
X556350Y39896D01*
X557775Y39170D01*
X558423Y38700D01*
X558423Y38699D01*
X559069Y38230D01*
X560200Y37099D01*
X561140Y35805D01*
X561866Y34380D01*
X562309Y33019D01*
X554989Y33019D01*
G37*
%LPD*%
%LPC*%
G36*
X566419Y528319D02*
X566419Y528319D01*
X566419Y535639D01*
X567780Y535196D01*
X569205Y534470D01*
X570256Y533707D01*
X570499Y533530D01*
X571630Y532399D01*
X572570Y531105D01*
X573296Y529680D01*
X573739Y528319D01*
X566419Y528319D01*
G37*
%LPD*%
%LPC*%
G36*
X35559Y203145D02*
X35559Y203145D01*
X35559Y210464D01*
X36920Y210022D01*
X38345Y209296D01*
X39639Y208356D01*
X40770Y207225D01*
X41710Y205931D01*
X42436Y204506D01*
X42879Y203145D01*
X35559Y203145D01*
G37*
%LPD*%
%LPC*%
G36*
X227260Y266645D02*
X227260Y266645D01*
X227260Y273964D01*
X228621Y273522D01*
X230046Y272796D01*
X231340Y271856D01*
X232471Y270725D01*
X233411Y269431D01*
X234137Y268006D01*
X234579Y266645D01*
X227260Y266645D01*
G37*
%LPD*%
%LPC*%
G36*
X60959Y203145D02*
X60959Y203145D01*
X60959Y210464D01*
X62320Y210022D01*
X63745Y209296D01*
X65039Y208356D01*
X66170Y207225D01*
X67110Y205931D01*
X67836Y204506D01*
X68279Y203145D01*
X60959Y203145D01*
G37*
%LPD*%
%LPC*%
G36*
X60959Y373434D02*
X60959Y373434D01*
X60959Y380753D01*
X62320Y380311D01*
X63745Y379585D01*
X65039Y378645D01*
X66170Y377514D01*
X67110Y376220D01*
X67836Y374795D01*
X68279Y373434D01*
X60959Y373434D01*
G37*
%LPD*%
%LPC*%
G36*
X227260Y469845D02*
X227260Y469845D01*
X227260Y477164D01*
X228621Y476722D01*
X230046Y475996D01*
X231340Y475056D01*
X232471Y473925D01*
X233411Y472631D01*
X234137Y471206D01*
X234579Y469845D01*
X227260Y469845D01*
G37*
%LPD*%
%LPC*%
G36*
X35559Y373434D02*
X35559Y373434D01*
X35559Y380753D01*
X36920Y380311D01*
X38345Y379585D01*
X39639Y378645D01*
X40770Y377514D01*
X41710Y376220D01*
X42436Y374795D01*
X42879Y373434D01*
X35559Y373434D01*
G37*
%LPD*%
%LPC*%
G36*
X227260Y368245D02*
X227260Y368245D01*
X227260Y375564D01*
X228621Y375122D01*
X230046Y374396D01*
X231340Y373456D01*
X232471Y372325D01*
X233411Y371031D01*
X234137Y369606D01*
X234579Y368245D01*
X227260Y368245D01*
G37*
%LPD*%
%LPC*%
G36*
X138360Y469845D02*
X138360Y469845D01*
X138360Y477164D01*
X139721Y476722D01*
X141146Y475996D01*
X142440Y475056D01*
X143571Y473925D01*
X144511Y472631D01*
X145237Y471206D01*
X145679Y469845D01*
X138360Y469845D01*
G37*
%LPD*%
%LPC*%
G36*
X566419Y523241D02*
X566419Y523241D01*
X573739Y523241D01*
X573296Y521880D01*
X572570Y520455D01*
X571630Y519161D01*
X570499Y518030D01*
X569205Y517090D01*
X567780Y516364D01*
X566419Y515921D01*
X566419Y523241D01*
G37*
%LPD*%
%LPC*%
G36*
X125962Y469845D02*
X125962Y469845D01*
X126404Y471206D01*
X127130Y472631D01*
X128070Y473925D01*
X129201Y475056D01*
X130495Y475996D01*
X131920Y476722D01*
X133281Y477164D01*
X133281Y469845D01*
X125962Y469845D01*
G37*
%LPD*%
%LPC*%
G36*
X214862Y469845D02*
X214862Y469845D01*
X215304Y471206D01*
X216030Y472631D01*
X216970Y473925D01*
X218101Y475056D01*
X219395Y475996D01*
X220820Y476722D01*
X222181Y477164D01*
X222181Y469845D01*
X214862Y469845D01*
G37*
%LPD*%
%LPC*%
G36*
X138360Y464766D02*
X138360Y464766D01*
X145679Y464766D01*
X145237Y463405D01*
X144511Y461980D01*
X143571Y460686D01*
X142440Y459555D01*
X141146Y458615D01*
X139721Y457889D01*
X138360Y457447D01*
X138360Y464766D01*
G37*
%LPD*%
%LPC*%
G36*
X23161Y373434D02*
X23161Y373434D01*
X23604Y374795D01*
X24330Y376220D01*
X25270Y377514D01*
X26401Y378645D01*
X27695Y379585D01*
X29120Y380311D01*
X30481Y380753D01*
X30481Y373434D01*
X23161Y373434D01*
G37*
%LPD*%
%LPC*%
G36*
X48561Y373434D02*
X48561Y373434D01*
X49004Y374795D01*
X49730Y376220D01*
X50670Y377514D01*
X51801Y378645D01*
X53095Y379585D01*
X54520Y380311D01*
X55881Y380753D01*
X55881Y373434D01*
X48561Y373434D01*
G37*
%LPD*%
%LPC*%
G36*
X214862Y368245D02*
X214862Y368245D01*
X215304Y369606D01*
X216030Y371031D01*
X216970Y372325D01*
X218101Y373456D01*
X219395Y374396D01*
X220820Y375122D01*
X222181Y375564D01*
X222181Y368245D01*
X214862Y368245D01*
G37*
%LPD*%
%LPC*%
G36*
X60959Y368355D02*
X60959Y368355D01*
X68279Y368355D01*
X67836Y366994D01*
X67110Y365569D01*
X66170Y364275D01*
X65039Y363144D01*
X63745Y362204D01*
X62320Y361478D01*
X60959Y361036D01*
X60959Y368355D01*
G37*
%LPD*%
%LPC*%
G36*
X227260Y363166D02*
X227260Y363166D01*
X234579Y363166D01*
X234137Y361805D01*
X233411Y360380D01*
X232471Y359086D01*
X231340Y357955D01*
X230046Y357015D01*
X228621Y356289D01*
X227260Y355847D01*
X227260Y363166D01*
G37*
%LPD*%
%LPC*%
G36*
X35559Y368355D02*
X35559Y368355D01*
X42879Y368355D01*
X42436Y366994D01*
X41710Y365569D01*
X40770Y364275D01*
X39639Y363144D01*
X38345Y362204D01*
X36920Y361478D01*
X35559Y361036D01*
X35559Y368355D01*
G37*
%LPD*%
%LPC*%
G36*
X214862Y266645D02*
X214862Y266645D01*
X215304Y268006D01*
X216030Y269431D01*
X216970Y270725D01*
X218101Y271856D01*
X219395Y272796D01*
X220820Y273522D01*
X222181Y273964D01*
X222181Y266645D01*
X214862Y266645D01*
G37*
%LPD*%
%LPC*%
G36*
X227260Y261566D02*
X227260Y261566D01*
X234579Y261566D01*
X234137Y260205D01*
X233411Y258780D01*
X232471Y257486D01*
X231340Y256355D01*
X230046Y255415D01*
X228621Y254689D01*
X227260Y254247D01*
X227260Y261566D01*
G37*
%LPD*%
%LPC*%
G36*
X48561Y203145D02*
X48561Y203145D01*
X49004Y204506D01*
X49730Y205931D01*
X50670Y207225D01*
X51801Y208356D01*
X53095Y209296D01*
X54520Y210022D01*
X55881Y210464D01*
X55881Y203145D01*
X48561Y203145D01*
G37*
%LPD*%
%LPC*%
G36*
X23161Y203145D02*
X23161Y203145D01*
X23604Y204506D01*
X24330Y205931D01*
X25270Y207225D01*
X26401Y208356D01*
X27695Y209296D01*
X29120Y210022D01*
X30481Y210464D01*
X30481Y203145D01*
X23161Y203145D01*
G37*
%LPD*%
%LPC*%
G36*
X542591Y33019D02*
X542591Y33019D01*
X543034Y34380D01*
X543760Y35805D01*
X544700Y37099D01*
X545831Y38230D01*
X547125Y39170D01*
X548550Y39896D01*
X549911Y40339D01*
X549911Y33019D01*
X542591Y33019D01*
G37*
%LPD*%
%LPC*%
G36*
X60959Y198066D02*
X60959Y198066D01*
X68279Y198066D01*
X67836Y196705D01*
X67110Y195280D01*
X66170Y193986D01*
X65039Y192855D01*
X63745Y191915D01*
X62320Y191189D01*
X60959Y190747D01*
X60959Y198066D01*
G37*
%LPD*%
%LPC*%
G36*
X35559Y198066D02*
X35559Y198066D01*
X42879Y198066D01*
X42436Y196705D01*
X41710Y195280D01*
X40770Y193986D01*
X39639Y192855D01*
X38345Y191915D01*
X36920Y191189D01*
X35559Y190747D01*
X35559Y198066D01*
G37*
%LPD*%
%LPC*%
G36*
X554021Y528319D02*
X554021Y528319D01*
X554464Y529680D01*
X555190Y531105D01*
X556130Y532399D01*
X557261Y533530D01*
X558555Y534470D01*
X559980Y535196D01*
X561341Y535639D01*
X561341Y528319D01*
X554021Y528319D01*
G37*
%LPD*%
%LPC*%
G36*
X227260Y464766D02*
X227260Y464766D01*
X234579Y464766D01*
X234137Y463405D01*
X233411Y461980D01*
X232471Y460686D01*
X231340Y459555D01*
X230046Y458615D01*
X228621Y457889D01*
X227260Y457447D01*
X227260Y464766D01*
G37*
%LPD*%
%LPC*%
G36*
X554989Y27941D02*
X554989Y27941D01*
X562309Y27941D01*
X561866Y26580D01*
X561140Y25155D01*
X560200Y23861D01*
X559069Y22730D01*
X557775Y21790D01*
X556350Y21064D01*
X554989Y20621D01*
X554989Y27941D01*
G37*
%LPD*%
%LPC*%
G36*
X54520Y361478D02*
X54520Y361478D01*
X53095Y362204D01*
X51805Y363141D01*
X51801Y363144D01*
X50670Y364275D01*
X49730Y365569D01*
X49004Y366994D01*
X48561Y368355D01*
X55881Y368355D01*
X55881Y361036D01*
X54520Y361478D01*
G37*
%LPD*%
%LPC*%
G36*
X29120Y361478D02*
X29120Y361478D01*
X27695Y362204D01*
X26405Y363141D01*
X26401Y363144D01*
X25270Y364275D01*
X24330Y365569D01*
X23604Y366994D01*
X23161Y368355D01*
X30481Y368355D01*
X30481Y361036D01*
X29120Y361478D01*
G37*
%LPD*%
%LPC*%
G36*
X548550Y21064D02*
X548550Y21064D01*
X547125Y21790D01*
X545831Y22730D01*
X544700Y23861D01*
X543760Y25155D01*
X543034Y26580D01*
X542591Y27941D01*
X549911Y27941D01*
X549911Y20621D01*
X548550Y21064D01*
G37*
%LPD*%
%LPC*%
G36*
X220820Y356289D02*
X220820Y356289D01*
X219395Y357015D01*
X218101Y357955D01*
X216970Y359086D01*
X216030Y360380D01*
X215304Y361805D01*
X214862Y363166D01*
X222181Y363166D01*
X222181Y355847D01*
X220820Y356289D01*
G37*
%LPD*%
%LPC*%
G36*
X54520Y191189D02*
X54520Y191189D01*
X53095Y191915D01*
X51801Y192855D01*
X50670Y193986D01*
X49730Y195280D01*
X49004Y196705D01*
X48561Y198066D01*
X55881Y198066D01*
X55881Y190747D01*
X54520Y191189D01*
G37*
%LPD*%
%LPC*%
G36*
X559980Y516364D02*
X559980Y516364D01*
X558555Y517090D01*
X557261Y518030D01*
X556130Y519161D01*
X555190Y520455D01*
X554464Y521880D01*
X554021Y523241D01*
X561341Y523241D01*
X561341Y515921D01*
X559980Y516364D01*
G37*
%LPD*%
%LPC*%
G36*
X29120Y191189D02*
X29120Y191189D01*
X27695Y191915D01*
X26401Y192855D01*
X25270Y193986D01*
X24330Y195280D01*
X23604Y196705D01*
X23161Y198066D01*
X30481Y198066D01*
X30481Y190747D01*
X29120Y191189D01*
G37*
%LPD*%
%LPC*%
G36*
X220820Y254689D02*
X220820Y254689D01*
X219395Y255415D01*
X218101Y256355D01*
X216970Y257486D01*
X216030Y258780D01*
X215304Y260205D01*
X214862Y261566D01*
X222181Y261566D01*
X222181Y254247D01*
X220820Y254689D01*
G37*
%LPD*%
%LPC*%
G36*
X220820Y457889D02*
X220820Y457889D01*
X219395Y458615D01*
X218101Y459555D01*
X216970Y460686D01*
X216030Y461980D01*
X215304Y463405D01*
X214862Y464766D01*
X222181Y464766D01*
X222181Y457447D01*
X220820Y457889D01*
G37*
%LPD*%
%LPC*%
G36*
X131920Y457889D02*
X131920Y457889D01*
X130495Y458615D01*
X129201Y459555D01*
X128070Y460686D01*
X127130Y461980D01*
X126404Y463405D01*
X125962Y464766D01*
X133281Y464766D01*
X133281Y457447D01*
X131920Y457889D01*
G37*
%LPD*%
%LPC*%
G36*
X996589Y163239D02*
X996589Y163239D01*
X996589Y170527D01*
X997960Y170082D01*
X999373Y169362D01*
X1000657Y168429D01*
X1001779Y167307D01*
X1002712Y166023D01*
X1003432Y164610D01*
X1003877Y163239D01*
X996589Y163239D01*
G37*
%LPD*%
%LPC*%
G36*
X431690Y38005D02*
X431690Y38005D01*
X431690Y45293D01*
X433060Y44848D01*
X434474Y44128D01*
X435758Y43195D01*
X436880Y42073D01*
X437813Y40789D01*
X438533Y39375D01*
X438978Y38005D01*
X431690Y38005D01*
G37*
%LPD*%
%LPC*%
G36*
X847999Y163239D02*
X847999Y163239D01*
X847999Y170527D01*
X849370Y170082D01*
X850783Y169362D01*
X852067Y168429D01*
X853189Y167307D01*
X854122Y166023D01*
X854842Y164610D01*
X855287Y163239D01*
X847999Y163239D01*
G37*
%LPD*%
%LPC*%
G36*
X289450Y520605D02*
X289450Y520605D01*
X289450Y527893D01*
X290820Y527448D01*
X292234Y526728D01*
X293518Y525795D01*
X294640Y524673D01*
X295573Y523389D01*
X296293Y521975D01*
X296738Y520605D01*
X289450Y520605D01*
G37*
%LPD*%
%LPC*%
G36*
X847999Y208239D02*
X847999Y208239D01*
X847999Y215527D01*
X849370Y215082D01*
X850783Y214362D01*
X852067Y213429D01*
X853189Y212307D01*
X854122Y211023D01*
X854842Y209610D01*
X855287Y208239D01*
X847999Y208239D01*
G37*
%LPD*%
%LPC*%
G36*
X769644Y561764D02*
X769644Y561764D01*
X769644Y569052D01*
X771014Y568607D01*
X772428Y567887D01*
X773712Y566954D01*
X774834Y565832D01*
X775767Y564548D01*
X776487Y563134D01*
X776932Y561764D01*
X769644Y561764D01*
G37*
%LPD*%
%LPC*%
G36*
X996589Y208239D02*
X996589Y208239D01*
X996589Y215527D01*
X997960Y215082D01*
X999373Y214362D01*
X1000657Y213429D01*
X1001779Y212307D01*
X1002712Y211023D01*
X1003432Y209610D01*
X1003877Y208239D01*
X996589Y208239D01*
G37*
%LPD*%
%LPC*%
G36*
X264050Y520605D02*
X264050Y520605D01*
X264050Y527893D01*
X265420Y527448D01*
X266834Y526728D01*
X268118Y525795D01*
X269240Y524673D01*
X270173Y523389D01*
X270893Y521975D01*
X271338Y520605D01*
X264050Y520605D01*
G37*
%LPD*%
%LPC*%
G36*
X996589Y203241D02*
X996589Y203241D01*
X1003877Y203241D01*
X1003432Y201870D01*
X1002712Y200457D01*
X1001779Y199173D01*
X1000657Y198051D01*
X999373Y197118D01*
X997960Y196398D01*
X996589Y195953D01*
X996589Y203241D01*
G37*
%LPD*%
%LPC*%
G36*
X847999Y203241D02*
X847999Y203241D01*
X855287Y203241D01*
X854842Y201870D01*
X854122Y200457D01*
X853189Y199173D01*
X852067Y198051D01*
X850783Y197118D01*
X849370Y196398D01*
X847999Y195953D01*
X847999Y203241D01*
G37*
%LPD*%
%LPC*%
G36*
X996589Y158241D02*
X996589Y158241D01*
X1003877Y158241D01*
X1003432Y156870D01*
X1002712Y155457D01*
X1001779Y154173D01*
X1000657Y153051D01*
X999373Y152118D01*
X997960Y151398D01*
X996589Y150953D01*
X996589Y158241D01*
G37*
%LPD*%
%LPC*%
G36*
X769644Y556765D02*
X769644Y556765D01*
X776932Y556765D01*
X776487Y555395D01*
X775767Y553981D01*
X774834Y552698D01*
X773712Y551576D01*
X772428Y550643D01*
X771014Y549923D01*
X769644Y549477D01*
X769644Y556765D01*
G37*
%LPD*%
%LPC*%
G36*
X757357Y561764D02*
X757357Y561764D01*
X757803Y563134D01*
X758523Y564548D01*
X759456Y565832D01*
X760578Y566954D01*
X761861Y567887D01*
X763275Y568607D01*
X764645Y569052D01*
X764645Y561764D01*
X757357Y561764D01*
G37*
%LPD*%
%LPC*%
G36*
X419403Y38005D02*
X419403Y38005D01*
X419848Y39375D01*
X420569Y40789D01*
X421502Y42073D01*
X422623Y43195D01*
X423907Y44128D01*
X425321Y44848D01*
X426691Y45293D01*
X426691Y38005D01*
X419403Y38005D01*
G37*
%LPD*%
%LPC*%
G36*
X847999Y158241D02*
X847999Y158241D01*
X855287Y158241D01*
X854842Y156870D01*
X854122Y155457D01*
X853189Y154173D01*
X852067Y153051D01*
X850783Y152118D01*
X849370Y151398D01*
X847999Y150953D01*
X847999Y158241D01*
G37*
%LPD*%
%LPC*%
G36*
X277163Y520605D02*
X277163Y520605D01*
X277608Y521975D01*
X278329Y523389D01*
X279262Y524673D01*
X280383Y525795D01*
X281667Y526728D01*
X283081Y527448D01*
X284451Y527893D01*
X284451Y520605D01*
X277163Y520605D01*
G37*
%LPD*%
%LPC*%
G36*
X264050Y515606D02*
X264050Y515606D01*
X271338Y515606D01*
X270893Y514236D01*
X270173Y512822D01*
X269240Y511538D01*
X268118Y510417D01*
X266834Y509484D01*
X265420Y508763D01*
X264050Y508318D01*
X264050Y515606D01*
G37*
%LPD*%
%LPC*%
G36*
X289450Y515606D02*
X289450Y515606D01*
X296738Y515606D01*
X296293Y514236D01*
X295573Y512822D01*
X294640Y511538D01*
X293518Y510417D01*
X292234Y509484D01*
X290820Y508763D01*
X289450Y508318D01*
X289450Y515606D01*
G37*
%LPD*%
%LPC*%
G36*
X431690Y33006D02*
X431690Y33006D01*
X438978Y33006D01*
X438533Y31636D01*
X437813Y30222D01*
X436880Y28938D01*
X435758Y27817D01*
X434474Y26884D01*
X433060Y26163D01*
X431690Y25718D01*
X431690Y33006D01*
G37*
%LPD*%
%LPC*%
G36*
X251763Y520605D02*
X251763Y520605D01*
X252208Y521975D01*
X252929Y523389D01*
X253862Y524673D01*
X254983Y525795D01*
X256267Y526728D01*
X257681Y527448D01*
X259051Y527893D01*
X259051Y520605D01*
X251763Y520605D01*
G37*
%LPD*%
%LPC*%
G36*
X257681Y508763D02*
X257681Y508763D01*
X256267Y509484D01*
X254983Y510417D01*
X253862Y511538D01*
X252929Y512822D01*
X252208Y514236D01*
X251763Y515606D01*
X259051Y515606D01*
X259051Y508318D01*
X257681Y508763D01*
G37*
%LPD*%
%LPC*%
G36*
X283081Y508763D02*
X283081Y508763D01*
X281667Y509484D01*
X280383Y510417D01*
X279262Y511538D01*
X278329Y512822D01*
X277608Y514236D01*
X277163Y515606D01*
X284451Y515606D01*
X284451Y508318D01*
X283081Y508763D01*
G37*
%LPD*%
%LPC*%
G36*
X425321Y26163D02*
X425321Y26163D01*
X423907Y26884D01*
X422623Y27817D01*
X421502Y28938D01*
X420569Y30222D01*
X419848Y31636D01*
X419403Y33006D01*
X426691Y33006D01*
X426691Y25718D01*
X425321Y26163D01*
G37*
%LPD*%
%LPC*%
G36*
X763275Y549923D02*
X763275Y549923D01*
X761861Y550643D01*
X760578Y551576D01*
X759456Y552698D01*
X758523Y553981D01*
X757803Y555395D01*
X757357Y556765D01*
X764645Y556765D01*
X764645Y549477D01*
X763275Y549923D01*
G37*
%LPD*%
%LPC*%
G36*
X224720Y264105D02*
X224720Y264105D01*
X224720Y264107D01*
X224722Y264107D01*
X224722Y264105D01*
X224720Y264105D01*
G37*
%LPD*%
%LPC*%
G36*
X224720Y365705D02*
X224720Y365705D01*
X224720Y365707D01*
X224722Y365707D01*
X224722Y365705D01*
X224720Y365705D01*
G37*
%LPD*%
%LPC*%
G36*
X58419Y370893D02*
X58419Y370893D01*
X58419Y370895D01*
X58421Y370895D01*
X58421Y370893D01*
X58419Y370893D01*
G37*
%LPD*%
%LPC*%
G36*
X33019Y370893D02*
X33019Y370893D01*
X33019Y370895D01*
X33021Y370895D01*
X33021Y370893D01*
X33019Y370893D01*
G37*
%LPD*%
%LPC*%
G36*
X726449Y61279D02*
X726449Y61279D01*
X726449Y61281D01*
X726451Y61281D01*
X726451Y61279D01*
X726449Y61279D01*
G37*
%LPD*%
%LPC*%
G36*
X563879Y525779D02*
X563879Y525779D01*
X563879Y525781D01*
X563881Y525781D01*
X563881Y525779D01*
X563879Y525779D01*
G37*
%LPD*%
%LPC*%
G36*
X135820Y467305D02*
X135820Y467305D01*
X135820Y467307D01*
X135822Y467307D01*
X135822Y467305D01*
X135820Y467305D01*
G37*
%LPD*%
%LPC*%
G36*
X33019Y200605D02*
X33019Y200605D01*
X33019Y200607D01*
X33021Y200607D01*
X33021Y200605D01*
X33019Y200605D01*
G37*
%LPD*%
%LPC*%
G36*
X552449Y30479D02*
X552449Y30479D01*
X552449Y30481D01*
X552451Y30481D01*
X552451Y30479D01*
X552449Y30479D01*
G37*
%LPD*%
%LPC*%
G36*
X58419Y200605D02*
X58419Y200605D01*
X58419Y200607D01*
X58421Y200607D01*
X58421Y200605D01*
X58419Y200605D01*
G37*
%LPD*%
%LPC*%
G36*
X224720Y467305D02*
X224720Y467305D01*
X224720Y467307D01*
X224722Y467307D01*
X224722Y467305D01*
X224720Y467305D01*
G37*
%LPD*%
%LPC*%
G36*
X679449Y31279D02*
X679449Y31279D01*
X679449Y31281D01*
X679451Y31281D01*
X679451Y31279D01*
X679449Y31279D01*
G37*
%LPD*%
D10*
X159951Y35506D03*
X185351Y518106D03*
X134551Y35506D03*
X109151Y35506D03*
X83751Y35506D03*
X58351Y35506D03*
X185351Y35506D03*
X210751Y35506D03*
X236151Y35506D03*
X276791Y35506D03*
X302191Y35506D03*
X327591Y35506D03*
X352991Y35506D03*
X378391Y35506D03*
X403791Y35506D03*
X429191Y35506D03*
X454591Y35506D03*
X159951Y518106D03*
X134551Y518106D03*
X109151Y518106D03*
X83751Y518106D03*
X58351Y518106D03*
X236151Y518106D03*
X261551Y518106D03*
X286951Y518106D03*
X312351Y518106D03*
X337751Y518106D03*
X363151Y518106D03*
D11*
X224721Y365706D03*
X222181Y340306D03*
X224721Y314906D03*
X224721Y467306D03*
X222181Y441906D03*
X224721Y416506D03*
X135821Y467306D03*
X133281Y441906D03*
X135821Y416506D03*
X133281Y391106D03*
X58420Y472494D03*
X33020Y472494D03*
X58420Y447094D03*
X33020Y447094D03*
X58420Y421694D03*
X33020Y421694D03*
X58420Y396294D03*
X33020Y396294D03*
X58420Y370894D03*
X33020Y370894D03*
X58420Y345494D03*
X33020Y345494D03*
X336481Y120596D03*
X308541Y120596D03*
X224721Y264106D03*
X222181Y238706D03*
X224721Y213306D03*
X222181Y187906D03*
X58420Y302206D03*
X33020Y302206D03*
X58420Y276806D03*
X33020Y276806D03*
X58420Y251406D03*
X33020Y251406D03*
X58420Y226006D03*
X33020Y226006D03*
X58420Y200606D03*
X33020Y200606D03*
X58420Y175206D03*
X33020Y175206D03*
X135821Y340306D03*
X133281Y314906D03*
X135821Y289506D03*
X133281Y264106D03*
X135821Y213306D03*
X133281Y187906D03*
X135821Y162506D03*
X133281Y137106D03*
D12*
X761389Y93587D03*
X886389Y93587D03*
X761389Y43587D03*
X886389Y43587D03*
D13*
X823889Y136087D03*
X823889Y1087D03*
D12*
X912960Y93587D03*
X1037960Y93587D03*
X912960Y43587D03*
X1037960Y43587D03*
D13*
X975460Y136087D03*
X975460Y1087D03*
D10*
X436945Y559265D03*
X462345Y559265D03*
X487745Y559265D03*
X513145Y559265D03*
X538545Y559265D03*
X563945Y559265D03*
X589345Y559265D03*
X614745Y559265D03*
X640145Y559265D03*
X665545Y559265D03*
X690945Y559265D03*
X716345Y559265D03*
X741745Y559265D03*
X767145Y559265D03*
X411545Y559265D03*
X386145Y559265D03*
D14*
X311145Y244265D03*
X1061145Y244265D03*
X311145Y554265D03*
X1061145Y554265D03*
D11*
X563880Y525780D03*
X589280Y525780D03*
X614680Y525780D03*
X640080Y525780D03*
X580390Y30480D03*
X552450Y30480D03*
D10*
X825500Y205740D03*
X845500Y205740D03*
X805500Y205740D03*
X805500Y160740D03*
X825500Y160740D03*
X845500Y160740D03*
X974090Y205740D03*
X994090Y205740D03*
X954090Y205740D03*
X954090Y160740D03*
X974090Y160740D03*
X994090Y160740D03*
D15*
X679450Y91280D03*
X679450Y31280D03*
X726450Y61280D03*
D16*
X1010920Y375920D03*
D17*
X292100Y101600D03*
X317500Y101600D03*
X355600Y101600D03*
X387350Y113030D03*
X398780Y113030D03*
X410210Y113030D03*
X387350Y123190D03*
X387350Y133350D03*
X398780Y133350D03*
X398780Y123190D03*
X410210Y133350D03*
X410210Y123190D03*
X546100Y88900D03*
X558800Y76200D03*
X596900Y76200D03*
X622300Y76200D03*
X495300Y177800D03*
X508000Y177800D03*
X304800Y165100D03*
X317500Y177800D03*
D16*
X109151Y111760D03*
X330200Y284480D03*
X200591Y104086D03*
X251460Y68580D03*
X93980Y68580D03*
X198120Y60960D03*
X381000Y63500D03*
X325120Y444500D03*
X355600Y416560D03*
X753110Y326390D03*
X337820Y350520D03*
X749300Y314960D03*
X388620Y78740D03*
X934720Y289560D03*
X401320Y68580D03*
X958850Y290830D03*
X1007110Y292100D03*
X96520Y383540D03*
X985520Y289560D03*
X101600Y373380D03*
X1036320Y340360D03*
X1010920Y340360D03*
X985520Y340360D03*
X960120Y340360D03*
X937260Y340360D03*
X909320Y340360D03*
X243840Y149860D03*
X810260Y406400D03*
X375920Y198120D03*
X586234Y296674D03*
X182880Y261620D03*
X594360Y307340D03*
X298450Y203200D03*
X403860Y345440D03*
D17*
X736600Y101600D03*
X711200Y101600D03*
X647700Y76200D03*
M02*
