G04 EAGLE Gerber RS-274X export*
G75*
%MOMM*%
%FSLAX34Y34*%
%LPD*%
%INTop Solder Mask*%
%IPPOS*%
%AMOC8*
5,1,8,0,0,1.08239X$1,22.5*%
G01*
%ADD10C,2.362200*%
%ADD11R,0.084838X4.655819*%
%ADD12R,0.084581X4.655819*%
%ADD13P,2.034460X8X202.500000*%
%ADD14R,2.082800X2.082800*%
%ADD15C,2.082800*%
%ADD16P,1.869504X8X292.500000*%
%ADD17R,2.103200X1.603200*%
%ADD18R,1.603200X2.003200*%
%ADD19R,1.703200X0.903200*%
%ADD20R,1.303200X1.203200*%
%ADD21R,1.283200X1.253200*%
%ADD22R,0.803200X2.403200*%
%ADD23R,1.203200X1.303200*%
%ADD24R,1.253200X1.283200*%
%ADD25R,0.853200X1.728200*%
%ADD26R,3.303200X2.603200*%
%ADD27R,3.203200X1.603200*%
%ADD28R,1.603200X1.303200*%
%ADD29R,0.990600X1.092200*%
%ADD30R,1.092200X0.990600*%
%ADD31R,1.753200X0.803200*%
%ADD32R,2.203200X1.703200*%
%ADD33R,2.438400X1.422400*%
%ADD34R,2.403200X3.803200*%
%ADD35R,3.103200X3.703200*%
%ADD36R,4.163200X4.163200*%
%ADD37R,2.003200X1.203200*%
%ADD38R,1.003200X1.003200*%
%ADD39C,1.879600*%
%ADD40C,1.803200*%
%ADD41C,3.719200*%
%ADD42C,1.981200*%
%ADD43C,1.711200*%
%ADD44C,4.521200*%


D10*
X58420Y86306D03*
X502851Y35506D03*
X58420Y551180D03*
D11*
X570617Y192170D03*
D12*
X571464Y192170D03*
X572310Y192170D03*
D11*
X573157Y192170D03*
D12*
X755190Y192170D03*
D11*
X756037Y192170D03*
D12*
X756884Y192170D03*
X757730Y192170D03*
D10*
X1066800Y7566D03*
X1016000Y551180D03*
D13*
X159951Y35506D03*
X185351Y518106D03*
X134551Y35506D03*
X109151Y35506D03*
X83751Y35506D03*
X58351Y35506D03*
X185351Y35506D03*
X210751Y35506D03*
X236151Y35506D03*
X276791Y35506D03*
X302191Y35506D03*
X327591Y35506D03*
X352991Y35506D03*
X378391Y35506D03*
X403791Y35506D03*
X429191Y35506D03*
X454591Y35506D03*
X159951Y518106D03*
X134551Y518106D03*
X109151Y518106D03*
X83751Y518106D03*
X58351Y518106D03*
X236151Y518106D03*
X261551Y518106D03*
X286951Y518106D03*
X312351Y518106D03*
X337751Y518106D03*
X363151Y518106D03*
D14*
X224721Y365706D03*
D15*
X222181Y340306D03*
X224721Y314906D03*
D14*
X224721Y467306D03*
D15*
X222181Y441906D03*
X224721Y416506D03*
D14*
X135821Y467306D03*
D15*
X133281Y441906D03*
X135821Y416506D03*
X133281Y391106D03*
D16*
X58420Y472494D03*
X33020Y472494D03*
X58420Y447094D03*
X33020Y447094D03*
X58420Y421694D03*
X33020Y421694D03*
X58420Y396294D03*
X33020Y396294D03*
X58420Y370894D03*
X33020Y370894D03*
X58420Y345494D03*
X33020Y345494D03*
D17*
X1060697Y346843D03*
X1069697Y478843D03*
D18*
X929697Y362843D03*
X929697Y422843D03*
D19*
X1031697Y355843D03*
X1031697Y366843D03*
X1035697Y377843D03*
X1031697Y388843D03*
X1035697Y399843D03*
X1031697Y410843D03*
X1027697Y421843D03*
X1031697Y432843D03*
D20*
X972711Y322557D03*
X972711Y305557D03*
X998111Y322557D03*
X998111Y305557D03*
X947311Y322557D03*
X947311Y305557D03*
X921911Y322557D03*
X921911Y305557D03*
D21*
X1040443Y305307D03*
X1040443Y322807D03*
D20*
X733991Y447866D03*
X733991Y430866D03*
X707459Y447974D03*
X707459Y430974D03*
D22*
X313621Y410756D03*
X313621Y358756D03*
X326321Y410756D03*
X300921Y410756D03*
X288221Y410756D03*
X326321Y358756D03*
X300921Y358756D03*
X288221Y358756D03*
D20*
X330131Y334836D03*
X330131Y317836D03*
D23*
X338580Y451344D03*
X355580Y451344D03*
D24*
X337891Y433016D03*
X355391Y433016D03*
D21*
X347926Y335209D03*
X347926Y317709D03*
D14*
X336481Y120596D03*
D15*
X308541Y120596D03*
D25*
X379799Y97394D03*
X392499Y97394D03*
X405199Y97394D03*
X417899Y97394D03*
X417899Y151634D03*
X405199Y151634D03*
X392499Y151634D03*
X379799Y151634D03*
D26*
X398849Y124514D03*
D20*
X434286Y112709D03*
X434286Y95709D03*
D27*
X489011Y115516D03*
X537011Y115516D03*
D28*
X528320Y165260D03*
X528320Y185260D03*
D14*
X224721Y264106D03*
D15*
X222181Y238706D03*
X224721Y213306D03*
X222181Y187906D03*
D29*
X213545Y101546D03*
X232849Y101546D03*
X223197Y121866D03*
D23*
X231951Y86306D03*
X214951Y86306D03*
X214951Y137106D03*
X231951Y137106D03*
D29*
X251645Y101546D03*
X270949Y101546D03*
X261297Y121866D03*
D23*
X270051Y86306D03*
X253051Y86306D03*
X270051Y137106D03*
X253051Y137106D03*
D16*
X58420Y302206D03*
X33020Y302206D03*
X58420Y276806D03*
X33020Y276806D03*
X58420Y251406D03*
X33020Y251406D03*
X58420Y226006D03*
X33020Y226006D03*
X58420Y200606D03*
X33020Y200606D03*
X58420Y175206D03*
X33020Y175206D03*
D14*
X135821Y340306D03*
D15*
X133281Y314906D03*
X135821Y289506D03*
X133281Y264106D03*
D14*
X135821Y213306D03*
D15*
X133281Y187906D03*
X135821Y162506D03*
X133281Y137106D03*
D30*
X123544Y96212D03*
X123544Y76908D03*
X143864Y86560D03*
X374581Y309572D03*
X374581Y290268D03*
X394901Y299920D03*
D20*
X161644Y76960D03*
X161644Y93960D03*
X105765Y76536D03*
X105765Y93536D03*
D23*
X411816Y299789D03*
X428816Y299789D03*
D20*
X356801Y288626D03*
X356801Y305626D03*
D31*
X837933Y416942D03*
X837933Y429642D03*
X837933Y442342D03*
X837933Y455042D03*
X783933Y455042D03*
X783933Y442342D03*
X783933Y429642D03*
X783933Y416942D03*
D23*
X504526Y430599D03*
X521526Y430599D03*
X521577Y408147D03*
X504577Y408147D03*
D21*
X411411Y376996D03*
X411411Y359496D03*
D32*
X438081Y385786D03*
X438081Y355786D03*
D33*
X482146Y383725D03*
X482146Y360611D03*
X482146Y337497D03*
D34*
X544124Y360611D03*
D20*
X180286Y372569D03*
X180286Y389569D03*
D21*
X180394Y407741D03*
X180394Y425241D03*
D23*
X76590Y110436D03*
X93590Y110436D03*
D24*
X93840Y126946D03*
X76340Y126946D03*
D20*
X309811Y334836D03*
X309811Y317836D03*
X306848Y446106D03*
X306848Y463106D03*
D21*
X349181Y378546D03*
X349181Y396046D03*
D35*
X805133Y526574D03*
X937133Y526574D03*
D36*
X871133Y526574D03*
D37*
X889762Y448739D03*
X889762Y423239D03*
D20*
X1073615Y136302D03*
X1073615Y119302D03*
D38*
X1073615Y155859D03*
X1073615Y170859D03*
D20*
X1019285Y305582D03*
X1019285Y322582D03*
X895812Y305564D03*
X895812Y322564D03*
D21*
X1058228Y305332D03*
X1058228Y322832D03*
D10*
X761389Y93587D03*
X886389Y93587D03*
X761389Y43587D03*
X886389Y43587D03*
D39*
X823889Y136087D03*
X823889Y1087D03*
D40*
X823889Y113587D03*
X823889Y23587D03*
D10*
X912960Y93587D03*
X1037960Y93587D03*
X912960Y43587D03*
X1037960Y43587D03*
D39*
X975460Y136087D03*
X975460Y1087D03*
D40*
X975460Y113587D03*
X975460Y23587D03*
D23*
X505379Y291226D03*
X522379Y291226D03*
X522476Y313298D03*
X505476Y313298D03*
D21*
X413985Y264491D03*
X413985Y246991D03*
D32*
X438545Y269064D03*
X438545Y239064D03*
D33*
X482487Y267856D03*
X482487Y244742D03*
X482487Y221628D03*
D34*
X544465Y244742D03*
D38*
X424835Y183642D03*
X409835Y183642D03*
X425681Y198120D03*
X410681Y198120D03*
D23*
X443366Y184404D03*
X460366Y184404D03*
X443366Y204724D03*
X460366Y204724D03*
D20*
X286204Y446093D03*
X286204Y463093D03*
X289111Y334534D03*
X289111Y317534D03*
D39*
X436945Y559265D03*
X462345Y559265D03*
X487745Y559265D03*
X513145Y559265D03*
X538545Y559265D03*
X563945Y559265D03*
X589345Y559265D03*
X614745Y559265D03*
X640145Y559265D03*
X665545Y559265D03*
X690945Y559265D03*
X716345Y559265D03*
X741745Y559265D03*
X767145Y559265D03*
X411545Y559265D03*
X386145Y559265D03*
D41*
X311145Y244265D03*
X1061145Y244265D03*
X311145Y554265D03*
X1061145Y554265D03*
D20*
X896620Y193920D03*
X896620Y176920D03*
X1041400Y193920D03*
X1041400Y176920D03*
D38*
X1024890Y177920D03*
X1024890Y192920D03*
X876300Y177920D03*
X876300Y192920D03*
D42*
X563880Y525780D03*
X589280Y525780D03*
X614680Y525780D03*
X640080Y525780D03*
D14*
X580390Y30480D03*
D15*
X552450Y30480D03*
D38*
X88900Y172840D03*
X88900Y187840D03*
D23*
X76590Y144780D03*
X93590Y144780D03*
D38*
X88900Y363100D03*
X88900Y348100D03*
D20*
X88900Y331080D03*
X88900Y314080D03*
D43*
X825500Y205740D03*
X845500Y205740D03*
X805500Y205740D03*
X805500Y160740D03*
X825500Y160740D03*
X845500Y160740D03*
X974090Y205740D03*
X994090Y205740D03*
X954090Y205740D03*
X954090Y160740D03*
X974090Y160740D03*
X994090Y160740D03*
D23*
X194700Y546100D03*
X211700Y546100D03*
X369180Y247650D03*
X352180Y247650D03*
D44*
X679450Y91280D03*
X679450Y31280D03*
X726450Y61280D03*
M02*
