M48
;GenerationSoftware,Autodesk,EAGLE,9.5.0*%
;CreationDate,2019-09-28T06:40:05Z*%
FMAT,2
ICI,OFF
METRIC,TZ,000.000
T10C0.300
T9C0.350
T8C0.800
T7C1.000
T6C1.016
T5C1.200
T4C1.600
T3C2.159
T2C2.500
T1C2.997
%
G90
M71
T1
X72645Y6128
X67945Y3128
X67945Y9128
T2
X31114Y24426
X106114Y24426
X106114Y55426
X31114Y55426
T3
X5842Y8631
X50285Y3551
X5842Y55118
X106680Y757
X101600Y55118
T4
X82389Y11359
X82389Y2359
X97546Y11359
X97546Y2359
T5
X103796Y4359
X91296Y4359
X103796Y9359
X91296Y9359
X88639Y4359
X76139Y4359
X88639Y9359
X76139Y9359
T6
X5842Y17521
X3302Y17521
X13582Y34031
X13328Y31491
X13582Y28951
X13328Y26411
X13582Y21331
X13328Y18791
X13582Y16251
X13328Y13711
X22472Y46731
X56388Y52578
X58928Y52578
X61468Y52578
X64008Y52578
X58039Y3048
X55245Y3048
X22472Y36571
X22218Y34031
X22472Y31491
X22218Y18791
X22218Y44191
X22472Y41651
X13582Y46731
X13328Y44191
X13582Y41651
X13328Y39111
X5842Y47249
X3302Y47249
X5842Y44709
X3302Y44709
X5842Y42169
X3302Y42169
X5842Y39629
X3302Y39629
X5842Y37089
X3302Y37089
X5842Y34549
X3302Y34549
X33648Y12060
X30854Y12060
X22472Y26411
X22218Y23871
X22472Y21331
X5842Y30221
X3302Y30221
X5842Y27681
X3302Y27681
X5842Y25141
X3302Y25141
X5842Y22601
X3302Y22601
X5842Y20061
X3302Y20061
T7
X40379Y3551
X15995Y3551
X18535Y51811
X82550Y20574
X10915Y3551
X8375Y3551
X5835Y3551
X18535Y3551
X23615Y3551
X27679Y3551
X30219Y3551
X32759Y3551
X35299Y3551
X37839Y3551
X8375Y51811
X23615Y51811
X5835Y51811
X10915Y51811
X43694Y55926
X46234Y55926
X48774Y55926
X51314Y55926
X53854Y55926
X56394Y55926
X58934Y55926
X61474Y55926
X64014Y55926
X66554Y55926
X69094Y55926
X71634Y55926
X74174Y55926
X76714Y55926
X41154Y55926
X38614Y55926
X13455Y51811
X15995Y51811
X45459Y3551
X21075Y3551
X36315Y51811
X33775Y51811
X31235Y51811
X28695Y51811
X26155Y51811
X84550Y20574
X80550Y20574
X13455Y3551
X80550Y16074
X82550Y16074
X84550Y16074
X97409Y20574
X99409Y20574
X95409Y20574
X95409Y16074
X97409Y16074
X99409Y16074
X42919Y3551
T8
X82389Y13609
X97546Y109
X97546Y13609
X82389Y109
T9
X101092Y37592
X103632Y34036
X101092Y34036
X98552Y34036
X96012Y34036
X93726Y34036
X24384Y14986
X38862Y7874
X81026Y40640
X37592Y19812
X18288Y26162
X59436Y30734
X29845Y20320
X40386Y34544
X90932Y34036
X35560Y41656
X25146Y6858
X10915Y11176
X33020Y28448
X20059Y10409
X9398Y6858
X19812Y6096
X38100Y6350
X32512Y44450
X75311Y32639
X33782Y35052
X74930Y31496
X58623Y29667
X93472Y28956
X40132Y6858
X95885Y29083
X100711Y29210
X9652Y38354
X98552Y28956
X10160Y37338
T10
X29210Y10160
X31750Y10160
X35560Y10160
X38735Y11303
X39878Y11303
X41021Y11303
X38735Y13335
X39878Y13335
X39878Y12319
X41021Y13335
X41021Y12319
X54610Y8890
X59690Y7620
X62230Y7620
X49530Y17780
X38735Y12319
X55880Y7620
X31750Y17780
X30480Y16510
X50800Y17780
X73660Y10160
X71120Y10160
X64770Y7620
M30