G04 EAGLE Gerber RS-274X export*
G75*
%MOMM*%
%FSLAX34Y34*%
%LPD*%
%INTop Paste*%
%IPPOS*%
%AMOC8*
5,1,8,0,0,1.08239X$1,22.5*%
G01*
%ADD10R,1.900000X1.400000*%
%ADD11R,1.400000X1.800000*%
%ADD12R,1.500000X0.700000*%
%ADD13R,1.100000X1.000000*%
%ADD14R,1.080000X1.050000*%
%ADD15R,0.600000X2.200000*%
%ADD16R,1.000000X1.100000*%
%ADD17R,1.050000X1.080000*%
%ADD18R,0.650000X1.525000*%
%ADD19R,3.100000X2.400000*%
%ADD20R,3.000000X1.400000*%
%ADD21R,1.400000X1.100000*%
%ADD22R,0.787400X0.889000*%
%ADD23R,0.889000X0.787400*%
%ADD24R,1.550000X0.600000*%
%ADD25R,2.000000X1.500000*%
%ADD26R,2.235200X1.219200*%
%ADD27R,2.200000X3.600000*%
%ADD28R,2.900000X3.500000*%
%ADD29R,3.960000X3.960000*%
%ADD30R,1.800000X1.000000*%
%ADD31R,0.800000X0.800000*%


D10*
X1060697Y346843D03*
X1069697Y478843D03*
D11*
X929697Y362843D03*
X929697Y422843D03*
D12*
X1031697Y355843D03*
X1031697Y366843D03*
X1035697Y377843D03*
X1031697Y388843D03*
X1035697Y399843D03*
X1031697Y410843D03*
X1027697Y421843D03*
X1031697Y432843D03*
D13*
X972711Y322557D03*
X972711Y305557D03*
X998111Y322557D03*
X998111Y305557D03*
X947311Y322557D03*
X947311Y305557D03*
X921911Y322557D03*
X921911Y305557D03*
D14*
X1040443Y305307D03*
X1040443Y322807D03*
D13*
X733991Y447866D03*
X733991Y430866D03*
X707459Y447974D03*
X707459Y430974D03*
D15*
X313621Y410756D03*
X313621Y358756D03*
X326321Y410756D03*
X300921Y410756D03*
X288221Y410756D03*
X326321Y358756D03*
X300921Y358756D03*
X288221Y358756D03*
D13*
X330131Y334836D03*
X330131Y317836D03*
D16*
X338580Y451344D03*
X355580Y451344D03*
D17*
X337891Y433016D03*
X355391Y433016D03*
D14*
X347926Y335209D03*
X347926Y317709D03*
D18*
X379799Y97394D03*
X392499Y97394D03*
X405199Y97394D03*
X417899Y97394D03*
X417899Y151634D03*
X405199Y151634D03*
X392499Y151634D03*
X379799Y151634D03*
D19*
X398849Y124514D03*
D13*
X434286Y112709D03*
X434286Y95709D03*
D20*
X489011Y115516D03*
X537011Y115516D03*
D21*
X528320Y165260D03*
X528320Y185260D03*
D22*
X213545Y101546D03*
X232849Y101546D03*
X223197Y121866D03*
D16*
X231951Y86306D03*
X214951Y86306D03*
X214951Y137106D03*
X231951Y137106D03*
D22*
X251645Y101546D03*
X270949Y101546D03*
X261297Y121866D03*
D16*
X270051Y86306D03*
X253051Y86306D03*
X270051Y137106D03*
X253051Y137106D03*
D23*
X123544Y96212D03*
X123544Y76908D03*
X143864Y86560D03*
X374581Y309572D03*
X374581Y290268D03*
X394901Y299920D03*
D13*
X161644Y76960D03*
X161644Y93960D03*
X105765Y76536D03*
X105765Y93536D03*
D16*
X411816Y299789D03*
X428816Y299789D03*
D13*
X356801Y288626D03*
X356801Y305626D03*
D24*
X837933Y416942D03*
X837933Y429642D03*
X837933Y442342D03*
X837933Y455042D03*
X783933Y455042D03*
X783933Y442342D03*
X783933Y429642D03*
X783933Y416942D03*
D16*
X504526Y430599D03*
X521526Y430599D03*
X521577Y408147D03*
X504577Y408147D03*
D14*
X411411Y376996D03*
X411411Y359496D03*
D25*
X438081Y385786D03*
X438081Y355786D03*
D26*
X482146Y383725D03*
X482146Y360611D03*
X482146Y337497D03*
D27*
X544124Y360611D03*
D13*
X180286Y372569D03*
X180286Y389569D03*
D14*
X180394Y407741D03*
X180394Y425241D03*
D16*
X76590Y110436D03*
X93590Y110436D03*
D17*
X93840Y126946D03*
X76340Y126946D03*
D13*
X309811Y334836D03*
X309811Y317836D03*
X306848Y446106D03*
X306848Y463106D03*
D14*
X349181Y378546D03*
X349181Y396046D03*
D28*
X805133Y526574D03*
X937133Y526574D03*
D29*
X871133Y526574D03*
D30*
X889762Y448739D03*
X889762Y423239D03*
D13*
X1073615Y136302D03*
X1073615Y119302D03*
D31*
X1073615Y155859D03*
X1073615Y170859D03*
D13*
X1019285Y305582D03*
X1019285Y322582D03*
X895812Y305564D03*
X895812Y322564D03*
D14*
X1058228Y305332D03*
X1058228Y322832D03*
D16*
X505379Y291226D03*
X522379Y291226D03*
X522476Y313298D03*
X505476Y313298D03*
D14*
X413985Y264491D03*
X413985Y246991D03*
D25*
X438545Y269064D03*
X438545Y239064D03*
D26*
X482487Y267856D03*
X482487Y244742D03*
X482487Y221628D03*
D27*
X544465Y244742D03*
D31*
X424835Y183642D03*
X409835Y183642D03*
X425681Y198120D03*
X410681Y198120D03*
D16*
X443366Y184404D03*
X460366Y184404D03*
X443366Y204724D03*
X460366Y204724D03*
D13*
X286204Y446093D03*
X286204Y463093D03*
X289111Y334534D03*
X289111Y317534D03*
X896620Y193920D03*
X896620Y176920D03*
X1041400Y193920D03*
X1041400Y176920D03*
D31*
X1024890Y177920D03*
X1024890Y192920D03*
X876300Y177920D03*
X876300Y192920D03*
X88900Y172840D03*
X88900Y187840D03*
D16*
X76590Y144780D03*
X93590Y144780D03*
D31*
X88900Y363100D03*
X88900Y348100D03*
D13*
X88900Y331080D03*
X88900Y314080D03*
D16*
X194700Y546100D03*
X211700Y546100D03*
X369180Y247650D03*
X352180Y247650D03*
M02*
