G04 EAGLE Gerber RS-274X export*
G75*
%MOMM*%
%FSLAX34Y34*%
%LPD*%
%INMechanical*%
%IPPOS*%
%AMOC8*
5,1,8,0,0,1.08239X$1,22.5*%
G01*
%ADD10C,0.076200*%
%ADD11C,0.000000*%
%ADD12C,0.254000*%


D10*
X32766Y518160D02*
X7551Y492706D01*
X7551Y165046D01*
X32951Y139646D01*
X57607Y-15240D02*
X1092200Y-15240D01*
X57607Y-15240D02*
X32951Y9362D01*
X32951Y139646D01*
X32766Y518160D02*
X32766Y558800D01*
X55880Y584200D01*
X1092200Y584200D01*
X1092200Y-15240D01*
D11*
X47625Y86306D02*
X47628Y86571D01*
X47638Y86836D01*
X47654Y87100D01*
X47677Y87364D01*
X47706Y87627D01*
X47742Y87890D01*
X47784Y88152D01*
X47832Y88412D01*
X47887Y88671D01*
X47949Y88929D01*
X48016Y89185D01*
X48090Y89440D01*
X48170Y89692D01*
X48256Y89943D01*
X48348Y90191D01*
X48447Y90437D01*
X48551Y90681D01*
X48661Y90921D01*
X48778Y91160D01*
X48900Y91395D01*
X49027Y91627D01*
X49161Y91856D01*
X49300Y92081D01*
X49444Y92303D01*
X49594Y92522D01*
X49749Y92737D01*
X49910Y92947D01*
X50075Y93154D01*
X50246Y93357D01*
X50421Y93555D01*
X50602Y93750D01*
X50787Y93939D01*
X50976Y94124D01*
X51171Y94305D01*
X51369Y94480D01*
X51572Y94651D01*
X51779Y94816D01*
X51989Y94977D01*
X52204Y95132D01*
X52423Y95282D01*
X52645Y95426D01*
X52870Y95565D01*
X53099Y95699D01*
X53331Y95826D01*
X53566Y95948D01*
X53805Y96065D01*
X54045Y96175D01*
X54289Y96279D01*
X54535Y96378D01*
X54783Y96470D01*
X55034Y96556D01*
X55286Y96636D01*
X55541Y96710D01*
X55797Y96777D01*
X56055Y96839D01*
X56314Y96894D01*
X56574Y96942D01*
X56836Y96984D01*
X57099Y97020D01*
X57362Y97049D01*
X57626Y97072D01*
X57890Y97088D01*
X58155Y97098D01*
X58420Y97101D01*
X58685Y97098D01*
X58950Y97088D01*
X59214Y97072D01*
X59478Y97049D01*
X59741Y97020D01*
X60004Y96984D01*
X60266Y96942D01*
X60526Y96894D01*
X60785Y96839D01*
X61043Y96777D01*
X61299Y96710D01*
X61554Y96636D01*
X61806Y96556D01*
X62057Y96470D01*
X62305Y96378D01*
X62551Y96279D01*
X62795Y96175D01*
X63035Y96065D01*
X63274Y95948D01*
X63509Y95826D01*
X63741Y95699D01*
X63970Y95565D01*
X64195Y95426D01*
X64417Y95282D01*
X64636Y95132D01*
X64851Y94977D01*
X65061Y94816D01*
X65268Y94651D01*
X65471Y94480D01*
X65669Y94305D01*
X65864Y94124D01*
X66053Y93939D01*
X66238Y93750D01*
X66419Y93555D01*
X66594Y93357D01*
X66765Y93154D01*
X66930Y92947D01*
X67091Y92737D01*
X67246Y92522D01*
X67396Y92303D01*
X67540Y92081D01*
X67679Y91856D01*
X67813Y91627D01*
X67940Y91395D01*
X68062Y91160D01*
X68179Y90921D01*
X68289Y90681D01*
X68393Y90437D01*
X68492Y90191D01*
X68584Y89943D01*
X68670Y89692D01*
X68750Y89440D01*
X68824Y89185D01*
X68891Y88929D01*
X68953Y88671D01*
X69008Y88412D01*
X69056Y88152D01*
X69098Y87890D01*
X69134Y87627D01*
X69163Y87364D01*
X69186Y87100D01*
X69202Y86836D01*
X69212Y86571D01*
X69215Y86306D01*
X69212Y86041D01*
X69202Y85776D01*
X69186Y85512D01*
X69163Y85248D01*
X69134Y84985D01*
X69098Y84722D01*
X69056Y84460D01*
X69008Y84200D01*
X68953Y83941D01*
X68891Y83683D01*
X68824Y83427D01*
X68750Y83172D01*
X68670Y82920D01*
X68584Y82669D01*
X68492Y82421D01*
X68393Y82175D01*
X68289Y81931D01*
X68179Y81691D01*
X68062Y81452D01*
X67940Y81217D01*
X67813Y80985D01*
X67679Y80756D01*
X67540Y80531D01*
X67396Y80309D01*
X67246Y80090D01*
X67091Y79875D01*
X66930Y79665D01*
X66765Y79458D01*
X66594Y79255D01*
X66419Y79057D01*
X66238Y78862D01*
X66053Y78673D01*
X65864Y78488D01*
X65669Y78307D01*
X65471Y78132D01*
X65268Y77961D01*
X65061Y77796D01*
X64851Y77635D01*
X64636Y77480D01*
X64417Y77330D01*
X64195Y77186D01*
X63970Y77047D01*
X63741Y76913D01*
X63509Y76786D01*
X63274Y76664D01*
X63035Y76547D01*
X62795Y76437D01*
X62551Y76333D01*
X62305Y76234D01*
X62057Y76142D01*
X61806Y76056D01*
X61554Y75976D01*
X61299Y75902D01*
X61043Y75835D01*
X60785Y75773D01*
X60526Y75718D01*
X60266Y75670D01*
X60004Y75628D01*
X59741Y75592D01*
X59478Y75563D01*
X59214Y75540D01*
X58950Y75524D01*
X58685Y75514D01*
X58420Y75511D01*
X58155Y75514D01*
X57890Y75524D01*
X57626Y75540D01*
X57362Y75563D01*
X57099Y75592D01*
X56836Y75628D01*
X56574Y75670D01*
X56314Y75718D01*
X56055Y75773D01*
X55797Y75835D01*
X55541Y75902D01*
X55286Y75976D01*
X55034Y76056D01*
X54783Y76142D01*
X54535Y76234D01*
X54289Y76333D01*
X54045Y76437D01*
X53805Y76547D01*
X53566Y76664D01*
X53331Y76786D01*
X53099Y76913D01*
X52870Y77047D01*
X52645Y77186D01*
X52423Y77330D01*
X52204Y77480D01*
X51989Y77635D01*
X51779Y77796D01*
X51572Y77961D01*
X51369Y78132D01*
X51171Y78307D01*
X50976Y78488D01*
X50787Y78673D01*
X50602Y78862D01*
X50421Y79057D01*
X50246Y79255D01*
X50075Y79458D01*
X49910Y79665D01*
X49749Y79875D01*
X49594Y80090D01*
X49444Y80309D01*
X49300Y80531D01*
X49161Y80756D01*
X49027Y80985D01*
X48900Y81217D01*
X48778Y81452D01*
X48661Y81691D01*
X48551Y81931D01*
X48447Y82175D01*
X48348Y82421D01*
X48256Y82669D01*
X48170Y82920D01*
X48090Y83172D01*
X48016Y83427D01*
X47949Y83683D01*
X47887Y83941D01*
X47832Y84200D01*
X47784Y84460D01*
X47742Y84722D01*
X47706Y84985D01*
X47677Y85248D01*
X47654Y85512D01*
X47638Y85776D01*
X47628Y86041D01*
X47625Y86306D01*
X492056Y35506D02*
X492059Y35771D01*
X492069Y36036D01*
X492085Y36300D01*
X492108Y36564D01*
X492137Y36827D01*
X492173Y37090D01*
X492215Y37352D01*
X492263Y37612D01*
X492318Y37871D01*
X492380Y38129D01*
X492447Y38385D01*
X492521Y38640D01*
X492601Y38892D01*
X492687Y39143D01*
X492779Y39391D01*
X492878Y39637D01*
X492982Y39881D01*
X493092Y40121D01*
X493209Y40360D01*
X493331Y40595D01*
X493458Y40827D01*
X493592Y41056D01*
X493731Y41281D01*
X493875Y41503D01*
X494025Y41722D01*
X494180Y41937D01*
X494341Y42147D01*
X494506Y42354D01*
X494677Y42557D01*
X494852Y42755D01*
X495033Y42950D01*
X495218Y43139D01*
X495407Y43324D01*
X495602Y43505D01*
X495800Y43680D01*
X496003Y43851D01*
X496210Y44016D01*
X496420Y44177D01*
X496635Y44332D01*
X496854Y44482D01*
X497076Y44626D01*
X497301Y44765D01*
X497530Y44899D01*
X497762Y45026D01*
X497997Y45148D01*
X498236Y45265D01*
X498476Y45375D01*
X498720Y45479D01*
X498966Y45578D01*
X499214Y45670D01*
X499465Y45756D01*
X499717Y45836D01*
X499972Y45910D01*
X500228Y45977D01*
X500486Y46039D01*
X500745Y46094D01*
X501005Y46142D01*
X501267Y46184D01*
X501530Y46220D01*
X501793Y46249D01*
X502057Y46272D01*
X502321Y46288D01*
X502586Y46298D01*
X502851Y46301D01*
X503116Y46298D01*
X503381Y46288D01*
X503645Y46272D01*
X503909Y46249D01*
X504172Y46220D01*
X504435Y46184D01*
X504697Y46142D01*
X504957Y46094D01*
X505216Y46039D01*
X505474Y45977D01*
X505730Y45910D01*
X505985Y45836D01*
X506237Y45756D01*
X506488Y45670D01*
X506736Y45578D01*
X506982Y45479D01*
X507226Y45375D01*
X507466Y45265D01*
X507705Y45148D01*
X507940Y45026D01*
X508172Y44899D01*
X508401Y44765D01*
X508626Y44626D01*
X508848Y44482D01*
X509067Y44332D01*
X509282Y44177D01*
X509492Y44016D01*
X509699Y43851D01*
X509902Y43680D01*
X510100Y43505D01*
X510295Y43324D01*
X510484Y43139D01*
X510669Y42950D01*
X510850Y42755D01*
X511025Y42557D01*
X511196Y42354D01*
X511361Y42147D01*
X511522Y41937D01*
X511677Y41722D01*
X511827Y41503D01*
X511971Y41281D01*
X512110Y41056D01*
X512244Y40827D01*
X512371Y40595D01*
X512493Y40360D01*
X512610Y40121D01*
X512720Y39881D01*
X512824Y39637D01*
X512923Y39391D01*
X513015Y39143D01*
X513101Y38892D01*
X513181Y38640D01*
X513255Y38385D01*
X513322Y38129D01*
X513384Y37871D01*
X513439Y37612D01*
X513487Y37352D01*
X513529Y37090D01*
X513565Y36827D01*
X513594Y36564D01*
X513617Y36300D01*
X513633Y36036D01*
X513643Y35771D01*
X513646Y35506D01*
X513643Y35241D01*
X513633Y34976D01*
X513617Y34712D01*
X513594Y34448D01*
X513565Y34185D01*
X513529Y33922D01*
X513487Y33660D01*
X513439Y33400D01*
X513384Y33141D01*
X513322Y32883D01*
X513255Y32627D01*
X513181Y32372D01*
X513101Y32120D01*
X513015Y31869D01*
X512923Y31621D01*
X512824Y31375D01*
X512720Y31131D01*
X512610Y30891D01*
X512493Y30652D01*
X512371Y30417D01*
X512244Y30185D01*
X512110Y29956D01*
X511971Y29731D01*
X511827Y29509D01*
X511677Y29290D01*
X511522Y29075D01*
X511361Y28865D01*
X511196Y28658D01*
X511025Y28455D01*
X510850Y28257D01*
X510669Y28062D01*
X510484Y27873D01*
X510295Y27688D01*
X510100Y27507D01*
X509902Y27332D01*
X509699Y27161D01*
X509492Y26996D01*
X509282Y26835D01*
X509067Y26680D01*
X508848Y26530D01*
X508626Y26386D01*
X508401Y26247D01*
X508172Y26113D01*
X507940Y25986D01*
X507705Y25864D01*
X507466Y25747D01*
X507226Y25637D01*
X506982Y25533D01*
X506736Y25434D01*
X506488Y25342D01*
X506237Y25256D01*
X505985Y25176D01*
X505730Y25102D01*
X505474Y25035D01*
X505216Y24973D01*
X504957Y24918D01*
X504697Y24870D01*
X504435Y24828D01*
X504172Y24792D01*
X503909Y24763D01*
X503645Y24740D01*
X503381Y24724D01*
X503116Y24714D01*
X502851Y24711D01*
X502586Y24714D01*
X502321Y24724D01*
X502057Y24740D01*
X501793Y24763D01*
X501530Y24792D01*
X501267Y24828D01*
X501005Y24870D01*
X500745Y24918D01*
X500486Y24973D01*
X500228Y25035D01*
X499972Y25102D01*
X499717Y25176D01*
X499465Y25256D01*
X499214Y25342D01*
X498966Y25434D01*
X498720Y25533D01*
X498476Y25637D01*
X498236Y25747D01*
X497997Y25864D01*
X497762Y25986D01*
X497530Y26113D01*
X497301Y26247D01*
X497076Y26386D01*
X496854Y26530D01*
X496635Y26680D01*
X496420Y26835D01*
X496210Y26996D01*
X496003Y27161D01*
X495800Y27332D01*
X495602Y27507D01*
X495407Y27688D01*
X495218Y27873D01*
X495033Y28062D01*
X494852Y28257D01*
X494677Y28455D01*
X494506Y28658D01*
X494341Y28865D01*
X494180Y29075D01*
X494025Y29290D01*
X493875Y29509D01*
X493731Y29731D01*
X493592Y29956D01*
X493458Y30185D01*
X493331Y30417D01*
X493209Y30652D01*
X493092Y30891D01*
X492982Y31131D01*
X492878Y31375D01*
X492779Y31621D01*
X492687Y31869D01*
X492601Y32120D01*
X492521Y32372D01*
X492447Y32627D01*
X492380Y32883D01*
X492318Y33141D01*
X492263Y33400D01*
X492215Y33660D01*
X492173Y33922D01*
X492137Y34185D01*
X492108Y34448D01*
X492085Y34712D01*
X492069Y34976D01*
X492059Y35241D01*
X492056Y35506D01*
X47625Y551180D02*
X47628Y551445D01*
X47638Y551710D01*
X47654Y551974D01*
X47677Y552238D01*
X47706Y552501D01*
X47742Y552764D01*
X47784Y553026D01*
X47832Y553286D01*
X47887Y553545D01*
X47949Y553803D01*
X48016Y554059D01*
X48090Y554314D01*
X48170Y554566D01*
X48256Y554817D01*
X48348Y555065D01*
X48447Y555311D01*
X48551Y555555D01*
X48661Y555795D01*
X48778Y556034D01*
X48900Y556269D01*
X49027Y556501D01*
X49161Y556730D01*
X49300Y556955D01*
X49444Y557177D01*
X49594Y557396D01*
X49749Y557611D01*
X49910Y557821D01*
X50075Y558028D01*
X50246Y558231D01*
X50421Y558429D01*
X50602Y558624D01*
X50787Y558813D01*
X50976Y558998D01*
X51171Y559179D01*
X51369Y559354D01*
X51572Y559525D01*
X51779Y559690D01*
X51989Y559851D01*
X52204Y560006D01*
X52423Y560156D01*
X52645Y560300D01*
X52870Y560439D01*
X53099Y560573D01*
X53331Y560700D01*
X53566Y560822D01*
X53805Y560939D01*
X54045Y561049D01*
X54289Y561153D01*
X54535Y561252D01*
X54783Y561344D01*
X55034Y561430D01*
X55286Y561510D01*
X55541Y561584D01*
X55797Y561651D01*
X56055Y561713D01*
X56314Y561768D01*
X56574Y561816D01*
X56836Y561858D01*
X57099Y561894D01*
X57362Y561923D01*
X57626Y561946D01*
X57890Y561962D01*
X58155Y561972D01*
X58420Y561975D01*
X58685Y561972D01*
X58950Y561962D01*
X59214Y561946D01*
X59478Y561923D01*
X59741Y561894D01*
X60004Y561858D01*
X60266Y561816D01*
X60526Y561768D01*
X60785Y561713D01*
X61043Y561651D01*
X61299Y561584D01*
X61554Y561510D01*
X61806Y561430D01*
X62057Y561344D01*
X62305Y561252D01*
X62551Y561153D01*
X62795Y561049D01*
X63035Y560939D01*
X63274Y560822D01*
X63509Y560700D01*
X63741Y560573D01*
X63970Y560439D01*
X64195Y560300D01*
X64417Y560156D01*
X64636Y560006D01*
X64851Y559851D01*
X65061Y559690D01*
X65268Y559525D01*
X65471Y559354D01*
X65669Y559179D01*
X65864Y558998D01*
X66053Y558813D01*
X66238Y558624D01*
X66419Y558429D01*
X66594Y558231D01*
X66765Y558028D01*
X66930Y557821D01*
X67091Y557611D01*
X67246Y557396D01*
X67396Y557177D01*
X67540Y556955D01*
X67679Y556730D01*
X67813Y556501D01*
X67940Y556269D01*
X68062Y556034D01*
X68179Y555795D01*
X68289Y555555D01*
X68393Y555311D01*
X68492Y555065D01*
X68584Y554817D01*
X68670Y554566D01*
X68750Y554314D01*
X68824Y554059D01*
X68891Y553803D01*
X68953Y553545D01*
X69008Y553286D01*
X69056Y553026D01*
X69098Y552764D01*
X69134Y552501D01*
X69163Y552238D01*
X69186Y551974D01*
X69202Y551710D01*
X69212Y551445D01*
X69215Y551180D01*
X69212Y550915D01*
X69202Y550650D01*
X69186Y550386D01*
X69163Y550122D01*
X69134Y549859D01*
X69098Y549596D01*
X69056Y549334D01*
X69008Y549074D01*
X68953Y548815D01*
X68891Y548557D01*
X68824Y548301D01*
X68750Y548046D01*
X68670Y547794D01*
X68584Y547543D01*
X68492Y547295D01*
X68393Y547049D01*
X68289Y546805D01*
X68179Y546565D01*
X68062Y546326D01*
X67940Y546091D01*
X67813Y545859D01*
X67679Y545630D01*
X67540Y545405D01*
X67396Y545183D01*
X67246Y544964D01*
X67091Y544749D01*
X66930Y544539D01*
X66765Y544332D01*
X66594Y544129D01*
X66419Y543931D01*
X66238Y543736D01*
X66053Y543547D01*
X65864Y543362D01*
X65669Y543181D01*
X65471Y543006D01*
X65268Y542835D01*
X65061Y542670D01*
X64851Y542509D01*
X64636Y542354D01*
X64417Y542204D01*
X64195Y542060D01*
X63970Y541921D01*
X63741Y541787D01*
X63509Y541660D01*
X63274Y541538D01*
X63035Y541421D01*
X62795Y541311D01*
X62551Y541207D01*
X62305Y541108D01*
X62057Y541016D01*
X61806Y540930D01*
X61554Y540850D01*
X61299Y540776D01*
X61043Y540709D01*
X60785Y540647D01*
X60526Y540592D01*
X60266Y540544D01*
X60004Y540502D01*
X59741Y540466D01*
X59478Y540437D01*
X59214Y540414D01*
X58950Y540398D01*
X58685Y540388D01*
X58420Y540385D01*
X58155Y540388D01*
X57890Y540398D01*
X57626Y540414D01*
X57362Y540437D01*
X57099Y540466D01*
X56836Y540502D01*
X56574Y540544D01*
X56314Y540592D01*
X56055Y540647D01*
X55797Y540709D01*
X55541Y540776D01*
X55286Y540850D01*
X55034Y540930D01*
X54783Y541016D01*
X54535Y541108D01*
X54289Y541207D01*
X54045Y541311D01*
X53805Y541421D01*
X53566Y541538D01*
X53331Y541660D01*
X53099Y541787D01*
X52870Y541921D01*
X52645Y542060D01*
X52423Y542204D01*
X52204Y542354D01*
X51989Y542509D01*
X51779Y542670D01*
X51572Y542835D01*
X51369Y543006D01*
X51171Y543181D01*
X50976Y543362D01*
X50787Y543547D01*
X50602Y543736D01*
X50421Y543931D01*
X50246Y544129D01*
X50075Y544332D01*
X49910Y544539D01*
X49749Y544749D01*
X49594Y544964D01*
X49444Y545183D01*
X49300Y545405D01*
X49161Y545630D01*
X49027Y545859D01*
X48900Y546091D01*
X48778Y546326D01*
X48661Y546565D01*
X48551Y546805D01*
X48447Y547049D01*
X48348Y547295D01*
X48256Y547543D01*
X48170Y547794D01*
X48090Y548046D01*
X48016Y548301D01*
X47949Y548557D01*
X47887Y548815D01*
X47832Y549074D01*
X47784Y549334D01*
X47742Y549596D01*
X47706Y549859D01*
X47677Y550122D01*
X47654Y550386D01*
X47638Y550650D01*
X47628Y550915D01*
X47625Y551180D01*
X1056005Y7566D02*
X1056008Y7831D01*
X1056018Y8096D01*
X1056034Y8360D01*
X1056057Y8624D01*
X1056086Y8887D01*
X1056122Y9150D01*
X1056164Y9412D01*
X1056212Y9672D01*
X1056267Y9931D01*
X1056329Y10189D01*
X1056396Y10445D01*
X1056470Y10700D01*
X1056550Y10952D01*
X1056636Y11203D01*
X1056728Y11451D01*
X1056827Y11697D01*
X1056931Y11941D01*
X1057041Y12181D01*
X1057158Y12420D01*
X1057280Y12655D01*
X1057407Y12887D01*
X1057541Y13116D01*
X1057680Y13341D01*
X1057824Y13563D01*
X1057974Y13782D01*
X1058129Y13997D01*
X1058290Y14207D01*
X1058455Y14414D01*
X1058626Y14617D01*
X1058801Y14815D01*
X1058982Y15010D01*
X1059167Y15199D01*
X1059356Y15384D01*
X1059551Y15565D01*
X1059749Y15740D01*
X1059952Y15911D01*
X1060159Y16076D01*
X1060369Y16237D01*
X1060584Y16392D01*
X1060803Y16542D01*
X1061025Y16686D01*
X1061250Y16825D01*
X1061479Y16959D01*
X1061711Y17086D01*
X1061946Y17208D01*
X1062185Y17325D01*
X1062425Y17435D01*
X1062669Y17539D01*
X1062915Y17638D01*
X1063163Y17730D01*
X1063414Y17816D01*
X1063666Y17896D01*
X1063921Y17970D01*
X1064177Y18037D01*
X1064435Y18099D01*
X1064694Y18154D01*
X1064954Y18202D01*
X1065216Y18244D01*
X1065479Y18280D01*
X1065742Y18309D01*
X1066006Y18332D01*
X1066270Y18348D01*
X1066535Y18358D01*
X1066800Y18361D01*
X1067065Y18358D01*
X1067330Y18348D01*
X1067594Y18332D01*
X1067858Y18309D01*
X1068121Y18280D01*
X1068384Y18244D01*
X1068646Y18202D01*
X1068906Y18154D01*
X1069165Y18099D01*
X1069423Y18037D01*
X1069679Y17970D01*
X1069934Y17896D01*
X1070186Y17816D01*
X1070437Y17730D01*
X1070685Y17638D01*
X1070931Y17539D01*
X1071175Y17435D01*
X1071415Y17325D01*
X1071654Y17208D01*
X1071889Y17086D01*
X1072121Y16959D01*
X1072350Y16825D01*
X1072575Y16686D01*
X1072797Y16542D01*
X1073016Y16392D01*
X1073231Y16237D01*
X1073441Y16076D01*
X1073648Y15911D01*
X1073851Y15740D01*
X1074049Y15565D01*
X1074244Y15384D01*
X1074433Y15199D01*
X1074618Y15010D01*
X1074799Y14815D01*
X1074974Y14617D01*
X1075145Y14414D01*
X1075310Y14207D01*
X1075471Y13997D01*
X1075626Y13782D01*
X1075776Y13563D01*
X1075920Y13341D01*
X1076059Y13116D01*
X1076193Y12887D01*
X1076320Y12655D01*
X1076442Y12420D01*
X1076559Y12181D01*
X1076669Y11941D01*
X1076773Y11697D01*
X1076872Y11451D01*
X1076964Y11203D01*
X1077050Y10952D01*
X1077130Y10700D01*
X1077204Y10445D01*
X1077271Y10189D01*
X1077333Y9931D01*
X1077388Y9672D01*
X1077436Y9412D01*
X1077478Y9150D01*
X1077514Y8887D01*
X1077543Y8624D01*
X1077566Y8360D01*
X1077582Y8096D01*
X1077592Y7831D01*
X1077595Y7566D01*
X1077592Y7301D01*
X1077582Y7036D01*
X1077566Y6772D01*
X1077543Y6508D01*
X1077514Y6245D01*
X1077478Y5982D01*
X1077436Y5720D01*
X1077388Y5460D01*
X1077333Y5201D01*
X1077271Y4943D01*
X1077204Y4687D01*
X1077130Y4432D01*
X1077050Y4180D01*
X1076964Y3929D01*
X1076872Y3681D01*
X1076773Y3435D01*
X1076669Y3191D01*
X1076559Y2951D01*
X1076442Y2712D01*
X1076320Y2477D01*
X1076193Y2245D01*
X1076059Y2016D01*
X1075920Y1791D01*
X1075776Y1569D01*
X1075626Y1350D01*
X1075471Y1135D01*
X1075310Y925D01*
X1075145Y718D01*
X1074974Y515D01*
X1074799Y317D01*
X1074618Y122D01*
X1074433Y-67D01*
X1074244Y-252D01*
X1074049Y-433D01*
X1073851Y-608D01*
X1073648Y-779D01*
X1073441Y-944D01*
X1073231Y-1105D01*
X1073016Y-1260D01*
X1072797Y-1410D01*
X1072575Y-1554D01*
X1072350Y-1693D01*
X1072121Y-1827D01*
X1071889Y-1954D01*
X1071654Y-2076D01*
X1071415Y-2193D01*
X1071175Y-2303D01*
X1070931Y-2407D01*
X1070685Y-2506D01*
X1070437Y-2598D01*
X1070186Y-2684D01*
X1069934Y-2764D01*
X1069679Y-2838D01*
X1069423Y-2905D01*
X1069165Y-2967D01*
X1068906Y-3022D01*
X1068646Y-3070D01*
X1068384Y-3112D01*
X1068121Y-3148D01*
X1067858Y-3177D01*
X1067594Y-3200D01*
X1067330Y-3216D01*
X1067065Y-3226D01*
X1066800Y-3229D01*
X1066535Y-3226D01*
X1066270Y-3216D01*
X1066006Y-3200D01*
X1065742Y-3177D01*
X1065479Y-3148D01*
X1065216Y-3112D01*
X1064954Y-3070D01*
X1064694Y-3022D01*
X1064435Y-2967D01*
X1064177Y-2905D01*
X1063921Y-2838D01*
X1063666Y-2764D01*
X1063414Y-2684D01*
X1063163Y-2598D01*
X1062915Y-2506D01*
X1062669Y-2407D01*
X1062425Y-2303D01*
X1062185Y-2193D01*
X1061946Y-2076D01*
X1061711Y-1954D01*
X1061479Y-1827D01*
X1061250Y-1693D01*
X1061025Y-1554D01*
X1060803Y-1410D01*
X1060584Y-1260D01*
X1060369Y-1105D01*
X1060159Y-944D01*
X1059952Y-779D01*
X1059749Y-608D01*
X1059551Y-433D01*
X1059356Y-252D01*
X1059167Y-67D01*
X1058982Y122D01*
X1058801Y317D01*
X1058626Y515D01*
X1058455Y718D01*
X1058290Y925D01*
X1058129Y1135D01*
X1057974Y1350D01*
X1057824Y1569D01*
X1057680Y1791D01*
X1057541Y2016D01*
X1057407Y2245D01*
X1057280Y2477D01*
X1057158Y2712D01*
X1057041Y2951D01*
X1056931Y3191D01*
X1056827Y3435D01*
X1056728Y3681D01*
X1056636Y3929D01*
X1056550Y4180D01*
X1056470Y4432D01*
X1056396Y4687D01*
X1056329Y4943D01*
X1056267Y5201D01*
X1056212Y5460D01*
X1056164Y5720D01*
X1056122Y5982D01*
X1056086Y6245D01*
X1056057Y6508D01*
X1056034Y6772D01*
X1056018Y7036D01*
X1056008Y7301D01*
X1056005Y7566D01*
X1005205Y551180D02*
X1005208Y551445D01*
X1005218Y551710D01*
X1005234Y551974D01*
X1005257Y552238D01*
X1005286Y552501D01*
X1005322Y552764D01*
X1005364Y553026D01*
X1005412Y553286D01*
X1005467Y553545D01*
X1005529Y553803D01*
X1005596Y554059D01*
X1005670Y554314D01*
X1005750Y554566D01*
X1005836Y554817D01*
X1005928Y555065D01*
X1006027Y555311D01*
X1006131Y555555D01*
X1006241Y555795D01*
X1006358Y556034D01*
X1006480Y556269D01*
X1006607Y556501D01*
X1006741Y556730D01*
X1006880Y556955D01*
X1007024Y557177D01*
X1007174Y557396D01*
X1007329Y557611D01*
X1007490Y557821D01*
X1007655Y558028D01*
X1007826Y558231D01*
X1008001Y558429D01*
X1008182Y558624D01*
X1008367Y558813D01*
X1008556Y558998D01*
X1008751Y559179D01*
X1008949Y559354D01*
X1009152Y559525D01*
X1009359Y559690D01*
X1009569Y559851D01*
X1009784Y560006D01*
X1010003Y560156D01*
X1010225Y560300D01*
X1010450Y560439D01*
X1010679Y560573D01*
X1010911Y560700D01*
X1011146Y560822D01*
X1011385Y560939D01*
X1011625Y561049D01*
X1011869Y561153D01*
X1012115Y561252D01*
X1012363Y561344D01*
X1012614Y561430D01*
X1012866Y561510D01*
X1013121Y561584D01*
X1013377Y561651D01*
X1013635Y561713D01*
X1013894Y561768D01*
X1014154Y561816D01*
X1014416Y561858D01*
X1014679Y561894D01*
X1014942Y561923D01*
X1015206Y561946D01*
X1015470Y561962D01*
X1015735Y561972D01*
X1016000Y561975D01*
X1016265Y561972D01*
X1016530Y561962D01*
X1016794Y561946D01*
X1017058Y561923D01*
X1017321Y561894D01*
X1017584Y561858D01*
X1017846Y561816D01*
X1018106Y561768D01*
X1018365Y561713D01*
X1018623Y561651D01*
X1018879Y561584D01*
X1019134Y561510D01*
X1019386Y561430D01*
X1019637Y561344D01*
X1019885Y561252D01*
X1020131Y561153D01*
X1020375Y561049D01*
X1020615Y560939D01*
X1020854Y560822D01*
X1021089Y560700D01*
X1021321Y560573D01*
X1021550Y560439D01*
X1021775Y560300D01*
X1021997Y560156D01*
X1022216Y560006D01*
X1022431Y559851D01*
X1022641Y559690D01*
X1022848Y559525D01*
X1023051Y559354D01*
X1023249Y559179D01*
X1023444Y558998D01*
X1023633Y558813D01*
X1023818Y558624D01*
X1023999Y558429D01*
X1024174Y558231D01*
X1024345Y558028D01*
X1024510Y557821D01*
X1024671Y557611D01*
X1024826Y557396D01*
X1024976Y557177D01*
X1025120Y556955D01*
X1025259Y556730D01*
X1025393Y556501D01*
X1025520Y556269D01*
X1025642Y556034D01*
X1025759Y555795D01*
X1025869Y555555D01*
X1025973Y555311D01*
X1026072Y555065D01*
X1026164Y554817D01*
X1026250Y554566D01*
X1026330Y554314D01*
X1026404Y554059D01*
X1026471Y553803D01*
X1026533Y553545D01*
X1026588Y553286D01*
X1026636Y553026D01*
X1026678Y552764D01*
X1026714Y552501D01*
X1026743Y552238D01*
X1026766Y551974D01*
X1026782Y551710D01*
X1026792Y551445D01*
X1026795Y551180D01*
X1026792Y550915D01*
X1026782Y550650D01*
X1026766Y550386D01*
X1026743Y550122D01*
X1026714Y549859D01*
X1026678Y549596D01*
X1026636Y549334D01*
X1026588Y549074D01*
X1026533Y548815D01*
X1026471Y548557D01*
X1026404Y548301D01*
X1026330Y548046D01*
X1026250Y547794D01*
X1026164Y547543D01*
X1026072Y547295D01*
X1025973Y547049D01*
X1025869Y546805D01*
X1025759Y546565D01*
X1025642Y546326D01*
X1025520Y546091D01*
X1025393Y545859D01*
X1025259Y545630D01*
X1025120Y545405D01*
X1024976Y545183D01*
X1024826Y544964D01*
X1024671Y544749D01*
X1024510Y544539D01*
X1024345Y544332D01*
X1024174Y544129D01*
X1023999Y543931D01*
X1023818Y543736D01*
X1023633Y543547D01*
X1023444Y543362D01*
X1023249Y543181D01*
X1023051Y543006D01*
X1022848Y542835D01*
X1022641Y542670D01*
X1022431Y542509D01*
X1022216Y542354D01*
X1021997Y542204D01*
X1021775Y542060D01*
X1021550Y541921D01*
X1021321Y541787D01*
X1021089Y541660D01*
X1020854Y541538D01*
X1020615Y541421D01*
X1020375Y541311D01*
X1020131Y541207D01*
X1019885Y541108D01*
X1019637Y541016D01*
X1019386Y540930D01*
X1019134Y540850D01*
X1018879Y540776D01*
X1018623Y540709D01*
X1018365Y540647D01*
X1018106Y540592D01*
X1017846Y540544D01*
X1017584Y540502D01*
X1017321Y540466D01*
X1017058Y540437D01*
X1016794Y540414D01*
X1016530Y540398D01*
X1016265Y540388D01*
X1016000Y540385D01*
X1015735Y540388D01*
X1015470Y540398D01*
X1015206Y540414D01*
X1014942Y540437D01*
X1014679Y540466D01*
X1014416Y540502D01*
X1014154Y540544D01*
X1013894Y540592D01*
X1013635Y540647D01*
X1013377Y540709D01*
X1013121Y540776D01*
X1012866Y540850D01*
X1012614Y540930D01*
X1012363Y541016D01*
X1012115Y541108D01*
X1011869Y541207D01*
X1011625Y541311D01*
X1011385Y541421D01*
X1011146Y541538D01*
X1010911Y541660D01*
X1010679Y541787D01*
X1010450Y541921D01*
X1010225Y542060D01*
X1010003Y542204D01*
X1009784Y542354D01*
X1009569Y542509D01*
X1009359Y542670D01*
X1009152Y542835D01*
X1008949Y543006D01*
X1008751Y543181D01*
X1008556Y543362D01*
X1008367Y543547D01*
X1008182Y543736D01*
X1008001Y543931D01*
X1007826Y544129D01*
X1007655Y544332D01*
X1007490Y544539D01*
X1007329Y544749D01*
X1007174Y544964D01*
X1007024Y545183D01*
X1006880Y545405D01*
X1006741Y545630D01*
X1006607Y545859D01*
X1006480Y546091D01*
X1006358Y546326D01*
X1006241Y546565D01*
X1006131Y546805D01*
X1006027Y547049D01*
X1005928Y547295D01*
X1005836Y547543D01*
X1005750Y547794D01*
X1005670Y548046D01*
X1005596Y548301D01*
X1005529Y548557D01*
X1005467Y548815D01*
X1005412Y549074D01*
X1005364Y549334D01*
X1005322Y549596D01*
X1005286Y549859D01*
X1005257Y550122D01*
X1005234Y550386D01*
X1005218Y550650D01*
X1005208Y550915D01*
X1005205Y551180D01*
X815889Y113587D02*
X815891Y113783D01*
X815899Y113980D01*
X815911Y114176D01*
X815928Y114371D01*
X815949Y114566D01*
X815976Y114761D01*
X816007Y114955D01*
X816043Y115148D01*
X816083Y115340D01*
X816129Y115531D01*
X816179Y115721D01*
X816233Y115909D01*
X816293Y116096D01*
X816357Y116282D01*
X816425Y116466D01*
X816498Y116648D01*
X816575Y116829D01*
X816657Y117007D01*
X816743Y117184D01*
X816834Y117358D01*
X816928Y117530D01*
X817027Y117700D01*
X817130Y117867D01*
X817237Y118032D01*
X817348Y118193D01*
X817463Y118353D01*
X817582Y118509D01*
X817705Y118662D01*
X817831Y118812D01*
X817961Y118959D01*
X818095Y119103D01*
X818232Y119244D01*
X818373Y119381D01*
X818517Y119515D01*
X818664Y119645D01*
X818814Y119771D01*
X818967Y119894D01*
X819123Y120013D01*
X819283Y120128D01*
X819444Y120239D01*
X819609Y120346D01*
X819776Y120449D01*
X819946Y120548D01*
X820118Y120642D01*
X820292Y120733D01*
X820469Y120819D01*
X820647Y120901D01*
X820828Y120978D01*
X821010Y121051D01*
X821194Y121119D01*
X821380Y121183D01*
X821567Y121243D01*
X821755Y121297D01*
X821945Y121347D01*
X822136Y121393D01*
X822328Y121433D01*
X822521Y121469D01*
X822715Y121500D01*
X822910Y121527D01*
X823105Y121548D01*
X823300Y121565D01*
X823496Y121577D01*
X823693Y121585D01*
X823889Y121587D01*
X824085Y121585D01*
X824282Y121577D01*
X824478Y121565D01*
X824673Y121548D01*
X824868Y121527D01*
X825063Y121500D01*
X825257Y121469D01*
X825450Y121433D01*
X825642Y121393D01*
X825833Y121347D01*
X826023Y121297D01*
X826211Y121243D01*
X826398Y121183D01*
X826584Y121119D01*
X826768Y121051D01*
X826950Y120978D01*
X827131Y120901D01*
X827309Y120819D01*
X827486Y120733D01*
X827660Y120642D01*
X827832Y120548D01*
X828002Y120449D01*
X828169Y120346D01*
X828334Y120239D01*
X828495Y120128D01*
X828655Y120013D01*
X828811Y119894D01*
X828964Y119771D01*
X829114Y119645D01*
X829261Y119515D01*
X829405Y119381D01*
X829546Y119244D01*
X829683Y119103D01*
X829817Y118959D01*
X829947Y118812D01*
X830073Y118662D01*
X830196Y118509D01*
X830315Y118353D01*
X830430Y118193D01*
X830541Y118032D01*
X830648Y117867D01*
X830751Y117700D01*
X830850Y117530D01*
X830944Y117358D01*
X831035Y117184D01*
X831121Y117007D01*
X831203Y116829D01*
X831280Y116648D01*
X831353Y116466D01*
X831421Y116282D01*
X831485Y116096D01*
X831545Y115909D01*
X831599Y115721D01*
X831649Y115531D01*
X831695Y115340D01*
X831735Y115148D01*
X831771Y114955D01*
X831802Y114761D01*
X831829Y114566D01*
X831850Y114371D01*
X831867Y114176D01*
X831879Y113980D01*
X831887Y113783D01*
X831889Y113587D01*
X831887Y113391D01*
X831879Y113194D01*
X831867Y112998D01*
X831850Y112803D01*
X831829Y112608D01*
X831802Y112413D01*
X831771Y112219D01*
X831735Y112026D01*
X831695Y111834D01*
X831649Y111643D01*
X831599Y111453D01*
X831545Y111265D01*
X831485Y111078D01*
X831421Y110892D01*
X831353Y110708D01*
X831280Y110526D01*
X831203Y110345D01*
X831121Y110167D01*
X831035Y109990D01*
X830944Y109816D01*
X830850Y109644D01*
X830751Y109474D01*
X830648Y109307D01*
X830541Y109142D01*
X830430Y108981D01*
X830315Y108821D01*
X830196Y108665D01*
X830073Y108512D01*
X829947Y108362D01*
X829817Y108215D01*
X829683Y108071D01*
X829546Y107930D01*
X829405Y107793D01*
X829261Y107659D01*
X829114Y107529D01*
X828964Y107403D01*
X828811Y107280D01*
X828655Y107161D01*
X828495Y107046D01*
X828334Y106935D01*
X828169Y106828D01*
X828002Y106725D01*
X827832Y106626D01*
X827660Y106532D01*
X827486Y106441D01*
X827309Y106355D01*
X827131Y106273D01*
X826950Y106196D01*
X826768Y106123D01*
X826584Y106055D01*
X826398Y105991D01*
X826211Y105931D01*
X826023Y105877D01*
X825833Y105827D01*
X825642Y105781D01*
X825450Y105741D01*
X825257Y105705D01*
X825063Y105674D01*
X824868Y105647D01*
X824673Y105626D01*
X824478Y105609D01*
X824282Y105597D01*
X824085Y105589D01*
X823889Y105587D01*
X823693Y105589D01*
X823496Y105597D01*
X823300Y105609D01*
X823105Y105626D01*
X822910Y105647D01*
X822715Y105674D01*
X822521Y105705D01*
X822328Y105741D01*
X822136Y105781D01*
X821945Y105827D01*
X821755Y105877D01*
X821567Y105931D01*
X821380Y105991D01*
X821194Y106055D01*
X821010Y106123D01*
X820828Y106196D01*
X820647Y106273D01*
X820469Y106355D01*
X820292Y106441D01*
X820118Y106532D01*
X819946Y106626D01*
X819776Y106725D01*
X819609Y106828D01*
X819444Y106935D01*
X819283Y107046D01*
X819123Y107161D01*
X818967Y107280D01*
X818814Y107403D01*
X818664Y107529D01*
X818517Y107659D01*
X818373Y107793D01*
X818232Y107930D01*
X818095Y108071D01*
X817961Y108215D01*
X817831Y108362D01*
X817705Y108512D01*
X817582Y108665D01*
X817463Y108821D01*
X817348Y108981D01*
X817237Y109142D01*
X817130Y109307D01*
X817027Y109474D01*
X816928Y109644D01*
X816834Y109816D01*
X816743Y109990D01*
X816657Y110167D01*
X816575Y110345D01*
X816498Y110526D01*
X816425Y110708D01*
X816357Y110892D01*
X816293Y111078D01*
X816233Y111265D01*
X816179Y111453D01*
X816129Y111643D01*
X816083Y111834D01*
X816043Y112026D01*
X816007Y112219D01*
X815976Y112413D01*
X815949Y112608D01*
X815928Y112803D01*
X815911Y112998D01*
X815899Y113194D01*
X815891Y113391D01*
X815889Y113587D01*
X815889Y23587D02*
X815891Y23783D01*
X815899Y23980D01*
X815911Y24176D01*
X815928Y24371D01*
X815949Y24566D01*
X815976Y24761D01*
X816007Y24955D01*
X816043Y25148D01*
X816083Y25340D01*
X816129Y25531D01*
X816179Y25721D01*
X816233Y25909D01*
X816293Y26096D01*
X816357Y26282D01*
X816425Y26466D01*
X816498Y26648D01*
X816575Y26829D01*
X816657Y27007D01*
X816743Y27184D01*
X816834Y27358D01*
X816928Y27530D01*
X817027Y27700D01*
X817130Y27867D01*
X817237Y28032D01*
X817348Y28193D01*
X817463Y28353D01*
X817582Y28509D01*
X817705Y28662D01*
X817831Y28812D01*
X817961Y28959D01*
X818095Y29103D01*
X818232Y29244D01*
X818373Y29381D01*
X818517Y29515D01*
X818664Y29645D01*
X818814Y29771D01*
X818967Y29894D01*
X819123Y30013D01*
X819283Y30128D01*
X819444Y30239D01*
X819609Y30346D01*
X819776Y30449D01*
X819946Y30548D01*
X820118Y30642D01*
X820292Y30733D01*
X820469Y30819D01*
X820647Y30901D01*
X820828Y30978D01*
X821010Y31051D01*
X821194Y31119D01*
X821380Y31183D01*
X821567Y31243D01*
X821755Y31297D01*
X821945Y31347D01*
X822136Y31393D01*
X822328Y31433D01*
X822521Y31469D01*
X822715Y31500D01*
X822910Y31527D01*
X823105Y31548D01*
X823300Y31565D01*
X823496Y31577D01*
X823693Y31585D01*
X823889Y31587D01*
X824085Y31585D01*
X824282Y31577D01*
X824478Y31565D01*
X824673Y31548D01*
X824868Y31527D01*
X825063Y31500D01*
X825257Y31469D01*
X825450Y31433D01*
X825642Y31393D01*
X825833Y31347D01*
X826023Y31297D01*
X826211Y31243D01*
X826398Y31183D01*
X826584Y31119D01*
X826768Y31051D01*
X826950Y30978D01*
X827131Y30901D01*
X827309Y30819D01*
X827486Y30733D01*
X827660Y30642D01*
X827832Y30548D01*
X828002Y30449D01*
X828169Y30346D01*
X828334Y30239D01*
X828495Y30128D01*
X828655Y30013D01*
X828811Y29894D01*
X828964Y29771D01*
X829114Y29645D01*
X829261Y29515D01*
X829405Y29381D01*
X829546Y29244D01*
X829683Y29103D01*
X829817Y28959D01*
X829947Y28812D01*
X830073Y28662D01*
X830196Y28509D01*
X830315Y28353D01*
X830430Y28193D01*
X830541Y28032D01*
X830648Y27867D01*
X830751Y27700D01*
X830850Y27530D01*
X830944Y27358D01*
X831035Y27184D01*
X831121Y27007D01*
X831203Y26829D01*
X831280Y26648D01*
X831353Y26466D01*
X831421Y26282D01*
X831485Y26096D01*
X831545Y25909D01*
X831599Y25721D01*
X831649Y25531D01*
X831695Y25340D01*
X831735Y25148D01*
X831771Y24955D01*
X831802Y24761D01*
X831829Y24566D01*
X831850Y24371D01*
X831867Y24176D01*
X831879Y23980D01*
X831887Y23783D01*
X831889Y23587D01*
X831887Y23391D01*
X831879Y23194D01*
X831867Y22998D01*
X831850Y22803D01*
X831829Y22608D01*
X831802Y22413D01*
X831771Y22219D01*
X831735Y22026D01*
X831695Y21834D01*
X831649Y21643D01*
X831599Y21453D01*
X831545Y21265D01*
X831485Y21078D01*
X831421Y20892D01*
X831353Y20708D01*
X831280Y20526D01*
X831203Y20345D01*
X831121Y20167D01*
X831035Y19990D01*
X830944Y19816D01*
X830850Y19644D01*
X830751Y19474D01*
X830648Y19307D01*
X830541Y19142D01*
X830430Y18981D01*
X830315Y18821D01*
X830196Y18665D01*
X830073Y18512D01*
X829947Y18362D01*
X829817Y18215D01*
X829683Y18071D01*
X829546Y17930D01*
X829405Y17793D01*
X829261Y17659D01*
X829114Y17529D01*
X828964Y17403D01*
X828811Y17280D01*
X828655Y17161D01*
X828495Y17046D01*
X828334Y16935D01*
X828169Y16828D01*
X828002Y16725D01*
X827832Y16626D01*
X827660Y16532D01*
X827486Y16441D01*
X827309Y16355D01*
X827131Y16273D01*
X826950Y16196D01*
X826768Y16123D01*
X826584Y16055D01*
X826398Y15991D01*
X826211Y15931D01*
X826023Y15877D01*
X825833Y15827D01*
X825642Y15781D01*
X825450Y15741D01*
X825257Y15705D01*
X825063Y15674D01*
X824868Y15647D01*
X824673Y15626D01*
X824478Y15609D01*
X824282Y15597D01*
X824085Y15589D01*
X823889Y15587D01*
X823693Y15589D01*
X823496Y15597D01*
X823300Y15609D01*
X823105Y15626D01*
X822910Y15647D01*
X822715Y15674D01*
X822521Y15705D01*
X822328Y15741D01*
X822136Y15781D01*
X821945Y15827D01*
X821755Y15877D01*
X821567Y15931D01*
X821380Y15991D01*
X821194Y16055D01*
X821010Y16123D01*
X820828Y16196D01*
X820647Y16273D01*
X820469Y16355D01*
X820292Y16441D01*
X820118Y16532D01*
X819946Y16626D01*
X819776Y16725D01*
X819609Y16828D01*
X819444Y16935D01*
X819283Y17046D01*
X819123Y17161D01*
X818967Y17280D01*
X818814Y17403D01*
X818664Y17529D01*
X818517Y17659D01*
X818373Y17793D01*
X818232Y17930D01*
X818095Y18071D01*
X817961Y18215D01*
X817831Y18362D01*
X817705Y18512D01*
X817582Y18665D01*
X817463Y18821D01*
X817348Y18981D01*
X817237Y19142D01*
X817130Y19307D01*
X817027Y19474D01*
X816928Y19644D01*
X816834Y19816D01*
X816743Y19990D01*
X816657Y20167D01*
X816575Y20345D01*
X816498Y20526D01*
X816425Y20708D01*
X816357Y20892D01*
X816293Y21078D01*
X816233Y21265D01*
X816179Y21453D01*
X816129Y21643D01*
X816083Y21834D01*
X816043Y22026D01*
X816007Y22219D01*
X815976Y22413D01*
X815949Y22608D01*
X815928Y22803D01*
X815911Y22998D01*
X815899Y23194D01*
X815891Y23391D01*
X815889Y23587D01*
X967460Y113587D02*
X967462Y113783D01*
X967470Y113980D01*
X967482Y114176D01*
X967499Y114371D01*
X967520Y114566D01*
X967547Y114761D01*
X967578Y114955D01*
X967614Y115148D01*
X967654Y115340D01*
X967700Y115531D01*
X967750Y115721D01*
X967804Y115909D01*
X967864Y116096D01*
X967928Y116282D01*
X967996Y116466D01*
X968069Y116648D01*
X968146Y116829D01*
X968228Y117007D01*
X968314Y117184D01*
X968405Y117358D01*
X968499Y117530D01*
X968598Y117700D01*
X968701Y117867D01*
X968808Y118032D01*
X968919Y118193D01*
X969034Y118353D01*
X969153Y118509D01*
X969276Y118662D01*
X969402Y118812D01*
X969532Y118959D01*
X969666Y119103D01*
X969803Y119244D01*
X969944Y119381D01*
X970088Y119515D01*
X970235Y119645D01*
X970385Y119771D01*
X970538Y119894D01*
X970694Y120013D01*
X970854Y120128D01*
X971015Y120239D01*
X971180Y120346D01*
X971347Y120449D01*
X971517Y120548D01*
X971689Y120642D01*
X971863Y120733D01*
X972040Y120819D01*
X972218Y120901D01*
X972399Y120978D01*
X972581Y121051D01*
X972765Y121119D01*
X972951Y121183D01*
X973138Y121243D01*
X973326Y121297D01*
X973516Y121347D01*
X973707Y121393D01*
X973899Y121433D01*
X974092Y121469D01*
X974286Y121500D01*
X974481Y121527D01*
X974676Y121548D01*
X974871Y121565D01*
X975067Y121577D01*
X975264Y121585D01*
X975460Y121587D01*
X975656Y121585D01*
X975853Y121577D01*
X976049Y121565D01*
X976244Y121548D01*
X976439Y121527D01*
X976634Y121500D01*
X976828Y121469D01*
X977021Y121433D01*
X977213Y121393D01*
X977404Y121347D01*
X977594Y121297D01*
X977782Y121243D01*
X977969Y121183D01*
X978155Y121119D01*
X978339Y121051D01*
X978521Y120978D01*
X978702Y120901D01*
X978880Y120819D01*
X979057Y120733D01*
X979231Y120642D01*
X979403Y120548D01*
X979573Y120449D01*
X979740Y120346D01*
X979905Y120239D01*
X980066Y120128D01*
X980226Y120013D01*
X980382Y119894D01*
X980535Y119771D01*
X980685Y119645D01*
X980832Y119515D01*
X980976Y119381D01*
X981117Y119244D01*
X981254Y119103D01*
X981388Y118959D01*
X981518Y118812D01*
X981644Y118662D01*
X981767Y118509D01*
X981886Y118353D01*
X982001Y118193D01*
X982112Y118032D01*
X982219Y117867D01*
X982322Y117700D01*
X982421Y117530D01*
X982515Y117358D01*
X982606Y117184D01*
X982692Y117007D01*
X982774Y116829D01*
X982851Y116648D01*
X982924Y116466D01*
X982992Y116282D01*
X983056Y116096D01*
X983116Y115909D01*
X983170Y115721D01*
X983220Y115531D01*
X983266Y115340D01*
X983306Y115148D01*
X983342Y114955D01*
X983373Y114761D01*
X983400Y114566D01*
X983421Y114371D01*
X983438Y114176D01*
X983450Y113980D01*
X983458Y113783D01*
X983460Y113587D01*
X983458Y113391D01*
X983450Y113194D01*
X983438Y112998D01*
X983421Y112803D01*
X983400Y112608D01*
X983373Y112413D01*
X983342Y112219D01*
X983306Y112026D01*
X983266Y111834D01*
X983220Y111643D01*
X983170Y111453D01*
X983116Y111265D01*
X983056Y111078D01*
X982992Y110892D01*
X982924Y110708D01*
X982851Y110526D01*
X982774Y110345D01*
X982692Y110167D01*
X982606Y109990D01*
X982515Y109816D01*
X982421Y109644D01*
X982322Y109474D01*
X982219Y109307D01*
X982112Y109142D01*
X982001Y108981D01*
X981886Y108821D01*
X981767Y108665D01*
X981644Y108512D01*
X981518Y108362D01*
X981388Y108215D01*
X981254Y108071D01*
X981117Y107930D01*
X980976Y107793D01*
X980832Y107659D01*
X980685Y107529D01*
X980535Y107403D01*
X980382Y107280D01*
X980226Y107161D01*
X980066Y107046D01*
X979905Y106935D01*
X979740Y106828D01*
X979573Y106725D01*
X979403Y106626D01*
X979231Y106532D01*
X979057Y106441D01*
X978880Y106355D01*
X978702Y106273D01*
X978521Y106196D01*
X978339Y106123D01*
X978155Y106055D01*
X977969Y105991D01*
X977782Y105931D01*
X977594Y105877D01*
X977404Y105827D01*
X977213Y105781D01*
X977021Y105741D01*
X976828Y105705D01*
X976634Y105674D01*
X976439Y105647D01*
X976244Y105626D01*
X976049Y105609D01*
X975853Y105597D01*
X975656Y105589D01*
X975460Y105587D01*
X975264Y105589D01*
X975067Y105597D01*
X974871Y105609D01*
X974676Y105626D01*
X974481Y105647D01*
X974286Y105674D01*
X974092Y105705D01*
X973899Y105741D01*
X973707Y105781D01*
X973516Y105827D01*
X973326Y105877D01*
X973138Y105931D01*
X972951Y105991D01*
X972765Y106055D01*
X972581Y106123D01*
X972399Y106196D01*
X972218Y106273D01*
X972040Y106355D01*
X971863Y106441D01*
X971689Y106532D01*
X971517Y106626D01*
X971347Y106725D01*
X971180Y106828D01*
X971015Y106935D01*
X970854Y107046D01*
X970694Y107161D01*
X970538Y107280D01*
X970385Y107403D01*
X970235Y107529D01*
X970088Y107659D01*
X969944Y107793D01*
X969803Y107930D01*
X969666Y108071D01*
X969532Y108215D01*
X969402Y108362D01*
X969276Y108512D01*
X969153Y108665D01*
X969034Y108821D01*
X968919Y108981D01*
X968808Y109142D01*
X968701Y109307D01*
X968598Y109474D01*
X968499Y109644D01*
X968405Y109816D01*
X968314Y109990D01*
X968228Y110167D01*
X968146Y110345D01*
X968069Y110526D01*
X967996Y110708D01*
X967928Y110892D01*
X967864Y111078D01*
X967804Y111265D01*
X967750Y111453D01*
X967700Y111643D01*
X967654Y111834D01*
X967614Y112026D01*
X967578Y112219D01*
X967547Y112413D01*
X967520Y112608D01*
X967499Y112803D01*
X967482Y112998D01*
X967470Y113194D01*
X967462Y113391D01*
X967460Y113587D01*
X967460Y23587D02*
X967462Y23783D01*
X967470Y23980D01*
X967482Y24176D01*
X967499Y24371D01*
X967520Y24566D01*
X967547Y24761D01*
X967578Y24955D01*
X967614Y25148D01*
X967654Y25340D01*
X967700Y25531D01*
X967750Y25721D01*
X967804Y25909D01*
X967864Y26096D01*
X967928Y26282D01*
X967996Y26466D01*
X968069Y26648D01*
X968146Y26829D01*
X968228Y27007D01*
X968314Y27184D01*
X968405Y27358D01*
X968499Y27530D01*
X968598Y27700D01*
X968701Y27867D01*
X968808Y28032D01*
X968919Y28193D01*
X969034Y28353D01*
X969153Y28509D01*
X969276Y28662D01*
X969402Y28812D01*
X969532Y28959D01*
X969666Y29103D01*
X969803Y29244D01*
X969944Y29381D01*
X970088Y29515D01*
X970235Y29645D01*
X970385Y29771D01*
X970538Y29894D01*
X970694Y30013D01*
X970854Y30128D01*
X971015Y30239D01*
X971180Y30346D01*
X971347Y30449D01*
X971517Y30548D01*
X971689Y30642D01*
X971863Y30733D01*
X972040Y30819D01*
X972218Y30901D01*
X972399Y30978D01*
X972581Y31051D01*
X972765Y31119D01*
X972951Y31183D01*
X973138Y31243D01*
X973326Y31297D01*
X973516Y31347D01*
X973707Y31393D01*
X973899Y31433D01*
X974092Y31469D01*
X974286Y31500D01*
X974481Y31527D01*
X974676Y31548D01*
X974871Y31565D01*
X975067Y31577D01*
X975264Y31585D01*
X975460Y31587D01*
X975656Y31585D01*
X975853Y31577D01*
X976049Y31565D01*
X976244Y31548D01*
X976439Y31527D01*
X976634Y31500D01*
X976828Y31469D01*
X977021Y31433D01*
X977213Y31393D01*
X977404Y31347D01*
X977594Y31297D01*
X977782Y31243D01*
X977969Y31183D01*
X978155Y31119D01*
X978339Y31051D01*
X978521Y30978D01*
X978702Y30901D01*
X978880Y30819D01*
X979057Y30733D01*
X979231Y30642D01*
X979403Y30548D01*
X979573Y30449D01*
X979740Y30346D01*
X979905Y30239D01*
X980066Y30128D01*
X980226Y30013D01*
X980382Y29894D01*
X980535Y29771D01*
X980685Y29645D01*
X980832Y29515D01*
X980976Y29381D01*
X981117Y29244D01*
X981254Y29103D01*
X981388Y28959D01*
X981518Y28812D01*
X981644Y28662D01*
X981767Y28509D01*
X981886Y28353D01*
X982001Y28193D01*
X982112Y28032D01*
X982219Y27867D01*
X982322Y27700D01*
X982421Y27530D01*
X982515Y27358D01*
X982606Y27184D01*
X982692Y27007D01*
X982774Y26829D01*
X982851Y26648D01*
X982924Y26466D01*
X982992Y26282D01*
X983056Y26096D01*
X983116Y25909D01*
X983170Y25721D01*
X983220Y25531D01*
X983266Y25340D01*
X983306Y25148D01*
X983342Y24955D01*
X983373Y24761D01*
X983400Y24566D01*
X983421Y24371D01*
X983438Y24176D01*
X983450Y23980D01*
X983458Y23783D01*
X983460Y23587D01*
X983458Y23391D01*
X983450Y23194D01*
X983438Y22998D01*
X983421Y22803D01*
X983400Y22608D01*
X983373Y22413D01*
X983342Y22219D01*
X983306Y22026D01*
X983266Y21834D01*
X983220Y21643D01*
X983170Y21453D01*
X983116Y21265D01*
X983056Y21078D01*
X982992Y20892D01*
X982924Y20708D01*
X982851Y20526D01*
X982774Y20345D01*
X982692Y20167D01*
X982606Y19990D01*
X982515Y19816D01*
X982421Y19644D01*
X982322Y19474D01*
X982219Y19307D01*
X982112Y19142D01*
X982001Y18981D01*
X981886Y18821D01*
X981767Y18665D01*
X981644Y18512D01*
X981518Y18362D01*
X981388Y18215D01*
X981254Y18071D01*
X981117Y17930D01*
X980976Y17793D01*
X980832Y17659D01*
X980685Y17529D01*
X980535Y17403D01*
X980382Y17280D01*
X980226Y17161D01*
X980066Y17046D01*
X979905Y16935D01*
X979740Y16828D01*
X979573Y16725D01*
X979403Y16626D01*
X979231Y16532D01*
X979057Y16441D01*
X978880Y16355D01*
X978702Y16273D01*
X978521Y16196D01*
X978339Y16123D01*
X978155Y16055D01*
X977969Y15991D01*
X977782Y15931D01*
X977594Y15877D01*
X977404Y15827D01*
X977213Y15781D01*
X977021Y15741D01*
X976828Y15705D01*
X976634Y15674D01*
X976439Y15647D01*
X976244Y15626D01*
X976049Y15609D01*
X975853Y15597D01*
X975656Y15589D01*
X975460Y15587D01*
X975264Y15589D01*
X975067Y15597D01*
X974871Y15609D01*
X974676Y15626D01*
X974481Y15647D01*
X974286Y15674D01*
X974092Y15705D01*
X973899Y15741D01*
X973707Y15781D01*
X973516Y15827D01*
X973326Y15877D01*
X973138Y15931D01*
X972951Y15991D01*
X972765Y16055D01*
X972581Y16123D01*
X972399Y16196D01*
X972218Y16273D01*
X972040Y16355D01*
X971863Y16441D01*
X971689Y16532D01*
X971517Y16626D01*
X971347Y16725D01*
X971180Y16828D01*
X971015Y16935D01*
X970854Y17046D01*
X970694Y17161D01*
X970538Y17280D01*
X970385Y17403D01*
X970235Y17529D01*
X970088Y17659D01*
X969944Y17793D01*
X969803Y17930D01*
X969666Y18071D01*
X969532Y18215D01*
X969402Y18362D01*
X969276Y18512D01*
X969153Y18665D01*
X969034Y18821D01*
X968919Y18981D01*
X968808Y19142D01*
X968701Y19307D01*
X968598Y19474D01*
X968499Y19644D01*
X968405Y19816D01*
X968314Y19990D01*
X968228Y20167D01*
X968146Y20345D01*
X968069Y20526D01*
X967996Y20708D01*
X967928Y20892D01*
X967864Y21078D01*
X967804Y21265D01*
X967750Y21453D01*
X967700Y21643D01*
X967654Y21834D01*
X967614Y22026D01*
X967578Y22219D01*
X967547Y22413D01*
X967520Y22608D01*
X967499Y22803D01*
X967482Y22998D01*
X967470Y23194D01*
X967462Y23391D01*
X967460Y23587D01*
D12*
X7551Y165046D02*
X32951Y139646D01*
X32951Y9362D01*
X57607Y-15240D01*
X1092200Y-15240D01*
X1092200Y584200D01*
X55880Y584200D01*
X32766Y558800D01*
X32766Y518160D01*
X7551Y492706D01*
X7551Y165046D01*
X69215Y85882D02*
X69148Y85036D01*
X69016Y84198D01*
X68818Y83373D01*
X68556Y82566D01*
X68231Y81783D01*
X67846Y81027D01*
X67403Y80304D01*
X66904Y79617D01*
X66353Y78972D01*
X65753Y78373D01*
X65108Y77822D01*
X64422Y77323D01*
X63699Y76880D01*
X62943Y76495D01*
X62159Y76170D01*
X61352Y75908D01*
X60528Y75710D01*
X59690Y75577D01*
X58844Y75511D01*
X57996Y75511D01*
X57150Y75577D01*
X56312Y75710D01*
X55488Y75908D01*
X54681Y76170D01*
X53897Y76495D01*
X53141Y76880D01*
X52418Y77323D01*
X51732Y77822D01*
X51087Y78373D01*
X50487Y78972D01*
X49936Y79617D01*
X49437Y80304D01*
X48994Y81027D01*
X48609Y81783D01*
X48284Y82566D01*
X48022Y83373D01*
X47824Y84198D01*
X47692Y85036D01*
X47625Y85882D01*
X47625Y86730D01*
X47692Y87575D01*
X47824Y88413D01*
X48022Y89238D01*
X48284Y90045D01*
X48609Y90829D01*
X48994Y91584D01*
X49437Y92308D01*
X49936Y92994D01*
X50487Y93639D01*
X51087Y94239D01*
X51732Y94790D01*
X52418Y95288D01*
X53141Y95732D01*
X53897Y96117D01*
X54681Y96441D01*
X55488Y96703D01*
X56312Y96901D01*
X57150Y97034D01*
X57996Y97101D01*
X58844Y97101D01*
X59690Y97034D01*
X60528Y96901D01*
X61352Y96703D01*
X62159Y96441D01*
X62943Y96117D01*
X63699Y95732D01*
X64422Y95288D01*
X65108Y94790D01*
X65753Y94239D01*
X66353Y93639D01*
X66904Y92994D01*
X67403Y92308D01*
X67846Y91584D01*
X68231Y90829D01*
X68556Y90045D01*
X68818Y89238D01*
X69016Y88413D01*
X69148Y87575D01*
X69215Y86730D01*
X69215Y85882D01*
X513646Y35082D02*
X513579Y34236D01*
X513446Y33398D01*
X513248Y32573D01*
X512986Y31766D01*
X512662Y30983D01*
X512277Y30227D01*
X511833Y29504D01*
X511335Y28817D01*
X510784Y28172D01*
X510184Y27573D01*
X509539Y27022D01*
X508853Y26523D01*
X508129Y26080D01*
X507374Y25695D01*
X506590Y25370D01*
X505783Y25108D01*
X504958Y24910D01*
X504120Y24777D01*
X503275Y24711D01*
X502427Y24711D01*
X501581Y24777D01*
X500743Y24910D01*
X499918Y25108D01*
X499111Y25370D01*
X498328Y25695D01*
X497572Y26080D01*
X496849Y26523D01*
X496162Y27022D01*
X495517Y27573D01*
X494918Y28172D01*
X494367Y28817D01*
X493868Y29504D01*
X493425Y30227D01*
X493040Y30983D01*
X492715Y31766D01*
X492453Y32573D01*
X492255Y33398D01*
X492122Y34236D01*
X492056Y35082D01*
X492056Y35930D01*
X492122Y36775D01*
X492255Y37613D01*
X492453Y38438D01*
X492715Y39245D01*
X493040Y40029D01*
X493425Y40784D01*
X493868Y41508D01*
X494367Y42194D01*
X494918Y42839D01*
X495517Y43439D01*
X496162Y43990D01*
X496849Y44488D01*
X497572Y44932D01*
X498328Y45317D01*
X499111Y45641D01*
X499918Y45903D01*
X500743Y46101D01*
X501581Y46234D01*
X502427Y46301D01*
X503275Y46301D01*
X504120Y46234D01*
X504958Y46101D01*
X505783Y45903D01*
X506590Y45641D01*
X507374Y45317D01*
X508129Y44932D01*
X508853Y44488D01*
X509539Y43990D01*
X510184Y43439D01*
X510784Y42839D01*
X511335Y42194D01*
X511833Y41508D01*
X512277Y40784D01*
X512662Y40029D01*
X512986Y39245D01*
X513248Y38438D01*
X513446Y37613D01*
X513579Y36775D01*
X513646Y35930D01*
X513646Y35082D01*
X69215Y550756D02*
X69148Y549910D01*
X69016Y549072D01*
X68818Y548248D01*
X68556Y547441D01*
X68231Y546657D01*
X67846Y545901D01*
X67403Y545178D01*
X66904Y544492D01*
X66353Y543847D01*
X65753Y543247D01*
X65108Y542696D01*
X64422Y542197D01*
X63699Y541754D01*
X62943Y541369D01*
X62159Y541044D01*
X61352Y540782D01*
X60528Y540584D01*
X59690Y540452D01*
X58844Y540385D01*
X57996Y540385D01*
X57150Y540452D01*
X56312Y540584D01*
X55488Y540782D01*
X54681Y541044D01*
X53897Y541369D01*
X53141Y541754D01*
X52418Y542197D01*
X51732Y542696D01*
X51087Y543247D01*
X50487Y543847D01*
X49936Y544492D01*
X49437Y545178D01*
X48994Y545901D01*
X48609Y546657D01*
X48284Y547441D01*
X48022Y548248D01*
X47824Y549072D01*
X47692Y549910D01*
X47625Y550756D01*
X47625Y551604D01*
X47692Y552450D01*
X47824Y553288D01*
X48022Y554112D01*
X48284Y554919D01*
X48609Y555703D01*
X48994Y556459D01*
X49437Y557182D01*
X49936Y557868D01*
X50487Y558513D01*
X51087Y559113D01*
X51732Y559664D01*
X52418Y560163D01*
X53141Y560606D01*
X53897Y560991D01*
X54681Y561316D01*
X55488Y561578D01*
X56312Y561776D01*
X57150Y561908D01*
X57996Y561975D01*
X58844Y561975D01*
X59690Y561908D01*
X60528Y561776D01*
X61352Y561578D01*
X62159Y561316D01*
X62943Y560991D01*
X63699Y560606D01*
X64422Y560163D01*
X65108Y559664D01*
X65753Y559113D01*
X66353Y558513D01*
X66904Y557868D01*
X67403Y557182D01*
X67846Y556459D01*
X68231Y555703D01*
X68556Y554919D01*
X68818Y554112D01*
X69016Y553288D01*
X69148Y552450D01*
X69215Y551604D01*
X69215Y550756D01*
X1077595Y7142D02*
X1077528Y6296D01*
X1077396Y5458D01*
X1077198Y4633D01*
X1076936Y3826D01*
X1076611Y3043D01*
X1076226Y2287D01*
X1075783Y1564D01*
X1075284Y877D01*
X1074733Y232D01*
X1074133Y-367D01*
X1073488Y-918D01*
X1072802Y-1417D01*
X1072079Y-1860D01*
X1071323Y-2245D01*
X1070539Y-2570D01*
X1069732Y-2832D01*
X1068908Y-3030D01*
X1068070Y-3163D01*
X1067224Y-3229D01*
X1066376Y-3229D01*
X1065530Y-3163D01*
X1064692Y-3030D01*
X1063868Y-2832D01*
X1063061Y-2570D01*
X1062277Y-2245D01*
X1061521Y-1860D01*
X1060798Y-1417D01*
X1060112Y-918D01*
X1059467Y-367D01*
X1058867Y232D01*
X1058316Y877D01*
X1057817Y1564D01*
X1057374Y2287D01*
X1056989Y3043D01*
X1056664Y3826D01*
X1056402Y4633D01*
X1056204Y5458D01*
X1056072Y6296D01*
X1056005Y7142D01*
X1056005Y7990D01*
X1056072Y8835D01*
X1056204Y9673D01*
X1056402Y10498D01*
X1056664Y11305D01*
X1056989Y12089D01*
X1057374Y12844D01*
X1057817Y13568D01*
X1058316Y14254D01*
X1058867Y14899D01*
X1059467Y15499D01*
X1060112Y16050D01*
X1060798Y16548D01*
X1061521Y16992D01*
X1062277Y17377D01*
X1063061Y17701D01*
X1063868Y17963D01*
X1064692Y18161D01*
X1065530Y18294D01*
X1066376Y18361D01*
X1067224Y18361D01*
X1068070Y18294D01*
X1068908Y18161D01*
X1069732Y17963D01*
X1070539Y17701D01*
X1071323Y17377D01*
X1072079Y16992D01*
X1072802Y16548D01*
X1073488Y16050D01*
X1074133Y15499D01*
X1074733Y14899D01*
X1075284Y14254D01*
X1075783Y13568D01*
X1076226Y12844D01*
X1076611Y12089D01*
X1076936Y11305D01*
X1077198Y10498D01*
X1077396Y9673D01*
X1077528Y8835D01*
X1077595Y7990D01*
X1077595Y7142D01*
X1026795Y550756D02*
X1026728Y549910D01*
X1026596Y549072D01*
X1026398Y548248D01*
X1026136Y547441D01*
X1025811Y546657D01*
X1025426Y545901D01*
X1024983Y545178D01*
X1024484Y544492D01*
X1023933Y543847D01*
X1023333Y543247D01*
X1022688Y542696D01*
X1022002Y542197D01*
X1021279Y541754D01*
X1020523Y541369D01*
X1019739Y541044D01*
X1018932Y540782D01*
X1018108Y540584D01*
X1017270Y540452D01*
X1016424Y540385D01*
X1015576Y540385D01*
X1014730Y540452D01*
X1013892Y540584D01*
X1013068Y540782D01*
X1012261Y541044D01*
X1011477Y541369D01*
X1010721Y541754D01*
X1009998Y542197D01*
X1009312Y542696D01*
X1008667Y543247D01*
X1008067Y543847D01*
X1007516Y544492D01*
X1007017Y545178D01*
X1006574Y545901D01*
X1006189Y546657D01*
X1005864Y547441D01*
X1005602Y548248D01*
X1005404Y549072D01*
X1005272Y549910D01*
X1005205Y550756D01*
X1005205Y551604D01*
X1005272Y552450D01*
X1005404Y553288D01*
X1005602Y554112D01*
X1005864Y554919D01*
X1006189Y555703D01*
X1006574Y556459D01*
X1007017Y557182D01*
X1007516Y557868D01*
X1008067Y558513D01*
X1008667Y559113D01*
X1009312Y559664D01*
X1009998Y560163D01*
X1010721Y560606D01*
X1011477Y560991D01*
X1012261Y561316D01*
X1013068Y561578D01*
X1013892Y561776D01*
X1014730Y561908D01*
X1015576Y561975D01*
X1016424Y561975D01*
X1017270Y561908D01*
X1018108Y561776D01*
X1018932Y561578D01*
X1019739Y561316D01*
X1020523Y560991D01*
X1021279Y560606D01*
X1022002Y560163D01*
X1022688Y559664D01*
X1023333Y559113D01*
X1023933Y558513D01*
X1024484Y557868D01*
X1024983Y557182D01*
X1025426Y556459D01*
X1025811Y555703D01*
X1026136Y554919D01*
X1026398Y554112D01*
X1026596Y553288D01*
X1026728Y552450D01*
X1026795Y551604D01*
X1026795Y550756D01*
X831889Y113194D02*
X831812Y112412D01*
X831659Y111641D01*
X831431Y110889D01*
X831130Y110163D01*
X830759Y109469D01*
X830323Y108816D01*
X829824Y108208D01*
X829268Y107652D01*
X828660Y107154D01*
X828007Y106717D01*
X827314Y106347D01*
X826587Y106046D01*
X825835Y105818D01*
X825064Y105664D01*
X824282Y105587D01*
X823496Y105587D01*
X822714Y105664D01*
X821943Y105818D01*
X821191Y106046D01*
X820465Y106347D01*
X819771Y106717D01*
X819118Y107154D01*
X818510Y107652D01*
X817954Y108208D01*
X817456Y108816D01*
X817019Y109469D01*
X816648Y110163D01*
X816348Y110889D01*
X816120Y111641D01*
X815966Y112412D01*
X815889Y113194D01*
X815889Y113980D01*
X815966Y114762D01*
X816120Y115533D01*
X816348Y116286D01*
X816648Y117012D01*
X817019Y117705D01*
X817456Y118358D01*
X817954Y118966D01*
X818510Y119522D01*
X819118Y120021D01*
X819771Y120457D01*
X820465Y120828D01*
X821191Y121129D01*
X821943Y121357D01*
X822714Y121510D01*
X823496Y121587D01*
X824282Y121587D01*
X825064Y121510D01*
X825835Y121357D01*
X826587Y121129D01*
X827314Y120828D01*
X828007Y120457D01*
X828660Y120021D01*
X829268Y119522D01*
X829824Y118966D01*
X830323Y118358D01*
X830759Y117705D01*
X831130Y117012D01*
X831431Y116286D01*
X831659Y115533D01*
X831812Y114762D01*
X831889Y113980D01*
X831889Y113194D01*
X831889Y23194D02*
X831812Y22412D01*
X831659Y21641D01*
X831431Y20889D01*
X831130Y20163D01*
X830759Y19469D01*
X830323Y18816D01*
X829824Y18208D01*
X829268Y17652D01*
X828660Y17154D01*
X828007Y16717D01*
X827314Y16347D01*
X826587Y16046D01*
X825835Y15818D01*
X825064Y15664D01*
X824282Y15587D01*
X823496Y15587D01*
X822714Y15664D01*
X821943Y15818D01*
X821191Y16046D01*
X820465Y16347D01*
X819771Y16717D01*
X819118Y17154D01*
X818510Y17652D01*
X817954Y18208D01*
X817456Y18816D01*
X817019Y19469D01*
X816648Y20163D01*
X816348Y20889D01*
X816120Y21641D01*
X815966Y22412D01*
X815889Y23194D01*
X815889Y23980D01*
X815966Y24762D01*
X816120Y25533D01*
X816348Y26286D01*
X816648Y27012D01*
X817019Y27705D01*
X817456Y28358D01*
X817954Y28966D01*
X818510Y29522D01*
X819118Y30021D01*
X819771Y30457D01*
X820465Y30828D01*
X821191Y31129D01*
X821943Y31357D01*
X822714Y31510D01*
X823496Y31587D01*
X824282Y31587D01*
X825064Y31510D01*
X825835Y31357D01*
X826587Y31129D01*
X827314Y30828D01*
X828007Y30457D01*
X828660Y30021D01*
X829268Y29522D01*
X829824Y28966D01*
X830323Y28358D01*
X830759Y27705D01*
X831130Y27012D01*
X831431Y26286D01*
X831659Y25533D01*
X831812Y24762D01*
X831889Y23980D01*
X831889Y23194D01*
X983460Y113194D02*
X983383Y112412D01*
X983229Y111641D01*
X983001Y110889D01*
X982700Y110163D01*
X982330Y109469D01*
X981893Y108816D01*
X981394Y108208D01*
X980839Y107652D01*
X980231Y107154D01*
X979577Y106717D01*
X978884Y106346D01*
X978158Y106046D01*
X977406Y105818D01*
X976635Y105664D01*
X975853Y105587D01*
X975067Y105587D01*
X974284Y105664D01*
X973513Y105818D01*
X972761Y106046D01*
X972035Y106346D01*
X971342Y106717D01*
X970688Y107154D01*
X970081Y107652D01*
X969525Y108208D01*
X969026Y108816D01*
X968589Y109469D01*
X968219Y110163D01*
X967918Y110889D01*
X967690Y111641D01*
X967537Y112412D01*
X967460Y113194D01*
X967460Y113980D01*
X967537Y114762D01*
X967690Y115533D01*
X967918Y116285D01*
X968219Y117012D01*
X968589Y117705D01*
X969026Y118358D01*
X969525Y118966D01*
X970081Y119522D01*
X970688Y120021D01*
X971342Y120457D01*
X972035Y120828D01*
X972761Y121129D01*
X973513Y121357D01*
X974284Y121510D01*
X975067Y121587D01*
X975853Y121587D01*
X976635Y121510D01*
X977406Y121357D01*
X978158Y121129D01*
X978884Y120828D01*
X979577Y120457D01*
X980231Y120021D01*
X980839Y119522D01*
X981394Y118966D01*
X981893Y118358D01*
X982330Y117705D01*
X982700Y117012D01*
X983001Y116285D01*
X983229Y115533D01*
X983383Y114762D01*
X983460Y113980D01*
X983460Y113194D01*
X983460Y23194D02*
X983383Y22412D01*
X983229Y21641D01*
X983001Y20889D01*
X982700Y20163D01*
X982330Y19469D01*
X981893Y18816D01*
X981394Y18208D01*
X980839Y17652D01*
X980231Y17154D01*
X979577Y16717D01*
X978884Y16346D01*
X978158Y16046D01*
X977406Y15818D01*
X976635Y15664D01*
X975853Y15587D01*
X975067Y15587D01*
X974284Y15664D01*
X973513Y15818D01*
X972761Y16046D01*
X972035Y16346D01*
X971342Y16717D01*
X970688Y17154D01*
X970081Y17652D01*
X969525Y18208D01*
X969026Y18816D01*
X968589Y19469D01*
X968219Y20163D01*
X967918Y20889D01*
X967690Y21641D01*
X967537Y22412D01*
X967460Y23194D01*
X967460Y23980D01*
X967537Y24762D01*
X967690Y25533D01*
X967918Y26285D01*
X968219Y27012D01*
X968589Y27705D01*
X969026Y28358D01*
X969525Y28966D01*
X970081Y29522D01*
X970688Y30021D01*
X971342Y30457D01*
X972035Y30828D01*
X972761Y31129D01*
X973513Y31357D01*
X974284Y31510D01*
X975067Y31587D01*
X975853Y31587D01*
X976635Y31510D01*
X977406Y31357D01*
X978158Y31129D01*
X978884Y30828D01*
X979577Y30457D01*
X980231Y30021D01*
X980839Y29522D01*
X981394Y28966D01*
X981893Y28358D01*
X982330Y27705D01*
X982700Y27012D01*
X983001Y26285D01*
X983229Y25533D01*
X983383Y24762D01*
X983460Y23980D01*
X983460Y23194D01*
M02*
